<?xml version="1.0" encoding="UTF-8" standalone="no"?>
<!DOCTYPE svg PUBLIC "-//W3C//DTD SVG 1.1//EN"
 "http://www.w3.org/Graphics/SVG/1.1/DTD/svg11.dtd">
<!-- Generated by graphviz version 2.40.1 (20161225.0304)
 -->
<!-- Title: %3 Pages: 1 -->
<svg width="353pt" height="476pt"
 viewBox="0.00 0.00 352.93 476.00" xmlns="http://www.w3.org/2000/svg" xmlns:xlink="http://www.w3.org/1999/xlink">
<g id="graph0" class="graph" transform="scale(1 1) rotate(0) translate(4 472)">
<title>%3</title>
<polygon fill="#ffffff" stroke="transparent" points="-4,4 -4,-472 348.9325,-472 348.9325,4 -4,4"/>
<!-- inputnode (utility) -->
<g id="node1" class="node">
<title>inputnode (utility)</title>
<ellipse fill="none" stroke="#000000" cx="250.0409" cy="-450" rx="94.7833" ry="18"/>
<text text-anchor="middle" x="250.0409" y="-446.3" font-family="Times,serif" font-size="14.00" fill="#000000">inputnode (utility)</text>
</g>
<!-- split (utility) -->
<g id="node2" class="node">
<title>split (utility)</title>
<ellipse fill="none" stroke="#000000" cx="202.0409" cy="-378" rx="68.7879" ry="18"/>
<text text-anchor="middle" x="202.0409" y="-374.3" font-family="Times,serif" font-size="14.00" fill="#000000">split (utility)</text>
</g>
<!-- inputnode (utility)&#45;&gt;split (utility) -->
<g id="edge1" class="edge">
<title>inputnode (utility)&#45;&gt;split (utility)</title>
<path fill="none" stroke="#000000" d="M237.9285,-431.8314C232.3723,-423.497 225.6787,-413.4567 219.5851,-404.3162"/>
<polygon fill="#000000" stroke="#000000" points="222.4424,-402.2925 213.9832,-395.9134 216.6181,-406.1754 222.4424,-402.2925"/>
</g>
<!-- prelude (fsl) -->
<g id="node3" class="node">
<title>prelude (fsl)</title>
<ellipse fill="none" stroke="#000000" cx="272.0409" cy="-162" rx="67.6881" ry="18"/>
<text text-anchor="middle" x="272.0409" y="-158.3" font-family="Times,serif" font-size="14.00" fill="#000000">prelude (fsl)</text>
</g>
<!-- inputnode (utility)&#45;&gt;prelude (fsl) -->
<g id="edge2" class="edge">
<title>inputnode (utility)&#45;&gt;prelude (fsl)</title>
<path fill="none" stroke="#000000" d="M263.0832,-432.0027C269.5623,-421.9451 276.7051,-408.8733 280.0409,-396 298.7862,-323.6599 286.4826,-234.5423 278.0573,-190.0509"/>
<polygon fill="#000000" stroke="#000000" points="281.4419,-189.1233 276.0719,-179.9902 274.5743,-190.4786 281.4419,-189.1233"/>
</g>
<!-- phmap2rads (fmap) -->
<g id="node4" class="node">
<title>phmap2rads (fmap)</title>
<ellipse fill="none" stroke="#000000" cx="102.0409" cy="-306" rx="102.0819" ry="18"/>
<text text-anchor="middle" x="102.0409" y="-302.3" font-family="Times,serif" font-size="14.00" fill="#000000">phmap2rads (fmap)</text>
</g>
<!-- split (utility)&#45;&gt;phmap2rads (fmap) -->
<g id="edge3" class="edge">
<title>split (utility)&#45;&gt;phmap2rads (fmap)</title>
<path fill="none" stroke="#000000" d="M178.3423,-360.937C165.4283,-351.6389 149.242,-339.9847 135.1042,-329.8055"/>
<polygon fill="#000000" stroke="#000000" points="136.7742,-326.6951 126.6138,-323.6924 132.684,-332.3759 136.7742,-326.6951"/>
</g>
<!-- calc_phdiff (fmap) -->
<g id="node5" class="node">
<title>calc_phdiff (fmap)</title>
<ellipse fill="none" stroke="#000000" cx="176.0409" cy="-234" rx="94.7833" ry="18"/>
<text text-anchor="middle" x="176.0409" y="-230.3" font-family="Times,serif" font-size="14.00" fill="#000000">calc_phdiff (fmap)</text>
</g>
<!-- split (utility)&#45;&gt;calc_phdiff (fmap) -->
<g id="edge4" class="edge">
<title>split (utility)&#45;&gt;calc_phdiff (fmap)</title>
<path fill="none" stroke="#000000" d="M208.5588,-360.0182C214.2552,-341.5646 220.5391,-312.2088 213.0409,-288 209.9965,-278.1704 204.4768,-268.5387 198.6138,-260.1946"/>
<polygon fill="#000000" stroke="#000000" points="201.2723,-257.9061 192.4691,-252.011 195.6746,-262.1092 201.2723,-257.9061"/>
</g>
<!-- compfmap (fmap) -->
<g id="node6" class="node">
<title>compfmap (fmap)</title>
<ellipse fill="none" stroke="#000000" cx="224.0409" cy="-90" rx="92.8835" ry="18"/>
<text text-anchor="middle" x="224.0409" y="-86.3" font-family="Times,serif" font-size="14.00" fill="#000000">compfmap (fmap)</text>
</g>
<!-- prelude (fsl)&#45;&gt;compfmap (fmap) -->
<g id="edge5" class="edge">
<title>prelude (fsl)&#45;&gt;compfmap (fmap)</title>
<path fill="none" stroke="#000000" d="M260.1758,-144.2022C254.6216,-135.871 247.8908,-125.7748 241.751,-116.565"/>
<polygon fill="#000000" stroke="#000000" points="244.5623,-114.4722 236.103,-108.0931 238.7379,-118.3551 244.5623,-114.4722"/>
</g>
<!-- phmap2rads (fmap)&#45;&gt;calc_phdiff (fmap) -->
<g id="edge6" class="edge">
<title>phmap2rads (fmap)&#45;&gt;calc_phdiff (fmap)</title>
<path fill="none" stroke="#000000" d="M120.3331,-288.2022C129.4053,-279.3752 140.5139,-268.5669 150.4177,-258.9307"/>
<polygon fill="#000000" stroke="#000000" points="152.9762,-261.3247 157.7028,-251.8425 148.0947,-256.3076 152.9762,-261.3247"/>
</g>
<!-- calc_phdiff (fmap)&#45;&gt;prelude (fsl) -->
<g id="edge7" class="edge">
<title>calc_phdiff (fmap)&#45;&gt;prelude (fsl)</title>
<path fill="none" stroke="#000000" d="M199.7713,-216.2022C212.2781,-206.8221 227.7681,-195.2047 241.1957,-185.134"/>
<polygon fill="#000000" stroke="#000000" points="243.3446,-187.8973 249.2446,-179.0972 239.1446,-182.2973 243.3446,-187.8973"/>
</g>
<!-- calc_phdiff (fmap)&#45;&gt;compfmap (fmap) -->
<g id="edge8" class="edge">
<title>calc_phdiff (fmap)&#45;&gt;compfmap (fmap)</title>
<path fill="none" stroke="#000000" d="M178.3018,-215.9931C180.9748,-197.5194 186.214,-168.148 195.0409,-144 198.4215,-134.7519 203.1469,-125.1343 207.8034,-116.6226"/>
<polygon fill="#000000" stroke="#000000" points="210.8676,-118.3145 212.7623,-107.8904 204.7806,-114.8578 210.8676,-118.3145"/>
</g>
<!-- outputnode (utility) -->
<g id="node7" class="node">
<title>outputnode (utility)</title>
<ellipse fill="none" stroke="#000000" cx="224.0409" cy="-18" rx="101.2821" ry="18"/>
<text text-anchor="middle" x="224.0409" y="-14.3" font-family="Times,serif" font-size="14.00" fill="#000000">outputnode (utility)</text>
</g>
<!-- compfmap (fmap)&#45;&gt;outputnode (utility) -->
<g id="edge9" class="edge">
<title>compfmap (fmap)&#45;&gt;outputnode (utility)</title>
<path fill="none" stroke="#000000" d="M224.0409,-71.8314C224.0409,-64.131 224.0409,-54.9743 224.0409,-46.4166"/>
<polygon fill="#000000" stroke="#000000" points="227.541,-46.4132 224.0409,-36.4133 220.541,-46.4133 227.541,-46.4132"/>
</g>
</g>
</svg>
