<?xml version="1.0" encoding="UTF-8" standalone="no"?>
<!DOCTYPE svg PUBLIC "-//W3C//DTD SVG 1.1//EN"
 "http://www.w3.org/Graphics/SVG/1.1/DTD/svg11.dtd">
<!-- Generated by graphviz version 2.40.1 (20161225.0304)
 -->
<!-- Title: structs Pages: 1 -->
<svg width="1203pt" height="760pt"
 viewBox="0.00 0.00 1203.31 760.00" xmlns="http://www.w3.org/2000/svg" xmlns:xlink="http://www.w3.org/1999/xlink">
<g id="graph0" class="graph" transform="scale(1 1) rotate(0) translate(4 756)">
<title>structs</title>
<polygon fill="#ffffff" stroke="transparent" points="-4,4 -4,-756 1199.3147,-756 1199.3147,4 -4,4"/>
<!-- phdiff_wfinputnode -->
<g id="node1" class="node">
<title>phdiff_wfinputnode</title>
<polygon fill="none" stroke="#000000" points="333.3147,-659.5 333.3147,-751.5 550.3147,-751.5 550.3147,-659.5 333.3147,-659.5"/>
<text text-anchor="middle" x="350.8147" y="-701.8" font-family="Times,serif" font-size="14.00" fill="#000000">IN</text>
<polyline fill="none" stroke="#000000" points="368.3147,-659.5 368.3147,-751.5 "/>
<text text-anchor="middle" x="412.8147" y="-732.8" font-family="Times,serif" font-size="14.00" fill="#000000">inputnode</text>
<polyline fill="none" stroke="#000000" points="368.3147,-721.5 457.3147,-721.5 "/>
<text text-anchor="middle" x="412.8147" y="-702.3" font-family="Times,serif" font-size="14.00" fill="#000000">utility</text>
<polyline fill="none" stroke="#000000" points="368.3147,-690.5 457.3147,-690.5 "/>
<text text-anchor="middle" x="412.8147" y="-671.3" font-family="Times,serif" font-size="14.00" fill="#000000"> </text>
<polyline fill="none" stroke="#000000" points="457.3147,-659.5 457.3147,-751.5 "/>
<text text-anchor="middle" x="503.8147" y="-736.3" font-family="Times,serif" font-size="14.00" fill="#000000">OUT</text>
<polyline fill="none" stroke="#000000" points="457.3147,-728.5 550.3147,-728.5 "/>
<text text-anchor="middle" x="503.8147" y="-713.3" font-family="Times,serif" font-size="14.00" fill="#000000">magnitude</text>
<polyline fill="none" stroke="#000000" points="457.3147,-705.5 550.3147,-705.5 "/>
<text text-anchor="middle" x="503.8147" y="-690.3" font-family="Times,serif" font-size="14.00" fill="#000000">mask</text>
<polyline fill="none" stroke="#000000" points="457.3147,-682.5 550.3147,-682.5 "/>
<text text-anchor="middle" x="503.8147" y="-667.3" font-family="Times,serif" font-size="14.00" fill="#000000">phase</text>
</g>
<!-- phdiff_wfsplit -->
<g id="node2" class="node">
<title>phdiff_wfsplit</title>
<polygon fill="none" stroke="#000000" points="83.3147,-553.5 83.3147,-622.5 278.3147,-622.5 278.3147,-553.5 83.3147,-553.5"/>
<text text-anchor="middle" x="112.8147" y="-601.8" font-family="Times,serif" font-size="14.00" fill="#000000">IN</text>
<polyline fill="none" stroke="#000000" points="83.3147,-588.5 142.3147,-588.5 "/>
<text text-anchor="middle" x="112.8147" y="-567.3" font-family="Times,serif" font-size="14.00" fill="#000000">phase</text>
<polyline fill="none" stroke="#000000" points="142.3147,-553.5 142.3147,-622.5 "/>
<text text-anchor="middle" x="171.8147" y="-607.3" font-family="Times,serif" font-size="14.00" fill="#000000">split</text>
<polyline fill="none" stroke="#000000" points="142.3147,-599.5 201.3147,-599.5 "/>
<text text-anchor="middle" x="171.8147" y="-584.3" font-family="Times,serif" font-size="14.00" fill="#000000">utility</text>
<polyline fill="none" stroke="#000000" points="142.3147,-576.5 201.3147,-576.5 "/>
<text text-anchor="middle" x="171.8147" y="-561.3" font-family="Times,serif" font-size="14.00" fill="#000000"> </text>
<polyline fill="none" stroke="#000000" points="201.3147,-553.5 201.3147,-622.5 "/>
<text text-anchor="middle" x="239.8147" y="-607.3" font-family="Times,serif" font-size="14.00" fill="#000000">OUT</text>
<polyline fill="none" stroke="#000000" points="201.3147,-599.5 278.3147,-599.5 "/>
<text text-anchor="middle" x="239.8147" y="-584.3" font-family="Times,serif" font-size="14.00" fill="#000000">map_file</text>
<polyline fill="none" stroke="#000000" points="201.3147,-576.5 278.3147,-576.5 "/>
<text text-anchor="middle" x="239.8147" y="-561.3" font-family="Times,serif" font-size="14.00" fill="#000000">meta</text>
</g>
<!-- phdiff_wfinputnode&#45;&gt;phdiff_wfsplit -->
<g id="edge6" class="edge">
<title>phdiff_wfinputnode:e&#45;&gt;phdiff_wfsplit:w</title>
<path fill="none" stroke="#000000" d="M550.8147,-670.5C555.9258,-670.5 554.2874,-662.7501 550.8147,-659 479.9432,-582.4675 153.6862,-699.5325 82.8147,-623 69.9335,-609.0899 62.6337,-583.0096 73.1836,-574.0861"/>
<polygon fill="#000000" stroke="#000000" points="74.3597,-577.3846 82.8147,-571 72.2236,-570.7185 74.3597,-577.3846"/>
</g>
<!-- phdiff_wfprelude -->
<g id="node5" class="node">
<title>phdiff_wfprelude</title>
<polygon fill="none" stroke="#000000" points="550.8147,-212.5 550.8147,-304.5 920.8147,-304.5 920.8147,-212.5 550.8147,-212.5"/>
<text text-anchor="middle" x="612.3147" y="-289.3" font-family="Times,serif" font-size="14.00" fill="#000000">IN</text>
<polyline fill="none" stroke="#000000" points="550.8147,-281.5 673.8147,-281.5 "/>
<text text-anchor="middle" x="612.3147" y="-266.3" font-family="Times,serif" font-size="14.00" fill="#000000">magnitude_file</text>
<polyline fill="none" stroke="#000000" points="550.8147,-258.5 673.8147,-258.5 "/>
<text text-anchor="middle" x="612.3147" y="-243.3" font-family="Times,serif" font-size="14.00" fill="#000000">mask_file</text>
<polyline fill="none" stroke="#000000" points="550.8147,-235.5 673.8147,-235.5 "/>
<text text-anchor="middle" x="612.3147" y="-220.3" font-family="Times,serif" font-size="14.00" fill="#000000">phase_file</text>
<polyline fill="none" stroke="#000000" points="673.8147,-212.5 673.8147,-304.5 "/>
<text text-anchor="middle" x="709.3147" y="-285.8" font-family="Times,serif" font-size="14.00" fill="#000000">prelude</text>
<polyline fill="none" stroke="#000000" points="673.8147,-274.5 744.8147,-274.5 "/>
<text text-anchor="middle" x="709.3147" y="-255.3" font-family="Times,serif" font-size="14.00" fill="#000000">fsl</text>
<polyline fill="none" stroke="#000000" points="673.8147,-243.5 744.8147,-243.5 "/>
<text text-anchor="middle" x="709.3147" y="-224.3" font-family="Times,serif" font-size="14.00" fill="#000000"> </text>
<polyline fill="none" stroke="#000000" points="744.8147,-212.5 744.8147,-304.5 "/>
<text text-anchor="middle" x="832.8147" y="-277.8" font-family="Times,serif" font-size="14.00" fill="#000000">OUT</text>
<polyline fill="none" stroke="#000000" points="744.8147,-258.5 920.8147,-258.5 "/>
<text text-anchor="middle" x="832.8147" y="-231.8" font-family="Times,serif" font-size="14.00" fill="#000000">unwrapped_phase_file</text>
</g>
<!-- phdiff_wfinputnode&#45;&gt;phdiff_wfprelude -->
<g id="edge4" class="edge">
<title>phdiff_wfinputnode:e&#45;&gt;phdiff_wfprelude:w</title>
<path fill="none" stroke="#000000" d="M550.8147,-717.5C562.14,-717.5 542.4755,-345.6213 548.3534,-280.2519"/>
<polygon fill="#000000" stroke="#000000" points="551.7611,-281.0525 550.8147,-270.5 544.9739,-279.3394 551.7611,-281.0525"/>
</g>
<!-- phdiff_wfinputnode&#45;&gt;phdiff_wfprelude -->
<g id="edge5" class="edge">
<title>phdiff_wfinputnode:e&#45;&gt;phdiff_wfprelude:w</title>
<path fill="none" stroke="#000000" d="M550.8147,-693.5C602.944,-693.5 579.6844,-451.6868 561.8147,-341 559.1482,-324.4836 553.2863,-321.5467 550.8147,-305 550.117,-300.3292 547.0018,-271.5639 547.8435,-256.1821"/>
<polygon fill="#000000" stroke="#000000" points="551.2269,-257.0868 550.8147,-246.5 544.5349,-255.0331 551.2269,-257.0868"/>
</g>
<!-- phdiff_wfphmap2rads -->
<g id="node3" class="node">
<title>phdiff_wfphmap2rads</title>
<polygon fill="none" stroke="#000000" points="14.8147,-447.5 14.8147,-516.5 250.8147,-516.5 250.8147,-447.5 14.8147,-447.5"/>
<text text-anchor="middle" x="44.8147" y="-495.8" font-family="Times,serif" font-size="14.00" fill="#000000">IN</text>
<polyline fill="none" stroke="#000000" points="14.8147,-482.5 74.8147,-482.5 "/>
<text text-anchor="middle" x="44.8147" y="-461.3" font-family="Times,serif" font-size="14.00" fill="#000000">in_file</text>
<polyline fill="none" stroke="#000000" points="74.8147,-447.5 74.8147,-516.5 "/>
<text text-anchor="middle" x="127.8147" y="-501.3" font-family="Times,serif" font-size="14.00" fill="#000000">phmap2rads</text>
<polyline fill="none" stroke="#000000" points="74.8147,-493.5 180.8147,-493.5 "/>
<text text-anchor="middle" x="127.8147" y="-478.3" font-family="Times,serif" font-size="14.00" fill="#000000">fmap</text>
<polyline fill="none" stroke="#000000" points="74.8147,-470.5 180.8147,-470.5 "/>
<text text-anchor="middle" x="127.8147" y="-455.3" font-family="Times,serif" font-size="14.00" fill="#000000"> </text>
<polyline fill="none" stroke="#000000" points="180.8147,-447.5 180.8147,-516.5 "/>
<text text-anchor="middle" x="215.8147" y="-495.8" font-family="Times,serif" font-size="14.00" fill="#000000">OUT</text>
<polyline fill="none" stroke="#000000" points="180.8147,-482.5 250.8147,-482.5 "/>
<text text-anchor="middle" x="215.8147" y="-461.3" font-family="Times,serif" font-size="14.00" fill="#000000">out_file</text>
</g>
<!-- phdiff_wfsplit&#45;&gt;phdiff_wfphmap2rads -->
<g id="edge9" class="edge">
<title>phdiff_wfsplit:e&#45;&gt;phdiff_wfphmap2rads:w</title>
<path fill="none" stroke="#000000" d="M278.8147,-588C294.3702,-588 289.0441,-564.719 278.8147,-553 200.9417,-463.7873 92.6877,-606.2127 14.8147,-517 2.3476,-502.7175 -5.2174,-476.8758 5.2237,-468.05"/>
<polygon fill="#000000" stroke="#000000" points="6.3457,-471.366 14.8147,-465 4.2242,-464.6952 6.3457,-471.366"/>
</g>
<!-- phdiff_wfcalc_phdiff -->
<g id="node4" class="node">
<title>phdiff_wfcalc_phdiff</title>
<polygon fill="none" stroke="#000000" points="250.8147,-341.5 250.8147,-410.5 522.8147,-410.5 522.8147,-341.5 250.8147,-341.5"/>
<text text-anchor="middle" x="294.3147" y="-395.3" font-family="Times,serif" font-size="14.00" fill="#000000">IN</text>
<polyline fill="none" stroke="#000000" points="250.8147,-387.5 337.8147,-387.5 "/>
<text text-anchor="middle" x="294.3147" y="-372.3" font-family="Times,serif" font-size="14.00" fill="#000000">in_meta</text>
<polyline fill="none" stroke="#000000" points="250.8147,-364.5 337.8147,-364.5 "/>
<text text-anchor="middle" x="294.3147" y="-349.3" font-family="Times,serif" font-size="14.00" fill="#000000">in_phases</text>
<polyline fill="none" stroke="#000000" points="337.8147,-341.5 337.8147,-410.5 "/>
<text text-anchor="middle" x="385.3147" y="-395.3" font-family="Times,serif" font-size="14.00" fill="#000000">calc_phdiff</text>
<polyline fill="none" stroke="#000000" points="337.8147,-387.5 432.8147,-387.5 "/>
<text text-anchor="middle" x="385.3147" y="-372.3" font-family="Times,serif" font-size="14.00" fill="#000000">fmap</text>
<polyline fill="none" stroke="#000000" points="337.8147,-364.5 432.8147,-364.5 "/>
<text text-anchor="middle" x="385.3147" y="-349.3" font-family="Times,serif" font-size="14.00" fill="#000000"> </text>
<polyline fill="none" stroke="#000000" points="432.8147,-341.5 432.8147,-410.5 "/>
<text text-anchor="middle" x="477.8147" y="-395.3" font-family="Times,serif" font-size="14.00" fill="#000000">OUT</text>
<polyline fill="none" stroke="#000000" points="432.8147,-387.5 522.8147,-387.5 "/>
<text text-anchor="middle" x="477.8147" y="-372.3" font-family="Times,serif" font-size="14.00" fill="#000000">metadata</text>
<polyline fill="none" stroke="#000000" points="432.8147,-364.5 522.8147,-364.5 "/>
<text text-anchor="middle" x="477.8147" y="-349.3" font-family="Times,serif" font-size="14.00" fill="#000000">phase_diff</text>
</g>
<!-- phdiff_wfsplit&#45;&gt;phdiff_wfcalc_phdiff -->
<g id="edge10" class="edge">
<title>phdiff_wfsplit:e&#45;&gt;phdiff_wfcalc_phdiff:w</title>
<path fill="none" stroke="#000000" d="M278.8147,-565C348.3812,-565 259.3146,-480.0453 250.8147,-411 249.6268,-401.3506 243.8474,-390.0911 243.4776,-383.0034"/>
<polygon fill="#000000" stroke="#000000" points="245.9977,-385.4365 250.8147,-376 241.1644,-380.3729 245.9977,-385.4365"/>
</g>
<!-- phdiff_wfphmap2rads&#45;&gt;phdiff_wfcalc_phdiff -->
<g id="edge7" class="edge">
<title>phdiff_wfphmap2rads:e&#45;&gt;phdiff_wfcalc_phdiff:w</title>
<path fill="none" stroke="#000000" d="M250.8147,-465C250.8147,-465 250.8147,-391.0625 250.8147,-363.3359"/>
<polygon fill="#000000" stroke="#000000" points="254.3148,-363 250.8147,-353 247.3148,-363 254.3148,-363"/>
</g>
<!-- phdiff_wfcalc_phdiff&#45;&gt;phdiff_wfprelude -->
<g id="edge2" class="edge">
<title>phdiff_wfcalc_phdiff:e&#45;&gt;phdiff_wfprelude:w</title>
<path fill="none" stroke="#000000" d="M522.8147,-353C545.0369,-353 531.8144,-326.6523 536.8147,-305 540.142,-290.592 535.2806,-246.5988 542.8298,-229.9636"/>
<polygon fill="#000000" stroke="#000000" points="545.2442,-232.5122 550.8147,-223.5 540.8399,-227.0714 545.2442,-232.5122"/>
</g>
<!-- phdiff_wfcompfmap -->
<g id="node6" class="node">
<title>phdiff_wfcompfmap</title>
<polygon fill="none" stroke="#000000" points="721.8147,-106.5 721.8147,-175.5 967.8147,-175.5 967.8147,-106.5 721.8147,-106.5"/>
<text text-anchor="middle" x="763.8147" y="-160.3" font-family="Times,serif" font-size="14.00" fill="#000000">IN</text>
<polyline fill="none" stroke="#000000" points="721.8147,-152.5 805.8147,-152.5 "/>
<text text-anchor="middle" x="763.8147" y="-137.3" font-family="Times,serif" font-size="14.00" fill="#000000">in_file</text>
<polyline fill="none" stroke="#000000" points="721.8147,-129.5 805.8147,-129.5 "/>
<text text-anchor="middle" x="763.8147" y="-114.3" font-family="Times,serif" font-size="14.00" fill="#000000">metadata</text>
<polyline fill="none" stroke="#000000" points="805.8147,-106.5 805.8147,-175.5 "/>
<text text-anchor="middle" x="851.8147" y="-160.3" font-family="Times,serif" font-size="14.00" fill="#000000">compfmap</text>
<polyline fill="none" stroke="#000000" points="805.8147,-152.5 897.8147,-152.5 "/>
<text text-anchor="middle" x="851.8147" y="-137.3" font-family="Times,serif" font-size="14.00" fill="#000000">fmap</text>
<polyline fill="none" stroke="#000000" points="805.8147,-129.5 897.8147,-129.5 "/>
<text text-anchor="middle" x="851.8147" y="-114.3" font-family="Times,serif" font-size="14.00" fill="#000000"> </text>
<polyline fill="none" stroke="#000000" points="897.8147,-106.5 897.8147,-175.5 "/>
<text text-anchor="middle" x="932.8147" y="-154.8" font-family="Times,serif" font-size="14.00" fill="#000000">OUT</text>
<polyline fill="none" stroke="#000000" points="897.8147,-141.5 967.8147,-141.5 "/>
<text text-anchor="middle" x="932.8147" y="-120.3" font-family="Times,serif" font-size="14.00" fill="#000000">out_file</text>
</g>
<!-- phdiff_wfcalc_phdiff&#45;&gt;phdiff_wfcompfmap -->
<g id="edge1" class="edge">
<title>phdiff_wfcalc_phdiff:e&#45;&gt;phdiff_wfcompfmap:w</title>
<path fill="none" stroke="#000000" d="M522.8147,-376C541.1588,-376 531.42,-227.1148 541.8147,-212 591.0081,-140.4685 628.604,-119.5751 711.7239,-118.0874"/>
<polygon fill="#000000" stroke="#000000" points="711.8454,-121.5866 721.8147,-118 711.7847,-114.5868 711.8454,-121.5866"/>
</g>
<!-- phdiff_wfprelude&#45;&gt;phdiff_wfcompfmap -->
<g id="edge8" class="edge">
<title>phdiff_wfprelude:e&#45;&gt;phdiff_wfcompfmap:w</title>
<path fill="none" stroke="#000000" d="M920.8147,-235.5C931.2591,-235.5 927.5105,-220.0158 920.8147,-212 863.1938,-143.0199 779.4356,-244.9801 721.8147,-176 714.8028,-167.6058 709.9609,-153.7125 713.1114,-146.2031"/>
<polygon fill="#000000" stroke="#000000" points="715.0275,-149.1354 721.8147,-141 711.4356,-143.1273 715.0275,-149.1354"/>
</g>
<!-- phdiff_wfoutputnode -->
<g id="node7" class="node">
<title>phdiff_wfoutputnode</title>
<polygon fill="none" stroke="#000000" points="968.3147,-.5 968.3147,-69.5 1195.3147,-69.5 1195.3147,-.5 968.3147,-.5"/>
<text text-anchor="middle" x="1007.8147" y="-48.8" font-family="Times,serif" font-size="14.00" fill="#000000">IN</text>
<polyline fill="none" stroke="#000000" points="968.3147,-35.5 1047.3147,-35.5 "/>
<text text-anchor="middle" x="1007.8147" y="-14.3" font-family="Times,serif" font-size="14.00" fill="#000000">fieldmap</text>
<polyline fill="none" stroke="#000000" points="1047.3147,-.5 1047.3147,-69.5 "/>
<text text-anchor="middle" x="1096.3147" y="-54.3" font-family="Times,serif" font-size="14.00" fill="#000000">outputnode</text>
<polyline fill="none" stroke="#000000" points="1047.3147,-46.5 1145.3147,-46.5 "/>
<text text-anchor="middle" x="1096.3147" y="-31.3" font-family="Times,serif" font-size="14.00" fill="#000000">utility</text>
<polyline fill="none" stroke="#000000" points="1047.3147,-23.5 1145.3147,-23.5 "/>
<text text-anchor="middle" x="1096.3147" y="-8.3" font-family="Times,serif" font-size="14.00" fill="#000000"> </text>
<polyline fill="none" stroke="#000000" points="1145.3147,-.5 1145.3147,-69.5 "/>
<text text-anchor="middle" x="1170.3147" y="-31.3" font-family="Times,serif" font-size="14.00" fill="#000000">OUT</text>
</g>
<!-- phdiff_wfcompfmap&#45;&gt;phdiff_wfoutputnode -->
<g id="edge3" class="edge">
<title>phdiff_wfcompfmap:e&#45;&gt;phdiff_wfoutputnode:w</title>
<path fill="none" stroke="#000000" d="M967.8147,-124C1010.5091,-124 937.1281,-36.9434 958.0583,-20.6202"/>
<polygon fill="#000000" stroke="#000000" points="959.0648,-23.9741 967.8147,-18 957.2491,-17.2136 959.0648,-23.9741"/>
</g>
</g>
</svg>
