<?xml version="1.0" encoding="UTF-8" standalone="no"?>
<!DOCTYPE svg PUBLIC "-//W3C//DTD SVG 1.1//EN"
 "http://www.w3.org/Graphics/SVG/1.1/DTD/svg11.dtd">
<!-- Generated by graphviz version 2.40.1 (20161225.0304)
 -->
<!-- Title: %3 Pages: 1 -->
<svg width="532pt" height="620pt"
 viewBox="0.00 0.00 531.94 620.00" xmlns="http://www.w3.org/2000/svg" xmlns:xlink="http://www.w3.org/1999/xlink">
<g id="graph0" class="graph" transform="scale(1 1) rotate(0) translate(4 616)">
<title>%3</title>
<polygon fill="#ffffff" stroke="transparent" points="-4,4 -4,-616 527.9386,-616 527.9386,4 -4,4"/>
<!-- inputnode (utility) -->
<g id="node1" class="node">
<title>inputnode (utility)</title>
<ellipse fill="none" stroke="#000000" cx="159.8414" cy="-594" rx="94.7833" ry="18"/>
<text text-anchor="middle" x="159.8414" y="-590.3" font-family="Times,serif" font-size="14.00" fill="#000000">inputnode (utility)</text>
</g>
<!-- flatten (utils) -->
<g id="node2" class="node">
<title>flatten (utils)</title>
<ellipse fill="none" stroke="#000000" cx="159.8414" cy="-522" rx="71.4873" ry="18"/>
<text text-anchor="middle" x="159.8414" y="-518.3" font-family="Times,serif" font-size="14.00" fill="#000000">flatten (utils)</text>
</g>
<!-- inputnode (utility)&#45;&gt;flatten (utils) -->
<g id="edge1" class="edge">
<title>inputnode (utility)&#45;&gt;flatten (utils)</title>
<path fill="none" stroke="#000000" d="M159.8414,-575.8314C159.8414,-568.131 159.8414,-558.9743 159.8414,-550.4166"/>
<polygon fill="#000000" stroke="#000000" points="163.3415,-550.4132 159.8414,-540.4133 156.3415,-550.4133 163.3415,-550.4132"/>
</g>
<!-- readout_time (epi) -->
<g id="node3" class="node">
<title>readout_time (epi)</title>
<ellipse fill="none" stroke="#000000" cx="96.8414" cy="-306" rx="96.6831" ry="18"/>
<text text-anchor="middle" x="96.8414" y="-302.3" font-family="Times,serif" font-size="14.00" fill="#000000">readout_time (epi)</text>
</g>
<!-- flatten (utils)&#45;&gt;readout_time (epi) -->
<g id="edge2" class="edge">
<title>flatten (utils)&#45;&gt;readout_time (epi)</title>
<path fill="none" stroke="#000000" d="M154.047,-504.0392C150.6989,-493.5523 146.4489,-480.0523 142.8414,-468 128.7707,-420.9907 113.3779,-365.9895 104.4445,-333.6812"/>
<polygon fill="#000000" stroke="#000000" points="107.8147,-332.7365 101.7808,-324.0277 101.0668,-334.5985 107.8147,-332.7365"/>
</g>
<!-- regrid (utils) -->
<g id="node4" class="node">
<title>regrid (utils)</title>
<ellipse fill="none" stroke="#000000" cx="221.8414" cy="-450" rx="69.5877" ry="18"/>
<text text-anchor="middle" x="221.8414" y="-446.3" font-family="Times,serif" font-size="14.00" fill="#000000">regrid (utils)</text>
</g>
<!-- flatten (utils)&#45;&gt;regrid (utils) -->
<g id="edge3" class="edge">
<title>flatten (utils)&#45;&gt;regrid (utils)</title>
<path fill="none" stroke="#000000" d="M175.1673,-504.2022C182.6753,-495.4832 191.848,-484.8311 200.0683,-475.2849"/>
<polygon fill="#000000" stroke="#000000" points="202.8188,-477.4546 206.6919,-467.593 197.5144,-472.8869 202.8188,-477.4546"/>
</g>
<!-- topup (fsl) -->
<g id="node5" class="node">
<title>topup (fsl)</title>
<ellipse fill="none" stroke="#000000" cx="400.8414" cy="-234" rx="58.4896" ry="18"/>
<text text-anchor="middle" x="400.8414" y="-230.3" font-family="Times,serif" font-size="14.00" fill="#000000">topup (fsl)</text>
</g>
<!-- readout_time (epi)&#45;&gt;topup (fsl) -->
<g id="edge4" class="edge">
<title>readout_time (epi)&#45;&gt;topup (fsl)</title>
<path fill="none" stroke="#000000" d="M159.5859,-292.2495C207.2192,-281.6639 274.2822,-266.4457 332.8414,-252 337.4174,-250.8712 342.1591,-249.6736 346.9126,-248.4537"/>
<polygon fill="#000000" stroke="#000000" points="347.8351,-251.8303 356.637,-245.9331 346.0787,-245.0542 347.8351,-251.8303"/>
</g>
<!-- fix_coeff (bspline) -->
<g id="node6" class="node">
<title>fix_coeff (bspline)</title>
<ellipse fill="none" stroke="#000000" cx="180.8414" cy="-162" rx="93.6835" ry="18"/>
<text text-anchor="middle" x="180.8414" y="-158.3" font-family="Times,serif" font-size="14.00" fill="#000000">fix_coeff (bspline)</text>
</g>
<!-- readout_time (epi)&#45;&gt;fix_coeff (bspline) -->
<g id="edge5" class="edge">
<title>readout_time (epi)&#45;&gt;fix_coeff (bspline)</title>
<path fill="none" stroke="#000000" d="M93.1077,-287.8025C90.1655,-268.6461 88.3796,-238.2406 100.8414,-216 108.2952,-202.6972 120.5585,-192.0285 133.2701,-183.8022"/>
<polygon fill="#000000" stroke="#000000" points="135.3254,-186.6503 142.0885,-178.4949 131.7157,-180.6527 135.3254,-186.6503"/>
</g>
<!-- concat_blips (nibabel) -->
<g id="node7" class="node">
<title>concat_blips (nibabel)</title>
<ellipse fill="none" stroke="#000000" cx="373.8414" cy="-378" rx="113.18" ry="18"/>
<text text-anchor="middle" x="373.8414" y="-374.3" font-family="Times,serif" font-size="14.00" fill="#000000">concat_blips (nibabel)</text>
</g>
<!-- regrid (utils)&#45;&gt;concat_blips (nibabel) -->
<g id="edge6" class="edge">
<title>regrid (utils)&#45;&gt;concat_blips (nibabel)</title>
<path fill="none" stroke="#000000" d="M255.1985,-434.1993C276.723,-424.0034 304.9949,-410.6115 328.5409,-399.4581"/>
<polygon fill="#000000" stroke="#000000" points="330.102,-402.5915 337.6411,-395.1475 327.1053,-396.2654 330.102,-402.5915"/>
</g>
<!-- pad_ref_slices (utils) -->
<g id="node8" class="node">
<title>pad_ref_slices (utils)</title>
<ellipse fill="none" stroke="#000000" cx="216.8414" cy="-234" rx="107.4815" ry="18"/>
<text text-anchor="middle" x="216.8414" y="-230.3" font-family="Times,serif" font-size="14.00" fill="#000000">pad_ref_slices (utils)</text>
</g>
<!-- regrid (utils)&#45;&gt;pad_ref_slices (utils) -->
<g id="edge7" class="edge">
<title>regrid (utils)&#45;&gt;pad_ref_slices (utils)</title>
<path fill="none" stroke="#000000" d="M221.4237,-431.9555C220.5542,-394.3938 218.544,-307.5541 217.4991,-262.4103"/>
<polygon fill="#000000" stroke="#000000" points="220.992,-262.0614 217.2614,-252.1451 213.9939,-262.2234 220.992,-262.0614"/>
</g>
<!-- topup (fsl)&#45;&gt;fix_coeff (bspline) -->
<g id="edge8" class="edge">
<title>topup (fsl)&#45;&gt;fix_coeff (bspline)</title>
<path fill="none" stroke="#000000" d="M360.7458,-220.8778C326.3554,-209.6227 276.3996,-193.2736 237.8513,-180.6578"/>
<polygon fill="#000000" stroke="#000000" points="238.9057,-177.3203 228.3131,-177.5362 236.7284,-183.973 238.9057,-177.3203"/>
</g>
<!-- outputnode (utility) -->
<g id="node10" class="node">
<title>outputnode (utility)</title>
<ellipse fill="none" stroke="#000000" cx="400.8414" cy="-18" rx="101.2821" ry="18"/>
<text text-anchor="middle" x="400.8414" y="-14.3" font-family="Times,serif" font-size="14.00" fill="#000000">outputnode (utility)</text>
</g>
<!-- topup (fsl)&#45;&gt;outputnode (utility) -->
<g id="edge9" class="edge">
<title>topup (fsl)&#45;&gt;outputnode (utility)</title>
<path fill="none" stroke="#000000" d="M450.5667,-224.4845C475.5903,-216.9115 503.747,-203.5075 518.8414,-180 530.9183,-161.1919 517.6926,-84.3309 508.8414,-72 497.9083,-56.7688 481.4325,-45.5891 464.6212,-37.489"/>
<polygon fill="#000000" stroke="#000000" points="465.8368,-34.1983 455.2802,-33.2996 462.9722,-40.5854 465.8368,-34.1983"/>
</g>
<!-- ref_average (images) -->
<g id="node11" class="node">
<title>ref_average (images)</title>
<ellipse fill="none" stroke="#000000" cx="400.8414" cy="-162" rx="108.5808" ry="18"/>
<text text-anchor="middle" x="400.8414" y="-158.3" font-family="Times,serif" font-size="14.00" fill="#000000">ref_average (images)</text>
</g>
<!-- topup (fsl)&#45;&gt;ref_average (images) -->
<g id="edge10" class="edge">
<title>topup (fsl)&#45;&gt;ref_average (images)</title>
<path fill="none" stroke="#000000" d="M400.8414,-215.8314C400.8414,-208.131 400.8414,-198.9743 400.8414,-190.4166"/>
<polygon fill="#000000" stroke="#000000" points="404.3415,-190.4132 400.8414,-180.4133 397.3415,-190.4133 404.3415,-190.4132"/>
</g>
<!-- fix_coeff (bspline)&#45;&gt;outputnode (utility) -->
<g id="edge11" class="edge">
<title>fix_coeff (bspline)&#45;&gt;outputnode (utility)</title>
<path fill="none" stroke="#000000" d="M200.4974,-144.0408C222.1264,-124.81 258.4063,-94.0855 292.8414,-72 311.8726,-59.7941 334.0371,-48.2883 353.3171,-39.0592"/>
<polygon fill="#000000" stroke="#000000" points="354.9713,-42.1488 362.5237,-34.7183 351.986,-35.8173 354.9713,-42.1488"/>
</g>
<!-- pad_blip_slices (utils) -->
<g id="node9" class="node">
<title>pad_blip_slices (utils)</title>
<ellipse fill="none" stroke="#000000" cx="394.8414" cy="-306" rx="111.5806" ry="18"/>
<text text-anchor="middle" x="394.8414" y="-302.3" font-family="Times,serif" font-size="14.00" fill="#000000">pad_blip_slices (utils)</text>
</g>
<!-- concat_blips (nibabel)&#45;&gt;pad_blip_slices (utils) -->
<g id="edge12" class="edge">
<title>concat_blips (nibabel)&#45;&gt;pad_blip_slices (utils)</title>
<path fill="none" stroke="#000000" d="M379.1406,-359.8314C381.4112,-352.0463 384.116,-342.7729 386.6354,-334.1347"/>
<polygon fill="#000000" stroke="#000000" points="390.0308,-334.9933 389.4709,-324.4133 383.3108,-333.0332 390.0308,-334.9933"/>
</g>
<!-- pad_ref_slices (utils)&#45;&gt;fix_coeff (bspline) -->
<g id="edge13" class="edge">
<title>pad_ref_slices (utils)&#45;&gt;fix_coeff (bspline)</title>
<path fill="none" stroke="#000000" d="M207.7571,-215.8314C203.78,-207.8771 199.0259,-198.369 194.6276,-189.5723"/>
<polygon fill="#000000" stroke="#000000" points="197.6507,-187.7923 190.048,-180.4133 191.3897,-190.9228 197.6507,-187.7923"/>
</g>
<!-- pad_blip_slices (utils)&#45;&gt;topup (fsl) -->
<g id="edge14" class="edge">
<title>pad_blip_slices (utils)&#45;&gt;topup (fsl)</title>
<path fill="none" stroke="#000000" d="M396.3555,-287.8314C396.9972,-280.131 397.7602,-270.9743 398.4734,-262.4166"/>
<polygon fill="#000000" stroke="#000000" points="401.9643,-262.6694 399.307,-252.4133 394.9885,-262.088 401.9643,-262.6694"/>
</g>
<!-- brainextraction_wf -->
<g id="node12" class="node">
<title>brainextraction_wf</title>
<ellipse fill="none" stroke="#000000" cx="400.8414" cy="-90" rx="98.5829" ry="18"/>
<text text-anchor="middle" x="400.8414" y="-86.3" font-family="Times,serif" font-size="14.00" fill="#000000">brainextraction_wf</text>
</g>
<!-- ref_average (images)&#45;&gt;brainextraction_wf -->
<g id="edge15" class="edge">
<title>ref_average (images)&#45;&gt;brainextraction_wf</title>
<path fill="none" stroke="#000000" d="M400.8414,-143.8314C400.8414,-136.131 400.8414,-126.9743 400.8414,-118.4166"/>
<polygon fill="#000000" stroke="#000000" points="404.3415,-118.4132 400.8414,-108.4133 397.3415,-118.4133 404.3415,-118.4132"/>
</g>
<!-- brainextraction_wf&#45;&gt;outputnode (utility) -->
<g id="edge16" class="edge">
<title>brainextraction_wf&#45;&gt;outputnode (utility)</title>
<path fill="none" stroke="#000000" d="M400.8414,-71.8314C400.8414,-64.131 400.8414,-54.9743 400.8414,-46.4166"/>
<polygon fill="#000000" stroke="#000000" points="404.3415,-46.4132 400.8414,-36.4133 397.3415,-46.4133 404.3415,-46.4132"/>
</g>
</g>
</svg>
