<?xml version="1.0" encoding="UTF-8" standalone="no"?>
<!DOCTYPE svg PUBLIC "-//W3C//DTD SVG 1.1//EN"
 "http://www.w3.org/Graphics/SVG/1.1/DTD/svg11.dtd">
<!-- Generated by graphviz version 2.43.0 (0)
 -->
<!-- Title: %3 Pages: 1 -->
<svg width="269pt" height="332pt"
 viewBox="0.00 0.00 268.69 332.00" xmlns="http://www.w3.org/2000/svg" xmlns:xlink="http://www.w3.org/1999/xlink">
<g id="graph0" class="graph" transform="scale(1 1) rotate(0) translate(4 328)">
<title>%3</title>
<polygon fill="white" stroke="transparent" points="-4,4 -4,-328 264.69,-328 264.69,4 -4,4"/>
<!-- inputnode (utility) -->
<g id="node1" class="node">
<title>inputnode (utility)</title>
<ellipse fill="none" stroke="black" cx="132.64" cy="-306" rx="94.78" ry="18"/>
<text text-anchor="middle" x="132.64" y="-302.3" font-family="Times,serif" font-size="14.00">inputnode (utility)</text>
</g>
<!-- magnitude_wf -->
<g id="node2" class="node">
<title>magnitude_wf</title>
<ellipse fill="none" stroke="black" cx="184.64" cy="-234" rx="76.09" ry="18"/>
<text text-anchor="middle" x="184.64" y="-230.3" font-family="Times,serif" font-size="14.00">magnitude_wf</text>
</g>
<!-- inputnode (utility)&#45;&gt;magnitude_wf -->
<g id="edge1" class="edge">
<title>inputnode (utility)&#45;&gt;magnitude_wf</title>
<path fill="none" stroke="black" d="M145.23,-288.05C151.49,-279.63 159.18,-269.28 166.1,-259.97"/>
<polygon fill="black" stroke="black" points="169.02,-261.9 172.17,-251.79 163.4,-257.73 169.02,-261.9"/>
</g>
<!-- phdiff_wf -->
<g id="node3" class="node">
<title>phdiff_wf</title>
<ellipse fill="none" stroke="black" cx="91.64" cy="-162" rx="53.09" ry="18"/>
<text text-anchor="middle" x="91.64" y="-158.3" font-family="Times,serif" font-size="14.00">phdiff_wf</text>
</g>
<!-- inputnode (utility)&#45;&gt;phdiff_wf -->
<g id="edge2" class="edge">
<title>inputnode (utility)&#45;&gt;phdiff_wf</title>
<path fill="none" stroke="black" d="M119.11,-287.9C112.04,-277.99 103.98,-264.95 99.64,-252 92.96,-232.05 91.11,-208.26 90.85,-190.3"/>
<polygon fill="black" stroke="black" points="94.35,-190.21 90.86,-180.21 87.35,-190.21 94.35,-190.21"/>
</g>
<!-- magnitude_wf&#45;&gt;phdiff_wf -->
<g id="edge5" class="edge">
<title>magnitude_wf&#45;&gt;phdiff_wf</title>
<path fill="none" stroke="black" d="M162.6,-216.41C150.06,-206.97 134.19,-195.03 120.65,-184.83"/>
<polygon fill="black" stroke="black" points="122.66,-181.97 112.57,-178.75 118.45,-187.56 122.66,-181.97"/>
</g>
<!-- bs_filter (bspline) -->
<g id="node4" class="node">
<title>bs_filter (bspline)</title>
<ellipse fill="none" stroke="black" cx="91.64" cy="-90" rx="91.78" ry="18"/>
<text text-anchor="middle" x="91.64" y="-86.3" font-family="Times,serif" font-size="14.00">bs_filter (bspline)</text>
</g>
<!-- magnitude_wf&#45;&gt;bs_filter (bspline) -->
<g id="edge3" class="edge">
<title>magnitude_wf&#45;&gt;bs_filter (bspline)</title>
<path fill="none" stroke="black" d="M181.45,-215.71C177.35,-196.82 168.87,-166.29 153.64,-144 145.89,-132.65 135.1,-122.29 124.7,-113.8"/>
<polygon fill="black" stroke="black" points="126.54,-110.8 116.5,-107.41 122.23,-116.32 126.54,-110.8"/>
</g>
<!-- outputnode (utility) -->
<g id="node5" class="node">
<title>outputnode (utility)</title>
<ellipse fill="none" stroke="black" cx="151.64" cy="-18" rx="101.28" ry="18"/>
<text text-anchor="middle" x="151.64" y="-14.3" font-family="Times,serif" font-size="14.00">outputnode (utility)</text>
</g>
<!-- magnitude_wf&#45;&gt;outputnode (utility) -->
<g id="edge4" class="edge">
<title>magnitude_wf&#45;&gt;outputnode (utility)</title>
<path fill="none" stroke="black" d="M189.51,-215.97C197.23,-185.95 209.74,-122.05 192.64,-72 189.14,-61.76 182.78,-51.97 176.09,-43.65"/>
<polygon fill="black" stroke="black" points="178.56,-41.15 169.38,-35.85 173.25,-45.72 178.56,-41.15"/>
</g>
<!-- phdiff_wf&#45;&gt;bs_filter (bspline) -->
<g id="edge6" class="edge">
<title>phdiff_wf&#45;&gt;bs_filter (bspline)</title>
<path fill="none" stroke="black" d="M91.64,-143.7C91.64,-135.98 91.64,-126.71 91.64,-118.11"/>
<polygon fill="black" stroke="black" points="95.14,-118.1 91.64,-108.1 88.14,-118.1 95.14,-118.1"/>
</g>
<!-- bs_filter (bspline)&#45;&gt;outputnode (utility) -->
<g id="edge7" class="edge">
<title>bs_filter (bspline)&#45;&gt;outputnode (utility)</title>
<path fill="none" stroke="black" d="M106.17,-72.05C113.36,-63.67 122.18,-53.38 130.13,-44.1"/>
<polygon fill="black" stroke="black" points="132.98,-46.15 136.83,-36.28 127.67,-41.59 132.98,-46.15"/>
</g>
</g>
</svg>
