<?xml version="1.0" encoding="UTF-8" standalone="no"?>
<!DOCTYPE svg PUBLIC "-//W3C//DTD SVG 1.1//EN"
 "http://www.w3.org/Graphics/SVG/1.1/DTD/svg11.dtd">
<!-- Generated by graphviz version 2.40.1 (20161225.0304)
 -->
<!-- Title: structs Pages: 1 -->
<svg width="1190pt" height="442pt"
 viewBox="0.00 0.00 1189.50 442.00" xmlns="http://www.w3.org/2000/svg" xmlns:xlink="http://www.w3.org/1999/xlink">
<g id="graph0" class="graph" transform="scale(1 1) rotate(0) translate(4 438)">
<title>structs</title>
<polygon fill="#ffffff" stroke="transparent" points="-4,4 -4,-438 1185.5,-438 1185.5,4 -4,4"/>
<!-- magnitude_wfinputnode -->
<g id="node1" class="node">
<title>magnitude_wfinputnode</title>
<polygon fill="none" stroke="#000000" points="0,-364.5 0,-433.5 217,-433.5 217,-364.5 0,-364.5"/>
<text text-anchor="middle" x="17.5" y="-395.3" font-family="Times,serif" font-size="14.00" fill="#000000">IN</text>
<polyline fill="none" stroke="#000000" points="35,-364.5 35,-433.5 "/>
<text text-anchor="middle" x="79.5" y="-418.3" font-family="Times,serif" font-size="14.00" fill="#000000">inputnode</text>
<polyline fill="none" stroke="#000000" points="35,-410.5 124,-410.5 "/>
<text text-anchor="middle" x="79.5" y="-395.3" font-family="Times,serif" font-size="14.00" fill="#000000">utility</text>
<polyline fill="none" stroke="#000000" points="35,-387.5 124,-387.5 "/>
<text text-anchor="middle" x="79.5" y="-372.3" font-family="Times,serif" font-size="14.00" fill="#000000"> </text>
<polyline fill="none" stroke="#000000" points="124,-364.5 124,-433.5 "/>
<text text-anchor="middle" x="170.5" y="-412.8" font-family="Times,serif" font-size="14.00" fill="#000000">OUT</text>
<polyline fill="none" stroke="#000000" points="124,-399.5 217,-399.5 "/>
<text text-anchor="middle" x="170.5" y="-378.3" font-family="Times,serif" font-size="14.00" fill="#000000">magnitude</text>
</g>
<!-- magnitude_wfmagmrg -->
<g id="node2" class="node">
<title>magnitude_wfmagmrg</title>
<polygon fill="none" stroke="#000000" points="217.5,-258.5 217.5,-327.5 435.5,-327.5 435.5,-258.5 217.5,-258.5"/>
<text text-anchor="middle" x="251.5" y="-306.8" font-family="Times,serif" font-size="14.00" fill="#000000">IN</text>
<polyline fill="none" stroke="#000000" points="217.5,-293.5 285.5,-293.5 "/>
<text text-anchor="middle" x="251.5" y="-272.3" font-family="Times,serif" font-size="14.00" fill="#000000">in_files</text>
<polyline fill="none" stroke="#000000" points="285.5,-258.5 285.5,-327.5 "/>
<text text-anchor="middle" x="324" y="-312.3" font-family="Times,serif" font-size="14.00" fill="#000000">magmrg</text>
<polyline fill="none" stroke="#000000" points="285.5,-304.5 362.5,-304.5 "/>
<text text-anchor="middle" x="324" y="-289.3" font-family="Times,serif" font-size="14.00" fill="#000000">images</text>
<polyline fill="none" stroke="#000000" points="285.5,-281.5 362.5,-281.5 "/>
<text text-anchor="middle" x="324" y="-266.3" font-family="Times,serif" font-size="14.00" fill="#000000"> </text>
<polyline fill="none" stroke="#000000" points="362.5,-258.5 362.5,-327.5 "/>
<text text-anchor="middle" x="399" y="-306.8" font-family="Times,serif" font-size="14.00" fill="#000000">OUT</text>
<polyline fill="none" stroke="#000000" points="362.5,-293.5 435.5,-293.5 "/>
<text text-anchor="middle" x="399" y="-272.3" font-family="Times,serif" font-size="14.00" fill="#000000">out_avg</text>
</g>
<!-- magnitude_wfinputnode&#45;&gt;magnitude_wfmagmrg -->
<g id="edge4" class="edge">
<title>magnitude_wfinputnode:e&#45;&gt;magnitude_wfmagmrg:w</title>
<path fill="none" stroke="#000000" d="M217.5,-382C260.1944,-382 186.8134,-294.9434 207.7437,-278.6202"/>
<polygon fill="#000000" stroke="#000000" points="208.7501,-281.9741 217.5,-276 206.9344,-275.2136 208.7501,-281.9741"/>
</g>
<!-- magnitude_wfbrainextraction_wf -->
<g id="node3" class="node">
<title>magnitude_wfbrainextraction_wf</title>
<polygon fill="none" stroke="#000000" points="435.5,-129.5 435.5,-221.5 915.5,-221.5 915.5,-129.5 435.5,-129.5"/>
<text text-anchor="middle" x="504" y="-194.8" font-family="Times,serif" font-size="14.00" fill="#000000">IN</text>
<polyline fill="none" stroke="#000000" points="435.5,-175.5 572.5,-175.5 "/>
<text text-anchor="middle" x="504" y="-148.8" font-family="Times,serif" font-size="14.00" fill="#000000">inputnode.in_file</text>
<polyline fill="none" stroke="#000000" points="572.5,-129.5 572.5,-221.5 "/>
<text text-anchor="middle" x="648.5" y="-202.8" font-family="Times,serif" font-size="14.00" fill="#000000">brainextraction_wf</text>
<polyline fill="none" stroke="#000000" points="572.5,-191.5 724.5,-191.5 "/>
<text text-anchor="middle" x="648.5" y="-172.3" font-family="Times,serif" font-size="14.00" fill="#000000"> </text>
<polyline fill="none" stroke="#000000" points="572.5,-160.5 724.5,-160.5 "/>
<text text-anchor="middle" x="648.5" y="-141.3" font-family="Times,serif" font-size="14.00" fill="#000000"> </text>
<polyline fill="none" stroke="#000000" points="724.5,-129.5 724.5,-221.5 "/>
<text text-anchor="middle" x="820" y="-206.3" font-family="Times,serif" font-size="14.00" fill="#000000">OUT</text>
<polyline fill="none" stroke="#000000" points="724.5,-198.5 915.5,-198.5 "/>
<text text-anchor="middle" x="820" y="-183.3" font-family="Times,serif" font-size="14.00" fill="#000000">outputnode.out_file</text>
<polyline fill="none" stroke="#000000" points="724.5,-175.5 915.5,-175.5 "/>
<text text-anchor="middle" x="820" y="-160.3" font-family="Times,serif" font-size="14.00" fill="#000000">outputnode.out_mask</text>
<polyline fill="none" stroke="#000000" points="724.5,-152.5 915.5,-152.5 "/>
<text text-anchor="middle" x="820" y="-137.3" font-family="Times,serif" font-size="14.00" fill="#000000">outputnode.out_probseg</text>
</g>
<!-- magnitude_wfmagmrg&#45;&gt;magnitude_wfbrainextraction_wf -->
<g id="edge5" class="edge">
<title>magnitude_wfmagmrg:e&#45;&gt;magnitude_wfbrainextraction_wf:w</title>
<path fill="none" stroke="#000000" d="M435.5,-276C435.5,-276 435.5,-192.1019 435.5,-162.6065"/>
<polygon fill="#000000" stroke="#000000" points="439.0001,-162.5 435.5,-152.5 432.0001,-162.5 439.0001,-162.5"/>
</g>
<!-- magnitude_wfoutputnode -->
<g id="node4" class="node">
<title>magnitude_wfoutputnode</title>
<polygon fill="none" stroke="#000000" points="915.5,-.5 915.5,-92.5 1181.5,-92.5 1181.5,-.5 915.5,-.5"/>
<text text-anchor="middle" x="974.5" y="-77.3" font-family="Times,serif" font-size="14.00" fill="#000000">IN</text>
<polyline fill="none" stroke="#000000" points="915.5,-69.5 1033.5,-69.5 "/>
<text text-anchor="middle" x="974.5" y="-54.3" font-family="Times,serif" font-size="14.00" fill="#000000">fmap_mask</text>
<polyline fill="none" stroke="#000000" points="915.5,-46.5 1033.5,-46.5 "/>
<text text-anchor="middle" x="974.5" y="-31.3" font-family="Times,serif" font-size="14.00" fill="#000000">fmap_probseg</text>
<polyline fill="none" stroke="#000000" points="915.5,-23.5 1033.5,-23.5 "/>
<text text-anchor="middle" x="974.5" y="-8.3" font-family="Times,serif" font-size="14.00" fill="#000000">fmap_ref</text>
<polyline fill="none" stroke="#000000" points="1033.5,-.5 1033.5,-92.5 "/>
<text text-anchor="middle" x="1082.5" y="-73.8" font-family="Times,serif" font-size="14.00" fill="#000000">outputnode</text>
<polyline fill="none" stroke="#000000" points="1033.5,-62.5 1131.5,-62.5 "/>
<text text-anchor="middle" x="1082.5" y="-43.3" font-family="Times,serif" font-size="14.00" fill="#000000">utility</text>
<polyline fill="none" stroke="#000000" points="1033.5,-31.5 1131.5,-31.5 "/>
<text text-anchor="middle" x="1082.5" y="-12.3" font-family="Times,serif" font-size="14.00" fill="#000000"> </text>
<polyline fill="none" stroke="#000000" points="1131.5,-.5 1131.5,-92.5 "/>
<text text-anchor="middle" x="1156.5" y="-42.8" font-family="Times,serif" font-size="14.00" fill="#000000">OUT</text>
</g>
<!-- magnitude_wfbrainextraction_wf&#45;&gt;magnitude_wfoutputnode -->
<g id="edge1" class="edge">
<title>magnitude_wfbrainextraction_wf:e&#45;&gt;magnitude_wfoutputnode:w</title>
<path fill="none" stroke="#000000" d="M915.5,-187.5C989.75,-187.5 852.5615,-28.9211 905.3373,-12.8155"/>
<polygon fill="#000000" stroke="#000000" points="906.0321,-16.2548 915.5,-11.5 905.1334,-9.3128 906.0321,-16.2548"/>
</g>
<!-- magnitude_wfbrainextraction_wf&#45;&gt;magnitude_wfoutputnode -->
<g id="edge2" class="edge">
<title>magnitude_wfbrainextraction_wf:e&#45;&gt;magnitude_wfoutputnode:w</title>
<path fill="none" stroke="#000000" d="M915.5,-163.5C957.7917,-163.5 885.1029,-77.2646 905.8357,-61.0955"/>
<polygon fill="#000000" stroke="#000000" points="906.7501,-64.4741 915.5,-58.5 904.9344,-57.7136 906.7501,-64.4741"/>
</g>
<!-- magnitude_wfbrainextraction_wf&#45;&gt;magnitude_wfoutputnode -->
<g id="edge3" class="edge">
<title>magnitude_wfbrainextraction_wf:e&#45;&gt;magnitude_wfoutputnode:w</title>
<path fill="none" stroke="#000000" d="M915.5,-140.5C915.5,-140.5 915.5,-71.1947 915.5,-44.6637"/>
<polygon fill="#000000" stroke="#000000" points="919.0001,-44.5 915.5,-34.5 912.0001,-44.5 919.0001,-44.5"/>
</g>
</g>
</svg>
