<?xml version="1.0" encoding="UTF-8" standalone="no"?>
<!DOCTYPE svg PUBLIC "-//W3C//DTD SVG 1.1//EN"
 "http://www.w3.org/Graphics/SVG/1.1/DTD/svg11.dtd">
<!-- Generated by graphviz version 2.43.0 (0)
 -->
<!-- Title: %3 Pages: 1 -->
<svg width="1567pt" height="764pt"
 viewBox="0.00 0.00 1567.00 764.00" xmlns="http://www.w3.org/2000/svg" xmlns:xlink="http://www.w3.org/1999/xlink">
<g id="graph0" class="graph" transform="scale(1 1) rotate(0) translate(4 760)">
<title>%3</title>
<polygon fill="white" stroke="transparent" points="-4,4 -4,-760 1563,-760 1563,4 -4,4"/>
<!-- inputnode (utility) -->
<g id="node1" class="node">
<title>inputnode (utility)</title>
<ellipse fill="none" stroke="black" cx="695" cy="-738" rx="94.78" ry="18"/>
<text text-anchor="middle" x="695" y="-734.3" font-family="Times,serif" font-size="14.00">inputnode (utility)</text>
</g>
<!-- readout_time (epi) -->
<g id="node2" class="node">
<title>readout_time (epi)</title>
<ellipse fill="none" stroke="black" cx="124" cy="-522" rx="96.38" ry="18"/>
<text text-anchor="middle" x="124" y="-518.3" font-family="Times,serif" font-size="14.00">readout_time (epi)</text>
</g>
<!-- inputnode (utility)&#45;&gt;readout_time (epi) -->
<g id="edge1" class="edge">
<title>inputnode (utility)&#45;&gt;readout_time (epi)</title>
<path fill="none" stroke="black" d="M604.61,-732.43C468.77,-724.82 224.36,-707.99 192,-684 148.74,-651.92 132.78,-586.94 127.06,-550.09"/>
<polygon fill="black" stroke="black" points="130.51,-549.48 125.65,-540.06 123.58,-550.45 130.51,-549.48"/>
</g>
<!-- atlas_msk (nibabel) -->
<g id="node3" class="node">
<title>atlas_msk (nibabel)</title>
<ellipse fill="none" stroke="black" cx="631" cy="-666" rx="100.98" ry="18"/>
<text text-anchor="middle" x="631" y="-662.3" font-family="Times,serif" font-size="14.00">atlas_msk (nibabel)</text>
</g>
<!-- inputnode (utility)&#45;&gt;atlas_msk (nibabel) -->
<g id="edge2" class="edge">
<title>inputnode (utility)&#45;&gt;atlas_msk (nibabel)</title>
<path fill="none" stroke="black" d="M679.51,-720.05C671.76,-711.58 662.24,-701.17 653.69,-691.82"/>
<polygon fill="black" stroke="black" points="656.13,-689.29 646.79,-684.28 650.96,-694.02 656.13,-689.29"/>
</g>
<!-- clip_epi (nibabel) -->
<g id="node4" class="node">
<title>clip_epi (nibabel)</title>
<ellipse fill="none" stroke="black" cx="1183" cy="-666" rx="89.88" ry="18"/>
<text text-anchor="middle" x="1183" y="-662.3" font-family="Times,serif" font-size="14.00">clip_epi (nibabel)</text>
</g>
<!-- inputnode (utility)&#45;&gt;clip_epi (nibabel) -->
<g id="edge3" class="edge">
<title>inputnode (utility)&#45;&gt;clip_epi (nibabel)</title>
<path fill="none" stroke="black" d="M768.32,-726.48C858.05,-713.61 1009.46,-691.89 1102.38,-678.56"/>
<polygon fill="black" stroke="black" points="1102.9,-682.03 1112.3,-677.14 1101.91,-675.1 1102.9,-682.03"/>
</g>
<!-- unwarp (bspline) -->
<g id="node5" class="node">
<title>unwarp (bspline)</title>
<ellipse fill="none" stroke="black" cx="217" cy="-90" rx="89.08" ry="18"/>
<text text-anchor="middle" x="217" y="-86.3" font-family="Times,serif" font-size="14.00">unwarp (bspline)</text>
</g>
<!-- inputnode (utility)&#45;&gt;unwarp (bspline) -->
<g id="edge4" class="edge">
<title>inputnode (utility)&#45;&gt;unwarp (bspline)</title>
<path fill="none" stroke="black" d="M600.18,-737.17C410,-734.93 0,-716.07 0,-595 0,-595 0,-595 0,-233 0,-161.63 83.2,-124.2 146.57,-106.04"/>
<polygon fill="black" stroke="black" points="147.84,-109.32 156.55,-103.29 145.98,-102.57 147.84,-109.32"/>
</g>
<!-- amask2epi (fixes) -->
<g id="node6" class="node">
<title>amask2epi (fixes)</title>
<ellipse fill="none" stroke="black" cx="349" cy="-594" rx="91.78" ry="18"/>
<text text-anchor="middle" x="349" y="-590.3" font-family="Times,serif" font-size="14.00">amask2epi (fixes)</text>
</g>
<!-- inputnode (utility)&#45;&gt;amask2epi (fixes) -->
<g id="edge5" class="edge">
<title>inputnode (utility)&#45;&gt;amask2epi (fixes)</title>
<path fill="none" stroke="black" d="M603.16,-733.35C471.05,-727.13 240.38,-712.34 215,-684 204.33,-672.08 206,-661.23 215,-648 227.87,-629.08 248.64,-616.91 270.04,-609.09"/>
<polygon fill="black" stroke="black" points="271.19,-612.39 279.55,-605.89 268.96,-605.76 271.19,-612.39"/>
</g>
<!-- zooms_bmask (fixes) -->
<g id="node7" class="node">
<title>zooms_bmask (fixes)</title>
<ellipse fill="none" stroke="black" cx="646" cy="-162" rx="105.88" ry="18"/>
<text text-anchor="middle" x="646" y="-158.3" font-family="Times,serif" font-size="14.00">zooms_bmask (fixes)</text>
</g>
<!-- inputnode (utility)&#45;&gt;zooms_bmask (fixes) -->
<g id="edge6" class="edge">
<title>inputnode (utility)&#45;&gt;zooms_bmask (fixes)</title>
<path fill="none" stroke="black" d="M789.68,-736.54C994.44,-734.75 1464.75,-726.04 1523,-684 1557.6,-659.03 1559,-637.67 1559,-595 1559,-595 1559,-595 1559,-305 1559,-224.6 998.99,-183.03 756.15,-168.79"/>
<polygon fill="black" stroke="black" points="756.07,-165.28 745.88,-168.2 755.66,-172.27 756.07,-165.28"/>
</g>
<!-- fixed_masks (utility) -->
<g id="node8" class="node">
<title>fixed_masks (utility)</title>
<ellipse fill="none" stroke="black" cx="635" cy="-594" rx="104.78" ry="18"/>
<text text-anchor="middle" x="635" y="-590.3" font-family="Times,serif" font-size="14.00">fixed_masks (utility)</text>
</g>
<!-- inputnode (utility)&#45;&gt;fixed_masks (utility) -->
<g id="edge7" class="edge">
<title>inputnode (utility)&#45;&gt;fixed_masks (utility)</title>
<path fill="none" stroke="black" d="M714.36,-720.18C732.9,-701.97 756,-672.26 741,-648 731.51,-632.64 716.06,-621.58 699.86,-613.68"/>
<polygon fill="black" stroke="black" points="700.83,-610.28 690.28,-609.38 697.97,-616.67 700.83,-610.28"/>
</g>
<!-- anat_dilmsk (brainmask) -->
<g id="node9" class="node">
<title>anat_dilmsk (brainmask)</title>
<ellipse fill="none" stroke="black" cx="349" cy="-666" rx="124.58" ry="18"/>
<text text-anchor="middle" x="349" y="-662.3" font-family="Times,serif" font-size="14.00">anat_dilmsk (brainmask)</text>
</g>
<!-- inputnode (utility)&#45;&gt;anat_dilmsk (brainmask) -->
<g id="edge8" class="edge">
<title>inputnode (utility)&#45;&gt;anat_dilmsk (brainmask)</title>
<path fill="none" stroke="black" d="M632.74,-724.4C575.52,-712.83 490.4,-695.61 428.33,-683.05"/>
<polygon fill="black" stroke="black" points="428.68,-679.55 418.18,-681 427.29,-686.41 428.68,-679.55"/>
</g>
<!-- warp_dir (utility) -->
<g id="node10" class="node">
<title>warp_dir (utility)</title>
<ellipse fill="none" stroke="black" cx="279" cy="-450" rx="89.08" ry="18"/>
<text text-anchor="middle" x="279" y="-446.3" font-family="Times,serif" font-size="14.00">warp_dir (utility)</text>
</g>
<!-- inputnode (utility)&#45;&gt;warp_dir (utility) -->
<g id="edge9" class="edge">
<title>inputnode (utility)&#45;&gt;warp_dir (utility)</title>
<path fill="none" stroke="black" d="M610.87,-729.56C578.6,-722.51 544.04,-709.15 521,-684 465.77,-623.71 539.47,-563.13 483,-504 473.48,-494.03 404.54,-477.45 349.4,-465.48"/>
<polygon fill="black" stroke="black" points="349.79,-461.99 339.28,-463.3 348.32,-468.83 349.79,-461.99"/>
</g>
<!-- anat_merge (utility) -->
<g id="node11" class="node">
<title>anat_merge (utility)</title>
<ellipse fill="none" stroke="black" cx="777" cy="-522" rx="102.88" ry="18"/>
<text text-anchor="middle" x="777" y="-518.3" font-family="Times,serif" font-size="14.00">anat_merge (utility)</text>
</g>
<!-- inputnode (utility)&#45;&gt;anat_merge (utility) -->
<g id="edge10" class="edge">
<title>inputnode (utility)&#45;&gt;anat_merge (utility)</title>
<path fill="none" stroke="black" d="M722.88,-720.57C735.75,-711.48 749.93,-698.97 758,-684 780.9,-641.53 781.65,-583.73 779.64,-550.19"/>
<polygon fill="black" stroke="black" points="783.13,-549.92 778.92,-540.2 776.15,-550.43 783.13,-549.92"/>
</g>
<!-- lap_anat (ants) -->
<g id="node12" class="node">
<title>lap_anat (ants)</title>
<ellipse fill="none" stroke="black" cx="908" cy="-666" rx="79.09" ry="18"/>
<text text-anchor="middle" x="908" y="-662.3" font-family="Times,serif" font-size="14.00">lap_anat (ants)</text>
</g>
<!-- inputnode (utility)&#45;&gt;lap_anat (ants) -->
<g id="edge11" class="edge">
<title>inputnode (utility)&#45;&gt;lap_anat (ants)</title>
<path fill="none" stroke="black" d="M740.17,-722.15C773.77,-711.11 819.72,-696.01 855.05,-684.4"/>
<polygon fill="black" stroke="black" points="856.3,-687.67 864.71,-681.23 854.12,-681.02 856.3,-687.67"/>
</g>
<!-- find_zooms (utility) -->
<g id="node13" class="node">
<title>find_zooms (utility)</title>
<ellipse fill="none" stroke="black" cx="1390" cy="-666" rx="99.38" ry="18"/>
<text text-anchor="middle" x="1390" y="-662.3" font-family="Times,serif" font-size="14.00">find_zooms (utility)</text>
</g>
<!-- inputnode (utility)&#45;&gt;find_zooms (utility) -->
<g id="edge12" class="edge">
<title>inputnode (utility)&#45;&gt;find_zooms (utility)</title>
<path fill="none" stroke="black" d="M782.71,-730.9C897.62,-722.49 1105.3,-705.86 1282,-684 1290.92,-682.9 1300.24,-681.62 1309.5,-680.27"/>
<polygon fill="black" stroke="black" points="1310.13,-683.71 1319.51,-678.78 1309.1,-676.79 1310.13,-683.71"/>
</g>
<!-- zooms_field (fixes) -->
<g id="node14" class="node">
<title>zooms_field (fixes)</title>
<ellipse fill="none" stroke="black" cx="646" cy="-234" rx="95.58" ry="18"/>
<text text-anchor="middle" x="646" y="-230.3" font-family="Times,serif" font-size="14.00">zooms_field (fixes)</text>
</g>
<!-- inputnode (utility)&#45;&gt;zooms_field (fixes) -->
<g id="edge13" class="edge">
<title>inputnode (utility)&#45;&gt;zooms_field (fixes)</title>
<path fill="none" stroke="black" d="M789.87,-736.88C990.66,-735.75 1444.58,-728.26 1498,-684 1529.46,-657.93 1521,-635.86 1521,-595 1521,-595 1521,-595 1521,-377 1521,-299.24 975.56,-255.75 745.96,-240.89"/>
<polygon fill="black" stroke="black" points="746.14,-237.39 735.94,-240.24 745.69,-244.38 746.14,-237.39"/>
</g>
<!-- epi_umask (brainmask) -->
<g id="node15" class="node">
<title>epi_umask (brainmask)</title>
<ellipse fill="none" stroke="black" cx="356" cy="-522" rx="118.08" ry="18"/>
<text text-anchor="middle" x="356" y="-518.3" font-family="Times,serif" font-size="14.00">epi_umask (brainmask)</text>
</g>
<!-- inputnode (utility)&#45;&gt;epi_umask (brainmask) -->
<g id="edge14" class="edge">
<title>inputnode (utility)&#45;&gt;epi_umask (brainmask)</title>
<path fill="none" stroke="black" d="M602.73,-733.58C467.89,-727.61 230.1,-713.07 204,-684 172.01,-648.38 240.04,-583.26 248,-576 263.18,-562.16 282.64,-551.13 300.85,-542.8"/>
<polygon fill="black" stroke="black" points="302.47,-545.91 310.22,-538.68 299.66,-539.49 302.47,-545.91"/>
</g>
<!-- readout_time (epi)&#45;&gt;unwarp (bspline) -->
<g id="edge17" class="edge">
<title>readout_time (epi)&#45;&gt;unwarp (bspline)</title>
<path fill="none" stroke="black" d="M124,-503.95C124,-477.29 124,-424.11 124,-379 124,-379 124,-379 124,-233 124,-185.05 161.57,-140.69 188.95,-114.73"/>
<polygon fill="black" stroke="black" points="191.37,-117.25 196.36,-107.91 186.63,-112.1 191.37,-117.25"/>
</g>
<!-- readout_time (epi)&#45;&gt;warp_dir (utility) -->
<g id="edge15" class="edge">
<title>readout_time (epi)&#45;&gt;warp_dir (utility)</title>
<path fill="none" stroke="black" d="M159.17,-505.12C181.64,-494.97 210.97,-481.72 234.98,-470.88"/>
<polygon fill="black" stroke="black" points="236.56,-474.01 244.23,-466.7 233.68,-467.63 236.56,-474.01"/>
</g>
<!-- extract_field (fmap) -->
<g id="node16" class="node">
<title>extract_field (fmap)</title>
<ellipse fill="none" stroke="black" cx="646" cy="-306" rx="101.28" ry="18"/>
<text text-anchor="middle" x="646" y="-302.3" font-family="Times,serif" font-size="14.00">extract_field (fmap)</text>
</g>
<!-- readout_time (epi)&#45;&gt;extract_field (fmap) -->
<g id="edge16" class="edge">
<title>readout_time (epi)&#45;&gt;extract_field (fmap)</title>
<path fill="none" stroke="black" d="M130.45,-503.85C138.95,-483.63 155.83,-450.42 181,-432 287.79,-353.83 440.33,-324.54 541.2,-313.57"/>
<polygon fill="black" stroke="black" points="541.82,-317.02 551.4,-312.5 541.09,-310.06 541.82,-317.02"/>
</g>
<!-- atlas_msk (nibabel)&#45;&gt;fixed_masks (utility) -->
<g id="edge18" class="edge">
<title>atlas_msk (nibabel)&#45;&gt;fixed_masks (utility)</title>
<path fill="none" stroke="black" d="M631.99,-647.7C632.43,-639.98 632.96,-630.71 633.45,-622.11"/>
<polygon fill="black" stroke="black" points="636.95,-622.29 634.02,-612.1 629.96,-621.89 636.95,-622.29"/>
</g>
<!-- clip_epi (nibabel)&#45;&gt;extract_field (fmap) -->
<g id="edge22" class="edge">
<title>clip_epi (nibabel)&#45;&gt;extract_field (fmap)</title>
<path fill="none" stroke="black" d="M1199.12,-648.19C1221.43,-623.09 1259,-573.33 1259,-523 1259,-523 1259,-523 1259,-449 1259,-346.86 931.93,-318.17 755.61,-310.13"/>
<polygon fill="black" stroke="black" points="755.66,-306.63 745.51,-309.68 755.35,-313.62 755.66,-306.63"/>
</g>
<!-- epi_merge (utility) -->
<g id="node17" class="node">
<title>epi_merge (utility)</title>
<ellipse fill="none" stroke="black" cx="1083" cy="-450" rx="96.68" ry="18"/>
<text text-anchor="middle" x="1083" y="-446.3" font-family="Times,serif" font-size="14.00">epi_merge (utility)</text>
</g>
<!-- clip_epi (nibabel)&#45;&gt;epi_merge (utility) -->
<g id="edge19" class="edge">
<title>clip_epi (nibabel)&#45;&gt;epi_merge (utility)</title>
<path fill="none" stroke="black" d="M1191.71,-647.85C1206.29,-616.52 1231.28,-549.09 1202,-504 1190.99,-487.04 1173.16,-475.47 1154.61,-467.58"/>
<polygon fill="black" stroke="black" points="1155.77,-464.27 1145.18,-463.89 1153.22,-470.79 1155.77,-464.27"/>
</g>
<!-- lap_epi (ants) -->
<g id="node18" class="node">
<title>lap_epi (ants)</title>
<ellipse fill="none" stroke="black" cx="1120" cy="-594" rx="73.39" ry="18"/>
<text text-anchor="middle" x="1120" y="-590.3" font-family="Times,serif" font-size="14.00">lap_epi (ants)</text>
</g>
<!-- clip_epi (nibabel)&#45;&gt;lap_epi (ants) -->
<g id="edge20" class="edge">
<title>clip_epi (nibabel)&#45;&gt;lap_epi (ants)</title>
<path fill="none" stroke="black" d="M1167.75,-648.05C1160.01,-639.46 1150.47,-628.86 1141.96,-619.4"/>
<polygon fill="black" stroke="black" points="1144.4,-616.88 1135.11,-611.79 1139.2,-621.56 1144.4,-616.88"/>
</g>
<!-- zooms_epi (nibabel) -->
<g id="node19" class="node">
<title>zooms_epi (nibabel)</title>
<ellipse fill="none" stroke="black" cx="1390" cy="-594" rx="102.88" ry="18"/>
<text text-anchor="middle" x="1390" y="-590.3" font-family="Times,serif" font-size="14.00">zooms_epi (nibabel)</text>
</g>
<!-- clip_epi (nibabel)&#45;&gt;zooms_epi (nibabel) -->
<g id="edge21" class="edge">
<title>clip_epi (nibabel)&#45;&gt;zooms_epi (nibabel)</title>
<path fill="none" stroke="black" d="M1226.65,-650.24C1258.28,-639.54 1301.27,-625 1335.22,-613.53"/>
<polygon fill="black" stroke="black" points="1336.63,-616.74 1344.98,-610.22 1334.39,-610.11 1336.63,-616.74"/>
</g>
<!-- outputnode (utility) -->
<g id="node20" class="node">
<title>outputnode (utility)</title>
<ellipse fill="none" stroke="black" cx="335" cy="-18" rx="101.28" ry="18"/>
<text text-anchor="middle" x="335" y="-14.3" font-family="Times,serif" font-size="14.00">outputnode (utility)</text>
</g>
<!-- unwarp (bspline)&#45;&gt;outputnode (utility) -->
<g id="edge23" class="edge">
<title>unwarp (bspline)&#45;&gt;outputnode (utility)</title>
<path fill="none" stroke="black" d="M244.37,-72.76C260.49,-63.2 281.07,-50.99 298.55,-40.62"/>
<polygon fill="black" stroke="black" points="300.56,-43.5 307.37,-35.39 296.99,-37.48 300.56,-43.5"/>
</g>
<!-- amask2epi (fixes)&#45;&gt;epi_umask (brainmask) -->
<g id="edge24" class="edge">
<title>amask2epi (fixes)&#45;&gt;epi_umask (brainmask)</title>
<path fill="none" stroke="black" d="M350.73,-575.7C351.5,-567.98 352.43,-558.71 353.29,-550.11"/>
<polygon fill="black" stroke="black" points="356.78,-550.4 354.29,-540.1 349.81,-549.71 356.78,-550.4"/>
</g>
<!-- zooms_bmask (fixes)&#45;&gt;outputnode (utility) -->
<g id="edge25" class="edge">
<title>zooms_bmask (fixes)&#45;&gt;outputnode (utility)</title>
<path fill="none" stroke="black" d="M610.93,-144.99C553.96,-118.98 441.44,-67.6 379.13,-39.15"/>
<polygon fill="black" stroke="black" points="380.49,-35.92 369.94,-34.95 377.59,-42.29 380.49,-35.92"/>
</g>
<!-- syn (fixes) -->
<g id="node21" class="node">
<title>syn (fixes)</title>
<ellipse fill="none" stroke="black" cx="646" cy="-378" rx="57.69" ry="18"/>
<text text-anchor="middle" x="646" y="-374.3" font-family="Times,serif" font-size="14.00">syn (fixes)</text>
</g>
<!-- fixed_masks (utility)&#45;&gt;syn (fixes) -->
<g id="edge26" class="edge">
<title>fixed_masks (utility)&#45;&gt;syn (fixes)</title>
<path fill="none" stroke="black" d="M635.88,-575.85C637.78,-538.83 642.29,-451.18 644.59,-406.39"/>
<polygon fill="black" stroke="black" points="648.1,-406.4 645.11,-396.23 641.11,-406.04 648.1,-406.4"/>
</g>
<!-- anat_dilmsk (brainmask)&#45;&gt;amask2epi (fixes) -->
<g id="edge27" class="edge">
<title>anat_dilmsk (brainmask)&#45;&gt;amask2epi (fixes)</title>
<path fill="none" stroke="black" d="M349,-647.7C349,-639.98 349,-630.71 349,-622.11"/>
<polygon fill="black" stroke="black" points="352.5,-622.1 349,-612.1 345.5,-622.1 352.5,-622.1"/>
</g>
<!-- warp_dir (utility)&#45;&gt;syn (fixes) -->
<g id="edge28" class="edge">
<title>warp_dir (utility)&#45;&gt;syn (fixes)</title>
<path fill="none" stroke="black" d="M341.26,-437.13C410.31,-423.95 520.83,-402.87 588.08,-390.05"/>
<polygon fill="black" stroke="black" points="588.92,-393.45 598.09,-388.14 587.61,-386.57 588.92,-393.45"/>
</g>
<!-- anat_merge (utility)&#45;&gt;syn (fixes) -->
<g id="edge29" class="edge">
<title>anat_merge (utility)&#45;&gt;syn (fixes)</title>
<path fill="none" stroke="black" d="M761.46,-504.15C738.29,-479.04 694.59,-431.67 668.1,-402.96"/>
<polygon fill="black" stroke="black" points="670.47,-400.36 661.12,-395.39 665.33,-405.11 670.47,-400.36"/>
</g>
<!-- lap_anat_norm (utility) -->
<g id="node22" class="node">
<title>lap_anat_norm (utility)</title>
<ellipse fill="none" stroke="black" cx="912" cy="-594" rx="116.18" ry="18"/>
<text text-anchor="middle" x="912" y="-590.3" font-family="Times,serif" font-size="14.00">lap_anat_norm (utility)</text>
</g>
<!-- lap_anat (ants)&#45;&gt;lap_anat_norm (utility) -->
<g id="edge30" class="edge">
<title>lap_anat (ants)&#45;&gt;lap_anat_norm (utility)</title>
<path fill="none" stroke="black" d="M908.99,-647.7C909.43,-639.98 909.96,-630.71 910.45,-622.11"/>
<polygon fill="black" stroke="black" points="913.95,-622.29 911.02,-612.1 906.96,-621.89 913.95,-622.29"/>
</g>
<!-- find_zooms (utility)&#45;&gt;zooms_epi (nibabel) -->
<g id="edge31" class="edge">
<title>find_zooms (utility)&#45;&gt;zooms_epi (nibabel)</title>
<path fill="none" stroke="black" d="M1390,-647.7C1390,-639.98 1390,-630.71 1390,-622.11"/>
<polygon fill="black" stroke="black" points="1393.5,-622.1 1390,-612.1 1386.5,-622.1 1393.5,-622.1"/>
</g>
<!-- zooms_field (fixes)&#45;&gt;zooms_bmask (fixes) -->
<g id="edge32" class="edge">
<title>zooms_field (fixes)&#45;&gt;zooms_bmask (fixes)</title>
<path fill="none" stroke="black" d="M646,-215.7C646,-207.98 646,-198.71 646,-190.11"/>
<polygon fill="black" stroke="black" points="649.5,-190.1 646,-180.1 642.5,-190.1 649.5,-190.1"/>
</g>
<!-- bs_filter (bspline) -->
<g id="node23" class="node">
<title>bs_filter (bspline)</title>
<ellipse fill="none" stroke="black" cx="335" cy="-162" rx="91.78" ry="18"/>
<text text-anchor="middle" x="335" y="-158.3" font-family="Times,serif" font-size="14.00">bs_filter (bspline)</text>
</g>
<!-- zooms_field (fixes)&#45;&gt;bs_filter (bspline) -->
<g id="edge33" class="edge">
<title>zooms_field (fixes)&#45;&gt;bs_filter (bspline)</title>
<path fill="none" stroke="black" d="M587.14,-219.75C534.67,-207.94 457.88,-190.66 402.84,-178.27"/>
<polygon fill="black" stroke="black" points="403.36,-174.8 392.83,-176.02 401.82,-181.63 403.36,-174.8"/>
</g>
<!-- moving_masks (utility) -->
<g id="node24" class="node">
<title>moving_masks (utility)</title>
<ellipse fill="none" stroke="black" cx="502" cy="-450" rx="116.18" ry="18"/>
<text text-anchor="middle" x="502" y="-446.3" font-family="Times,serif" font-size="14.00">moving_masks (utility)</text>
</g>
<!-- epi_umask (brainmask)&#45;&gt;moving_masks (utility) -->
<g id="edge34" class="edge">
<title>epi_umask (brainmask)&#45;&gt;moving_masks (utility)</title>
<path fill="none" stroke="black" d="M390.23,-504.59C410.73,-494.76 436.98,-482.17 458.89,-471.67"/>
<polygon fill="black" stroke="black" points="460.48,-474.79 467.98,-467.31 457.45,-468.48 460.48,-474.79"/>
</g>
<!-- extract_field (fmap)&#45;&gt;zooms_field (fixes) -->
<g id="edge35" class="edge">
<title>extract_field (fmap)&#45;&gt;zooms_field (fixes)</title>
<path fill="none" stroke="black" d="M646,-287.7C646,-279.98 646,-270.71 646,-262.11"/>
<polygon fill="black" stroke="black" points="649.5,-262.1 646,-252.1 642.5,-262.1 649.5,-262.1"/>
</g>
<!-- epi_merge (utility)&#45;&gt;syn (fixes) -->
<g id="edge36" class="edge">
<title>epi_merge (utility)&#45;&gt;syn (fixes)</title>
<path fill="none" stroke="black" d="M1012.3,-437.68C927.29,-424.06 786.07,-401.44 706.08,-388.62"/>
<polygon fill="black" stroke="black" points="706.59,-385.16 696.17,-387.04 705.49,-392.07 706.59,-385.16"/>
</g>
<!-- lap_epi_norm (utility) -->
<g id="node25" class="node">
<title>lap_epi_norm (utility)</title>
<ellipse fill="none" stroke="black" cx="1083" cy="-522" rx="109.68" ry="18"/>
<text text-anchor="middle" x="1083" y="-518.3" font-family="Times,serif" font-size="14.00">lap_epi_norm (utility)</text>
</g>
<!-- lap_epi (ants)&#45;&gt;lap_epi_norm (utility) -->
<g id="edge37" class="edge">
<title>lap_epi (ants)&#45;&gt;lap_epi_norm (utility)</title>
<path fill="none" stroke="black" d="M1111.04,-576.05C1106.79,-568.01 1101.61,-558.2 1096.86,-549.23"/>
<polygon fill="black" stroke="black" points="1099.9,-547.48 1092.13,-540.28 1093.71,-550.75 1099.9,-547.48"/>
</g>
<!-- syn (fixes)&#45;&gt;extract_field (fmap) -->
<g id="edge38" class="edge">
<title>syn (fixes)&#45;&gt;extract_field (fmap)</title>
<path fill="none" stroke="black" d="M646,-359.7C646,-351.98 646,-342.71 646,-334.11"/>
<polygon fill="black" stroke="black" points="649.5,-334.1 646,-324.1 642.5,-334.1 649.5,-334.1"/>
</g>
<!-- lap_anat_norm (utility)&#45;&gt;anat_merge (utility) -->
<g id="edge39" class="edge">
<title>lap_anat_norm (utility)&#45;&gt;anat_merge (utility)</title>
<path fill="none" stroke="black" d="M880.35,-576.59C861.56,-566.85 837.55,-554.4 817.41,-543.95"/>
<polygon fill="black" stroke="black" points="818.94,-540.81 808.45,-539.31 815.72,-547.02 818.94,-540.81"/>
</g>
<!-- bs_filter (bspline)&#45;&gt;unwarp (bspline) -->
<g id="edge40" class="edge">
<title>bs_filter (bspline)&#45;&gt;unwarp (bspline)</title>
<path fill="none" stroke="black" d="M307.63,-144.76C291.4,-135.13 270.63,-122.81 253.07,-112.4"/>
<polygon fill="black" stroke="black" points="254.61,-109.24 244.22,-107.15 251.03,-115.26 254.61,-109.24"/>
</g>
<!-- bs_filter (bspline)&#45;&gt;outputnode (utility) -->
<g id="edge41" class="edge">
<title>bs_filter (bspline)&#45;&gt;outputnode (utility)</title>
<path fill="none" stroke="black" d="M335,-143.87C335,-119.67 335,-75.21 335,-46.39"/>
<polygon fill="black" stroke="black" points="338.5,-46.19 335,-36.19 331.5,-46.19 338.5,-46.19"/>
</g>
<!-- moving_masks (utility)&#45;&gt;syn (fixes) -->
<g id="edge42" class="edge">
<title>moving_masks (utility)&#45;&gt;syn (fixes)</title>
<path fill="none" stroke="black" d="M535.76,-432.59C557,-422.26 584.49,-408.9 606.71,-398.1"/>
<polygon fill="black" stroke="black" points="608.41,-401.16 615.88,-393.64 605.35,-394.87 608.41,-401.16"/>
</g>
<!-- lap_epi_norm (utility)&#45;&gt;epi_merge (utility) -->
<g id="edge43" class="edge">
<title>lap_epi_norm (utility)&#45;&gt;epi_merge (utility)</title>
<path fill="none" stroke="black" d="M1083,-503.7C1083,-495.98 1083,-486.71 1083,-478.11"/>
<polygon fill="black" stroke="black" points="1086.5,-478.1 1083,-468.1 1079.5,-478.1 1086.5,-478.1"/>
</g>
</g>
</svg>
