<?xml version="1.0" encoding="UTF-8" standalone="no"?>
<!DOCTYPE svg PUBLIC "-//W3C//DTD SVG 1.1//EN"
 "http://www.w3.org/Graphics/SVG/1.1/DTD/svg11.dtd">
<!-- Generated by graphviz version 2.40.1 (20161225.0304)
 -->
<!-- Title: structs Pages: 1 -->
<svg width="1635pt" height="1179pt"
 viewBox="0.00 0.00 1635.28 1179.00" xmlns="http://www.w3.org/2000/svg" xmlns:xlink="http://www.w3.org/1999/xlink">
<g id="graph0" class="graph" transform="scale(1 1) rotate(0) translate(4 1175)">
<title>structs</title>
<polygon fill="#ffffff" stroke="transparent" points="-4,4 -4,-1175 1631.2845,-1175 1631.2845,4 -4,4"/>
<!-- pepolar_estimate_wfinputnode -->
<g id="node1" class="node">
<title>pepolar_estimate_wfinputnode</title>
<polygon fill="none" stroke="#000000" points="0,-1101.5 0,-1170.5 208,-1170.5 208,-1101.5 0,-1101.5"/>
<text text-anchor="middle" x="17.5" y="-1132.3" font-family="Times,serif" font-size="14.00" fill="#000000">IN</text>
<polyline fill="none" stroke="#000000" points="35,-1101.5 35,-1170.5 "/>
<text text-anchor="middle" x="79.5" y="-1155.3" font-family="Times,serif" font-size="14.00" fill="#000000">inputnode</text>
<polyline fill="none" stroke="#000000" points="35,-1147.5 124,-1147.5 "/>
<text text-anchor="middle" x="79.5" y="-1132.3" font-family="Times,serif" font-size="14.00" fill="#000000">utility</text>
<polyline fill="none" stroke="#000000" points="35,-1124.5 124,-1124.5 "/>
<text text-anchor="middle" x="79.5" y="-1109.3" font-family="Times,serif" font-size="14.00" fill="#000000"> </text>
<polyline fill="none" stroke="#000000" points="124,-1101.5 124,-1170.5 "/>
<text text-anchor="middle" x="166" y="-1155.3" font-family="Times,serif" font-size="14.00" fill="#000000">OUT</text>
<polyline fill="none" stroke="#000000" points="124,-1147.5 208,-1147.5 "/>
<text text-anchor="middle" x="166" y="-1132.3" font-family="Times,serif" font-size="14.00" fill="#000000">in_data</text>
<polyline fill="none" stroke="#000000" points="124,-1124.5 208,-1124.5 "/>
<text text-anchor="middle" x="166" y="-1109.3" font-family="Times,serif" font-size="14.00" fill="#000000">metadata</text>
</g>
<!-- pepolar_estimate_wfflatten -->
<g id="node2" class="node">
<title>pepolar_estimate_wfflatten</title>
<polygon fill="none" stroke="#000000" points="208.5,-995.5 208.5,-1064.5 429.5,-1064.5 429.5,-995.5 208.5,-995.5"/>
<text text-anchor="middle" x="245.5" y="-1049.3" font-family="Times,serif" font-size="14.00" fill="#000000">IN</text>
<polyline fill="none" stroke="#000000" points="208.5,-1041.5 282.5,-1041.5 "/>
<text text-anchor="middle" x="245.5" y="-1026.3" font-family="Times,serif" font-size="14.00" fill="#000000">in_data</text>
<polyline fill="none" stroke="#000000" points="208.5,-1018.5 282.5,-1018.5 "/>
<text text-anchor="middle" x="245.5" y="-1003.3" font-family="Times,serif" font-size="14.00" fill="#000000">in_meta</text>
<polyline fill="none" stroke="#000000" points="282.5,-995.5 282.5,-1064.5 "/>
<text text-anchor="middle" x="314.5" y="-1049.3" font-family="Times,serif" font-size="14.00" fill="#000000">flatten</text>
<polyline fill="none" stroke="#000000" points="282.5,-1041.5 346.5,-1041.5 "/>
<text text-anchor="middle" x="314.5" y="-1026.3" font-family="Times,serif" font-size="14.00" fill="#000000">utils</text>
<polyline fill="none" stroke="#000000" points="282.5,-1018.5 346.5,-1018.5 "/>
<text text-anchor="middle" x="314.5" y="-1003.3" font-family="Times,serif" font-size="14.00" fill="#000000"> </text>
<polyline fill="none" stroke="#000000" points="346.5,-995.5 346.5,-1064.5 "/>
<text text-anchor="middle" x="388" y="-1049.3" font-family="Times,serif" font-size="14.00" fill="#000000">OUT</text>
<polyline fill="none" stroke="#000000" points="346.5,-1041.5 429.5,-1041.5 "/>
<text text-anchor="middle" x="388" y="-1026.3" font-family="Times,serif" font-size="14.00" fill="#000000">out_data</text>
<polyline fill="none" stroke="#000000" points="346.5,-1018.5 429.5,-1018.5 "/>
<text text-anchor="middle" x="388" y="-1003.3" font-family="Times,serif" font-size="14.00" fill="#000000">out_meta</text>
</g>
<!-- pepolar_estimate_wfinputnode&#45;&gt;pepolar_estimate_wfflatten -->
<g id="edge8" class="edge">
<title>pepolar_estimate_wfinputnode:e&#45;&gt;pepolar_estimate_wfflatten:w</title>
<path fill="none" stroke="#000000" d="M208,-1136C250.6944,-1136 177.3134,-1048.9434 198.2437,-1032.6202"/>
<polygon fill="#000000" stroke="#000000" points="199.2501,-1035.9741 208,-1030 197.4344,-1029.2136 199.2501,-1035.9741"/>
</g>
<!-- pepolar_estimate_wfinputnode&#45;&gt;pepolar_estimate_wfflatten -->
<g id="edge9" class="edge">
<title>pepolar_estimate_wfinputnode:e&#45;&gt;pepolar_estimate_wfflatten:w</title>
<path fill="none" stroke="#000000" d="M208,-1113C208,-1113 208,-1043.6947 208,-1017.1637"/>
<polygon fill="#000000" stroke="#000000" points="211.5001,-1017 208,-1007 204.5001,-1017 211.5001,-1017"/>
</g>
<!-- pepolar_estimate_wfreadout_time -->
<g id="node3" class="node">
<title>pepolar_estimate_wfreadout_time</title>
<polygon fill="none" stroke="#000000" points="411,-654.5 411,-746.5 719,-746.5 719,-654.5 411,-654.5"/>
<text text-anchor="middle" x="453" y="-727.8" font-family="Times,serif" font-size="14.00" fill="#000000">IN</text>
<polyline fill="none" stroke="#000000" points="411,-716.5 495,-716.5 "/>
<text text-anchor="middle" x="453" y="-697.3" font-family="Times,serif" font-size="14.00" fill="#000000">in_file</text>
<polyline fill="none" stroke="#000000" points="411,-685.5 495,-685.5 "/>
<text text-anchor="middle" x="453" y="-666.3" font-family="Times,serif" font-size="14.00" fill="#000000">metadata</text>
<polyline fill="none" stroke="#000000" points="495,-654.5 495,-746.5 "/>
<text text-anchor="middle" x="551" y="-727.8" font-family="Times,serif" font-size="14.00" fill="#000000">readout_time</text>
<polyline fill="none" stroke="#000000" points="495,-716.5 607,-716.5 "/>
<text text-anchor="middle" x="551" y="-697.3" font-family="Times,serif" font-size="14.00" fill="#000000">epi</text>
<polyline fill="none" stroke="#000000" points="495,-685.5 607,-685.5 "/>
<text text-anchor="middle" x="551" y="-666.3" font-family="Times,serif" font-size="14.00" fill="#000000"> </text>
<polyline fill="none" stroke="#000000" points="607,-654.5 607,-746.5 "/>
<text text-anchor="middle" x="663" y="-731.3" font-family="Times,serif" font-size="14.00" fill="#000000">OUT</text>
<polyline fill="none" stroke="#000000" points="607,-723.5 719,-723.5 "/>
<text text-anchor="middle" x="663" y="-708.3" font-family="Times,serif" font-size="14.00" fill="#000000">pe_dir_fsl</text>
<polyline fill="none" stroke="#000000" points="607,-700.5 719,-700.5 "/>
<text text-anchor="middle" x="663" y="-685.3" font-family="Times,serif" font-size="14.00" fill="#000000">pe_direction</text>
<polyline fill="none" stroke="#000000" points="607,-677.5 719,-677.5 "/>
<text text-anchor="middle" x="663" y="-662.3" font-family="Times,serif" font-size="14.00" fill="#000000">readout_time</text>
</g>
<!-- pepolar_estimate_wfflatten&#45;&gt;pepolar_estimate_wfreadout_time -->
<g id="edge5" class="edge">
<title>pepolar_estimate_wfflatten:e&#45;&gt;pepolar_estimate_wfreadout_time:w</title>
<path fill="none" stroke="#000000" d="M430,-1030C463.2762,-1030 389.9535,-757.8757 404.0752,-708.9784"/>
<polygon fill="#000000" stroke="#000000" points="406.7738,-711.2155 411,-701.5 401.6376,-706.4594 406.7738,-711.2155"/>
</g>
<!-- pepolar_estimate_wfflatten&#45;&gt;pepolar_estimate_wfreadout_time -->
<g id="edge7" class="edge">
<title>pepolar_estimate_wfflatten:e&#45;&gt;pepolar_estimate_wfreadout_time:w</title>
<path fill="none" stroke="#000000" d="M430,-1007C435.3333,-1007 430.6516,-1000.2934 430,-995 427.9849,-978.6311 424.1597,-975.1869 421,-959 397.0091,-836.0966 288.4284,-678.3943 400.9769,-669.8618"/>
<polygon fill="#000000" stroke="#000000" points="401.1328,-673.3586 411,-669.5 400.8802,-666.3632 401.1328,-673.3586"/>
</g>
<!-- pepolar_estimate_wfregrid -->
<g id="node4" class="node">
<title>pepolar_estimate_wfregrid</title>
<polygon fill="none" stroke="#000000" points="458,-889.5 458,-958.5 674,-958.5 674,-889.5 458,-889.5"/>
<text text-anchor="middle" x="492.5" y="-937.8" font-family="Times,serif" font-size="14.00" fill="#000000">IN</text>
<polyline fill="none" stroke="#000000" points="458,-924.5 527,-924.5 "/>
<text text-anchor="middle" x="492.5" y="-903.3" font-family="Times,serif" font-size="14.00" fill="#000000">in_data</text>
<polyline fill="none" stroke="#000000" points="527,-889.5 527,-958.5 "/>
<text text-anchor="middle" x="557.5" y="-943.3" font-family="Times,serif" font-size="14.00" fill="#000000">regrid</text>
<polyline fill="none" stroke="#000000" points="527,-935.5 588,-935.5 "/>
<text text-anchor="middle" x="557.5" y="-920.3" font-family="Times,serif" font-size="14.00" fill="#000000">utils</text>
<polyline fill="none" stroke="#000000" points="527,-912.5 588,-912.5 "/>
<text text-anchor="middle" x="557.5" y="-897.3" font-family="Times,serif" font-size="14.00" fill="#000000"> </text>
<polyline fill="none" stroke="#000000" points="588,-889.5 588,-958.5 "/>
<text text-anchor="middle" x="631" y="-943.3" font-family="Times,serif" font-size="14.00" fill="#000000">OUT</text>
<polyline fill="none" stroke="#000000" points="588,-935.5 674,-935.5 "/>
<text text-anchor="middle" x="631" y="-920.3" font-family="Times,serif" font-size="14.00" fill="#000000">out_data</text>
<polyline fill="none" stroke="#000000" points="588,-912.5 674,-912.5 "/>
<text text-anchor="middle" x="631" y="-897.3" font-family="Times,serif" font-size="14.00" fill="#000000">reference</text>
</g>
<!-- pepolar_estimate_wfflatten&#45;&gt;pepolar_estimate_wfregrid -->
<g id="edge6" class="edge">
<title>pepolar_estimate_wfflatten:e&#45;&gt;pepolar_estimate_wfregrid:w</title>
<path fill="none" stroke="#000000" d="M430,-1030C454.419,-1030 436.2708,-936.6671 449.7154,-912.6047"/>
<polygon fill="#000000" stroke="#000000" points="451.6785,-915.5024 458,-907 447.7561,-909.7045 451.6785,-915.5024"/>
</g>
<!-- pepolar_estimate_wftopup -->
<g id="node8" class="node">
<title>pepolar_estimate_wftopup</title>
<polygon fill="none" stroke="#000000" points="719.5,-456.5 719.5,-617.5 1048.5,-617.5 1048.5,-456.5 719.5,-456.5"/>
<text text-anchor="middle" x="796.5" y="-593.8" font-family="Times,serif" font-size="14.00" fill="#000000">IN</text>
<polyline fill="none" stroke="#000000" points="719.5,-577.5 873.5,-577.5 "/>
<text text-anchor="middle" x="796.5" y="-553.8" font-family="Times,serif" font-size="14.00" fill="#000000">encoding_direction</text>
<polyline fill="none" stroke="#000000" points="719.5,-537.5 873.5,-537.5 "/>
<text text-anchor="middle" x="796.5" y="-513.8" font-family="Times,serif" font-size="14.00" fill="#000000">in_file</text>
<polyline fill="none" stroke="#000000" points="719.5,-497.5 873.5,-497.5 "/>
<text text-anchor="middle" x="796.5" y="-473.3" font-family="Times,serif" font-size="14.00" fill="#000000">readout_times</text>
<polyline fill="none" stroke="#000000" points="873.5,-456.5 873.5,-617.5 "/>
<text text-anchor="middle" x="902.5" y="-587.3" font-family="Times,serif" font-size="14.00" fill="#000000">topup</text>
<polyline fill="none" stroke="#000000" points="873.5,-564.5 931.5,-564.5 "/>
<text text-anchor="middle" x="902.5" y="-533.8" font-family="Times,serif" font-size="14.00" fill="#000000">fsl</text>
<polyline fill="none" stroke="#000000" points="873.5,-510.5 931.5,-510.5 "/>
<text text-anchor="middle" x="902.5" y="-479.8" font-family="Times,serif" font-size="14.00" fill="#000000"> </text>
<polyline fill="none" stroke="#000000" points="931.5,-456.5 931.5,-617.5 "/>
<text text-anchor="middle" x="990" y="-602.3" font-family="Times,serif" font-size="14.00" fill="#000000">OUT</text>
<polyline fill="none" stroke="#000000" points="931.5,-594.5 1048.5,-594.5 "/>
<text text-anchor="middle" x="990" y="-579.3" font-family="Times,serif" font-size="14.00" fill="#000000">out_corrected</text>
<polyline fill="none" stroke="#000000" points="931.5,-571.5 1048.5,-571.5 "/>
<text text-anchor="middle" x="990" y="-556.3" font-family="Times,serif" font-size="14.00" fill="#000000">out_field</text>
<polyline fill="none" stroke="#000000" points="931.5,-548.5 1048.5,-548.5 "/>
<text text-anchor="middle" x="990" y="-533.3" font-family="Times,serif" font-size="14.00" fill="#000000">out_fieldcoef</text>
<polyline fill="none" stroke="#000000" points="931.5,-525.5 1048.5,-525.5 "/>
<text text-anchor="middle" x="990" y="-510.3" font-family="Times,serif" font-size="14.00" fill="#000000">out_jacs</text>
<polyline fill="none" stroke="#000000" points="931.5,-502.5 1048.5,-502.5 "/>
<text text-anchor="middle" x="990" y="-487.3" font-family="Times,serif" font-size="14.00" fill="#000000">out_mats</text>
<polyline fill="none" stroke="#000000" points="931.5,-479.5 1048.5,-479.5 "/>
<text text-anchor="middle" x="990" y="-464.3" font-family="Times,serif" font-size="14.00" fill="#000000">out_warps</text>
</g>
<!-- pepolar_estimate_wfreadout_time&#45;&gt;pepolar_estimate_wftopup -->
<g id="edge13" class="edge">
<title>pepolar_estimate_wfreadout_time:e&#45;&gt;pepolar_estimate_wftopup:w</title>
<path fill="none" stroke="#000000" d="M719,-712.5C783.6432,-712.5 665.7198,-575.575 708.9685,-559.5291"/>
<polygon fill="#000000" stroke="#000000" points="709.6417,-562.9671 719,-558 708.5867,-556.047 709.6417,-562.9671"/>
</g>
<!-- pepolar_estimate_wfreadout_time&#45;&gt;pepolar_estimate_wftopup -->
<g id="edge14" class="edge">
<title>pepolar_estimate_wfreadout_time:e&#45;&gt;pepolar_estimate_wftopup:w</title>
<path fill="none" stroke="#000000" d="M719,-665.5C719,-665.5 719,-526.288 719,-487.1346"/>
<polygon fill="#000000" stroke="#000000" points="722.5001,-487 719,-477 715.5001,-487 722.5001,-487"/>
</g>
<!-- pepolar_estimate_wffix_coeff -->
<g id="node9" class="node">
<title>pepolar_estimate_wffix_coeff</title>
<polygon fill="none" stroke="#000000" points="1340,-327.5 1340,-419.5 1580,-419.5 1580,-327.5 1340,-327.5"/>
<text text-anchor="middle" x="1380" y="-404.3" font-family="Times,serif" font-size="14.00" fill="#000000">IN</text>
<polyline fill="none" stroke="#000000" points="1340,-396.5 1420,-396.5 "/>
<text text-anchor="middle" x="1380" y="-381.3" font-family="Times,serif" font-size="14.00" fill="#000000">fmap_ref</text>
<polyline fill="none" stroke="#000000" points="1340,-373.5 1420,-373.5 "/>
<text text-anchor="middle" x="1380" y="-358.3" font-family="Times,serif" font-size="14.00" fill="#000000">in_coeff</text>
<polyline fill="none" stroke="#000000" points="1340,-350.5 1420,-350.5 "/>
<text text-anchor="middle" x="1380" y="-335.3" font-family="Times,serif" font-size="14.00" fill="#000000">pe_dir</text>
<polyline fill="none" stroke="#000000" points="1420,-327.5 1420,-419.5 "/>
<text text-anchor="middle" x="1458.5" y="-400.8" font-family="Times,serif" font-size="14.00" fill="#000000">fix_coeff</text>
<polyline fill="none" stroke="#000000" points="1420,-389.5 1497,-389.5 "/>
<text text-anchor="middle" x="1458.5" y="-370.3" font-family="Times,serif" font-size="14.00" fill="#000000">bspline</text>
<polyline fill="none" stroke="#000000" points="1420,-358.5 1497,-358.5 "/>
<text text-anchor="middle" x="1458.5" y="-339.3" font-family="Times,serif" font-size="14.00" fill="#000000"> </text>
<polyline fill="none" stroke="#000000" points="1497,-327.5 1497,-419.5 "/>
<text text-anchor="middle" x="1538.5" y="-392.8" font-family="Times,serif" font-size="14.00" fill="#000000">OUT</text>
<polyline fill="none" stroke="#000000" points="1497,-373.5 1580,-373.5 "/>
<text text-anchor="middle" x="1538.5" y="-346.8" font-family="Times,serif" font-size="14.00" fill="#000000">out_coeff</text>
</g>
<!-- pepolar_estimate_wfreadout_time&#45;&gt;pepolar_estimate_wffix_coeff -->
<g id="edge12" class="edge">
<title>pepolar_estimate_wfreadout_time:e&#45;&gt;pepolar_estimate_wffix_coeff:w</title>
<path fill="none" stroke="#000000" d="M719,-688.5C739.614,-688.5 731.6924,-663.4746 750,-654 811.2003,-622.3273 1006.5751,-663.8707 1058,-618 1113.1889,-568.7718 1041.6974,-506.2042 1096,-456 1173.5853,-384.2703 1257.8714,-496.2683 1331,-420 1341.0492,-409.5193 1329.2269,-363.9889 1333.2299,-345.9246"/>
<polygon fill="#000000" stroke="#000000" points="1335.8483,-348.2475 1340,-338.5 1330.6758,-343.531 1335.8483,-348.2475"/>
</g>
<!-- pepolar_estimate_wfconcat_blips -->
<g id="node5" class="node">
<title>pepolar_estimate_wfconcat_blips</title>
<polygon fill="none" stroke="#000000" points="582.5,-783.5 582.5,-852.5 827.5,-852.5 827.5,-783.5 582.5,-783.5"/>
<text text-anchor="middle" x="616.5" y="-831.8" font-family="Times,serif" font-size="14.00" fill="#000000">IN</text>
<polyline fill="none" stroke="#000000" points="582.5,-818.5 650.5,-818.5 "/>
<text text-anchor="middle" x="616.5" y="-797.3" font-family="Times,serif" font-size="14.00" fill="#000000">in_files</text>
<polyline fill="none" stroke="#000000" points="650.5,-783.5 650.5,-852.5 "/>
<text text-anchor="middle" x="704" y="-837.3" font-family="Times,serif" font-size="14.00" fill="#000000">concat_blips</text>
<polyline fill="none" stroke="#000000" points="650.5,-829.5 757.5,-829.5 "/>
<text text-anchor="middle" x="704" y="-814.3" font-family="Times,serif" font-size="14.00" fill="#000000">nibabel</text>
<polyline fill="none" stroke="#000000" points="650.5,-806.5 757.5,-806.5 "/>
<text text-anchor="middle" x="704" y="-791.3" font-family="Times,serif" font-size="14.00" fill="#000000"> </text>
<polyline fill="none" stroke="#000000" points="757.5,-783.5 757.5,-852.5 "/>
<text text-anchor="middle" x="792.5" y="-831.8" font-family="Times,serif" font-size="14.00" fill="#000000">OUT</text>
<polyline fill="none" stroke="#000000" points="757.5,-818.5 827.5,-818.5 "/>
<text text-anchor="middle" x="792.5" y="-797.3" font-family="Times,serif" font-size="14.00" fill="#000000">out_file</text>
</g>
<!-- pepolar_estimate_wfregrid&#45;&gt;pepolar_estimate_wfconcat_blips -->
<g id="edge16" class="edge">
<title>pepolar_estimate_wfregrid:e&#45;&gt;pepolar_estimate_wfconcat_blips:w</title>
<path fill="none" stroke="#000000" d="M674,-924C689.5556,-924 682.7693,-901.8482 674,-889 649.2475,-852.7341 606.7525,-889.2659 582,-853 571.4143,-837.4904 562.7734,-812.8558 572.3015,-804.1631"/>
<polygon fill="#000000" stroke="#000000" points="573.5781,-807.4282 582,-801 571.4076,-800.7732 573.5781,-807.4282"/>
</g>
<!-- pepolar_estimate_wfpad_ref_slices -->
<g id="node6" class="node">
<title>pepolar_estimate_wfpad_ref_slices</title>
<polygon fill="none" stroke="#000000" points="1104.5,-502.5 1104.5,-571.5 1353.5,-571.5 1353.5,-502.5 1104.5,-502.5"/>
<text text-anchor="middle" x="1134.5" y="-550.8" font-family="Times,serif" font-size="14.00" fill="#000000">IN</text>
<polyline fill="none" stroke="#000000" points="1104.5,-537.5 1164.5,-537.5 "/>
<text text-anchor="middle" x="1134.5" y="-516.3" font-family="Times,serif" font-size="14.00" fill="#000000">in_file</text>
<polyline fill="none" stroke="#000000" points="1164.5,-502.5 1164.5,-571.5 "/>
<text text-anchor="middle" x="1224" y="-556.3" font-family="Times,serif" font-size="14.00" fill="#000000">pad_ref_slices</text>
<polyline fill="none" stroke="#000000" points="1164.5,-548.5 1283.5,-548.5 "/>
<text text-anchor="middle" x="1224" y="-533.3" font-family="Times,serif" font-size="14.00" fill="#000000">utils</text>
<polyline fill="none" stroke="#000000" points="1164.5,-525.5 1283.5,-525.5 "/>
<text text-anchor="middle" x="1224" y="-510.3" font-family="Times,serif" font-size="14.00" fill="#000000"> </text>
<polyline fill="none" stroke="#000000" points="1283.5,-502.5 1283.5,-571.5 "/>
<text text-anchor="middle" x="1318.5" y="-550.8" font-family="Times,serif" font-size="14.00" fill="#000000">OUT</text>
<polyline fill="none" stroke="#000000" points="1283.5,-537.5 1353.5,-537.5 "/>
<text text-anchor="middle" x="1318.5" y="-516.3" font-family="Times,serif" font-size="14.00" fill="#000000">out_file</text>
</g>
<!-- pepolar_estimate_wfregrid&#45;&gt;pepolar_estimate_wfpad_ref_slices -->
<g id="edge17" class="edge">
<title>pepolar_estimate_wfregrid:e&#45;&gt;pepolar_estimate_wfpad_ref_slices:w</title>
<path fill="none" stroke="#000000" d="M674,-901C843.5408,-901 905.1029,-868.8375 1023,-747 1068.0691,-700.4246 1071.3214,-679.7515 1091,-618 1096.5499,-600.5844 1086.6557,-544.3064 1095.8291,-525.8919"/>
<polygon fill="#000000" stroke="#000000" points="1097.9359,-528.6878 1104,-520 1093.8417,-523.0099 1097.9359,-528.6878"/>
</g>
<!-- pepolar_estimate_wfpad_blip_slices -->
<g id="node7" class="node">
<title>pepolar_estimate_wfpad_blip_slices</title>
<polygon fill="none" stroke="#000000" points="758.5,-666 758.5,-735 1013.5,-735 1013.5,-666 758.5,-666"/>
<text text-anchor="middle" x="788.5" y="-714.3" font-family="Times,serif" font-size="14.00" fill="#000000">IN</text>
<polyline fill="none" stroke="#000000" points="758.5,-701 818.5,-701 "/>
<text text-anchor="middle" x="788.5" y="-679.8" font-family="Times,serif" font-size="14.00" fill="#000000">in_file</text>
<polyline fill="none" stroke="#000000" points="818.5,-666 818.5,-735 "/>
<text text-anchor="middle" x="881" y="-719.8" font-family="Times,serif" font-size="14.00" fill="#000000">pad_blip_slices</text>
<polyline fill="none" stroke="#000000" points="818.5,-712 943.5,-712 "/>
<text text-anchor="middle" x="881" y="-696.8" font-family="Times,serif" font-size="14.00" fill="#000000">utils</text>
<polyline fill="none" stroke="#000000" points="818.5,-689 943.5,-689 "/>
<text text-anchor="middle" x="881" y="-673.8" font-family="Times,serif" font-size="14.00" fill="#000000"> </text>
<polyline fill="none" stroke="#000000" points="943.5,-666 943.5,-735 "/>
<text text-anchor="middle" x="978.5" y="-714.3" font-family="Times,serif" font-size="14.00" fill="#000000">OUT</text>
<polyline fill="none" stroke="#000000" points="943.5,-701 1013.5,-701 "/>
<text text-anchor="middle" x="978.5" y="-679.8" font-family="Times,serif" font-size="14.00" fill="#000000">out_file</text>
</g>
<!-- pepolar_estimate_wfconcat_blips&#45;&gt;pepolar_estimate_wfpad_blip_slices -->
<g id="edge3" class="edge">
<title>pepolar_estimate_wfconcat_blips:e&#45;&gt;pepolar_estimate_wfpad_blip_slices:w</title>
<path fill="none" stroke="#000000" d="M828,-801C836,-801 831.7459,-790.0688 828,-783 810.3953,-749.7787 775.6047,-768.7213 758,-735.5 749.292,-719.0675 739.6335,-695.4099 748.2349,-686.7955"/>
<polygon fill="#000000" stroke="#000000" points="749.6442,-690.0139 758,-683.5 747.4058,-683.3814 749.6442,-690.0139"/>
</g>
<!-- pepolar_estimate_wfpad_ref_slices&#45;&gt;pepolar_estimate_wffix_coeff -->
<g id="edge11" class="edge">
<title>pepolar_estimate_wfpad_ref_slices:e&#45;&gt;pepolar_estimate_wffix_coeff:w</title>
<path fill="none" stroke="#000000" d="M1354,-520C1379.8245,-520 1328.7308,-420.6683 1332.9221,-392.7313"/>
<polygon fill="#000000" stroke="#000000" points="1335.5064,-395.0947 1340,-385.5 1330.5038,-390.1983 1335.5064,-395.0947"/>
</g>
<!-- pepolar_estimate_wfpad_blip_slices&#45;&gt;pepolar_estimate_wftopup -->
<g id="edge10" class="edge">
<title>pepolar_estimate_wfpad_blip_slices:e&#45;&gt;pepolar_estimate_wftopup:w</title>
<path fill="none" stroke="#000000" d="M1014,-683.5C1022,-683.5 1019.1878,-671.5899 1014,-665.5 927.8831,-564.4076 805.1169,-719.0924 719,-618 692.3924,-586.7654 676.9217,-528.245 708.7412,-518.4175"/>
<polygon fill="#000000" stroke="#000000" points="709.5732,-521.8359 719,-517 708.615,-514.9018 709.5732,-521.8359"/>
</g>
<!-- pepolar_estimate_wftopup&#45;&gt;pepolar_estimate_wffix_coeff -->
<g id="edge20" class="edge">
<title>pepolar_estimate_wftopup:e&#45;&gt;pepolar_estimate_wffix_coeff:w</title>
<path fill="none" stroke="#000000" d="M1049,-537C1067.2304,-537 1048.9421,-468.7215 1062,-456 1148.3979,-371.828 1244.8756,-504.4518 1331,-420 1337.9701,-413.1653 1332.3063,-384.2516 1334.3,-369.7972"/>
<polygon fill="#000000" stroke="#000000" points="1337.2224,-371.7243 1340,-361.5 1331.4527,-367.7606 1337.2224,-371.7243"/>
</g>
<!-- pepolar_estimate_wfref_average -->
<g id="node10" class="node">
<title>pepolar_estimate_wfref_average</title>
<polygon fill="none" stroke="#000000" points="1090.5,-339 1090.5,-408 1321.5,-408 1321.5,-339 1090.5,-339"/>
<text text-anchor="middle" x="1120.5" y="-387.3" font-family="Times,serif" font-size="14.00" fill="#000000">IN</text>
<polyline fill="none" stroke="#000000" points="1090.5,-374 1150.5,-374 "/>
<text text-anchor="middle" x="1120.5" y="-352.8" font-family="Times,serif" font-size="14.00" fill="#000000">in_file</text>
<polyline fill="none" stroke="#000000" points="1150.5,-339 1150.5,-408 "/>
<text text-anchor="middle" x="1201" y="-392.8" font-family="Times,serif" font-size="14.00" fill="#000000">ref_average</text>
<polyline fill="none" stroke="#000000" points="1150.5,-385 1251.5,-385 "/>
<text text-anchor="middle" x="1201" y="-369.8" font-family="Times,serif" font-size="14.00" fill="#000000">images</text>
<polyline fill="none" stroke="#000000" points="1150.5,-362 1251.5,-362 "/>
<text text-anchor="middle" x="1201" y="-346.8" font-family="Times,serif" font-size="14.00" fill="#000000"> </text>
<polyline fill="none" stroke="#000000" points="1251.5,-339 1251.5,-408 "/>
<text text-anchor="middle" x="1286.5" y="-387.3" font-family="Times,serif" font-size="14.00" fill="#000000">OUT</text>
<polyline fill="none" stroke="#000000" points="1251.5,-374 1321.5,-374 "/>
<text text-anchor="middle" x="1286.5" y="-352.8" font-family="Times,serif" font-size="14.00" fill="#000000">out_file</text>
</g>
<!-- pepolar_estimate_wftopup&#45;&gt;pepolar_estimate_wfref_average -->
<g id="edge18" class="edge">
<title>pepolar_estimate_wftopup:e&#45;&gt;pepolar_estimate_wfref_average:w</title>
<path fill="none" stroke="#000000" d="M1049,-583C1063.1848,-583 1058.6772,-469.7902 1062,-456 1066.0215,-439.3104 1071.0261,-436.431 1076,-420 1079.2054,-409.4112 1077.2387,-377.814 1082.6259,-363.5844"/>
<polygon fill="#000000" stroke="#000000" points="1085.2135,-365.952 1090,-356.5 1080.3639,-360.9041 1085.2135,-365.952"/>
</g>
<!-- pepolar_estimate_wfoutputnode -->
<g id="node12" class="node">
<title>pepolar_estimate_wfoutputnode</title>
<polygon fill="none" stroke="#000000" points="1062,-.5 1062,-184.5 1308,-184.5 1308,-.5 1062,-.5"/>
<text text-anchor="middle" x="1111" y="-169.3" font-family="Times,serif" font-size="14.00" fill="#000000">IN</text>
<polyline fill="none" stroke="#000000" points="1062,-161.5 1160,-161.5 "/>
<text text-anchor="middle" x="1111" y="-146.3" font-family="Times,serif" font-size="14.00" fill="#000000">fmap</text>
<polyline fill="none" stroke="#000000" points="1062,-138.5 1160,-138.5 "/>
<text text-anchor="middle" x="1111" y="-123.3" font-family="Times,serif" font-size="14.00" fill="#000000">fmap_coeff</text>
<polyline fill="none" stroke="#000000" points="1062,-115.5 1160,-115.5 "/>
<text text-anchor="middle" x="1111" y="-100.3" font-family="Times,serif" font-size="14.00" fill="#000000">fmap_mask</text>
<polyline fill="none" stroke="#000000" points="1062,-92.5 1160,-92.5 "/>
<text text-anchor="middle" x="1111" y="-77.3" font-family="Times,serif" font-size="14.00" fill="#000000">fmap_ref</text>
<polyline fill="none" stroke="#000000" points="1062,-69.5 1160,-69.5 "/>
<text text-anchor="middle" x="1111" y="-54.3" font-family="Times,serif" font-size="14.00" fill="#000000">jacobians</text>
<polyline fill="none" stroke="#000000" points="1062,-46.5 1160,-46.5 "/>
<text text-anchor="middle" x="1111" y="-31.3" font-family="Times,serif" font-size="14.00" fill="#000000">out_warps</text>
<polyline fill="none" stroke="#000000" points="1062,-23.5 1160,-23.5 "/>
<text text-anchor="middle" x="1111" y="-8.3" font-family="Times,serif" font-size="14.00" fill="#000000">xfms</text>
<polyline fill="none" stroke="#000000" points="1160,-.5 1160,-184.5 "/>
<text text-anchor="middle" x="1209" y="-150.3" font-family="Times,serif" font-size="14.00" fill="#000000">outputnode</text>
<polyline fill="none" stroke="#000000" points="1160,-123.5 1258,-123.5 "/>
<text text-anchor="middle" x="1209" y="-89.3" font-family="Times,serif" font-size="14.00" fill="#000000">utility</text>
<polyline fill="none" stroke="#000000" points="1160,-62.5 1258,-62.5 "/>
<text text-anchor="middle" x="1209" y="-27.8" font-family="Times,serif" font-size="14.00" fill="#000000"> </text>
<polyline fill="none" stroke="#000000" points="1258,-.5 1258,-184.5 "/>
<text text-anchor="middle" x="1283" y="-88.8" font-family="Times,serif" font-size="14.00" fill="#000000">OUT</text>
</g>
<!-- pepolar_estimate_wftopup&#45;&gt;pepolar_estimate_wfoutputnode -->
<g id="edge19" class="edge">
<title>pepolar_estimate_wftopup:e&#45;&gt;pepolar_estimate_wfoutputnode:w</title>
<path fill="none" stroke="#000000" d="M1049,-560C1054.1569,-560 1055.9702,-223.6821 1060.5002,-160.6225"/>
<polygon fill="#000000" stroke="#000000" points="1063.9965,-160.905 1062,-150.5 1057.0721,-159.879 1063.9965,-160.905"/>
</g>
<!-- pepolar_estimate_wftopup&#45;&gt;pepolar_estimate_wfoutputnode -->
<g id="edge21" class="edge">
<title>pepolar_estimate_wftopup:e&#45;&gt;pepolar_estimate_wfoutputnode:w</title>
<path fill="none" stroke="#000000" d="M1049,-514C1049.6493,-514 1049.9921,-327.6493 1050,-327 1050.5704,-279.884 1050.1169,-268.0819 1052,-221 1054.7618,-151.9498 995.6945,-66.6709 1051.9535,-58.1879"/>
<polygon fill="#000000" stroke="#000000" points="1052.2625,-61.675 1062,-57.5 1051.7842,-54.6913 1052.2625,-61.675"/>
</g>
<!-- pepolar_estimate_wftopup&#45;&gt;pepolar_estimate_wfoutputnode -->
<g id="edge22" class="edge">
<title>pepolar_estimate_wftopup:e&#45;&gt;pepolar_estimate_wfoutputnode:w</title>
<path fill="none" stroke="#000000" d="M1049,-491C1055.8934,-491 1045.0828,-421.4953 1045,-420 1035.1475,-242.109 886.2737,-20.3523 1051.7341,-11.7578"/>
<polygon fill="#000000" stroke="#000000" points="1052.0911,-15.2501 1062,-11.5 1051.9152,-8.2523 1052.0911,-15.2501"/>
</g>
<!-- pepolar_estimate_wftopup&#45;&gt;pepolar_estimate_wfoutputnode -->
<g id="edge23" class="edge">
<title>pepolar_estimate_wftopup:e&#45;&gt;pepolar_estimate_wfoutputnode:w</title>
<path fill="none" stroke="#000000" d="M1049,-468C1054.3333,-468 1050.4445,-461.134 1049,-456 1043.9213,-437.9498 1033.9751,-437.4055 1027,-420 1005.1764,-365.5417 1005.2579,-349.3336 999,-291 986.8577,-177.8149 947.1198,-42.9422 1051.7714,-34.8798"/>
<polygon fill="#000000" stroke="#000000" points="1052.1368,-38.3687 1062,-34.5 1051.877,-31.3736 1052.1368,-38.3687"/>
</g>
<!-- pepolar_estimate_wffix_coeff&#45;&gt;pepolar_estimate_wfoutputnode -->
<g id="edge4" class="edge">
<title>pepolar_estimate_wffix_coeff:e&#45;&gt;pepolar_estimate_wfoutputnode:w</title>
<path fill="none" stroke="#000000" d="M1580,-350.5C1608.5864,-350.5 1678.41,-326.6502 1561,-221 1478.3562,-146.6337 1137.7328,-266.3934 1062,-185 1047.4478,-169.3601 1039.3671,-139.6877 1052.0354,-130.3723"/>
<polygon fill="#000000" stroke="#000000" points="1053.3607,-133.6329 1062,-127.5 1051.4218,-126.9068 1053.3607,-133.6329"/>
</g>
<!-- pepolar_estimate_wfbrainextraction_wf -->
<g id="node11" class="node">
<title>pepolar_estimate_wfbrainextraction_wf</title>
<polygon fill="none" stroke="#000000" points="1090.5,-221.5 1090.5,-290.5 1551.5,-290.5 1551.5,-221.5 1090.5,-221.5"/>
<text text-anchor="middle" x="1159" y="-269.8" font-family="Times,serif" font-size="14.00" fill="#000000">IN</text>
<polyline fill="none" stroke="#000000" points="1090.5,-256.5 1227.5,-256.5 "/>
<text text-anchor="middle" x="1159" y="-235.3" font-family="Times,serif" font-size="14.00" fill="#000000">inputnode.in_file</text>
<polyline fill="none" stroke="#000000" points="1227.5,-221.5 1227.5,-290.5 "/>
<text text-anchor="middle" x="1303.5" y="-275.3" font-family="Times,serif" font-size="14.00" fill="#000000">brainextraction_wf</text>
<polyline fill="none" stroke="#000000" points="1227.5,-267.5 1379.5,-267.5 "/>
<text text-anchor="middle" x="1303.5" y="-252.3" font-family="Times,serif" font-size="14.00" fill="#000000"> </text>
<polyline fill="none" stroke="#000000" points="1227.5,-244.5 1379.5,-244.5 "/>
<text text-anchor="middle" x="1303.5" y="-229.3" font-family="Times,serif" font-size="14.00" fill="#000000"> </text>
<polyline fill="none" stroke="#000000" points="1379.5,-221.5 1379.5,-290.5 "/>
<text text-anchor="middle" x="1465.5" y="-275.3" font-family="Times,serif" font-size="14.00" fill="#000000">OUT</text>
<polyline fill="none" stroke="#000000" points="1379.5,-267.5 1551.5,-267.5 "/>
<text text-anchor="middle" x="1465.5" y="-252.3" font-family="Times,serif" font-size="14.00" fill="#000000">outputnode.out_file</text>
<polyline fill="none" stroke="#000000" points="1379.5,-244.5 1551.5,-244.5 "/>
<text text-anchor="middle" x="1465.5" y="-229.3" font-family="Times,serif" font-size="14.00" fill="#000000">outputnode.out_mask</text>
</g>
<!-- pepolar_estimate_wfref_average&#45;&gt;pepolar_estimate_wfbrainextraction_wf -->
<g id="edge15" class="edge">
<title>pepolar_estimate_wfref_average:e&#45;&gt;pepolar_estimate_wfbrainextraction_wf:w</title>
<path fill="none" stroke="#000000" d="M1322,-356.5C1330,-356.5 1327.0578,-344.6983 1322,-338.5 1255.4582,-256.9539 1156.5418,-372.5461 1090,-291 1084.6919,-284.495 1080.9971,-259.9922 1083.8054,-247.0785"/>
<polygon fill="#000000" stroke="#000000" points="1086.6924,-249.0653 1090,-239 1081.1375,-244.8058 1086.6924,-249.0653"/>
</g>
<!-- pepolar_estimate_wfbrainextraction_wf&#45;&gt;pepolar_estimate_wfoutputnode -->
<g id="edge1" class="edge">
<title>pepolar_estimate_wfbrainextraction_wf:e&#45;&gt;pepolar_estimate_wfoutputnode:w</title>
<path fill="none" stroke="#000000" d="M1552,-256C1567.5556,-256 1562.5888,-232.3953 1552,-221 1477.6786,-141.018 1136.3214,-264.982 1062,-185 1032.9783,-153.7679 1018.1014,-91.8173 1051.7827,-81.8637"/>
<polygon fill="#000000" stroke="#000000" points="1052.551,-85.2923 1062,-80.5 1051.6248,-78.3538 1052.551,-85.2923"/>
</g>
<!-- pepolar_estimate_wfbrainextraction_wf&#45;&gt;pepolar_estimate_wfoutputnode -->
<g id="edge2" class="edge">
<title>pepolar_estimate_wfbrainextraction_wf:e&#45;&gt;pepolar_estimate_wfoutputnode:w</title>
<path fill="none" stroke="#000000" d="M1552,-233C1557.3333,-233 1555.6304,-224.907 1552,-221 1477.6786,-141.018 1136.3214,-264.982 1062,-185 1040.3095,-161.6575 1028.8758,-116.0402 1051.9096,-106.3406"/>
<polygon fill="#000000" stroke="#000000" points="1052.7905,-109.7378 1062,-104.5 1051.5342,-102.8514 1052.7905,-109.7378"/>
</g>
</g>
</svg>
