<?xml version="1.0" encoding="UTF-8" standalone="no"?>
<!DOCTYPE svg PUBLIC "-//W3C//DTD SVG 1.1//EN"
 "http://www.w3.org/Graphics/SVG/1.1/DTD/svg11.dtd">
<!-- Generated by graphviz version 2.43.0 (0)
 -->
<!-- Title: %3 Pages: 1 -->
<svg width="1390pt" height="764pt"
 viewBox="0.00 0.00 1390.00 764.00" xmlns="http://www.w3.org/2000/svg" xmlns:xlink="http://www.w3.org/1999/xlink">
<g id="graph0" class="graph" transform="scale(1 1) rotate(0) translate(4 760)">
<title>%3</title>
<polygon fill="white" stroke="transparent" points="-4,4 -4,-760 1386,-760 1386,4 -4,4"/>
<!-- inputnode (utility) -->
<g id="node1" class="node">
<title>inputnode (utility)</title>
<ellipse fill="none" stroke="black" cx="544" cy="-738" rx="94.78" ry="18"/>
<text text-anchor="middle" x="544" y="-734.3" font-family="Times,serif" font-size="14.00">inputnode (utility)</text>
</g>
<!-- readout_time (epi) -->
<g id="node2" class="node">
<title>readout_time (epi)</title>
<ellipse fill="none" stroke="black" cx="124" cy="-522" rx="96.38" ry="18"/>
<text text-anchor="middle" x="124" y="-518.3" font-family="Times,serif" font-size="14.00">readout_time (epi)</text>
</g>
<!-- inputnode (utility)&#45;&gt;readout_time (epi) -->
<g id="edge1" class="edge">
<title>inputnode (utility)&#45;&gt;readout_time (epi)</title>
<path fill="none" stroke="black" d="M453.09,-732.81C364.06,-727.03 236.23,-713.72 197,-684 153.69,-651.19 135.37,-586.77 128.19,-550.15"/>
<polygon fill="black" stroke="black" points="131.61,-549.38 126.38,-540.17 124.72,-550.63 131.61,-549.38"/>
</g>
<!-- clip_epi (nibabel) -->
<g id="node3" class="node">
<title>clip_epi (nibabel)</title>
<ellipse fill="none" stroke="black" cx="1006" cy="-666" rx="89.88" ry="18"/>
<text text-anchor="middle" x="1006" y="-662.3" font-family="Times,serif" font-size="14.00">clip_epi (nibabel)</text>
</g>
<!-- inputnode (utility)&#45;&gt;clip_epi (nibabel) -->
<g id="edge2" class="edge">
<title>inputnode (utility)&#45;&gt;clip_epi (nibabel)</title>
<path fill="none" stroke="black" d="M615.68,-726.14C699.91,-713.38 839.25,-692.27 926.66,-679.02"/>
<polygon fill="black" stroke="black" points="927.43,-682.44 936.8,-677.49 926.38,-675.52 927.43,-682.44"/>
</g>
<!-- unwarp (bspline) -->
<g id="node4" class="node">
<title>unwarp (bspline)</title>
<ellipse fill="none" stroke="black" cx="199" cy="-90" rx="89.08" ry="18"/>
<text text-anchor="middle" x="199" y="-86.3" font-family="Times,serif" font-size="14.00">unwarp (bspline)</text>
</g>
<!-- inputnode (utility)&#45;&gt;unwarp (bspline) -->
<g id="edge3" class="edge">
<title>inputnode (utility)&#45;&gt;unwarp (bspline)</title>
<path fill="none" stroke="black" d="M454.17,-732.04C299.66,-721.03 0,-687.73 0,-595 0,-595 0,-595 0,-233 0,-165.26 77.36,-126.79 135.61,-107.42"/>
<polygon fill="black" stroke="black" points="136.69,-110.75 145.15,-104.36 134.56,-104.08 136.69,-110.75"/>
</g>
<!-- amask2epi (fixes) -->
<g id="node5" class="node">
<title>amask2epi (fixes)</title>
<ellipse fill="none" stroke="black" cx="353" cy="-594" rx="91.78" ry="18"/>
<text text-anchor="middle" x="353" y="-590.3" font-family="Times,serif" font-size="14.00">amask2epi (fixes)</text>
</g>
<!-- inputnode (utility)&#45;&gt;amask2epi (fixes) -->
<g id="edge4" class="edge">
<title>inputnode (utility)&#45;&gt;amask2epi (fixes)</title>
<path fill="none" stroke="black" d="M450.44,-734.77C365.2,-730.53 248.25,-718.41 219,-684 208.64,-671.81 210,-661.23 219,-648 231.87,-629.08 252.64,-616.91 274.04,-609.09"/>
<polygon fill="black" stroke="black" points="275.19,-612.39 283.55,-605.89 272.96,-605.76 275.19,-612.39"/>
</g>
<!-- zooms_bmask (fixes) -->
<g id="node6" class="node">
<title>zooms_bmask (fixes)</title>
<ellipse fill="none" stroke="black" cx="699" cy="-162" rx="105.88" ry="18"/>
<text text-anchor="middle" x="699" y="-158.3" font-family="Times,serif" font-size="14.00">zooms_bmask (fixes)</text>
</g>
<!-- inputnode (utility)&#45;&gt;zooms_bmask (fixes) -->
<g id="edge5" class="edge">
<title>inputnode (utility)&#45;&gt;zooms_bmask (fixes)</title>
<path fill="none" stroke="black" d="M638.71,-736.32C838.61,-734.1 1289.89,-724.58 1346,-684 1380.57,-658.99 1382,-637.67 1382,-595 1382,-595 1382,-595 1382,-305 1382,-190.57 1009.86,-167.7 814.97,-163.57"/>
<polygon fill="black" stroke="black" points="815.04,-160.07 804.97,-163.37 814.9,-167.07 815.04,-160.07"/>
</g>
<!-- fixed_masks (utility) -->
<g id="node7" class="node">
<title>fixed_masks (utility)</title>
<ellipse fill="none" stroke="black" cx="699" cy="-450" rx="104.78" ry="18"/>
<text text-anchor="middle" x="699" y="-446.3" font-family="Times,serif" font-size="14.00">fixed_masks (utility)</text>
</g>
<!-- inputnode (utility)&#45;&gt;fixed_masks (utility) -->
<g id="edge6" class="edge">
<title>inputnode (utility)&#45;&gt;fixed_masks (utility)</title>
<path fill="none" stroke="black" d="M539.84,-719.98C530.76,-678.4 513.66,-570.23 563,-504 576.33,-486.11 596.56,-474.26 617.39,-466.41"/>
<polygon fill="black" stroke="black" points="618.68,-469.66 626.97,-463.07 616.38,-463.05 618.68,-469.66"/>
</g>
<!-- anat_dilmsk (brainmask) -->
<g id="node8" class="node">
<title>anat_dilmsk (brainmask)</title>
<ellipse fill="none" stroke="black" cx="353" cy="-666" rx="124.58" ry="18"/>
<text text-anchor="middle" x="353" y="-662.3" font-family="Times,serif" font-size="14.00">anat_dilmsk (brainmask)</text>
</g>
<!-- inputnode (utility)&#45;&gt;anat_dilmsk (brainmask) -->
<g id="edge7" class="edge">
<title>inputnode (utility)&#45;&gt;anat_dilmsk (brainmask)</title>
<path fill="none" stroke="black" d="M502.08,-721.64C473.84,-711.29 436.36,-697.55 406.04,-686.44"/>
<polygon fill="black" stroke="black" points="407.07,-683.09 396.47,-682.93 404.66,-689.66 407.07,-683.09"/>
</g>
<!-- warp_dir (utility) -->
<g id="node9" class="node">
<title>warp_dir (utility)</title>
<ellipse fill="none" stroke="black" cx="237" cy="-450" rx="89.08" ry="18"/>
<text text-anchor="middle" x="237" y="-446.3" font-family="Times,serif" font-size="14.00">warp_dir (utility)</text>
</g>
<!-- inputnode (utility)&#45;&gt;warp_dir (utility) -->
<g id="edge8" class="edge">
<title>inputnode (utility)&#45;&gt;warp_dir (utility)</title>
<path fill="none" stroke="black" d="M538.18,-719.91C534.74,-709.57 530.41,-696.09 527,-684 504.63,-604.74 542.03,-561.43 483,-504 476.67,-497.84 380.08,-478.3 309.85,-464.75"/>
<polygon fill="black" stroke="black" points="310.17,-461.24 299.69,-462.79 308.85,-468.12 310.17,-461.24"/>
</g>
<!-- anat_merge (utility) -->
<g id="node10" class="node">
<title>anat_merge (utility)</title>
<ellipse fill="none" stroke="black" cx="675" cy="-522" rx="102.88" ry="18"/>
<text text-anchor="middle" x="675" y="-518.3" font-family="Times,serif" font-size="14.00">anat_merge (utility)</text>
</g>
<!-- inputnode (utility)&#45;&gt;anat_merge (utility) -->
<g id="edge9" class="edge">
<title>inputnode (utility)&#45;&gt;anat_merge (utility)</title>
<path fill="none" stroke="black" d="M548.66,-719.84C558.78,-683.36 583.31,-599.52 601,-576 610.18,-563.79 622.99,-553.24 635.36,-544.84"/>
<polygon fill="black" stroke="black" points="637.32,-547.75 643.81,-539.38 633.52,-541.87 637.32,-547.75"/>
</g>
<!-- lap_anat (ants) -->
<g id="node11" class="node">
<title>lap_anat (ants)</title>
<ellipse fill="none" stroke="black" cx="708" cy="-666" rx="79.09" ry="18"/>
<text text-anchor="middle" x="708" y="-662.3" font-family="Times,serif" font-size="14.00">lap_anat (ants)</text>
</g>
<!-- inputnode (utility)&#45;&gt;lap_anat (ants) -->
<g id="edge10" class="edge">
<title>inputnode (utility)&#45;&gt;lap_anat (ants)</title>
<path fill="none" stroke="black" d="M580.8,-721.29C605.2,-710.88 637.35,-697.16 663.22,-686.11"/>
<polygon fill="black" stroke="black" points="664.62,-689.32 672.44,-682.18 661.87,-682.88 664.62,-689.32"/>
</g>
<!-- find_zooms (utility) -->
<g id="node12" class="node">
<title>find_zooms (utility)</title>
<ellipse fill="none" stroke="black" cx="1213" cy="-666" rx="99.38" ry="18"/>
<text text-anchor="middle" x="1213" y="-662.3" font-family="Times,serif" font-size="14.00">find_zooms (utility)</text>
</g>
<!-- inputnode (utility)&#45;&gt;find_zooms (utility) -->
<g id="edge11" class="edge">
<title>inputnode (utility)&#45;&gt;find_zooms (utility)</title>
<path fill="none" stroke="black" d="M630.68,-730.49C741.06,-721.81 937.56,-705.07 1105,-684 1113.92,-682.88 1123.24,-681.59 1132.5,-680.23"/>
<polygon fill="black" stroke="black" points="1133.13,-683.68 1142.5,-678.74 1132.1,-676.75 1133.13,-683.68"/>
</g>
<!-- zooms_field (fixes) -->
<g id="node13" class="node">
<title>zooms_field (fixes)</title>
<ellipse fill="none" stroke="black" cx="699" cy="-234" rx="95.58" ry="18"/>
<text text-anchor="middle" x="699" y="-230.3" font-family="Times,serif" font-size="14.00">zooms_field (fixes)</text>
</g>
<!-- inputnode (utility)&#45;&gt;zooms_field (fixes) -->
<g id="edge12" class="edge">
<title>inputnode (utility)&#45;&gt;zooms_field (fixes)</title>
<path fill="none" stroke="black" d="M638.76,-736.65C834.52,-735.05 1269.61,-726.68 1321,-684 1352.43,-657.9 1344,-635.86 1344,-595 1344,-595 1344,-595 1344,-377 1344,-267.77 986.75,-242.47 804,-236.68"/>
<polygon fill="black" stroke="black" points="803.93,-233.18 793.83,-236.37 803.71,-240.17 803.93,-233.18"/>
</g>
<!-- epi_umask (brainmask) -->
<g id="node14" class="node">
<title>epi_umask (brainmask)</title>
<ellipse fill="none" stroke="black" cx="356" cy="-522" rx="118.08" ry="18"/>
<text text-anchor="middle" x="356" y="-518.3" font-family="Times,serif" font-size="14.00">epi_umask (brainmask)</text>
</g>
<!-- inputnode (utility)&#45;&gt;epi_umask (brainmask) -->
<g id="edge13" class="edge">
<title>inputnode (utility)&#45;&gt;epi_umask (brainmask)</title>
<path fill="none" stroke="black" d="M449.81,-735.35C361.5,-731.57 238.6,-719.8 208,-684 176.9,-647.61 246.11,-581.45 252,-576 266.62,-562.47 285.34,-551.51 302.87,-543.15"/>
<polygon fill="black" stroke="black" points="304.81,-546.12 312.45,-538.78 301.9,-539.75 304.81,-546.12"/>
</g>
<!-- readout_time (epi)&#45;&gt;unwarp (bspline) -->
<g id="edge16" class="edge">
<title>readout_time (epi)&#45;&gt;unwarp (bspline)</title>
<path fill="none" stroke="black" d="M115.5,-503.99C103.23,-477.82 82,-425.79 82,-379 82,-379 82,-379 82,-233 82,-181.03 129.26,-137.76 163.71,-113.12"/>
<polygon fill="black" stroke="black" points="165.93,-115.84 172.16,-107.27 161.95,-110.09 165.93,-115.84"/>
</g>
<!-- readout_time (epi)&#45;&gt;warp_dir (utility) -->
<g id="edge14" class="edge">
<title>readout_time (epi)&#45;&gt;warp_dir (utility)</title>
<path fill="none" stroke="black" d="M150.49,-504.59C165.79,-495.11 185.23,-483.07 201.8,-472.8"/>
<polygon fill="black" stroke="black" points="204.01,-475.55 210.67,-467.31 200.33,-469.6 204.01,-475.55"/>
</g>
<!-- extract_field (fmap) -->
<g id="node15" class="node">
<title>extract_field (fmap)</title>
<ellipse fill="none" stroke="black" cx="699" cy="-306" rx="101.28" ry="18"/>
<text text-anchor="middle" x="699" y="-302.3" font-family="Times,serif" font-size="14.00">extract_field (fmap)</text>
</g>
<!-- readout_time (epi)&#45;&gt;extract_field (fmap) -->
<g id="edge15" class="edge">
<title>readout_time (epi)&#45;&gt;extract_field (fmap)</title>
<path fill="none" stroke="black" d="M121.7,-503.81C120.08,-483.84 120.77,-451.21 139,-432 201.27,-366.37 457.1,-330.94 600.47,-315.9"/>
<polygon fill="black" stroke="black" points="601,-319.36 610.59,-314.85 600.28,-312.4 601,-319.36"/>
</g>
<!-- clip_epi (nibabel)&#45;&gt;extract_field (fmap) -->
<g id="edge20" class="edge">
<title>clip_epi (nibabel)&#45;&gt;extract_field (fmap)</title>
<path fill="none" stroke="black" d="M1022.12,-648.19C1044.43,-623.09 1082,-573.33 1082,-523 1082,-523 1082,-523 1082,-449 1082,-385.41 894.04,-341.23 781.47,-320.47"/>
<polygon fill="black" stroke="black" points="781.95,-317 771.49,-318.65 780.7,-323.89 781.95,-317"/>
</g>
<!-- epi_merge (utility) -->
<g id="node16" class="node">
<title>epi_merge (utility)</title>
<ellipse fill="none" stroke="black" cx="957" cy="-450" rx="96.68" ry="18"/>
<text text-anchor="middle" x="957" y="-446.3" font-family="Times,serif" font-size="14.00">epi_merge (utility)</text>
</g>
<!-- clip_epi (nibabel)&#45;&gt;epi_merge (utility) -->
<g id="edge17" class="edge">
<title>clip_epi (nibabel)&#45;&gt;epi_merge (utility)</title>
<path fill="none" stroke="black" d="M1013.82,-648C1026.64,-617.46 1048.47,-552.05 1025,-504 1018.93,-491.57 1008.37,-481.2 997.37,-473.03"/>
<polygon fill="black" stroke="black" points="999.15,-470.01 988.93,-467.22 995.18,-475.78 999.15,-470.01"/>
</g>
<!-- lap_epi (ants) -->
<g id="node17" class="node">
<title>lap_epi (ants)</title>
<ellipse fill="none" stroke="black" cx="939" cy="-594" rx="73.39" ry="18"/>
<text text-anchor="middle" x="939" y="-590.3" font-family="Times,serif" font-size="14.00">lap_epi (ants)</text>
</g>
<!-- clip_epi (nibabel)&#45;&gt;lap_epi (ants) -->
<g id="edge18" class="edge">
<title>clip_epi (nibabel)&#45;&gt;lap_epi (ants)</title>
<path fill="none" stroke="black" d="M989.78,-648.05C981.47,-639.37 971.2,-628.64 962.08,-619.11"/>
<polygon fill="black" stroke="black" points="964.51,-616.59 955.07,-611.79 959.46,-621.43 964.51,-616.59"/>
</g>
<!-- zooms_epi (nibabel) -->
<g id="node18" class="node">
<title>zooms_epi (nibabel)</title>
<ellipse fill="none" stroke="black" cx="1213" cy="-594" rx="102.88" ry="18"/>
<text text-anchor="middle" x="1213" y="-590.3" font-family="Times,serif" font-size="14.00">zooms_epi (nibabel)</text>
</g>
<!-- clip_epi (nibabel)&#45;&gt;zooms_epi (nibabel) -->
<g id="edge19" class="edge">
<title>clip_epi (nibabel)&#45;&gt;zooms_epi (nibabel)</title>
<path fill="none" stroke="black" d="M1049.65,-650.24C1081.28,-639.54 1124.27,-625 1158.22,-613.53"/>
<polygon fill="black" stroke="black" points="1159.63,-616.74 1167.98,-610.22 1157.39,-610.11 1159.63,-616.74"/>
</g>
<!-- outputnode (utility) -->
<g id="node19" class="node">
<title>outputnode (utility)</title>
<ellipse fill="none" stroke="black" cx="317" cy="-18" rx="101.28" ry="18"/>
<text text-anchor="middle" x="317" y="-14.3" font-family="Times,serif" font-size="14.00">outputnode (utility)</text>
</g>
<!-- unwarp (bspline)&#45;&gt;outputnode (utility) -->
<g id="edge21" class="edge">
<title>unwarp (bspline)&#45;&gt;outputnode (utility)</title>
<path fill="none" stroke="black" d="M226.37,-72.76C242.49,-63.2 263.07,-50.99 280.55,-40.62"/>
<polygon fill="black" stroke="black" points="282.56,-43.5 289.37,-35.39 278.99,-37.48 282.56,-43.5"/>
</g>
<!-- amask2epi (fixes)&#45;&gt;epi_umask (brainmask) -->
<g id="edge22" class="edge">
<title>amask2epi (fixes)&#45;&gt;epi_umask (brainmask)</title>
<path fill="none" stroke="black" d="M353.74,-575.7C354.07,-567.98 354.47,-558.71 354.84,-550.11"/>
<polygon fill="black" stroke="black" points="358.34,-550.25 355.27,-540.1 351.34,-549.95 358.34,-550.25"/>
</g>
<!-- zooms_bmask (fixes)&#45;&gt;outputnode (utility) -->
<g id="edge23" class="edge">
<title>zooms_bmask (fixes)&#45;&gt;outputnode (utility)</title>
<path fill="none" stroke="black" d="M657.03,-145.4C586.49,-119.18 444.43,-66.37 368.17,-38.02"/>
<polygon fill="black" stroke="black" points="369.35,-34.72 358.75,-34.52 366.91,-41.29 369.35,-34.72"/>
</g>
<!-- syn (fixes) -->
<g id="node20" class="node">
<title>syn (fixes)</title>
<ellipse fill="none" stroke="black" cx="699" cy="-378" rx="57.69" ry="18"/>
<text text-anchor="middle" x="699" y="-374.3" font-family="Times,serif" font-size="14.00">syn (fixes)</text>
</g>
<!-- fixed_masks (utility)&#45;&gt;syn (fixes) -->
<g id="edge24" class="edge">
<title>fixed_masks (utility)&#45;&gt;syn (fixes)</title>
<path fill="none" stroke="black" d="M699,-431.7C699,-423.98 699,-414.71 699,-406.11"/>
<polygon fill="black" stroke="black" points="702.5,-406.1 699,-396.1 695.5,-406.1 702.5,-406.1"/>
</g>
<!-- anat_dilmsk (brainmask)&#45;&gt;amask2epi (fixes) -->
<g id="edge25" class="edge">
<title>anat_dilmsk (brainmask)&#45;&gt;amask2epi (fixes)</title>
<path fill="none" stroke="black" d="M353,-647.7C353,-639.98 353,-630.71 353,-622.11"/>
<polygon fill="black" stroke="black" points="356.5,-622.1 353,-612.1 349.5,-622.1 356.5,-622.1"/>
</g>
<!-- warp_dir (utility)&#45;&gt;syn (fixes) -->
<g id="edge26" class="edge">
<title>warp_dir (utility)&#45;&gt;syn (fixes)</title>
<path fill="none" stroke="black" d="M301.53,-437.55C312.69,-435.64 324.17,-433.73 335,-432 440.79,-415.13 564.23,-397.61 636.77,-387.54"/>
<polygon fill="black" stroke="black" points="637.67,-390.95 647.09,-386.11 636.71,-384.01 637.67,-390.95"/>
</g>
<!-- anat_merge (utility)&#45;&gt;syn (fixes) -->
<g id="edge27" class="edge">
<title>anat_merge (utility)&#45;&gt;syn (fixes)</title>
<path fill="none" stroke="black" d="M749.73,-509.62C773.99,-501.99 798.39,-489.26 813,-468 822.06,-454.81 821.6,-445.49 813,-432 800.22,-411.96 777.69,-399.38 756.01,-391.54"/>
<polygon fill="black" stroke="black" points="757.07,-388.21 746.48,-388.36 754.86,-394.85 757.07,-388.21"/>
</g>
<!-- lap_anat_norm (utility) -->
<g id="node21" class="node">
<title>lap_anat_norm (utility)</title>
<ellipse fill="none" stroke="black" cx="726" cy="-594" rx="116.18" ry="18"/>
<text text-anchor="middle" x="726" y="-590.3" font-family="Times,serif" font-size="14.00">lap_anat_norm (utility)</text>
</g>
<!-- lap_anat (ants)&#45;&gt;lap_anat_norm (utility) -->
<g id="edge28" class="edge">
<title>lap_anat (ants)&#45;&gt;lap_anat_norm (utility)</title>
<path fill="none" stroke="black" d="M712.45,-647.7C714.45,-639.9 716.87,-630.51 719.1,-621.83"/>
<polygon fill="black" stroke="black" points="722.5,-622.66 721.6,-612.1 715.72,-620.92 722.5,-622.66"/>
</g>
<!-- find_zooms (utility)&#45;&gt;zooms_epi (nibabel) -->
<g id="edge29" class="edge">
<title>find_zooms (utility)&#45;&gt;zooms_epi (nibabel)</title>
<path fill="none" stroke="black" d="M1213,-647.7C1213,-639.98 1213,-630.71 1213,-622.11"/>
<polygon fill="black" stroke="black" points="1216.5,-622.1 1213,-612.1 1209.5,-622.1 1216.5,-622.1"/>
</g>
<!-- zooms_field (fixes)&#45;&gt;zooms_bmask (fixes) -->
<g id="edge30" class="edge">
<title>zooms_field (fixes)&#45;&gt;zooms_bmask (fixes)</title>
<path fill="none" stroke="black" d="M699,-215.7C699,-207.98 699,-198.71 699,-190.11"/>
<polygon fill="black" stroke="black" points="702.5,-190.1 699,-180.1 695.5,-190.1 702.5,-190.1"/>
</g>
<!-- bs_filter (bspline) -->
<g id="node22" class="node">
<title>bs_filter (bspline)</title>
<ellipse fill="none" stroke="black" cx="317" cy="-162" rx="91.78" ry="18"/>
<text text-anchor="middle" x="317" y="-158.3" font-family="Times,serif" font-size="14.00">bs_filter (bspline)</text>
</g>
<!-- zooms_field (fixes)&#45;&gt;bs_filter (bspline) -->
<g id="edge31" class="edge">
<title>zooms_field (fixes)&#45;&gt;bs_filter (bspline)</title>
<path fill="none" stroke="black" d="M632.9,-220.89C565.73,-208.58 461.87,-189.55 391.75,-176.7"/>
<polygon fill="black" stroke="black" points="392.12,-173.21 381.66,-174.85 390.86,-180.09 392.12,-173.21"/>
</g>
<!-- moving_masks (utility) -->
<g id="node23" class="node">
<title>moving_masks (utility)</title>
<ellipse fill="none" stroke="black" cx="460" cy="-450" rx="116.18" ry="18"/>
<text text-anchor="middle" x="460" y="-446.3" font-family="Times,serif" font-size="14.00">moving_masks (utility)</text>
</g>
<!-- epi_umask (brainmask)&#45;&gt;moving_masks (utility) -->
<g id="edge32" class="edge">
<title>epi_umask (brainmask)&#45;&gt;moving_masks (utility)</title>
<path fill="none" stroke="black" d="M380.91,-504.23C394.67,-494.97 411.95,-483.34 426.84,-473.32"/>
<polygon fill="black" stroke="black" points="428.95,-476.12 435.29,-467.63 425.04,-470.31 428.95,-476.12"/>
</g>
<!-- extract_field (fmap)&#45;&gt;zooms_field (fixes) -->
<g id="edge33" class="edge">
<title>extract_field (fmap)&#45;&gt;zooms_field (fixes)</title>
<path fill="none" stroke="black" d="M699,-287.7C699,-279.98 699,-270.71 699,-262.11"/>
<polygon fill="black" stroke="black" points="702.5,-262.1 699,-252.1 695.5,-262.1 702.5,-262.1"/>
</g>
<!-- epi_merge (utility)&#45;&gt;syn (fixes) -->
<g id="edge34" class="edge">
<title>epi_merge (utility)&#45;&gt;syn (fixes)</title>
<path fill="none" stroke="black" d="M904.79,-434.83C860.03,-422.69 795.87,-405.28 751.13,-393.14"/>
<polygon fill="black" stroke="black" points="751.9,-389.73 741.33,-390.48 750.06,-396.48 751.9,-389.73"/>
</g>
<!-- lap_epi_norm (utility) -->
<g id="node24" class="node">
<title>lap_epi_norm (utility)</title>
<ellipse fill="none" stroke="black" cx="906" cy="-522" rx="109.68" ry="18"/>
<text text-anchor="middle" x="906" y="-518.3" font-family="Times,serif" font-size="14.00">lap_epi_norm (utility)</text>
</g>
<!-- lap_epi (ants)&#45;&gt;lap_epi_norm (utility) -->
<g id="edge35" class="edge">
<title>lap_epi (ants)&#45;&gt;lap_epi_norm (utility)</title>
<path fill="none" stroke="black" d="M931.01,-576.05C927.26,-568.09 922.69,-558.41 918.5,-549.51"/>
<polygon fill="black" stroke="black" points="921.57,-547.83 914.14,-540.28 915.24,-550.81 921.57,-547.83"/>
</g>
<!-- syn (fixes)&#45;&gt;extract_field (fmap) -->
<g id="edge36" class="edge">
<title>syn (fixes)&#45;&gt;extract_field (fmap)</title>
<path fill="none" stroke="black" d="M699,-359.7C699,-351.98 699,-342.71 699,-334.11"/>
<polygon fill="black" stroke="black" points="702.5,-334.1 699,-324.1 695.5,-334.1 702.5,-334.1"/>
</g>
<!-- lap_anat_norm (utility)&#45;&gt;anat_merge (utility) -->
<g id="edge37" class="edge">
<title>lap_anat_norm (utility)&#45;&gt;anat_merge (utility)</title>
<path fill="none" stroke="black" d="M713.65,-576.05C707.61,-567.75 700.2,-557.58 693.49,-548.38"/>
<polygon fill="black" stroke="black" points="696.3,-546.3 687.59,-540.28 690.65,-550.42 696.3,-546.3"/>
</g>
<!-- bs_filter (bspline)&#45;&gt;unwarp (bspline) -->
<g id="edge38" class="edge">
<title>bs_filter (bspline)&#45;&gt;unwarp (bspline)</title>
<path fill="none" stroke="black" d="M289.63,-144.76C273.4,-135.13 252.63,-122.81 235.07,-112.4"/>
<polygon fill="black" stroke="black" points="236.61,-109.24 226.22,-107.15 233.03,-115.26 236.61,-109.24"/>
</g>
<!-- bs_filter (bspline)&#45;&gt;outputnode (utility) -->
<g id="edge39" class="edge">
<title>bs_filter (bspline)&#45;&gt;outputnode (utility)</title>
<path fill="none" stroke="black" d="M317,-143.87C317,-119.67 317,-75.21 317,-46.39"/>
<polygon fill="black" stroke="black" points="320.5,-46.19 317,-36.19 313.5,-46.19 320.5,-46.19"/>
</g>
<!-- moving_masks (utility)&#45;&gt;syn (fixes) -->
<g id="edge40" class="edge">
<title>moving_masks (utility)&#45;&gt;syn (fixes)</title>
<path fill="none" stroke="black" d="M511.86,-433.81C552.36,-421.95 608.32,-405.56 648.47,-393.8"/>
<polygon fill="black" stroke="black" points="649.71,-397.08 658.32,-390.91 647.74,-390.37 649.71,-397.08"/>
</g>
<!-- lap_epi_norm (utility)&#45;&gt;epi_merge (utility) -->
<g id="edge41" class="edge">
<title>lap_epi_norm (utility)&#45;&gt;epi_merge (utility)</title>
<path fill="none" stroke="black" d="M918.35,-504.05C924.39,-495.75 931.8,-485.58 938.51,-476.38"/>
<polygon fill="black" stroke="black" points="941.35,-478.42 944.41,-468.28 935.7,-474.3 941.35,-478.42"/>
</g>
</g>
</svg>
