<?xml version="1.0" encoding="UTF-8" standalone="no"?>
<!DOCTYPE svg PUBLIC "-//W3C//DTD SVG 1.1//EN"
 "http://www.w3.org/Graphics/SVG/1.1/DTD/svg11.dtd">
<!-- Generated by graphviz version 2.43.0 (0)
 -->
<!-- Title: %3 Pages: 1 -->
<svg width="1031pt" height="692pt"
 viewBox="0.00 0.00 1030.76 692.00" xmlns="http://www.w3.org/2000/svg" xmlns:xlink="http://www.w3.org/1999/xlink">
<g id="graph0" class="graph" transform="scale(1 1) rotate(0) translate(4 688)">
<title>%3</title>
<polygon fill="white" stroke="transparent" points="-4,4 -4,-688 1026.76,-688 1026.76,4 -4,4"/>
<!-- inputnode (utility) -->
<g id="node1" class="node">
<title>inputnode (utility)</title>
<ellipse fill="none" stroke="black" cx="603.09" cy="-666" rx="94.78" ry="18"/>
<text text-anchor="middle" x="603.09" y="-662.3" font-family="Times,serif" font-size="14.00">inputnode (utility)</text>
</g>
<!-- transform_list (utility) -->
<g id="node2" class="node">
<title>transform_list (utility)</title>
<ellipse fill="none" stroke="black" cx="434.09" cy="-234" rx="113.98" ry="18"/>
<text text-anchor="middle" x="434.09" y="-230.3" font-family="Times,serif" font-size="14.00">transform_list (utility)</text>
</g>
<!-- inputnode (utility)&#45;&gt;transform_list (utility) -->
<g id="edge1" class="edge">
<title>inputnode (utility)&#45;&gt;transform_list (utility)</title>
<path fill="none" stroke="black" d="M510.86,-661.6C425.36,-656.48 306.48,-643.73 273.09,-612 243.77,-584.14 254.09,-563.45 254.09,-523 254.09,-523 254.09,-523 254.09,-449 254.09,-361.34 343.63,-290.88 396.4,-256.97"/>
<polygon fill="black" stroke="black" points="398.57,-259.74 405.17,-251.45 394.84,-253.81 398.57,-259.74"/>
</g>
<!-- epi_reference_wf -->
<g id="node3" class="node">
<title>epi_reference_wf</title>
<ellipse fill="none" stroke="black" cx="371.09" cy="-594" rx="89.08" ry="18"/>
<text text-anchor="middle" x="371.09" y="-590.3" font-family="Times,serif" font-size="14.00">epi_reference_wf</text>
</g>
<!-- inputnode (utility)&#45;&gt;epi_reference_wf -->
<g id="edge2" class="edge">
<title>inputnode (utility)&#45;&gt;epi_reference_wf</title>
<path fill="none" stroke="black" d="M554.74,-650.41C517.89,-639.29 467.04,-623.95 428.19,-612.23"/>
<polygon fill="black" stroke="black" points="429.17,-608.87 418.59,-609.33 427.15,-615.57 429.17,-608.87"/>
</g>
<!-- merge_output (utility) -->
<g id="node4" class="node">
<title>merge_output (utility)</title>
<ellipse fill="none" stroke="black" cx="113.09" cy="-450" rx="113.18" ry="18"/>
<text text-anchor="middle" x="113.09" y="-446.3" font-family="Times,serif" font-size="14.00">merge_output (utility)</text>
</g>
<!-- inputnode (utility)&#45;&gt;merge_output (utility) -->
<g id="edge3" class="edge">
<title>inputnode (utility)&#45;&gt;merge_output (utility)</title>
<path fill="none" stroke="black" d="M514.08,-659.54C421.98,-652.57 285.38,-638.17 240.09,-612 184.91,-580.12 144.8,-514.1 125.67,-477.28"/>
<polygon fill="black" stroke="black" points="128.69,-475.49 121.05,-468.15 122.44,-478.65 128.69,-475.49"/>
</g>
<!-- anat_dilmsk (brainmask) -->
<g id="node5" class="node">
<title>anat_dilmsk (brainmask)</title>
<ellipse fill="none" stroke="black" cx="603.09" cy="-594" rx="124.58" ry="18"/>
<text text-anchor="middle" x="603.09" y="-590.3" font-family="Times,serif" font-size="14.00">anat_dilmsk (brainmask)</text>
</g>
<!-- inputnode (utility)&#45;&gt;anat_dilmsk (brainmask) -->
<g id="edge4" class="edge">
<title>inputnode (utility)&#45;&gt;anat_dilmsk (brainmask)</title>
<path fill="none" stroke="black" d="M603.09,-647.7C603.09,-639.98 603.09,-630.71 603.09,-622.11"/>
<polygon fill="black" stroke="black" points="606.59,-622.1 603.09,-612.1 599.59,-622.1 606.59,-622.1"/>
</g>
<!-- mask_anat (nibabel) -->
<g id="node6" class="node">
<title>mask_anat (nibabel)</title>
<ellipse fill="none" stroke="black" cx="888.09" cy="-594" rx="103.98" ry="18"/>
<text text-anchor="middle" x="888.09" y="-590.3" font-family="Times,serif" font-size="14.00">mask_anat (nibabel)</text>
</g>
<!-- inputnode (utility)&#45;&gt;mask_anat (nibabel) -->
<g id="edge5" class="edge">
<title>inputnode (utility)&#45;&gt;mask_anat (nibabel)</title>
<path fill="none" stroke="black" d="M658.72,-651.34C705.09,-639.95 771.32,-623.68 820.7,-611.55"/>
<polygon fill="black" stroke="black" points="821.77,-614.89 830.65,-609.11 820.1,-608.09 821.77,-614.89"/>
</g>
<!-- mask2epi (fixes) -->
<g id="node7" class="node">
<title>mask2epi (fixes)</title>
<ellipse fill="none" stroke="black" cx="874.09" cy="-234" rx="86.38" ry="18"/>
<text text-anchor="middle" x="874.09" y="-230.3" font-family="Times,serif" font-size="14.00">mask2epi (fixes)</text>
</g>
<!-- inputnode (utility)&#45;&gt;mask2epi (fixes) -->
<g id="edge6" class="edge">
<title>inputnode (utility)&#45;&gt;mask2epi (fixes)</title>
<path fill="none" stroke="black" d="M698,-664.58C801.54,-662.07 958.3,-651.58 1001.09,-612 1030.78,-584.54 1020.09,-563.45 1020.09,-523 1020.09,-523 1020.09,-523 1020.09,-377 1020.09,-319.56 961.3,-277.84 918.33,-255.02"/>
<polygon fill="black" stroke="black" points="919.93,-251.9 909.43,-250.44 916.72,-258.13 919.93,-251.9"/>
</g>
<!-- sampling_ref (nibabel) -->
<g id="node8" class="node">
<title>sampling_ref (nibabel)</title>
<ellipse fill="none" stroke="black" cx="751.09" cy="-306" rx="114.28" ry="18"/>
<text text-anchor="middle" x="751.09" y="-302.3" font-family="Times,serif" font-size="14.00">sampling_ref (nibabel)</text>
</g>
<!-- inputnode (utility)&#45;&gt;sampling_ref (nibabel) -->
<g id="edge7" class="edge">
<title>inputnode (utility)&#45;&gt;sampling_ref (nibabel)</title>
<path fill="none" stroke="black" d="M668.51,-652.91C693.31,-645.16 719.72,-632.53 737.09,-612 763.22,-581.12 756.09,-563.45 756.09,-523 756.09,-523 756.09,-523 756.09,-449 756.09,-408.97 754.08,-362.63 752.61,-334.07"/>
<polygon fill="black" stroke="black" points="756.1,-333.84 752.08,-324.04 749.11,-334.21 756.1,-333.84"/>
</g>
<!-- prior2epi (fixes) -->
<g id="node9" class="node">
<title>prior2epi (fixes)</title>
<ellipse fill="none" stroke="black" cx="463.09" cy="-162" rx="85.29" ry="18"/>
<text text-anchor="middle" x="463.09" y="-158.3" font-family="Times,serif" font-size="14.00">prior2epi (fixes)</text>
</g>
<!-- transform_list (utility)&#45;&gt;prior2epi (fixes) -->
<g id="edge8" class="edge">
<title>transform_list (utility)&#45;&gt;prior2epi (fixes)</title>
<path fill="none" stroke="black" d="M441.26,-215.7C444.52,-207.81 448.46,-198.3 452.09,-189.55"/>
<polygon fill="black" stroke="black" points="455.41,-190.68 456,-180.1 448.94,-188 455.41,-190.68"/>
</g>
<!-- deob_epi (utils) -->
<g id="node14" class="node">
<title>deob_epi (utils)</title>
<ellipse fill="none" stroke="black" cx="416.09" cy="-522" rx="81.79" ry="18"/>
<text text-anchor="middle" x="416.09" y="-518.3" font-family="Times,serif" font-size="14.00">deob_epi (utils)</text>
</g>
<!-- epi_reference_wf&#45;&gt;deob_epi (utils) -->
<g id="edge9" class="edge">
<title>epi_reference_wf&#45;&gt;deob_epi (utils)</title>
<path fill="none" stroke="black" d="M381.98,-576.05C387.21,-567.92 393.59,-558 399.41,-548.94"/>
<polygon fill="black" stroke="black" points="402.52,-550.58 404.98,-540.28 396.63,-546.79 402.52,-550.58"/>
</g>
<!-- outputnode (utility) -->
<g id="node13" class="node">
<title>outputnode (utility)</title>
<ellipse fill="none" stroke="black" cx="463.09" cy="-18" rx="101.28" ry="18"/>
<text text-anchor="middle" x="463.09" y="-14.3" font-family="Times,serif" font-size="14.00">outputnode (utility)</text>
</g>
<!-- merge_output (utility)&#45;&gt;outputnode (utility) -->
<g id="edge10" class="edge">
<title>merge_output (utility)&#45;&gt;outputnode (utility)</title>
<path fill="none" stroke="black" d="M123.86,-431.81C139.1,-405.83 165.09,-354.52 165.09,-307 165.09,-307 165.09,-307 165.09,-161 165.09,-72.52 273.47,-39.12 359.51,-26.54"/>
<polygon fill="black" stroke="black" points="360.19,-29.98 369.62,-25.14 359.23,-23.04 360.19,-29.98"/>
</g>
<!-- epi2anat (fixes) -->
<g id="node10" class="node">
<title>epi2anat (fixes)</title>
<ellipse fill="none" stroke="black" cx="536.09" cy="-306" rx="82.59" ry="18"/>
<text text-anchor="middle" x="536.09" y="-302.3" font-family="Times,serif" font-size="14.00">epi2anat (fixes)</text>
</g>
<!-- anat_dilmsk (brainmask)&#45;&gt;epi2anat (fixes) -->
<g id="edge11" class="edge">
<title>anat_dilmsk (brainmask)&#45;&gt;epi2anat (fixes)</title>
<path fill="none" stroke="black" d="M604.87,-575.78C608.29,-535.97 612.82,-435.25 581.09,-360 576.68,-349.55 569.45,-339.63 562.06,-331.26"/>
<polygon fill="black" stroke="black" points="564.4,-328.64 555.01,-323.74 559.29,-333.43 564.4,-328.64"/>
</g>
<!-- clip_anat (nibabel) -->
<g id="node15" class="node">
<title>clip_anat (nibabel)</title>
<ellipse fill="none" stroke="black" cx="888.09" cy="-522" rx="96.38" ry="18"/>
<text text-anchor="middle" x="888.09" y="-518.3" font-family="Times,serif" font-size="14.00">clip_anat (nibabel)</text>
</g>
<!-- mask_anat (nibabel)&#45;&gt;clip_anat (nibabel) -->
<g id="edge12" class="edge">
<title>mask_anat (nibabel)&#45;&gt;clip_anat (nibabel)</title>
<path fill="none" stroke="black" d="M888.09,-575.7C888.09,-567.98 888.09,-558.71 888.09,-550.11"/>
<polygon fill="black" stroke="black" points="891.59,-550.1 888.09,-540.1 884.59,-550.1 891.59,-550.1"/>
</g>
<!-- mask_dtype (utility) -->
<g id="node16" class="node">
<title>mask_dtype (utility)</title>
<ellipse fill="none" stroke="black" cx="844.09" cy="-90" rx="103.18" ry="18"/>
<text text-anchor="middle" x="844.09" y="-86.3" font-family="Times,serif" font-size="14.00">mask_dtype (utility)</text>
</g>
<!-- mask2epi (fixes)&#45;&gt;mask_dtype (utility) -->
<g id="edge13" class="edge">
<title>mask2epi (fixes)&#45;&gt;mask_dtype (utility)</title>
<path fill="none" stroke="black" d="M870.47,-215.87C865.34,-191.56 855.88,-146.82 849.8,-118.01"/>
<polygon fill="black" stroke="black" points="853.21,-117.25 847.72,-108.19 846.36,-118.7 853.21,-117.25"/>
</g>
<!-- sampling_ref (nibabel)&#45;&gt;mask2epi (fixes) -->
<g id="edge16" class="edge">
<title>sampling_ref (nibabel)&#45;&gt;mask2epi (fixes)</title>
<path fill="none" stroke="black" d="M780.24,-288.41C797.06,-278.84 818.39,-266.7 836.46,-256.42"/>
<polygon fill="black" stroke="black" points="838.61,-259.22 845.57,-251.23 835.15,-253.13 838.61,-259.22"/>
</g>
<!-- sampling_ref (nibabel)&#45;&gt;prior2epi (fixes) -->
<g id="edge14" class="edge">
<title>sampling_ref (nibabel)&#45;&gt;prior2epi (fixes)</title>
<path fill="none" stroke="black" d="M689.54,-290.71C659.69,-282.17 624.11,-269.51 595.09,-252 575.17,-239.98 575.81,-229.82 557.09,-216 540.81,-203.98 521.54,-192.67 504.69,-183.61"/>
<polygon fill="black" stroke="black" points="506.1,-180.39 495.62,-178.82 502.83,-186.58 506.1,-180.39"/>
</g>
<!-- anat2epi (fixes) -->
<g id="node11" class="node">
<title>anat2epi (fixes)</title>
<ellipse fill="none" stroke="black" cx="687.09" cy="-234" rx="82.59" ry="18"/>
<text text-anchor="middle" x="687.09" y="-230.3" font-family="Times,serif" font-size="14.00">anat2epi (fixes)</text>
</g>
<!-- sampling_ref (nibabel)&#45;&gt;anat2epi (fixes) -->
<g id="edge15" class="edge">
<title>sampling_ref (nibabel)&#45;&gt;anat2epi (fixes)</title>
<path fill="none" stroke="black" d="M735.6,-288.05C727.74,-279.46 718.04,-268.86 709.4,-259.4"/>
<polygon fill="black" stroke="black" points="711.77,-256.81 702.44,-251.79 706.6,-261.53 711.77,-256.81"/>
</g>
<!-- prior_msk (nibabel) -->
<g id="node12" class="node">
<title>prior_msk (nibabel)</title>
<ellipse fill="none" stroke="black" cx="463.09" cy="-90" rx="100.98" ry="18"/>
<text text-anchor="middle" x="463.09" y="-86.3" font-family="Times,serif" font-size="14.00">prior_msk (nibabel)</text>
</g>
<!-- prior2epi (fixes)&#45;&gt;prior_msk (nibabel) -->
<g id="edge17" class="edge">
<title>prior2epi (fixes)&#45;&gt;prior_msk (nibabel)</title>
<path fill="none" stroke="black" d="M463.09,-143.7C463.09,-135.98 463.09,-126.71 463.09,-118.11"/>
<polygon fill="black" stroke="black" points="466.59,-118.1 463.09,-108.1 459.59,-118.1 466.59,-118.1"/>
</g>
<!-- epi2anat (fixes)&#45;&gt;transform_list (utility) -->
<g id="edge18" class="edge">
<title>epi2anat (fixes)&#45;&gt;transform_list (utility)</title>
<path fill="none" stroke="black" d="M512.18,-288.59C498.69,-279.33 481.64,-267.63 466.92,-257.53"/>
<polygon fill="black" stroke="black" points="468.79,-254.57 458.56,-251.8 464.83,-260.34 468.79,-254.57"/>
</g>
<!-- epi2anat (fixes)&#45;&gt;mask2epi (fixes) -->
<g id="edge20" class="edge">
<title>epi2anat (fixes)&#45;&gt;mask2epi (fixes)</title>
<path fill="none" stroke="black" d="M593.81,-293.05C652.3,-280.93 742.81,-262.19 805.07,-249.29"/>
<polygon fill="black" stroke="black" points="806.11,-252.65 815.19,-247.2 804.69,-245.8 806.11,-252.65"/>
</g>
<!-- epi2anat (fixes)&#45;&gt;anat2epi (fixes) -->
<g id="edge19" class="edge">
<title>epi2anat (fixes)&#45;&gt;anat2epi (fixes)</title>
<path fill="none" stroke="black" d="M569.6,-289.46C591.69,-279.22 620.82,-265.72 644.54,-254.73"/>
<polygon fill="black" stroke="black" points="646.07,-257.87 653.67,-250.49 643.13,-251.52 646.07,-257.87"/>
</g>
<!-- anat2epi (fixes)&#45;&gt;outputnode (utility) -->
<g id="edge21" class="edge">
<title>anat2epi (fixes)&#45;&gt;outputnode (utility)</title>
<path fill="none" stroke="black" d="M678.69,-215.8C662.32,-183.79 623.31,-114.45 573.09,-72 556.53,-58 535.65,-46.73 516.54,-38.24"/>
<polygon fill="black" stroke="black" points="517.9,-35.02 507.33,-34.3 515.15,-41.45 517.9,-35.02"/>
</g>
<!-- prior_msk (nibabel)&#45;&gt;outputnode (utility) -->
<g id="edge22" class="edge">
<title>prior_msk (nibabel)&#45;&gt;outputnode (utility)</title>
<path fill="none" stroke="black" d="M463.09,-71.7C463.09,-63.98 463.09,-54.71 463.09,-46.11"/>
<polygon fill="black" stroke="black" points="466.59,-46.1 463.09,-36.1 459.59,-46.1 466.59,-46.1"/>
</g>
<!-- deob_epi (utils)&#45;&gt;merge_output (utility) -->
<g id="edge23" class="edge">
<title>deob_epi (utils)&#45;&gt;merge_output (utility)</title>
<path fill="none" stroke="black" d="M361.92,-508.49C312.32,-497.03 238.59,-479.99 184.26,-467.44"/>
<polygon fill="black" stroke="black" points="184.88,-463.99 174.35,-465.15 183.3,-470.81 184.88,-463.99"/>
</g>
<!-- deob_epi (utils)&#45;&gt;sampling_ref (nibabel) -->
<g id="edge26" class="edge">
<title>deob_epi (utils)&#45;&gt;sampling_ref (nibabel)</title>
<path fill="none" stroke="black" d="M467.1,-507.79C496.61,-498.93 533.78,-485.65 564.09,-468 630.51,-429.32 695.69,-365.77 728.74,-331.21"/>
<polygon fill="black" stroke="black" points="731.33,-333.56 735.67,-323.89 726.25,-328.75 731.33,-333.56"/>
</g>
<!-- deob_epi (utils)&#45;&gt;epi2anat (fixes) -->
<g id="edge25" class="edge">
<title>deob_epi (utils)&#45;&gt;epi2anat (fixes)</title>
<path fill="none" stroke="black" d="M468.25,-508.12C491.88,-499.99 518.6,-487.28 537.09,-468 571.41,-432.21 577.37,-408.04 565.09,-360 562.71,-350.7 558.33,-341.27 553.67,-333"/>
<polygon fill="black" stroke="black" points="556.55,-330.99 548.4,-324.22 550.55,-334.59 556.55,-330.99"/>
</g>
<!-- epi_brain (brainmask) -->
<g id="node17" class="node">
<title>epi_brain (brainmask)</title>
<ellipse fill="none" stroke="black" cx="416.09" cy="-450" rx="112.38" ry="18"/>
<text text-anchor="middle" x="416.09" y="-446.3" font-family="Times,serif" font-size="14.00">epi_brain (brainmask)</text>
</g>
<!-- deob_epi (utils)&#45;&gt;epi_brain (brainmask) -->
<g id="edge24" class="edge">
<title>deob_epi (utils)&#45;&gt;epi_brain (brainmask)</title>
<path fill="none" stroke="black" d="M416.09,-503.7C416.09,-495.98 416.09,-486.71 416.09,-478.11"/>
<polygon fill="black" stroke="black" points="419.59,-478.1 416.09,-468.1 412.59,-478.1 419.59,-478.1"/>
</g>
<!-- ref_anat (utils) -->
<g id="node18" class="node">
<title>ref_anat (utils)</title>
<ellipse fill="none" stroke="black" cx="888.09" cy="-378" rx="79.09" ry="18"/>
<text text-anchor="middle" x="888.09" y="-374.3" font-family="Times,serif" font-size="14.00">ref_anat (utils)</text>
</g>
<!-- clip_anat (nibabel)&#45;&gt;ref_anat (utils) -->
<g id="edge27" class="edge">
<title>clip_anat (nibabel)&#45;&gt;ref_anat (utils)</title>
<path fill="none" stroke="black" d="M888.09,-503.87C888.09,-479.67 888.09,-435.21 888.09,-406.39"/>
<polygon fill="black" stroke="black" points="891.59,-406.19 888.09,-396.19 884.59,-406.19 891.59,-406.19"/>
</g>
<!-- mask_dtype (utility)&#45;&gt;outputnode (utility) -->
<g id="edge28" class="edge">
<title>mask_dtype (utility)&#45;&gt;outputnode (utility)</title>
<path fill="none" stroke="black" d="M775.53,-76.4C709.48,-64.27 609.67,-45.93 540.72,-33.26"/>
<polygon fill="black" stroke="black" points="541.24,-29.8 530.77,-31.44 539.98,-36.68 541.24,-29.8"/>
</g>
<!-- epi_brain (brainmask)&#45;&gt;outputnode (utility) -->
<g id="edge30" class="edge">
<title>epi_brain (brainmask)&#45;&gt;outputnode (utility)</title>
<path fill="none" stroke="black" d="M364.89,-433.85C345.35,-425.63 324.56,-413.46 311.09,-396 286.39,-363.97 292.09,-347.45 292.09,-307 292.09,-307 292.09,-307 292.09,-161 292.09,-99.55 358.25,-59.61 408.27,-38.19"/>
<polygon fill="black" stroke="black" points="409.81,-41.34 417.71,-34.28 407.14,-34.87 409.81,-41.34"/>
</g>
<!-- epi_dilmsk (brainmask) -->
<g id="node19" class="node">
<title>epi_dilmsk (brainmask)</title>
<ellipse fill="none" stroke="black" cx="438.09" cy="-378" rx="118.08" ry="18"/>
<text text-anchor="middle" x="438.09" y="-374.3" font-family="Times,serif" font-size="14.00">epi_dilmsk (brainmask)</text>
</g>
<!-- epi_brain (brainmask)&#45;&gt;epi_dilmsk (brainmask) -->
<g id="edge29" class="edge">
<title>epi_brain (brainmask)&#45;&gt;epi_dilmsk (brainmask)</title>
<path fill="none" stroke="black" d="M421.53,-431.7C423.98,-423.9 426.93,-414.51 429.66,-405.83"/>
<polygon fill="black" stroke="black" points="433.05,-406.69 432.71,-396.1 426.38,-404.59 433.05,-406.69"/>
</g>
<!-- ref_anat (utils)&#45;&gt;epi2anat (fixes) -->
<g id="edge31" class="edge">
<title>ref_anat (utils)&#45;&gt;epi2anat (fixes)</title>
<path fill="none" stroke="black" d="M830.36,-365.52C768.58,-353.23 670.62,-333.75 604.89,-320.68"/>
<polygon fill="black" stroke="black" points="605.52,-317.24 595.03,-318.72 604.15,-324.1 605.52,-317.24"/>
</g>
<!-- ref_anat (utils)&#45;&gt;anat2epi (fixes) -->
<g id="edge32" class="edge">
<title>ref_anat (utils)&#45;&gt;anat2epi (fixes)</title>
<path fill="none" stroke="black" d="M890.41,-360C892.11,-340.23 891.63,-307.78 874.09,-288 865.7,-278.53 802.94,-261.96 752.4,-249.87"/>
<polygon fill="black" stroke="black" points="753.02,-246.41 742.48,-247.51 751.4,-253.22 753.02,-246.41"/>
</g>
<!-- epi_dilmsk (brainmask)&#45;&gt;epi2anat (fixes) -->
<g id="edge33" class="edge">
<title>epi_dilmsk (brainmask)&#45;&gt;epi2anat (fixes)</title>
<path fill="none" stroke="black" d="M461.81,-360.05C474.76,-350.81 490.95,-339.24 504.91,-329.27"/>
<polygon fill="black" stroke="black" points="507.16,-331.97 513.26,-323.31 503.09,-326.27 507.16,-331.97"/>
</g>
</g>
</svg>
