<?xml version="1.0" encoding="UTF-8" standalone="no"?>
<!DOCTYPE svg PUBLIC "-//W3C//DTD SVG 1.1//EN"
 "http://www.w3.org/Graphics/SVG/1.1/DTD/svg11.dtd">
<!-- Generated by graphviz version 2.40.1 (20161225.0304)
 -->
<!-- Title: %3 Pages: 1 -->
<svg width="1207pt" height="764pt"
 viewBox="0.00 0.00 1206.78 764.00" xmlns="http://www.w3.org/2000/svg" xmlns:xlink="http://www.w3.org/1999/xlink">
<g id="graph0" class="graph" transform="scale(1 1) rotate(0) translate(4 760)">
<title>%3</title>
<polygon fill="#ffffff" stroke="transparent" points="-4,4 -4,-760 1202.7845,-760 1202.7845,4 -4,4"/>
<!-- inputnode (utility) -->
<g id="node1" class="node">
<title>inputnode (utility)</title>
<ellipse fill="none" stroke="#000000" cx="733" cy="-738" rx="94.7833" ry="18"/>
<text text-anchor="middle" x="733" y="-734.3" font-family="Times,serif" font-size="14.00" fill="#000000">inputnode (utility)</text>
</g>
<!-- extract_field (utility) -->
<g id="node2" class="node">
<title>extract_field (utility)</title>
<ellipse fill="none" stroke="#000000" cx="579" cy="-306" rx="107.4815" ry="18"/>
<text text-anchor="middle" x="579" y="-302.3" font-family="Times,serif" font-size="14.00" fill="#000000">extract_field (utility)</text>
</g>
<!-- inputnode (utility)&#45;&gt;extract_field (utility) -->
<g id="edge1" class="edge">
<title>inputnode (utility)&#45;&gt;extract_field (utility)</title>
<path fill="none" stroke="#000000" d="M638.4946,-735.8646C466.3132,-731.1671 115.1081,-717.557 71,-684 37.0931,-658.204 38,-636.6041 38,-594 38,-594 38,-594 38,-450 38,-361.8489 309.6159,-326.3221 467.9333,-313.1017"/>
<polygon fill="#000000" stroke="#000000" points="468.512,-316.5661 478.1935,-312.2628 467.9415,-309.5894 468.512,-316.5661"/>
</g>
<!-- atlas_msk (nibabel) -->
<g id="node3" class="node">
<title>atlas_msk (nibabel)</title>
<ellipse fill="none" stroke="#000000" cx="733" cy="-666" rx="101.2821" ry="18"/>
<text text-anchor="middle" x="733" y="-662.3" font-family="Times,serif" font-size="14.00" fill="#000000">atlas_msk (nibabel)</text>
</g>
<!-- inputnode (utility)&#45;&gt;atlas_msk (nibabel) -->
<g id="edge2" class="edge">
<title>inputnode (utility)&#45;&gt;atlas_msk (nibabel)</title>
<path fill="none" stroke="#000000" d="M733,-719.8314C733,-712.131 733,-702.9743 733,-694.4166"/>
<polygon fill="#000000" stroke="#000000" points="736.5001,-694.4132 733,-684.4133 729.5001,-694.4133 736.5001,-694.4132"/>
</g>
<!-- deoblique (header) -->
<g id="node4" class="node">
<title>deoblique (header)</title>
<ellipse fill="none" stroke="#000000" cx="918" cy="-450" rx="98.2828" ry="18"/>
<text text-anchor="middle" x="918" y="-446.3" font-family="Times,serif" font-size="14.00" fill="#000000">deoblique (header)</text>
</g>
<!-- inputnode (utility)&#45;&gt;deoblique (header) -->
<g id="edge3" class="edge">
<title>inputnode (utility)&#45;&gt;deoblique (header)</title>
<path fill="none" stroke="#000000" d="M805.3853,-726.28C832.4584,-718.4819 861.3699,-705.5213 881,-684 933.3099,-626.6506 928.6016,-526.6836 922.5147,-478.1039"/>
<polygon fill="#000000" stroke="#000000" points="925.9563,-477.4379 921.134,-468.0041 919.0208,-478.386 925.9563,-477.4379"/>
</g>
<!-- reoblique (utils) -->
<g id="node5" class="node">
<title>reoblique (utils)</title>
<ellipse fill="none" stroke="#000000" cx="689" cy="-162" rx="85.2851" ry="18"/>
<text text-anchor="middle" x="689" y="-158.3" font-family="Times,serif" font-size="14.00" fill="#000000">reoblique (utils)</text>
</g>
<!-- inputnode (utility)&#45;&gt;reoblique (utils) -->
<g id="edge4" class="edge">
<title>inputnode (utility)&#45;&gt;reoblique (utils)</title>
<path fill="none" stroke="#000000" d="M638.6484,-736.0141C460.1785,-731.4843 86.6804,-718.023 39,-684 3.5139,-658.6784 0,-637.5941 0,-594 0,-594 0,-594 0,-306 0,-245.1026 417.7299,-191.7349 602.6651,-171.0921"/>
<polygon fill="#000000" stroke="#000000" points="603.0795,-174.5677 612.6324,-169.9861 602.3074,-167.6104 603.0795,-174.5677"/>
</g>
<!-- epi_dilmsk (brainmask) -->
<g id="node6" class="node">
<title>epi_dilmsk (brainmask)</title>
<ellipse fill="none" stroke="#000000" cx="224" cy="-666" rx="120.4791" ry="18"/>
<text text-anchor="middle" x="224" y="-662.3" font-family="Times,serif" font-size="14.00" fill="#000000">epi_dilmsk (brainmask)</text>
</g>
<!-- inputnode (utility)&#45;&gt;epi_dilmsk (brainmask) -->
<g id="edge5" class="edge">
<title>inputnode (utility)&#45;&gt;epi_dilmsk (brainmask)</title>
<path fill="none" stroke="#000000" d="M656.7976,-727.2209C567.4686,-714.585 419.2451,-693.6182 321.5824,-679.8034"/>
<polygon fill="#000000" stroke="#000000" points="321.8003,-676.2995 311.4086,-678.3643 320.8198,-683.2305 321.8003,-676.2995"/>
</g>
<!-- zooms_bmask (fixes) -->
<g id="node7" class="node">
<title>zooms_bmask (fixes)</title>
<ellipse fill="none" stroke="#000000" cx="887" cy="-234" rx="107.4815" ry="18"/>
<text text-anchor="middle" x="887" y="-230.3" font-family="Times,serif" font-size="14.00" fill="#000000">zooms_bmask (fixes)</text>
</g>
<!-- inputnode (utility)&#45;&gt;zooms_bmask (fixes) -->
<g id="edge6" class="edge">
<title>inputnode (utility)&#45;&gt;zooms_bmask (fixes)</title>
<path fill="none" stroke="#000000" d="M823.6711,-732.5697C945.9576,-724.406 1151.4726,-707.3971 1177,-684 1207.1378,-656.3772 1196,-634.8816 1196,-594 1196,-594 1196,-594 1196,-378 1196,-325.5354 1047.8003,-276.6744 956.6692,-251.5884"/>
<polygon fill="#000000" stroke="#000000" points="957.5129,-248.1908 946.9447,-248.9419 955.6746,-254.9451 957.5129,-248.1908"/>
</g>
<!-- fixed_masks (utility) -->
<g id="node8" class="node">
<title>fixed_masks (utility)</title>
<ellipse fill="none" stroke="#000000" cx="733" cy="-594" rx="105.8812" ry="18"/>
<text text-anchor="middle" x="733" y="-590.3" font-family="Times,serif" font-size="14.00" fill="#000000">fixed_masks (utility)</text>
</g>
<!-- inputnode (utility)&#45;&gt;fixed_masks (utility) -->
<g id="edge7" class="edge">
<title>inputnode (utility)&#45;&gt;fixed_masks (utility)</title>
<path fill="none" stroke="#000000" d="M790.3348,-723.5892C810.5592,-715.4498 831.187,-702.9588 843,-684 851.4613,-670.4204 851.4613,-661.5796 843,-648 833.2701,-632.3844 817.5601,-621.1566 801.021,-613.1342"/>
<polygon fill="#000000" stroke="#000000" points="802.3375,-609.8889 791.78,-608.9996 799.4786,-616.2785 802.3375,-609.8889"/>
</g>
<!-- anat_dilmsk (brainmask) -->
<g id="node9" class="node">
<title>anat_dilmsk (brainmask)</title>
<ellipse fill="none" stroke="#000000" cx="488" cy="-666" rx="126.1777" ry="18"/>
<text text-anchor="middle" x="488" y="-662.3" font-family="Times,serif" font-size="14.00" fill="#000000">anat_dilmsk (brainmask)</text>
</g>
<!-- inputnode (utility)&#45;&gt;anat_dilmsk (brainmask) -->
<g id="edge8" class="edge">
<title>inputnode (utility)&#45;&gt;anat_dilmsk (brainmask)</title>
<path fill="none" stroke="#000000" d="M681.3412,-722.8186C643.9884,-711.8415 593.2468,-696.9297 553.1183,-685.1368"/>
<polygon fill="#000000" stroke="#000000" points="554.0032,-681.7489 543.4221,-682.2873 552.0295,-688.4649 554.0032,-681.7489"/>
</g>
<!-- warp_dir (utility) -->
<g id="node10" class="node">
<title>warp_dir (utility)</title>
<ellipse fill="none" stroke="#000000" cx="820" cy="-522" rx="89.8845" ry="18"/>
<text text-anchor="middle" x="820" y="-518.3" font-family="Times,serif" font-size="14.00" fill="#000000">warp_dir (utility)</text>
</g>
<!-- inputnode (utility)&#45;&gt;warp_dir (utility) -->
<g id="edge9" class="edge">
<title>inputnode (utility)&#45;&gt;warp_dir (utility)</title>
<path fill="none" stroke="#000000" d="M800.7942,-725.3727C823.8626,-717.4852 847.2657,-704.7006 861,-684 888.9012,-641.9467 859.9528,-582.2435 838.5318,-548.2946"/>
<polygon fill="#000000" stroke="#000000" points="841.4116,-546.3032 833.0154,-539.8414 835.5494,-550.1287 841.4116,-546.3032"/>
</g>
<!-- syn (fixes) -->
<g id="node11" class="node">
<title>syn (fixes)</title>
<ellipse fill="none" stroke="#000000" cx="702" cy="-378" rx="58.4896" ry="18"/>
<text text-anchor="middle" x="702" y="-374.3" font-family="Times,serif" font-size="14.00" fill="#000000">syn (fixes)</text>
</g>
<!-- inputnode (utility)&#45;&gt;syn (fixes) -->
<g id="edge10" class="edge">
<title>inputnode (utility)&#45;&gt;syn (fixes)</title>
<path fill="none" stroke="#000000" d="M638.5171,-736.129C470.7861,-731.9219 134.8052,-719.1654 95,-684 64.3619,-656.9331 76,-634.8816 76,-594 76,-594 76,-594 76,-522 76,-408.7167 470.2659,-384.5453 633.0105,-379.3933"/>
<polygon fill="#000000" stroke="#000000" points="633.4987,-382.8803 643.3888,-379.0807 633.2879,-375.8835 633.4987,-382.8803"/>
</g>
<!-- find_zooms (utility) -->
<g id="node12" class="node">
<title>find_zooms (utility)</title>
<ellipse fill="none" stroke="#000000" cx="1067" cy="-666" rx="100.9827" ry="18"/>
<text text-anchor="middle" x="1067" y="-662.3" font-family="Times,serif" font-size="14.00" fill="#000000">find_zooms (utility)</text>
</g>
<!-- inputnode (utility)&#45;&gt;find_zooms (utility) -->
<g id="edge11" class="edge">
<title>inputnode (utility)&#45;&gt;find_zooms (utility)</title>
<path fill="none" stroke="#000000" d="M795.8228,-724.4574C851.6459,-712.4236 933.3265,-694.8159 992.443,-682.0722"/>
<polygon fill="#000000" stroke="#000000" points="993.4291,-685.4401 1002.4669,-679.9113 991.9539,-678.5973 993.4291,-685.4401"/>
</g>
<!-- zooms_field (fixes) -->
<g id="node13" class="node">
<title>zooms_field (fixes)</title>
<ellipse fill="none" stroke="#000000" cx="627" cy="-234" rx="96.6831" ry="18"/>
<text text-anchor="middle" x="627" y="-230.3" font-family="Times,serif" font-size="14.00" fill="#000000">zooms_field (fixes)</text>
</g>
<!-- extract_field (utility)&#45;&gt;zooms_field (fixes) -->
<g id="edge12" class="edge">
<title>extract_field (utility)&#45;&gt;zooms_field (fixes)</title>
<path fill="none" stroke="#000000" d="M591.1124,-287.8314C596.6687,-279.497 603.3622,-269.4567 609.4559,-260.3162"/>
<polygon fill="#000000" stroke="#000000" points="612.4229,-262.1754 615.0577,-251.9134 606.5985,-258.2925 612.4229,-262.1754"/>
</g>
<!-- atlas_msk (nibabel)&#45;&gt;fixed_masks (utility) -->
<g id="edge14" class="edge">
<title>atlas_msk (nibabel)&#45;&gt;fixed_masks (utility)</title>
<path fill="none" stroke="#000000" d="M733,-647.8314C733,-640.131 733,-630.9743 733,-622.4166"/>
<polygon fill="#000000" stroke="#000000" points="736.5001,-622.4132 733,-612.4133 729.5001,-622.4133 736.5001,-622.4132"/>
</g>
<!-- prior2epi (fixes) -->
<g id="node14" class="node">
<title>prior2epi (fixes)</title>
<ellipse fill="none" stroke="#000000" cx="524" cy="-594" rx="85.2851" ry="18"/>
<text text-anchor="middle" x="524" y="-590.3" font-family="Times,serif" font-size="14.00" fill="#000000">prior2epi (fixes)</text>
</g>
<!-- atlas_msk (nibabel)&#45;&gt;prior2epi (fixes) -->
<g id="edge13" class="edge">
<title>atlas_msk (nibabel)&#45;&gt;prior2epi (fixes)</title>
<path fill="none" stroke="#000000" d="M686.3565,-649.9314C654.3831,-638.9167 611.8579,-624.2668 578.35,-612.7234"/>
<polygon fill="#000000" stroke="#000000" points="579.3042,-609.3504 568.7095,-609.4023 577.0242,-615.9686 579.3042,-609.3504"/>
</g>
<!-- deoblique (header)&#45;&gt;syn (fixes) -->
<g id="edge17" class="edge">
<title>deoblique (header)&#45;&gt;syn (fixes)</title>
<path fill="none" stroke="#000000" d="M870.5979,-434.1993C835.2952,-422.4317 787.2203,-406.4068 751.4388,-394.4796"/>
<polygon fill="#000000" stroke="#000000" points="752.287,-391.0731 741.6934,-391.2311 750.0734,-397.7139 752.287,-391.0731"/>
</g>
<!-- zooms_epi (nibabel) -->
<g id="node15" class="node">
<title>zooms_epi (nibabel)</title>
<ellipse fill="none" stroke="#000000" cx="931" cy="-378" rx="102.8821" ry="18"/>
<text text-anchor="middle" x="931" y="-374.3" font-family="Times,serif" font-size="14.00" fill="#000000">zooms_epi (nibabel)</text>
</g>
<!-- deoblique (header)&#45;&gt;zooms_epi (nibabel) -->
<g id="edge15" class="edge">
<title>deoblique (header)&#45;&gt;zooms_epi (nibabel)</title>
<path fill="none" stroke="#000000" d="M921.2804,-431.8314C922.6708,-424.131 924.3241,-414.9743 925.8692,-406.4166"/>
<polygon fill="#000000" stroke="#000000" points="929.3428,-406.8761 927.6754,-396.4133 922.4542,-405.6322 929.3428,-406.8761"/>
</g>
<!-- unwarp_ref (fixes) -->
<g id="node16" class="node">
<title>unwarp_ref (fixes)</title>
<ellipse fill="none" stroke="#000000" cx="800" cy="-306" rx="95.5831" ry="18"/>
<text text-anchor="middle" x="800" y="-302.3" font-family="Times,serif" font-size="14.00" fill="#000000">unwarp_ref (fixes)</text>
</g>
<!-- deoblique (header)&#45;&gt;unwarp_ref (fixes) -->
<g id="edge16" class="edge">
<title>deoblique (header)&#45;&gt;unwarp_ref (fixes)</title>
<path fill="none" stroke="#000000" d="M870.6727,-434.2006C851.9434,-425.6767 831.8569,-413.277 819,-396 805.7888,-378.2468 801.3129,-353.3423 799.9865,-334.2306"/>
<polygon fill="#000000" stroke="#000000" points="803.4733,-333.8532 799.5325,-324.0186 796.4802,-334.1642 803.4733,-333.8532"/>
</g>
<!-- bs_filter (bspline) -->
<g id="node17" class="node">
<title>bs_filter (bspline)</title>
<ellipse fill="none" stroke="#000000" cx="629" cy="-90" rx="92.8835" ry="18"/>
<text text-anchor="middle" x="629" y="-86.3" font-family="Times,serif" font-size="14.00" fill="#000000">bs_filter (bspline)</text>
</g>
<!-- reoblique (utils)&#45;&gt;bs_filter (bspline) -->
<g id="edge18" class="edge">
<title>reoblique (utils)&#45;&gt;bs_filter (bspline)</title>
<path fill="none" stroke="#000000" d="M674.1685,-144.2022C667.029,-135.6348 658.3341,-125.2009 650.4866,-115.7839"/>
<polygon fill="#000000" stroke="#000000" points="652.9594,-113.2841 643.8688,-107.8425 647.5819,-117.7654 652.9594,-113.2841"/>
</g>
<!-- outputnode (utility) -->
<g id="node18" class="node">
<title>outputnode (utility)</title>
<ellipse fill="none" stroke="#000000" cx="689" cy="-18" rx="101.2821" ry="18"/>
<text text-anchor="middle" x="689" y="-14.3" font-family="Times,serif" font-size="14.00" fill="#000000">outputnode (utility)</text>
</g>
<!-- reoblique (utils)&#45;&gt;outputnode (utility) -->
<g id="edge19" class="edge">
<title>reoblique (utils)&#45;&gt;outputnode (utility)</title>
<path fill="none" stroke="#000000" d="M707.6103,-144.3683C716.5384,-134.6119 726.2976,-121.7054 731,-108 736.1926,-92.866 736.1926,-87.134 731,-72 727.531,-61.8894 721.3101,-52.2137 714.701,-43.9166"/>
<polygon fill="#000000" stroke="#000000" points="717.2008,-41.4539 708.05,-36.1141 711.8735,-45.9949 717.2008,-41.4539"/>
</g>
<!-- epi_dilmsk (brainmask)&#45;&gt;prior2epi (fixes) -->
<g id="edge20" class="edge">
<title>epi_dilmsk (brainmask)&#45;&gt;prior2epi (fixes)</title>
<path fill="none" stroke="#000000" d="M287.9896,-650.6425C338.0013,-638.6397 407.2797,-622.0129 457.8383,-609.8788"/>
<polygon fill="#000000" stroke="#000000" points="458.7822,-613.2517 467.6892,-607.5146 457.1485,-606.445 458.7822,-613.2517"/>
</g>
<!-- epi_umask (brainmask) -->
<g id="node19" class="node">
<title>epi_umask (brainmask)</title>
<ellipse fill="none" stroke="#000000" cx="241" cy="-522" rx="119.6788" ry="18"/>
<text text-anchor="middle" x="241" y="-518.3" font-family="Times,serif" font-size="14.00" fill="#000000">epi_umask (brainmask)</text>
</g>
<!-- epi_dilmsk (brainmask)&#45;&gt;epi_umask (brainmask) -->
<g id="edge21" class="edge">
<title>epi_dilmsk (brainmask)&#45;&gt;epi_umask (brainmask)</title>
<path fill="none" stroke="#000000" d="M223.092,-647.9598C222.4795,-629.7098 222.3476,-600.738 226,-576 227.273,-567.3775 229.4918,-558.1776 231.8385,-549.86"/>
<polygon fill="#000000" stroke="#000000" points="235.2004,-550.8335 234.7095,-540.2501 228.4934,-548.8297 235.2004,-550.8335"/>
</g>
<!-- amask2epi (fixes) -->
<g id="node20" class="node">
<title>amask2epi (fixes)</title>
<ellipse fill="none" stroke="#000000" cx="328" cy="-594" rx="92.8835" ry="18"/>
<text text-anchor="middle" x="328" y="-590.3" font-family="Times,serif" font-size="14.00" fill="#000000">amask2epi (fixes)</text>
</g>
<!-- epi_dilmsk (brainmask)&#45;&gt;amask2epi (fixes) -->
<g id="edge22" class="edge">
<title>epi_dilmsk (brainmask)&#45;&gt;amask2epi (fixes)</title>
<path fill="none" stroke="#000000" d="M249.4413,-648.3868C263.0139,-638.9904 279.8863,-627.3095 294.5118,-617.1842"/>
<polygon fill="#000000" stroke="#000000" points="296.5917,-620.0012 302.8214,-611.4313 292.6072,-614.2458 296.5917,-620.0012"/>
</g>
<!-- zooms_bmask (fixes)&#45;&gt;reoblique (utils) -->
<g id="edge23" class="edge">
<title>zooms_bmask (fixes)&#45;&gt;reoblique (utils)</title>
<path fill="none" stroke="#000000" d="M841.5748,-217.4817C811.6723,-206.6081 772.4381,-192.3411 741.2438,-180.9977"/>
<polygon fill="#000000" stroke="#000000" points="742.4342,-177.7065 731.8402,-177.5782 740.042,-184.285 742.4342,-177.7065"/>
</g>
<!-- fixed_masks (utility)&#45;&gt;syn (fixes) -->
<g id="edge24" class="edge">
<title>fixed_masks (utility)&#45;&gt;syn (fixes)</title>
<path fill="none" stroke="#000000" d="M728.422,-575.5972C725.9584,-565.1987 723.0199,-551.9309 721,-540 713.1008,-493.3423 707.4183,-438.5684 704.4244,-406.1556"/>
<polygon fill="#000000" stroke="#000000" points="707.8984,-405.7092 703.5128,-396.0647 700.9268,-406.3391 707.8984,-405.7092"/>
</g>
<!-- anat_dilmsk (brainmask)&#45;&gt;fixed_masks (utility) -->
<g id="edge25" class="edge">
<title>anat_dilmsk (brainmask)&#45;&gt;fixed_masks (utility)</title>
<path fill="none" stroke="#000000" d="M543.2883,-649.752C580.8892,-638.7019 630.7267,-624.0558 669.8847,-612.5482"/>
<polygon fill="#000000" stroke="#000000" points="670.9887,-615.8718 679.5961,-609.6942 669.015,-609.1558 670.9887,-615.8718"/>
</g>
<!-- anat_dilmsk (brainmask)&#45;&gt;amask2epi (fixes) -->
<g id="edge26" class="edge">
<title>anat_dilmsk (brainmask)&#45;&gt;amask2epi (fixes)</title>
<path fill="none" stroke="#000000" d="M449.676,-648.7542C426.9867,-638.544 398.0921,-625.5414 374.1543,-614.7694"/>
<polygon fill="#000000" stroke="#000000" points="375.4652,-611.5213 364.9097,-610.6094 372.5926,-617.9048 375.4652,-611.5213"/>
</g>
<!-- warp_dir (utility)&#45;&gt;syn (fixes) -->
<g id="edge27" class="edge">
<title>warp_dir (utility)&#45;&gt;syn (fixes)</title>
<path fill="none" stroke="#000000" d="M805.2938,-504.0535C784.601,-478.8012 746.7776,-432.6438 723.0917,-403.7391"/>
<polygon fill="#000000" stroke="#000000" points="725.5663,-401.2368 716.5208,-395.7204 720.1519,-405.6736 725.5663,-401.2368"/>
</g>
<!-- syn (fixes)&#45;&gt;extract_field (utility) -->
<g id="edge28" class="edge">
<title>syn (fixes)&#45;&gt;extract_field (utility)</title>
<path fill="none" stroke="#000000" d="M674.7023,-362.0209C657.9154,-352.1944 636.1434,-339.4498 617.6077,-328.5996"/>
<polygon fill="#000000" stroke="#000000" points="619.2026,-325.4777 608.8043,-323.4464 615.6663,-331.5188 619.2026,-325.4777"/>
</g>
<!-- syn (fixes)&#45;&gt;unwarp_ref (fixes) -->
<g id="edge29" class="edge">
<title>syn (fixes)&#45;&gt;unwarp_ref (fixes)</title>
<path fill="none" stroke="#000000" d="M724.7295,-361.3008C737.4659,-351.9434 753.5642,-340.1161 767.6013,-329.8031"/>
<polygon fill="#000000" stroke="#000000" points="770.0399,-332.3546 776.0265,-323.6132 765.8954,-326.7134 770.0399,-332.3546"/>
</g>
<!-- find_zooms (utility)&#45;&gt;zooms_epi (nibabel) -->
<g id="edge30" class="edge">
<title>find_zooms (utility)&#45;&gt;zooms_epi (nibabel)</title>
<path fill="none" stroke="#000000" d="M1068.6101,-647.9453C1071.4075,-605.9266 1072.8808,-500.0019 1025,-432 1015.2194,-418.1093 1000.6494,-407.3007 985.8834,-399.1277"/>
<polygon fill="#000000" stroke="#000000" points="987.1948,-395.8654 976.7053,-394.3754 983.9762,-402.0815 987.1948,-395.8654"/>
</g>
<!-- zooms_field (fixes)&#45;&gt;reoblique (utils) -->
<g id="edge31" class="edge">
<title>zooms_field (fixes)&#45;&gt;reoblique (utils)</title>
<path fill="none" stroke="#000000" d="M642.3258,-216.2022C649.7779,-207.5483 658.8698,-196.99 667.0427,-187.4988"/>
<polygon fill="#000000" stroke="#000000" points="669.7625,-189.7041 673.6356,-179.8425 664.4581,-185.1364 669.7625,-189.7041"/>
</g>
<!-- prior_dilmsk (brainmask) -->
<g id="node21" class="node">
<title>prior_dilmsk (brainmask)</title>
<ellipse fill="none" stroke="#000000" cx="507" cy="-522" rx="128.8774" ry="18"/>
<text text-anchor="middle" x="507" y="-518.3" font-family="Times,serif" font-size="14.00" fill="#000000">prior_dilmsk (brainmask)</text>
</g>
<!-- prior2epi (fixes)&#45;&gt;prior_dilmsk (brainmask) -->
<g id="edge32" class="edge">
<title>prior2epi (fixes)&#45;&gt;prior_dilmsk (brainmask)</title>
<path fill="none" stroke="#000000" d="M519.7102,-575.8314C517.892,-568.131 515.7301,-558.9743 513.7095,-550.4166"/>
<polygon fill="#000000" stroke="#000000" points="517.0519,-549.3414 511.3476,-540.4133 510.2392,-550.95 517.0519,-549.3414"/>
</g>
<!-- moving_masks (utility) -->
<g id="node22" class="node">
<title>moving_masks (utility)</title>
<ellipse fill="none" stroke="#000000" cx="532" cy="-450" rx="116.9792" ry="18"/>
<text text-anchor="middle" x="532" y="-446.3" font-family="Times,serif" font-size="14.00" fill="#000000">moving_masks (utility)</text>
</g>
<!-- prior2epi (fixes)&#45;&gt;moving_masks (utility) -->
<g id="edge33" class="edge">
<title>prior2epi (fixes)&#45;&gt;moving_masks (utility)</title>
<path fill="none" stroke="#000000" d="M585.323,-581.5112C608.0485,-573.5902 631.5406,-560.7456 645,-540 653.7083,-526.5774 653.5329,-517.5348 645,-504 635.2651,-488.5586 619.7625,-477.4374 603.322,-469.4637"/>
<polygon fill="#000000" stroke="#000000" points="604.6803,-466.2371 594.1226,-465.3501 601.8228,-472.6273 604.6803,-466.2371"/>
</g>
<!-- zooms_epi (nibabel)&#45;&gt;unwarp_ref (fixes) -->
<g id="edge34" class="edge">
<title>zooms_epi (nibabel)&#45;&gt;unwarp_ref (fixes)</title>
<path fill="none" stroke="#000000" d="M899.6222,-360.7542C881.7177,-350.9136 859.0937,-338.479 839.9325,-327.9476"/>
<polygon fill="#000000" stroke="#000000" points="841.5711,-324.8545 831.1217,-323.1051 838.1995,-330.989 841.5711,-324.8545"/>
</g>
<!-- unwarp_ref (fixes)&#45;&gt;reoblique (utils) -->
<g id="edge37" class="edge">
<title>unwarp_ref (fixes)&#45;&gt;reoblique (utils)</title>
<path fill="none" stroke="#000000" d="M786.8813,-287.896C773.5372,-269.5963 752.1538,-240.5867 733,-216 725.7167,-206.6509 717.5617,-196.5462 710.2697,-187.6346"/>
<polygon fill="#000000" stroke="#000000" points="712.9187,-185.3452 703.8654,-179.8417 707.5106,-189.7897 712.9187,-185.3452"/>
</g>
<!-- unwarp_ref (fixes)&#45;&gt;zooms_bmask (fixes) -->
<g id="edge35" class="edge">
<title>unwarp_ref (fixes)&#45;&gt;zooms_bmask (fixes)</title>
<path fill="none" stroke="#000000" d="M821.5056,-288.2022C832.3808,-279.2021 845.7448,-268.1423 857.5587,-258.3652"/>
<polygon fill="#000000" stroke="#000000" points="859.9678,-260.9146 865.4403,-251.8425 855.5048,-255.5219 859.9678,-260.9146"/>
</g>
<!-- unwarp_ref (fixes)&#45;&gt;zooms_field (fixes) -->
<g id="edge36" class="edge">
<title>unwarp_ref (fixes)&#45;&gt;zooms_field (fixes)</title>
<path fill="none" stroke="#000000" d="M760.3103,-289.4817C735.2557,-279.0544 702.7034,-265.5066 676.038,-254.4089"/>
<polygon fill="#000000" stroke="#000000" points="677.0822,-251.0525 666.505,-250.4414 674.3925,-257.5151 677.0822,-251.0525"/>
</g>
<!-- bs_filter (bspline)&#45;&gt;outputnode (utility) -->
<g id="edge38" class="edge">
<title>bs_filter (bspline)&#45;&gt;outputnode (utility)</title>
<path fill="none" stroke="#000000" d="M643.8315,-72.2022C650.971,-63.6348 659.6659,-53.2009 667.5134,-43.7839"/>
<polygon fill="#000000" stroke="#000000" points="670.4181,-45.7654 674.1312,-35.8425 665.0406,-41.2841 670.4181,-45.7654"/>
</g>
<!-- epi_umask (brainmask)&#45;&gt;moving_masks (utility) -->
<g id="edge39" class="edge">
<title>epi_umask (brainmask)&#45;&gt;moving_masks (utility)</title>
<path fill="none" stroke="#000000" d="M303.4268,-506.5542C349.5173,-495.1504 412.333,-479.6083 460.451,-467.7028"/>
<polygon fill="#000000" stroke="#000000" points="461.3099,-471.096 470.1765,-465.2965 459.6286,-464.3009 461.3099,-471.096"/>
</g>
<!-- amask2epi (fixes)&#45;&gt;epi_umask (brainmask) -->
<g id="edge40" class="edge">
<title>amask2epi (fixes)&#45;&gt;epi_umask (brainmask)</title>
<path fill="none" stroke="#000000" d="M306.4944,-576.2022C295.6192,-567.2021 282.2552,-556.1423 270.4413,-546.3652"/>
<polygon fill="#000000" stroke="#000000" points="272.4952,-543.5219 262.5597,-539.8425 268.0322,-548.9146 272.4952,-543.5219"/>
</g>
<!-- prior_dilmsk (brainmask)&#45;&gt;moving_masks (utility) -->
<g id="edge41" class="edge">
<title>prior_dilmsk (brainmask)&#45;&gt;moving_masks (utility)</title>
<path fill="none" stroke="#000000" d="M513.3086,-503.8314C516.0117,-496.0463 519.2316,-486.7729 522.231,-478.1347"/>
<polygon fill="#000000" stroke="#000000" points="525.6327,-479.0081 525.6065,-468.4133 519.02,-476.7119 525.6327,-479.0081"/>
</g>
<!-- moving_masks (utility)&#45;&gt;syn (fixes) -->
<g id="edge42" class="edge">
<title>moving_masks (utility)&#45;&gt;syn (fixes)</title>
<path fill="none" stroke="#000000" d="M572.2876,-432.937C598.0845,-422.0113 631.5625,-407.8323 658.0455,-396.616"/>
<polygon fill="#000000" stroke="#000000" points="659.6155,-399.7521 667.4587,-392.6292 656.8856,-393.3064 659.6155,-399.7521"/>
</g>
</g>
</svg>
