<?xml version="1.0" encoding="UTF-8" standalone="no"?>
<!DOCTYPE svg PUBLIC "-//W3C//DTD SVG 1.1//EN"
 "http://www.w3.org/Graphics/SVG/1.1/DTD/svg11.dtd">
<!-- Generated by graphviz version 2.40.1 (20161225.0304)
 -->
<!-- Title: %3 Pages: 1 -->
<svg width="283pt" height="332pt"
 viewBox="0.00 0.00 283.44 332.00" xmlns="http://www.w3.org/2000/svg" xmlns:xlink="http://www.w3.org/1999/xlink">
<g id="graph0" class="graph" transform="scale(1 1) rotate(0) translate(4 328)">
<title>%3</title>
<polygon fill="#ffffff" stroke="transparent" points="-4,4 -4,-328 279.4354,-328 279.4354,4 -4,4"/>
<!-- inputnode (utility) -->
<g id="node1" class="node">
<title>inputnode (utility)</title>
<ellipse fill="none" stroke="#000000" cx="112.6442" cy="-306" rx="94.7833" ry="18"/>
<text text-anchor="middle" x="112.6442" y="-302.3" font-family="Times,serif" font-size="14.00" fill="#000000">inputnode (utility)</text>
</g>
<!-- rotime (epi) -->
<g id="node2" class="node">
<title>rotime (epi)</title>
<ellipse fill="none" stroke="#000000" cx="65.6442" cy="-234" rx="65.7887" ry="18"/>
<text text-anchor="middle" x="65.6442" y="-230.3" font-family="Times,serif" font-size="14.00" fill="#000000">rotime (epi)</text>
</g>
<!-- inputnode (utility)&#45;&gt;rotime (epi) -->
<g id="edge1" class="edge">
<title>inputnode (utility)&#45;&gt;rotime (epi)</title>
<path fill="none" stroke="#000000" d="M100.7841,-287.8314C95.3436,-279.497 88.7895,-269.4567 82.8228,-260.3162"/>
<polygon fill="#000000" stroke="#000000" points="85.7348,-258.374 77.3377,-251.9134 79.8731,-262.2004 85.7348,-258.374"/>
</g>
<!-- resample (bspline) -->
<g id="node3" class="node">
<title>resample (bspline)</title>
<ellipse fill="none" stroke="#000000" cx="112.6442" cy="-162" rx="96.6831" ry="18"/>
<text text-anchor="middle" x="112.6442" y="-158.3" font-family="Times,serif" font-size="14.00" fill="#000000">resample (bspline)</text>
</g>
<!-- inputnode (utility)&#45;&gt;resample (bspline) -->
<g id="edge2" class="edge">
<title>inputnode (utility)&#45;&gt;resample (bspline)</title>
<path fill="none" stroke="#000000" d="M124.8259,-287.882C130.8757,-277.7891 137.542,-264.7221 140.6442,-252 144.4346,-236.4555 144.4346,-231.5445 140.6442,-216 138.3902,-206.7566 134.2548,-197.3312 129.8414,-188.9966"/>
<polygon fill="#000000" stroke="#000000" points="132.7918,-187.1033 124.8259,-180.118 126.697,-190.5463 132.7918,-187.1033"/>
</g>
<!-- rotime (epi)&#45;&gt;resample (bspline) -->
<g id="edge3" class="edge">
<title>rotime (epi)&#45;&gt;resample (bspline)</title>
<path fill="none" stroke="#000000" d="M77.2622,-216.2022C82.7006,-207.871 89.2912,-197.7748 95.3031,-188.565"/>
<polygon fill="#000000" stroke="#000000" points="98.298,-190.3801 100.8334,-180.0931 92.4363,-186.5537 98.298,-190.3801"/>
</g>
<!-- outputnode (utility) -->
<g id="node4" class="node">
<title>outputnode (utility)</title>
<ellipse fill="none" stroke="#000000" cx="112.6442" cy="-18" rx="101.2821" ry="18"/>
<text text-anchor="middle" x="112.6442" y="-14.3" font-family="Times,serif" font-size="14.00" fill="#000000">outputnode (utility)</text>
</g>
<!-- resample (bspline)&#45;&gt;outputnode (utility) -->
<g id="edge4" class="edge">
<title>resample (bspline)&#45;&gt;outputnode (utility)</title>
<path fill="none" stroke="#000000" d="M92.7033,-144.0479C83.481,-134.3917 73.509,-121.672 68.6442,-108 63.2804,-92.9258 63.2804,-87.0742 68.6442,-72 72.3308,-61.6392 78.9504,-51.8252 85.954,-43.477"/>
<polygon fill="#000000" stroke="#000000" points="88.6318,-45.7334 92.7033,-35.9521 83.4208,-41.0595 88.6318,-45.7334"/>
</g>
<!-- brainextraction_wf -->
<g id="node5" class="node">
<title>brainextraction_wf</title>
<ellipse fill="none" stroke="#000000" cx="176.6442" cy="-90" rx="98.5829" ry="18"/>
<text text-anchor="middle" x="176.6442" y="-86.3" font-family="Times,serif" font-size="14.00" fill="#000000">brainextraction_wf</text>
</g>
<!-- resample (bspline)&#45;&gt;brainextraction_wf -->
<g id="edge5" class="edge">
<title>resample (bspline)&#45;&gt;brainextraction_wf</title>
<path fill="none" stroke="#000000" d="M128.4644,-144.2022C136.1568,-135.5483 145.542,-124.99 153.9785,-115.4988"/>
<polygon fill="#000000" stroke="#000000" points="156.7564,-117.6419 160.7841,-107.8425 151.5245,-112.9914 156.7564,-117.6419"/>
</g>
<!-- brainextraction_wf&#45;&gt;outputnode (utility) -->
<g id="edge6" class="edge">
<title>brainextraction_wf&#45;&gt;outputnode (utility)</title>
<path fill="none" stroke="#000000" d="M160.8239,-72.2022C153.1315,-63.5483 143.7464,-52.99 135.3098,-43.4988"/>
<polygon fill="#000000" stroke="#000000" points="137.7638,-40.9914 128.5042,-35.8425 132.5319,-45.6419 137.7638,-40.9914"/>
</g>
</g>
</svg>
