<?xml version="1.0" encoding="UTF-8" standalone="no"?>
<!DOCTYPE svg PUBLIC "-//W3C//DTD SVG 1.1//EN"
 "http://www.w3.org/Graphics/SVG/1.1/DTD/svg11.dtd">
<!-- Generated by graphviz version 2.43.0 (0)
 -->
<!-- Title: %3 Pages: 1 -->
<svg width="211pt" height="188pt"
 viewBox="0.00 0.00 210.78 188.00" xmlns="http://www.w3.org/2000/svg" xmlns:xlink="http://www.w3.org/1999/xlink">
<g id="graph0" class="graph" transform="scale(1 1) rotate(0) translate(4 184)">
<title>%3</title>
<polygon fill="white" stroke="transparent" points="-4,4 -4,-184 206.78,-184 206.78,4 -4,4"/>
<!-- inputnode (utility) -->
<g id="node1" class="node">
<title>inputnode (utility)</title>
<ellipse fill="none" stroke="black" cx="101.39" cy="-162" rx="94.78" ry="18"/>
<text text-anchor="middle" x="101.39" y="-158.3" font-family="Times,serif" font-size="14.00">inputnode (utility)</text>
</g>
<!-- coregister (fixes) -->
<g id="node2" class="node">
<title>coregister (fixes)</title>
<ellipse fill="none" stroke="black" cx="101.39" cy="-90" rx="89.08" ry="18"/>
<text text-anchor="middle" x="101.39" y="-86.3" font-family="Times,serif" font-size="14.00">coregister (fixes)</text>
</g>
<!-- inputnode (utility)&#45;&gt;coregister (fixes) -->
<g id="edge1" class="edge">
<title>inputnode (utility)&#45;&gt;coregister (fixes)</title>
<path fill="none" stroke="black" d="M101.39,-143.7C101.39,-135.98 101.39,-126.71 101.39,-118.11"/>
<polygon fill="black" stroke="black" points="104.89,-118.1 101.39,-108.1 97.89,-118.1 104.89,-118.1"/>
</g>
<!-- outputnode (utility) -->
<g id="node3" class="node">
<title>outputnode (utility)</title>
<ellipse fill="none" stroke="black" cx="101.39" cy="-18" rx="101.28" ry="18"/>
<text text-anchor="middle" x="101.39" y="-14.3" font-family="Times,serif" font-size="14.00">outputnode (utility)</text>
</g>
<!-- coregister (fixes)&#45;&gt;outputnode (utility) -->
<g id="edge2" class="edge">
<title>coregister (fixes)&#45;&gt;outputnode (utility)</title>
<path fill="none" stroke="black" d="M101.39,-71.7C101.39,-63.98 101.39,-54.71 101.39,-46.11"/>
<polygon fill="black" stroke="black" points="104.89,-46.1 101.39,-36.1 97.89,-46.1 104.89,-46.1"/>
</g>
</g>
</svg>
