<?xml version="1.0" encoding="UTF-8" standalone="no"?>
<!DOCTYPE svg PUBLIC "-//W3C//DTD SVG 1.1//EN"
 "http://www.w3.org/Graphics/SVG/1.1/DTD/svg11.dtd">
<!-- Generated by graphviz version 2.46.1 (20210213.1702)
 -->
<!-- Pages: 1 -->
<svg width="436pt" height="620pt"
 viewBox="0.00 0.00 436.30 620.00" xmlns="http://www.w3.org/2000/svg" xmlns:xlink="http://www.w3.org/1999/xlink">
<g id="graph0" class="graph" transform="scale(1 1) rotate(0) translate(4 616)">
<polygon fill="white" stroke="transparent" points="-4,4 -4,-616 432.3,-616 432.3,4 -4,4"/>
<!-- inputnode (utility) -->
<g id="node1" class="node">
<title>inputnode (utility)</title>
<ellipse fill="none" stroke="black" cx="128.69" cy="-594" rx="75.29" ry="18"/>
<text text-anchor="middle" x="128.69" y="-590.3" font-family="Times,serif" font-size="14.00">inputnode (utility)</text>
</g>
<!-- flatten (utils) -->
<g id="node2" class="node">
<title>flatten (utils)</title>
<ellipse fill="none" stroke="black" cx="128.69" cy="-522" rx="55.79" ry="18"/>
<text text-anchor="middle" x="128.69" y="-518.3" font-family="Times,serif" font-size="14.00">flatten (utils)</text>
</g>
<!-- inputnode (utility)&#45;&gt;flatten (utils) -->
<g id="edge1" class="edge">
<title>inputnode (utility)&#45;&gt;flatten (utils)</title>
<path fill="none" stroke="black" d="M128.69,-575.7C128.69,-567.98 128.69,-558.71 128.69,-550.11"/>
<polygon fill="black" stroke="black" points="132.19,-550.1 128.69,-540.1 125.19,-550.1 132.19,-550.1"/>
</g>
<!-- readout_time (epi) -->
<g id="node3" class="node">
<title>readout_time (epi)</title>
<ellipse fill="none" stroke="black" cx="76.69" cy="-306" rx="76.89" ry="18"/>
<text text-anchor="middle" x="76.69" y="-302.3" font-family="Times,serif" font-size="14.00">readout_time (epi)</text>
</g>
<!-- flatten (utils)&#45;&gt;readout_time (epi) -->
<g id="edge2" class="edge">
<title>flatten (utils)&#45;&gt;readout_time (epi)</title>
<path fill="none" stroke="black" d="M124.53,-503.85C115.51,-466.75 94.14,-378.81 83.28,-334.1"/>
<polygon fill="black" stroke="black" points="86.64,-333.12 80.88,-324.23 79.84,-334.78 86.64,-333.12"/>
</g>
<!-- regrid (utils) -->
<g id="node4" class="node">
<title>regrid (utils)</title>
<ellipse fill="none" stroke="black" cx="181.69" cy="-450" rx="55.49" ry="18"/>
<text text-anchor="middle" x="181.69" y="-446.3" font-family="Times,serif" font-size="14.00">regrid (utils)</text>
</g>
<!-- flatten (utils)&#45;&gt;regrid (utils) -->
<g id="edge3" class="edge">
<title>flatten (utils)&#45;&gt;regrid (utils)</title>
<path fill="none" stroke="black" d="M141.25,-504.41C147.63,-495.99 155.51,-485.58 162.61,-476.2"/>
<polygon fill="black" stroke="black" points="165.61,-478.04 168.85,-467.96 160.03,-473.82 165.61,-478.04"/>
</g>
<!-- topup (fsl) -->
<g id="node5" class="node">
<title>topup (fsl)</title>
<ellipse fill="none" stroke="black" cx="328.69" cy="-234" rx="48.19" ry="18"/>
<text text-anchor="middle" x="328.69" y="-230.3" font-family="Times,serif" font-size="14.00">topup (fsl)</text>
</g>
<!-- readout_time (epi)&#45;&gt;topup (fsl) -->
<g id="edge4" class="edge">
<title>readout_time (epi)&#45;&gt;topup (fsl)</title>
<path fill="none" stroke="black" d="M125.67,-292.04C165.16,-281.51 222.1,-266.13 271.69,-252 275.28,-250.98 278.99,-249.91 282.72,-248.82"/>
<polygon fill="black" stroke="black" points="283.94,-252.11 292.55,-245.93 281.97,-245.39 283.94,-252.11"/>
</g>
<!-- fix_coeff (bspline) -->
<g id="node6" class="node">
<title>fix_coeff (bspline)</title>
<ellipse fill="none" stroke="black" cx="148.69" cy="-162" rx="76.09" ry="18"/>
<text text-anchor="middle" x="148.69" y="-158.3" font-family="Times,serif" font-size="14.00">fix_coeff (bspline)</text>
</g>
<!-- readout_time (epi)&#45;&gt;fix_coeff (bspline) -->
<g id="edge5" class="edge">
<title>readout_time (epi)&#45;&gt;fix_coeff (bspline)</title>
<path fill="none" stroke="black" d="M74.22,-287.84C72.35,-269.08 71.82,-238.65 83.69,-216 90.16,-203.67 100.86,-193.15 111.73,-184.82"/>
<polygon fill="black" stroke="black" points="113.93,-187.55 120.02,-178.88 109.85,-181.86 113.93,-187.55"/>
</g>
<!-- concat_blips (nibabel) -->
<g id="node7" class="node">
<title>concat_blips (nibabel)</title>
<ellipse fill="none" stroke="black" cx="306.69" cy="-378" rx="89.08" ry="18"/>
<text text-anchor="middle" x="306.69" y="-374.3" font-family="Times,serif" font-size="14.00">concat_blips (nibabel)</text>
</g>
<!-- regrid (utils)&#45;&gt;concat_blips (nibabel) -->
<g id="edge6" class="edge">
<title>regrid (utils)&#45;&gt;concat_blips (nibabel)</title>
<path fill="none" stroke="black" d="M208.2,-434.15C225.98,-424.2 249.64,-410.95 269.32,-399.93"/>
<polygon fill="black" stroke="black" points="271.03,-402.98 278.05,-395.04 267.61,-396.88 271.03,-402.98"/>
</g>
<!-- pad_ref_slices (utils) -->
<g id="node8" class="node">
<title>pad_ref_slices (utils)</title>
<ellipse fill="none" stroke="black" cx="177.69" cy="-234" rx="85.29" ry="18"/>
<text text-anchor="middle" x="177.69" y="-230.3" font-family="Times,serif" font-size="14.00">pad_ref_slices (utils)</text>
</g>
<!-- regrid (utils)&#45;&gt;pad_ref_slices (utils) -->
<g id="edge7" class="edge">
<title>regrid (utils)&#45;&gt;pad_ref_slices (utils)</title>
<path fill="none" stroke="black" d="M181.37,-431.85C180.68,-394.83 179.04,-307.18 178.21,-262.39"/>
<polygon fill="black" stroke="black" points="181.7,-262.17 178.02,-252.23 174.7,-262.3 181.7,-262.17"/>
</g>
<!-- topup (fsl)&#45;&gt;fix_coeff (bspline) -->
<g id="edge8" class="edge">
<title>topup (fsl)&#45;&gt;fix_coeff (bspline)</title>
<path fill="none" stroke="black" d="M296.51,-220.49C268.56,-209.62 227.71,-193.73 196.03,-181.41"/>
<polygon fill="black" stroke="black" points="197.11,-178.07 186.52,-177.71 194.57,-184.6 197.11,-178.07"/>
</g>
<!-- outputnode (utility) -->
<g id="node10" class="node">
<title>outputnode (utility)</title>
<ellipse fill="none" stroke="black" cx="328.69" cy="-18" rx="79.09" ry="18"/>
<text text-anchor="middle" x="328.69" y="-14.3" font-family="Times,serif" font-size="14.00">outputnode (utility)</text>
</g>
<!-- topup (fsl)&#45;&gt;outputnode (utility) -->
<g id="edge9" class="edge">
<title>topup (fsl)&#45;&gt;outputnode (utility)</title>
<path fill="none" stroke="black" d="M366.05,-222.51C386.96,-214.51 411.26,-201.17 423.69,-180 434.6,-161.43 422.69,-84.44 414.69,-72 405.58,-57.83 391.2,-46.83 376.78,-38.62"/>
<polygon fill="black" stroke="black" points="378.32,-35.47 367.85,-33.86 375.03,-41.65 378.32,-35.47"/>
</g>
<!-- ref_average (images) -->
<g id="node11" class="node">
<title>ref_average (images)</title>
<ellipse fill="none" stroke="black" cx="328.69" cy="-162" rx="85.59" ry="18"/>
<text text-anchor="middle" x="328.69" y="-158.3" font-family="Times,serif" font-size="14.00">ref_average (images)</text>
</g>
<!-- topup (fsl)&#45;&gt;ref_average (images) -->
<g id="edge10" class="edge">
<title>topup (fsl)&#45;&gt;ref_average (images)</title>
<path fill="none" stroke="black" d="M328.69,-215.7C328.69,-207.98 328.69,-198.71 328.69,-190.11"/>
<polygon fill="black" stroke="black" points="332.19,-190.1 328.69,-180.1 325.19,-190.1 332.19,-190.1"/>
</g>
<!-- fix_coeff (bspline)&#45;&gt;outputnode (utility) -->
<g id="edge11" class="edge">
<title>fix_coeff (bspline)&#45;&gt;outputnode (utility)</title>
<path fill="none" stroke="black" d="M164.41,-144.16C182.37,-125.4 213.11,-94.73 242.69,-72 257.81,-60.39 275.58,-49.08 291.04,-39.92"/>
<polygon fill="black" stroke="black" points="292.97,-42.85 299.84,-34.78 289.44,-36.8 292.97,-42.85"/>
</g>
<!-- pad_blip_slices (utils) -->
<g id="node9" class="node">
<title>pad_blip_slices (utils)</title>
<ellipse fill="none" stroke="black" cx="323.69" cy="-306" rx="89.08" ry="18"/>
<text text-anchor="middle" x="323.69" y="-302.3" font-family="Times,serif" font-size="14.00">pad_blip_slices (utils)</text>
</g>
<!-- concat_blips (nibabel)&#45;&gt;pad_blip_slices (utils) -->
<g id="edge12" class="edge">
<title>concat_blips (nibabel)&#45;&gt;pad_blip_slices (utils)</title>
<path fill="none" stroke="black" d="M310.9,-359.7C312.79,-351.9 315.07,-342.51 317.18,-333.83"/>
<polygon fill="black" stroke="black" points="320.58,-334.65 319.54,-324.1 313.78,-333 320.58,-334.65"/>
</g>
<!-- pad_ref_slices (utils)&#45;&gt;fix_coeff (bspline) -->
<g id="edge13" class="edge">
<title>pad_ref_slices (utils)&#45;&gt;fix_coeff (bspline)</title>
<path fill="none" stroke="black" d="M170.67,-216.05C167.41,-208.18 163.45,-198.62 159.79,-189.79"/>
<polygon fill="black" stroke="black" points="162.91,-188.17 155.85,-180.28 156.44,-190.85 162.91,-188.17"/>
</g>
<!-- pad_blip_slices (utils)&#45;&gt;topup (fsl) -->
<g id="edge14" class="edge">
<title>pad_blip_slices (utils)&#45;&gt;topup (fsl)</title>
<path fill="none" stroke="black" d="M324.93,-287.7C325.48,-279.98 326.14,-270.71 326.76,-262.11"/>
<polygon fill="black" stroke="black" points="330.25,-262.33 327.47,-252.1 323.27,-261.83 330.25,-262.33"/>
</g>
<!-- brainextraction_wf -->
<g id="node12" class="node">
<title>brainextraction_wf</title>
<ellipse fill="none" stroke="black" cx="328.69" cy="-90" rx="77.19" ry="18"/>
<text text-anchor="middle" x="328.69" y="-86.3" font-family="Times,serif" font-size="14.00">brainextraction_wf</text>
</g>
<!-- ref_average (images)&#45;&gt;brainextraction_wf -->
<g id="edge15" class="edge">
<title>ref_average (images)&#45;&gt;brainextraction_wf</title>
<path fill="none" stroke="black" d="M328.69,-143.7C328.69,-135.98 328.69,-126.71 328.69,-118.11"/>
<polygon fill="black" stroke="black" points="332.19,-118.1 328.69,-108.1 325.19,-118.1 332.19,-118.1"/>
</g>
<!-- brainextraction_wf&#45;&gt;outputnode (utility) -->
<g id="edge16" class="edge">
<title>brainextraction_wf&#45;&gt;outputnode (utility)</title>
<path fill="none" stroke="black" d="M328.69,-71.7C328.69,-63.98 328.69,-54.71 328.69,-46.11"/>
<polygon fill="black" stroke="black" points="332.19,-46.1 328.69,-36.1 325.19,-46.1 332.19,-46.1"/>
</g>
</g>
</svg>
