<?xml version="1.0" encoding="UTF-8" standalone="no"?>
<!DOCTYPE svg PUBLIC "-//W3C//DTD SVG 1.1//EN"
 "http://www.w3.org/Graphics/SVG/1.1/DTD/svg11.dtd">
<!-- Generated by graphviz version 2.43.0 (0)
 -->
<!-- Title: %3 Pages: 1 -->
<svg width="574pt" height="620pt"
 viewBox="0.00 0.00 574.13 620.00" xmlns="http://www.w3.org/2000/svg" xmlns:xlink="http://www.w3.org/1999/xlink">
<g id="graph0" class="graph" transform="scale(1 1) rotate(0) translate(4 616)">
<title>%3</title>
<polygon fill="white" stroke="transparent" points="-4,4 -4,-616 570.13,-616 570.13,4 -4,4"/>
<!-- inputnode (utility) -->
<g id="node1" class="node">
<title>inputnode (utility)</title>
<ellipse fill="none" stroke="black" cx="209.19" cy="-594" rx="94.78" ry="18"/>
<text text-anchor="middle" x="209.19" y="-590.3" font-family="Times,serif" font-size="14.00">inputnode (utility)</text>
</g>
<!-- flatten (utils) -->
<g id="node2" class="node">
<title>flatten (utils)</title>
<ellipse fill="none" stroke="black" cx="209.19" cy="-522" rx="71.49" ry="18"/>
<text text-anchor="middle" x="209.19" y="-518.3" font-family="Times,serif" font-size="14.00">flatten (utils)</text>
</g>
<!-- inputnode (utility)&#45;&gt;flatten (utils) -->
<g id="edge1" class="edge">
<title>inputnode (utility)&#45;&gt;flatten (utils)</title>
<path fill="none" stroke="black" d="M209.19,-575.7C209.19,-567.98 209.19,-558.71 209.19,-550.11"/>
<polygon fill="black" stroke="black" points="212.69,-550.1 209.19,-540.1 205.69,-550.1 212.69,-550.1"/>
</g>
<!-- readout_time (epi) -->
<g id="node3" class="node">
<title>readout_time (epi)</title>
<ellipse fill="none" stroke="black" cx="96.19" cy="-306" rx="96.38" ry="18"/>
<text text-anchor="middle" x="96.19" y="-302.3" font-family="Times,serif" font-size="14.00">readout_time (epi)</text>
</g>
<!-- flatten (utils)&#45;&gt;readout_time (epi) -->
<g id="edge2" class="edge">
<title>flatten (utils)&#45;&gt;readout_time (epi)</title>
<path fill="none" stroke="black" d="M200.14,-503.85C180.37,-466.43 133.29,-377.25 109.88,-332.93"/>
<polygon fill="black" stroke="black" points="112.9,-331.14 105.13,-323.94 106.71,-334.41 112.9,-331.14"/>
</g>
<!-- regrid (utils) -->
<g id="node4" class="node">
<title>regrid (utils)</title>
<ellipse fill="none" stroke="black" cx="320.19" cy="-450" rx="69.59" ry="18"/>
<text text-anchor="middle" x="320.19" y="-446.3" font-family="Times,serif" font-size="14.00">regrid (utils)</text>
</g>
<!-- flatten (utils)&#45;&gt;regrid (utils) -->
<g id="edge3" class="edge">
<title>flatten (utils)&#45;&gt;regrid (utils)</title>
<path fill="none" stroke="black" d="M234.38,-505.12C249.71,-495.45 269.48,-482.98 286.19,-472.44"/>
<polygon fill="black" stroke="black" points="288.51,-475.12 295.1,-466.82 284.78,-469.19 288.51,-475.12"/>
</g>
<!-- topup (fsl) -->
<g id="node5" class="node">
<title>topup (fsl)</title>
<ellipse fill="none" stroke="black" cx="242.19" cy="-234" rx="58.49" ry="18"/>
<text text-anchor="middle" x="242.19" y="-230.3" font-family="Times,serif" font-size="14.00">topup (fsl)</text>
</g>
<!-- readout_time (epi)&#45;&gt;topup (fsl) -->
<g id="edge4" class="edge">
<title>readout_time (epi)&#45;&gt;topup (fsl)</title>
<path fill="none" stroke="black" d="M129.69,-288.94C151.44,-278.51 179.89,-264.87 202.74,-253.91"/>
<polygon fill="black" stroke="black" points="204.33,-257.03 211.83,-249.56 201.3,-250.72 204.33,-257.03"/>
</g>
<!-- concat_blips (nibabel) -->
<g id="node6" class="node">
<title>concat_blips (nibabel)</title>
<ellipse fill="none" stroke="black" cx="320.19" cy="-378" rx="111.58" ry="18"/>
<text text-anchor="middle" x="320.19" y="-374.3" font-family="Times,serif" font-size="14.00">concat_blips (nibabel)</text>
</g>
<!-- regrid (utils)&#45;&gt;concat_blips (nibabel) -->
<g id="edge5" class="edge">
<title>regrid (utils)&#45;&gt;concat_blips (nibabel)</title>
<path fill="none" stroke="black" d="M320.19,-431.7C320.19,-423.98 320.19,-414.71 320.19,-406.11"/>
<polygon fill="black" stroke="black" points="323.69,-406.1 320.19,-396.1 316.69,-406.1 323.69,-406.1"/>
</g>
<!-- pad_ref_slices (utils) -->
<g id="node7" class="node">
<title>pad_ref_slices (utils)</title>
<ellipse fill="none" stroke="black" cx="460.19" cy="-234" rx="105.88" ry="18"/>
<text text-anchor="middle" x="460.19" y="-230.3" font-family="Times,serif" font-size="14.00">pad_ref_slices (utils)</text>
</g>
<!-- regrid (utils)&#45;&gt;pad_ref_slices (utils) -->
<g id="edge6" class="edge">
<title>regrid (utils)&#45;&gt;pad_ref_slices (utils)</title>
<path fill="none" stroke="black" d="M373.72,-438.36C398.11,-430.7 425.08,-417.74 441.19,-396 470.22,-356.82 468.66,-296.93 464.62,-262.31"/>
<polygon fill="black" stroke="black" points="468.04,-261.47 463.26,-252.02 461.1,-262.39 468.04,-261.47"/>
</g>
<!-- fix_coeff (bspline) -->
<g id="node9" class="node">
<title>fix_coeff (bspline)</title>
<ellipse fill="none" stroke="black" cx="460.19" cy="-162" rx="91.78" ry="18"/>
<text text-anchor="middle" x="460.19" y="-158.3" font-family="Times,serif" font-size="14.00">fix_coeff (bspline)</text>
</g>
<!-- topup (fsl)&#45;&gt;fix_coeff (bspline) -->
<g id="edge7" class="edge">
<title>topup (fsl)&#45;&gt;fix_coeff (bspline)</title>
<path fill="none" stroke="black" d="M281.17,-220.49C315.6,-209.43 366.21,-193.18 404.84,-180.77"/>
<polygon fill="black" stroke="black" points="405.93,-184.1 414.38,-177.71 403.79,-177.43 405.93,-184.1"/>
</g>
<!-- outputnode (utility) -->
<g id="node10" class="node">
<title>outputnode (utility)</title>
<ellipse fill="none" stroke="black" cx="242.19" cy="-18" rx="101.28" ry="18"/>
<text text-anchor="middle" x="242.19" y="-14.3" font-family="Times,serif" font-size="14.00">outputnode (utility)</text>
</g>
<!-- topup (fsl)&#45;&gt;outputnode (utility) -->
<g id="edge8" class="edge">
<title>topup (fsl)&#45;&gt;outputnode (utility)</title>
<path fill="none" stroke="black" d="M193.1,-224.08C167.93,-216.76 139.44,-203.57 124.19,-180 111.61,-160.56 126.82,-83.45 135.19,-72 146.39,-56.68 163.26,-45.54 180.32,-37.55"/>
<polygon fill="black" stroke="black" points="182.01,-40.63 189.78,-33.42 179.21,-34.21 182.01,-40.63"/>
</g>
<!-- ref_average (images) -->
<g id="node11" class="node">
<title>ref_average (images)</title>
<ellipse fill="none" stroke="black" cx="242.19" cy="-162" rx="108.58" ry="18"/>
<text text-anchor="middle" x="242.19" y="-158.3" font-family="Times,serif" font-size="14.00">ref_average (images)</text>
</g>
<!-- topup (fsl)&#45;&gt;ref_average (images) -->
<g id="edge9" class="edge">
<title>topup (fsl)&#45;&gt;ref_average (images)</title>
<path fill="none" stroke="black" d="M242.19,-215.7C242.19,-207.98 242.19,-198.71 242.19,-190.11"/>
<polygon fill="black" stroke="black" points="245.69,-190.1 242.19,-180.1 238.69,-190.1 245.69,-190.1"/>
</g>
<!-- pad_blip_slices (utils) -->
<g id="node8" class="node">
<title>pad_blip_slices (utils)</title>
<ellipse fill="none" stroke="black" cx="321.19" cy="-306" rx="110.48" ry="18"/>
<text text-anchor="middle" x="321.19" y="-302.3" font-family="Times,serif" font-size="14.00">pad_blip_slices (utils)</text>
</g>
<!-- concat_blips (nibabel)&#45;&gt;pad_blip_slices (utils) -->
<g id="edge10" class="edge">
<title>concat_blips (nibabel)&#45;&gt;pad_blip_slices (utils)</title>
<path fill="none" stroke="black" d="M320.44,-359.7C320.55,-351.98 320.68,-342.71 320.8,-334.11"/>
<polygon fill="black" stroke="black" points="324.3,-334.15 320.95,-324.1 317.3,-334.05 324.3,-334.15"/>
</g>
<!-- pad_ref_slices (utils)&#45;&gt;fix_coeff (bspline) -->
<g id="edge11" class="edge">
<title>pad_ref_slices (utils)&#45;&gt;fix_coeff (bspline)</title>
<path fill="none" stroke="black" d="M460.19,-215.7C460.19,-207.98 460.19,-198.71 460.19,-190.11"/>
<polygon fill="black" stroke="black" points="463.69,-190.1 460.19,-180.1 456.69,-190.1 463.69,-190.1"/>
</g>
<!-- pad_blip_slices (utils)&#45;&gt;topup (fsl) -->
<g id="edge12" class="edge">
<title>pad_blip_slices (utils)&#45;&gt;topup (fsl)</title>
<path fill="none" stroke="black" d="M302.07,-288.05C291.93,-279.07 279.32,-267.9 268.29,-258.12"/>
<polygon fill="black" stroke="black" points="270.4,-255.32 260.6,-251.31 265.76,-260.56 270.4,-255.32"/>
</g>
<!-- fix_coeff (bspline)&#45;&gt;outputnode (utility) -->
<g id="edge13" class="edge">
<title>fix_coeff (bspline)&#45;&gt;outputnode (utility)</title>
<path fill="none" stroke="black" d="M441.88,-144.25C420.61,-125.3 383.97,-94.19 349.19,-72 329.97,-59.74 307.51,-48.23 288.14,-39.09"/>
<polygon fill="black" stroke="black" points="289.46,-35.84 278.91,-34.8 286.51,-42.18 289.46,-35.84"/>
</g>
<!-- brainextraction_wf -->
<g id="node12" class="node">
<title>brainextraction_wf</title>
<ellipse fill="none" stroke="black" cx="242.19" cy="-90" rx="98.28" ry="18"/>
<text text-anchor="middle" x="242.19" y="-86.3" font-family="Times,serif" font-size="14.00">brainextraction_wf</text>
</g>
<!-- ref_average (images)&#45;&gt;brainextraction_wf -->
<g id="edge14" class="edge">
<title>ref_average (images)&#45;&gt;brainextraction_wf</title>
<path fill="none" stroke="black" d="M242.19,-143.7C242.19,-135.98 242.19,-126.71 242.19,-118.11"/>
<polygon fill="black" stroke="black" points="245.69,-118.1 242.19,-108.1 238.69,-118.1 245.69,-118.1"/>
</g>
<!-- brainextraction_wf&#45;&gt;outputnode (utility) -->
<g id="edge15" class="edge">
<title>brainextraction_wf&#45;&gt;outputnode (utility)</title>
<path fill="none" stroke="black" d="M242.19,-71.7C242.19,-63.98 242.19,-54.71 242.19,-46.11"/>
<polygon fill="black" stroke="black" points="245.69,-46.1 242.19,-36.1 238.69,-46.1 245.69,-46.1"/>
</g>
</g>
</svg>
