<?xml version="1.0" encoding="UTF-8" standalone="no"?>
<!DOCTYPE svg PUBLIC "-//W3C//DTD SVG 1.1//EN"
 "http://www.w3.org/Graphics/SVG/1.1/DTD/svg11.dtd">
<!-- Generated by graphviz version 2.43.0 (0)
 -->
<!-- Title: %3 Pages: 1 -->
<svg width="1473pt" height="764pt"
 viewBox="0.00 0.00 1473.00 764.00" xmlns="http://www.w3.org/2000/svg" xmlns:xlink="http://www.w3.org/1999/xlink">
<g id="graph0" class="graph" transform="scale(1 1) rotate(0) translate(4 760)">
<title>%3</title>
<polygon fill="white" stroke="transparent" points="-4,4 -4,-760 1469,-760 1469,4 -4,4"/>
<!-- inputnode (utility) -->
<g id="node1" class="node">
<title>inputnode (utility)</title>
<ellipse fill="none" stroke="black" cx="615" cy="-738" rx="94.78" ry="18"/>
<text text-anchor="middle" x="615" y="-734.3" font-family="Times,serif" font-size="14.00">inputnode (utility)</text>
</g>
<!-- readout_time (epi) -->
<g id="node2" class="node">
<title>readout_time (epi)</title>
<ellipse fill="none" stroke="black" cx="162" cy="-522" rx="96.38" ry="18"/>
<text text-anchor="middle" x="162" y="-518.3" font-family="Times,serif" font-size="14.00">readout_time (epi)</text>
</g>
<!-- inputnode (utility)&#45;&gt;readout_time (epi) -->
<g id="edge1" class="edge">
<title>inputnode (utility)&#45;&gt;readout_time (epi)</title>
<path fill="none" stroke="black" d="M525.21,-732.14C403.85,-724.68 199.82,-708.63 176,-684 141.8,-648.63 147.88,-586.17 155.11,-550.33"/>
<polygon fill="black" stroke="black" points="158.63,-550.64 157.35,-540.13 151.79,-549.14 158.63,-550.64"/>
</g>
<!-- atlas_msk (nibabel) -->
<g id="node3" class="node">
<title>atlas_msk (nibabel)</title>
<ellipse fill="none" stroke="black" cx="364" cy="-666" rx="100.98" ry="18"/>
<text text-anchor="middle" x="364" y="-662.3" font-family="Times,serif" font-size="14.00">atlas_msk (nibabel)</text>
</g>
<!-- inputnode (utility)&#45;&gt;atlas_msk (nibabel) -->
<g id="edge2" class="edge">
<title>inputnode (utility)&#45;&gt;atlas_msk (nibabel)</title>
<path fill="none" stroke="black" d="M563.9,-722.75C523.88,-711.59 468.05,-696.02 425.56,-684.17"/>
<polygon fill="black" stroke="black" points="426.46,-680.79 415.89,-681.47 424.58,-687.53 426.46,-680.79"/>
</g>
<!-- clip_epi (nibabel) -->
<g id="node4" class="node">
<title>clip_epi (nibabel)</title>
<ellipse fill="none" stroke="black" cx="787" cy="-666" rx="89.88" ry="18"/>
<text text-anchor="middle" x="787" y="-662.3" font-family="Times,serif" font-size="14.00">clip_epi (nibabel)</text>
</g>
<!-- inputnode (utility)&#45;&gt;clip_epi (nibabel) -->
<g id="edge3" class="edge">
<title>inputnode (utility)&#45;&gt;clip_epi (nibabel)</title>
<path fill="none" stroke="black" d="M653.17,-721.46C678.76,-711.05 712.62,-697.27 739.89,-686.17"/>
<polygon fill="black" stroke="black" points="741.29,-689.38 749.23,-682.37 738.65,-682.9 741.29,-689.38"/>
</g>
<!-- unwarp (bspline) -->
<g id="node5" class="node">
<title>unwarp (bspline)</title>
<ellipse fill="none" stroke="black" cx="105" cy="-90" rx="89.08" ry="18"/>
<text text-anchor="middle" x="105" y="-86.3" font-family="Times,serif" font-size="14.00">unwarp (bspline)</text>
</g>
<!-- inputnode (utility)&#45;&gt;unwarp (bspline) -->
<g id="edge4" class="edge">
<title>inputnode (utility)&#45;&gt;unwarp (bspline)</title>
<path fill="none" stroke="black" d="M519.96,-737.55C382.24,-736.75 135.4,-728.83 60,-684 19,-659.62 0,-642.7 0,-595 0,-595 0,-595 0,-233 0,-183.04 42.54,-139.15 73.46,-113.85"/>
<polygon fill="black" stroke="black" points="75.78,-116.47 81.44,-107.52 71.43,-110.99 75.78,-116.47"/>
</g>
<!-- amask2epi (fixes) -->
<g id="node6" class="node">
<title>amask2epi (fixes)</title>
<ellipse fill="none" stroke="black" cx="1279" cy="-594" rx="91.78" ry="18"/>
<text text-anchor="middle" x="1279" y="-590.3" font-family="Times,serif" font-size="14.00">amask2epi (fixes)</text>
</g>
<!-- inputnode (utility)&#45;&gt;amask2epi (fixes) -->
<g id="edge5" class="edge">
<title>inputnode (utility)&#45;&gt;amask2epi (fixes)</title>
<path fill="none" stroke="black" d="M710.16,-737.39C903.1,-737.2 1325.9,-731.3 1370,-684 1380.91,-672.3 1377.97,-661.87 1370,-648 1361.62,-633.43 1347.53,-622.49 1332.91,-614.45"/>
<polygon fill="black" stroke="black" points="1334.28,-611.22 1323.78,-609.81 1331.11,-617.46 1334.28,-611.22"/>
</g>
<!-- zooms_bmask (fixes) -->
<g id="node7" class="node">
<title>zooms_bmask (fixes)</title>
<ellipse fill="none" stroke="black" cx="439" cy="-162" rx="105.88" ry="18"/>
<text text-anchor="middle" x="439" y="-158.3" font-family="Times,serif" font-size="14.00">zooms_bmask (fixes)</text>
</g>
<!-- inputnode (utility)&#45;&gt;zooms_bmask (fixes) -->
<g id="edge6" class="edge">
<title>inputnode (utility)&#45;&gt;zooms_bmask (fixes)</title>
<path fill="none" stroke="black" d="M709.06,-735.26C905.27,-730.97 1344.97,-717.68 1404,-684 1445.65,-660.23 1465,-642.95 1465,-595 1465,-595 1465,-595 1465,-305 1465,-213.62 818.19,-177.83 551.69,-166.96"/>
<polygon fill="black" stroke="black" points="551.73,-163.46 541.6,-166.56 551.45,-170.46 551.73,-163.46"/>
</g>
<!-- fixed_masks (utility) -->
<g id="node8" class="node">
<title>fixed_masks (utility)</title>
<ellipse fill="none" stroke="black" cx="323" cy="-594" rx="104.78" ry="18"/>
<text text-anchor="middle" x="323" y="-590.3" font-family="Times,serif" font-size="14.00">fixed_masks (utility)</text>
</g>
<!-- inputnode (utility)&#45;&gt;fixed_masks (utility) -->
<g id="edge7" class="edge">
<title>inputnode (utility)&#45;&gt;fixed_masks (utility)</title>
<path fill="none" stroke="black" d="M520.05,-736.57C424.87,-733.87 287.75,-723.07 254,-684 243.54,-671.89 246.93,-662.35 254,-648 260.12,-635.58 270.7,-625.26 281.76,-617.13"/>
<polygon fill="black" stroke="black" points="283.96,-619.87 290.25,-611.34 280.02,-614.09 283.96,-619.87"/>
</g>
<!-- anat_dilmsk (brainmask) -->
<g id="node9" class="node">
<title>anat_dilmsk (brainmask)</title>
<ellipse fill="none" stroke="black" cx="1236" cy="-666" rx="124.58" ry="18"/>
<text text-anchor="middle" x="1236" y="-662.3" font-family="Times,serif" font-size="14.00">anat_dilmsk (brainmask)</text>
</g>
<!-- inputnode (utility)&#45;&gt;anat_dilmsk (brainmask) -->
<g id="edge8" class="edge">
<title>inputnode (utility)&#45;&gt;anat_dilmsk (brainmask)</title>
<path fill="none" stroke="black" d="M696.05,-728.62C792.74,-718.53 959.26,-700.82 1102,-684 1113.08,-682.69 1124.67,-681.29 1136.19,-679.86"/>
<polygon fill="black" stroke="black" points="1136.8,-683.31 1146.29,-678.61 1135.93,-676.37 1136.8,-683.31"/>
</g>
<!-- warp_dir (utility) -->
<g id="node10" class="node">
<title>warp_dir (utility)</title>
<ellipse fill="none" stroke="black" cx="286" cy="-450" rx="89.08" ry="18"/>
<text text-anchor="middle" x="286" y="-446.3" font-family="Times,serif" font-size="14.00">warp_dir (utility)</text>
</g>
<!-- inputnode (utility)&#45;&gt;warp_dir (utility) -->
<g id="edge9" class="edge">
<title>inputnode (utility)&#45;&gt;warp_dir (utility)</title>
<path fill="none" stroke="black" d="M522.83,-733.59C427.67,-728.39 287.17,-715.48 244,-684 203.23,-654.27 184.47,-620.09 209,-576 223.75,-549.49 249.55,-564.82 267,-540 279.67,-521.98 284.17,-497.19 285.65,-478.35"/>
<polygon fill="black" stroke="black" points="289.15,-478.49 286.2,-468.31 282.16,-478.1 289.15,-478.49"/>
</g>
<!-- anat_merge (utility) -->
<g id="node11" class="node">
<title>anat_merge (utility)</title>
<ellipse fill="none" stroke="black" cx="562" cy="-522" rx="102.88" ry="18"/>
<text text-anchor="middle" x="562" y="-518.3" font-family="Times,serif" font-size="14.00">anat_merge (utility)</text>
</g>
<!-- inputnode (utility)&#45;&gt;anat_merge (utility) -->
<g id="edge10" class="edge">
<title>inputnode (utility)&#45;&gt;anat_merge (utility)</title>
<path fill="none" stroke="black" d="M633.29,-720.09C663.9,-689.7 719.12,-624.51 687,-576 675.59,-558.77 657.34,-547.13 638.27,-539.26"/>
<polygon fill="black" stroke="black" points="639.46,-535.97 628.87,-535.7 636.98,-542.52 639.46,-535.97"/>
</g>
<!-- lap_anat (ants) -->
<g id="node12" class="node">
<title>lap_anat (ants)</title>
<ellipse fill="none" stroke="black" cx="562" cy="-666" rx="79.09" ry="18"/>
<text text-anchor="middle" x="562" y="-662.3" font-family="Times,serif" font-size="14.00">lap_anat (ants)</text>
</g>
<!-- inputnode (utility)&#45;&gt;lap_anat (ants) -->
<g id="edge11" class="edge">
<title>inputnode (utility)&#45;&gt;lap_anat (ants)</title>
<path fill="none" stroke="black" d="M602.17,-720.05C595.79,-711.63 587.95,-701.28 580.9,-691.97"/>
<polygon fill="black" stroke="black" points="583.54,-689.65 574.71,-683.79 577.96,-693.87 583.54,-689.65"/>
</g>
<!-- find_zooms (utility) -->
<g id="node13" class="node">
<title>find_zooms (utility)</title>
<ellipse fill="none" stroke="black" cx="994" cy="-666" rx="99.38" ry="18"/>
<text text-anchor="middle" x="994" y="-662.3" font-family="Times,serif" font-size="14.00">find_zooms (utility)</text>
</g>
<!-- inputnode (utility)&#45;&gt;find_zooms (utility) -->
<g id="edge12" class="edge">
<title>inputnode (utility)&#45;&gt;find_zooms (utility)</title>
<path fill="none" stroke="black" d="M680.58,-724.89C746.31,-712.75 847.46,-694.07 916.97,-681.23"/>
<polygon fill="black" stroke="black" points="917.79,-684.63 926.99,-679.38 916.52,-677.75 917.79,-684.63"/>
</g>
<!-- zooms_field (fixes) -->
<g id="node14" class="node">
<title>zooms_field (fixes)</title>
<ellipse fill="none" stroke="black" cx="230" cy="-234" rx="95.58" ry="18"/>
<text text-anchor="middle" x="230" y="-230.3" font-family="Times,serif" font-size="14.00">zooms_field (fixes)</text>
</g>
<!-- inputnode (utility)&#45;&gt;zooms_field (fixes) -->
<g id="edge13" class="edge">
<title>inputnode (utility)&#45;&gt;zooms_field (fixes)</title>
<path fill="none" stroke="black" d="M524.67,-732.41C409.75,-725.57 218.34,-710.59 153,-684 93.14,-659.64 38,-659.63 38,-595 38,-595 38,-595 38,-377 38,-311.16 111.89,-272.36 167.99,-252.39"/>
<polygon fill="black" stroke="black" points="169.22,-255.67 177.54,-249.11 166.94,-249.05 169.22,-255.67"/>
</g>
<!-- epi_umask (brainmask) -->
<g id="node15" class="node">
<title>epi_umask (brainmask)</title>
<ellipse fill="none" stroke="black" cx="1279" cy="-522" rx="118.08" ry="18"/>
<text text-anchor="middle" x="1279" y="-518.3" font-family="Times,serif" font-size="14.00">epi_umask (brainmask)</text>
</g>
<!-- inputnode (utility)&#45;&gt;epi_umask (brainmask) -->
<g id="edge14" class="edge">
<title>inputnode (utility)&#45;&gt;epi_umask (brainmask)</title>
<path fill="none" stroke="black" d="M710.05,-737.56C906.27,-737.71 1341.7,-732.51 1387,-684 1399.71,-670.39 1394.66,-597.78 1380,-576 1370.21,-561.44 1355.09,-550.61 1339.51,-542.67"/>
<polygon fill="black" stroke="black" points="1340.86,-539.44 1330.32,-538.33 1337.87,-545.77 1340.86,-539.44"/>
</g>
<!-- readout_time (epi)&#45;&gt;unwarp (bspline) -->
<g id="edge17" class="edge">
<title>readout_time (epi)&#45;&gt;unwarp (bspline)</title>
<path fill="none" stroke="black" d="M149.78,-504.02C132.49,-478.3 103,-427.32 103,-379 103,-379 103,-379 103,-233 103,-192.99 103.8,-146.65 104.39,-118.08"/>
<polygon fill="black" stroke="black" points="107.89,-118.12 104.6,-108.05 100.89,-117.97 107.89,-118.12"/>
</g>
<!-- readout_time (epi)&#45;&gt;warp_dir (utility) -->
<g id="edge15" class="edge">
<title>readout_time (epi)&#45;&gt;warp_dir (utility)</title>
<path fill="none" stroke="black" d="M190.76,-504.76C207.98,-495.05 230.05,-482.59 248.6,-472.11"/>
<polygon fill="black" stroke="black" points="250.41,-475.11 257.4,-467.15 246.97,-469.02 250.41,-475.11"/>
</g>
<!-- extract_field (fmap) -->
<g id="node16" class="node">
<title>extract_field (fmap)</title>
<ellipse fill="none" stroke="black" cx="232" cy="-306" rx="101.28" ry="18"/>
<text text-anchor="middle" x="232" y="-302.3" font-family="Times,serif" font-size="14.00">extract_field (fmap)</text>
</g>
<!-- readout_time (epi)&#45;&gt;extract_field (fmap) -->
<g id="edge16" class="edge">
<title>readout_time (epi)&#45;&gt;extract_field (fmap)</title>
<path fill="none" stroke="black" d="M166.71,-503.85C171.72,-485.87 180.01,-456.82 188,-432 198.96,-397.93 212.85,-359.11 222.06,-333.89"/>
<polygon fill="black" stroke="black" points="225.42,-334.88 225.58,-324.29 218.85,-332.47 225.42,-334.88"/>
</g>
<!-- atlas_msk (nibabel)&#45;&gt;fixed_masks (utility) -->
<g id="edge18" class="edge">
<title>atlas_msk (nibabel)&#45;&gt;fixed_masks (utility)</title>
<path fill="none" stroke="black" d="M354.08,-648.05C349.31,-639.92 343.5,-630 338.19,-620.94"/>
<polygon fill="black" stroke="black" points="341.19,-619.14 333.12,-612.28 335.15,-622.67 341.19,-619.14"/>
</g>
<!-- epi_merge (utility) -->
<g id="node17" class="node">
<title>epi_merge (utility)</title>
<ellipse fill="none" stroke="black" cx="744" cy="-450" rx="96.68" ry="18"/>
<text text-anchor="middle" x="744" y="-446.3" font-family="Times,serif" font-size="14.00">epi_merge (utility)</text>
</g>
<!-- clip_epi (nibabel)&#45;&gt;epi_merge (utility) -->
<g id="edge19" class="edge">
<title>clip_epi (nibabel)&#45;&gt;epi_merge (utility)</title>
<path fill="none" stroke="black" d="M777.6,-647.84C772.47,-637.71 766.47,-624.46 763,-612 750.26,-566.2 746.06,-510.75 744.68,-478.32"/>
<polygon fill="black" stroke="black" points="748.17,-478.12 744.31,-468.25 741.18,-478.38 748.17,-478.12"/>
</g>
<!-- lap_epi (ants) -->
<g id="node18" class="node">
<title>lap_epi (ants)</title>
<ellipse fill="none" stroke="black" cx="845" cy="-594" rx="73.39" ry="18"/>
<text text-anchor="middle" x="845" y="-590.3" font-family="Times,serif" font-size="14.00">lap_epi (ants)</text>
</g>
<!-- clip_epi (nibabel)&#45;&gt;lap_epi (ants) -->
<g id="edge20" class="edge">
<title>clip_epi (nibabel)&#45;&gt;lap_epi (ants)</title>
<path fill="none" stroke="black" d="M801.04,-648.05C808.09,-639.54 816.77,-629.07 824.55,-619.68"/>
<polygon fill="black" stroke="black" points="827.4,-621.72 831.09,-611.79 822.01,-617.26 827.4,-621.72"/>
</g>
<!-- zooms_epi (nibabel) -->
<g id="node19" class="node">
<title>zooms_epi (nibabel)</title>
<ellipse fill="none" stroke="black" cx="1039" cy="-594" rx="102.88" ry="18"/>
<text text-anchor="middle" x="1039" y="-590.3" font-family="Times,serif" font-size="14.00">zooms_epi (nibabel)</text>
</g>
<!-- clip_epi (nibabel)&#45;&gt;zooms_epi (nibabel) -->
<g id="edge21" class="edge">
<title>clip_epi (nibabel)&#45;&gt;zooms_epi (nibabel)</title>
<path fill="none" stroke="black" d="M837.39,-651C877.5,-639.86 933.83,-624.21 976.76,-612.29"/>
<polygon fill="black" stroke="black" points="977.83,-615.62 986.53,-609.58 975.96,-608.88 977.83,-615.62"/>
</g>
<!-- outputnode (utility) -->
<g id="node20" class="node">
<title>outputnode (utility)</title>
<ellipse fill="none" stroke="black" cx="223" cy="-18" rx="101.28" ry="18"/>
<text text-anchor="middle" x="223" y="-14.3" font-family="Times,serif" font-size="14.00">outputnode (utility)</text>
</g>
<!-- unwarp (bspline)&#45;&gt;outputnode (utility) -->
<g id="edge22" class="edge">
<title>unwarp (bspline)&#45;&gt;outputnode (utility)</title>
<path fill="none" stroke="black" d="M132.37,-72.76C148.49,-63.2 169.07,-50.99 186.55,-40.62"/>
<polygon fill="black" stroke="black" points="188.56,-43.5 195.37,-35.39 184.99,-37.48 188.56,-43.5"/>
</g>
<!-- amask2epi (fixes)&#45;&gt;epi_umask (brainmask) -->
<g id="edge23" class="edge">
<title>amask2epi (fixes)&#45;&gt;epi_umask (brainmask)</title>
<path fill="none" stroke="black" d="M1279,-575.7C1279,-567.98 1279,-558.71 1279,-550.11"/>
<polygon fill="black" stroke="black" points="1282.5,-550.1 1279,-540.1 1275.5,-550.1 1282.5,-550.1"/>
</g>
<!-- zooms_bmask (fixes)&#45;&gt;outputnode (utility) -->
<g id="edge24" class="edge">
<title>zooms_bmask (fixes)&#45;&gt;outputnode (utility)</title>
<path fill="none" stroke="black" d="M413.8,-144.43C374.86,-118.83 300.04,-69.64 256.56,-41.06"/>
<polygon fill="black" stroke="black" points="258.32,-38.03 248.04,-35.46 254.47,-43.88 258.32,-38.03"/>
</g>
<!-- syn (fixes) -->
<g id="node21" class="node">
<title>syn (fixes)</title>
<ellipse fill="none" stroke="black" cx="464" cy="-378" rx="57.69" ry="18"/>
<text text-anchor="middle" x="464" y="-374.3" font-family="Times,serif" font-size="14.00">syn (fixes)</text>
</g>
<!-- fixed_masks (utility)&#45;&gt;syn (fixes) -->
<g id="edge25" class="edge">
<title>fixed_masks (utility)&#45;&gt;syn (fixes)</title>
<path fill="none" stroke="black" d="M334.3,-575.85C359.06,-538.27 418.2,-448.51 447.28,-404.37"/>
<polygon fill="black" stroke="black" points="450.26,-406.21 452.84,-395.94 444.42,-402.36 450.26,-406.21"/>
</g>
<!-- anat_dilmsk (brainmask)&#45;&gt;amask2epi (fixes) -->
<g id="edge26" class="edge">
<title>anat_dilmsk (brainmask)&#45;&gt;amask2epi (fixes)</title>
<path fill="none" stroke="black" d="M1246.41,-648.05C1251.41,-639.92 1257.5,-630 1263.06,-620.94"/>
<polygon fill="black" stroke="black" points="1266.14,-622.63 1268.39,-612.28 1260.17,-618.96 1266.14,-622.63"/>
</g>
<!-- warp_dir (utility)&#45;&gt;syn (fixes) -->
<g id="edge27" class="edge">
<title>warp_dir (utility)&#45;&gt;syn (fixes)</title>
<path fill="none" stroke="black" d="M325.06,-433.64C353.11,-422.61 390.93,-407.74 420.03,-396.29"/>
<polygon fill="black" stroke="black" points="421.51,-399.47 429.54,-392.55 418.95,-392.95 421.51,-399.47"/>
</g>
<!-- anat_merge (utility)&#45;&gt;syn (fixes) -->
<g id="edge28" class="edge">
<title>anat_merge (utility)&#45;&gt;syn (fixes)</title>
<path fill="none" stroke="black" d="M550.18,-503.87C533.02,-479 501.09,-432.75 481.29,-404.05"/>
<polygon fill="black" stroke="black" points="484.12,-401.99 475.56,-395.75 478.36,-405.97 484.12,-401.99"/>
</g>
<!-- lap_anat_norm (utility) -->
<g id="node22" class="node">
<title>lap_anat_norm (utility)</title>
<ellipse fill="none" stroke="black" cx="562" cy="-594" rx="116.18" ry="18"/>
<text text-anchor="middle" x="562" y="-590.3" font-family="Times,serif" font-size="14.00">lap_anat_norm (utility)</text>
</g>
<!-- lap_anat (ants)&#45;&gt;lap_anat_norm (utility) -->
<g id="edge29" class="edge">
<title>lap_anat (ants)&#45;&gt;lap_anat_norm (utility)</title>
<path fill="none" stroke="black" d="M562,-647.7C562,-639.98 562,-630.71 562,-622.11"/>
<polygon fill="black" stroke="black" points="565.5,-622.1 562,-612.1 558.5,-622.1 565.5,-622.1"/>
</g>
<!-- find_zooms (utility)&#45;&gt;zooms_epi (nibabel) -->
<g id="edge30" class="edge">
<title>find_zooms (utility)&#45;&gt;zooms_epi (nibabel)</title>
<path fill="none" stroke="black" d="M1004.89,-648.05C1010.12,-639.92 1016.5,-630 1022.32,-620.94"/>
<polygon fill="black" stroke="black" points="1025.43,-622.58 1027.89,-612.28 1019.54,-618.79 1025.43,-622.58"/>
</g>
<!-- zooms_field (fixes)&#45;&gt;zooms_bmask (fixes) -->
<g id="edge31" class="edge">
<title>zooms_field (fixes)&#45;&gt;zooms_bmask (fixes)</title>
<path fill="none" stroke="black" d="M274.58,-218.07C306.44,-207.4 349.53,-192.97 383.6,-181.56"/>
<polygon fill="black" stroke="black" points="385.04,-184.77 393.41,-178.27 382.81,-178.13 385.04,-184.77"/>
</g>
<!-- bs_filter (bspline) -->
<g id="node23" class="node">
<title>bs_filter (bspline)</title>
<ellipse fill="none" stroke="black" cx="223" cy="-162" rx="91.78" ry="18"/>
<text text-anchor="middle" x="223" y="-158.3" font-family="Times,serif" font-size="14.00">bs_filter (bspline)</text>
</g>
<!-- zooms_field (fixes)&#45;&gt;bs_filter (bspline) -->
<g id="edge32" class="edge">
<title>zooms_field (fixes)&#45;&gt;bs_filter (bspline)</title>
<path fill="none" stroke="black" d="M228.27,-215.7C227.5,-207.98 226.57,-198.71 225.71,-190.11"/>
<polygon fill="black" stroke="black" points="229.19,-189.71 224.71,-180.1 222.22,-190.4 229.19,-189.71"/>
</g>
<!-- moving_masks (utility) -->
<g id="node24" class="node">
<title>moving_masks (utility)</title>
<ellipse fill="none" stroke="black" cx="1113" cy="-450" rx="116.18" ry="18"/>
<text text-anchor="middle" x="1113" y="-446.3" font-family="Times,serif" font-size="14.00">moving_masks (utility)</text>
</g>
<!-- epi_umask (brainmask)&#45;&gt;moving_masks (utility) -->
<g id="edge33" class="edge">
<title>epi_umask (brainmask)&#45;&gt;moving_masks (utility)</title>
<path fill="none" stroke="black" d="M1240.92,-504.94C1217.07,-494.88 1186.13,-481.84 1160.66,-471.1"/>
<polygon fill="black" stroke="black" points="1161.77,-467.77 1151.19,-467.11 1159.05,-474.22 1161.77,-467.77"/>
</g>
<!-- extract_field (fmap)&#45;&gt;zooms_field (fixes) -->
<g id="edge34" class="edge">
<title>extract_field (fmap)&#45;&gt;zooms_field (fixes)</title>
<path fill="none" stroke="black" d="M231.51,-287.7C231.29,-279.98 231.02,-270.71 230.77,-262.11"/>
<polygon fill="black" stroke="black" points="234.27,-262 230.49,-252.1 227.28,-262.2 234.27,-262"/>
</g>
<!-- epi_merge (utility)&#45;&gt;syn (fixes) -->
<g id="edge35" class="edge">
<title>epi_merge (utility)&#45;&gt;syn (fixes)</title>
<path fill="none" stroke="black" d="M688.68,-435.17C639.03,-422.76 566.62,-404.65 517.52,-392.38"/>
<polygon fill="black" stroke="black" points="518.27,-388.96 507.72,-389.93 516.58,-395.75 518.27,-388.96"/>
</g>
<!-- lap_epi_norm (utility) -->
<g id="node25" class="node">
<title>lap_epi_norm (utility)</title>
<ellipse fill="none" stroke="black" cx="882" cy="-522" rx="109.68" ry="18"/>
<text text-anchor="middle" x="882" y="-518.3" font-family="Times,serif" font-size="14.00">lap_epi_norm (utility)</text>
</g>
<!-- lap_epi (ants)&#45;&gt;lap_epi_norm (utility) -->
<g id="edge36" class="edge">
<title>lap_epi (ants)&#45;&gt;lap_epi_norm (utility)</title>
<path fill="none" stroke="black" d="M853.96,-576.05C858.21,-568.01 863.39,-558.2 868.14,-549.23"/>
<polygon fill="black" stroke="black" points="871.29,-550.75 872.87,-540.28 865.1,-547.48 871.29,-550.75"/>
</g>
<!-- syn (fixes)&#45;&gt;extract_field (fmap) -->
<g id="edge37" class="edge">
<title>syn (fixes)&#45;&gt;extract_field (fmap)</title>
<path fill="none" stroke="black" d="M423.85,-364.89C387.23,-353.84 332.65,-337.37 291.06,-324.82"/>
<polygon fill="black" stroke="black" points="291.91,-321.42 281.32,-321.88 289.89,-328.12 291.91,-321.42"/>
</g>
<!-- lap_anat_norm (utility)&#45;&gt;anat_merge (utility) -->
<g id="edge38" class="edge">
<title>lap_anat_norm (utility)&#45;&gt;anat_merge (utility)</title>
<path fill="none" stroke="black" d="M562,-575.7C562,-567.98 562,-558.71 562,-550.11"/>
<polygon fill="black" stroke="black" points="565.5,-550.1 562,-540.1 558.5,-550.1 565.5,-550.1"/>
</g>
<!-- bs_filter (bspline)&#45;&gt;unwarp (bspline) -->
<g id="edge39" class="edge">
<title>bs_filter (bspline)&#45;&gt;unwarp (bspline)</title>
<path fill="none" stroke="black" d="M195.63,-144.76C179.4,-135.13 158.63,-122.81 141.07,-112.4"/>
<polygon fill="black" stroke="black" points="142.61,-109.24 132.22,-107.15 139.03,-115.26 142.61,-109.24"/>
</g>
<!-- bs_filter (bspline)&#45;&gt;outputnode (utility) -->
<g id="edge40" class="edge">
<title>bs_filter (bspline)&#45;&gt;outputnode (utility)</title>
<path fill="none" stroke="black" d="M223,-143.87C223,-119.67 223,-75.21 223,-46.39"/>
<polygon fill="black" stroke="black" points="226.5,-46.19 223,-36.19 219.5,-46.19 226.5,-46.19"/>
</g>
<!-- moving_masks (utility)&#45;&gt;syn (fixes) -->
<g id="edge41" class="edge">
<title>moving_masks (utility)&#45;&gt;syn (fixes)</title>
<path fill="none" stroke="black" d="M1020.36,-439.01C886.75,-424.6 643.38,-398.35 527.98,-385.9"/>
<polygon fill="black" stroke="black" points="528.2,-382.4 517.89,-384.81 527.45,-389.36 528.2,-382.4"/>
</g>
<!-- lap_epi_norm (utility)&#45;&gt;epi_merge (utility) -->
<g id="edge42" class="edge">
<title>lap_epi_norm (utility)&#45;&gt;epi_merge (utility)</title>
<path fill="none" stroke="black" d="M849.99,-504.76C830.57,-494.91 805.6,-482.25 784.78,-471.68"/>
<polygon fill="black" stroke="black" points="786.33,-468.55 775.83,-467.15 783.17,-474.79 786.33,-468.55"/>
</g>
</g>
</svg>
