<?xml version="1.0" encoding="UTF-8" standalone="no"?>
<!DOCTYPE svg PUBLIC "-//W3C//DTD SVG 1.1//EN"
 "http://www.w3.org/Graphics/SVG/1.1/DTD/svg11.dtd">
<!-- Generated by graphviz version 2.43.0 (0)
 -->
<!-- Title: %3 Pages: 1 -->
<svg width="292pt" height="476pt"
 viewBox="0.00 0.00 291.68 476.00" xmlns="http://www.w3.org/2000/svg" xmlns:xlink="http://www.w3.org/1999/xlink">
<g id="graph0" class="graph" transform="scale(1 1) rotate(0) translate(4 472)">
<title>%3</title>
<polygon fill="white" stroke="transparent" points="-4,4 -4,-472 287.68,-472 287.68,4 -4,4"/>
<!-- inputnode (utility) -->
<g id="node1" class="node">
<title>inputnode (utility)</title>
<ellipse fill="none" stroke="black" cx="186.84" cy="-450" rx="94.78" ry="18"/>
<text text-anchor="middle" x="186.84" y="-446.3" font-family="Times,serif" font-size="14.00">inputnode (utility)</text>
</g>
<!-- rotime (epi) -->
<g id="node2" class="node">
<title>rotime (epi)</title>
<ellipse fill="none" stroke="black" cx="139.84" cy="-378" rx="65.79" ry="18"/>
<text text-anchor="middle" x="139.84" y="-374.3" font-family="Times,serif" font-size="14.00">rotime (epi)</text>
</g>
<!-- inputnode (utility)&#45;&gt;rotime (epi) -->
<g id="edge1" class="edge">
<title>inputnode (utility)&#45;&gt;rotime (epi)</title>
<path fill="none" stroke="black" d="M175.46,-432.05C169.86,-423.71 163,-413.49 156.79,-404.25"/>
<polygon fill="black" stroke="black" points="159.59,-402.14 151.11,-395.79 153.78,-406.04 159.59,-402.14"/>
</g>
<!-- resample (bspline) -->
<g id="node3" class="node">
<title>resample (bspline)</title>
<ellipse fill="none" stroke="black" cx="186.84" cy="-306" rx="96.68" ry="18"/>
<text text-anchor="middle" x="186.84" y="-302.3" font-family="Times,serif" font-size="14.00">resample (bspline)</text>
</g>
<!-- inputnode (utility)&#45;&gt;resample (bspline) -->
<g id="edge2" class="edge">
<title>inputnode (utility)&#45;&gt;resample (bspline)</title>
<path fill="none" stroke="black" d="M198.72,-431.72C204.85,-421.76 211.68,-408.73 214.84,-396 218.69,-380.47 218.69,-375.53 214.84,-360 212.54,-350.75 208.31,-341.34 203.82,-333.07"/>
<polygon fill="black" stroke="black" points="206.77,-331.17 198.72,-324.28 200.71,-334.68 206.77,-331.17"/>
</g>
<!-- rotime (epi)&#45;&gt;resample (bspline) -->
<g id="edge3" class="edge">
<title>rotime (epi)&#45;&gt;resample (bspline)</title>
<path fill="none" stroke="black" d="M151.21,-360.05C156.73,-351.84 163.48,-341.79 169.61,-332.66"/>
<polygon fill="black" stroke="black" points="172.57,-334.53 175.24,-324.28 166.76,-330.63 172.57,-334.53"/>
</g>
<!-- merge (nibabel) -->
<g id="node4" class="node">
<title>merge (nibabel)</title>
<ellipse fill="none" stroke="black" cx="123.84" cy="-234" rx="84.49" ry="18"/>
<text text-anchor="middle" x="123.84" y="-230.3" font-family="Times,serif" font-size="14.00">merge (nibabel)</text>
</g>
<!-- resample (bspline)&#45;&gt;merge (nibabel) -->
<g id="edge4" class="edge">
<title>resample (bspline)&#45;&gt;merge (nibabel)</title>
<path fill="none" stroke="black" d="M171.59,-288.05C163.85,-279.46 154.31,-268.86 145.79,-259.4"/>
<polygon fill="black" stroke="black" points="148.24,-256.88 138.95,-251.79 143.04,-261.56 148.24,-256.88"/>
</g>
<!-- outputnode (utility) -->
<g id="node5" class="node">
<title>outputnode (utility)</title>
<ellipse fill="none" stroke="black" cx="123.84" cy="-18" rx="101.28" ry="18"/>
<text text-anchor="middle" x="123.84" y="-14.3" font-family="Times,serif" font-size="14.00">outputnode (utility)</text>
</g>
<!-- resample (bspline)&#45;&gt;outputnode (utility) -->
<g id="edge5" class="edge">
<title>resample (bspline)&#45;&gt;outputnode (utility)</title>
<path fill="none" stroke="black" d="M199.08,-287.71C205.49,-277.74 212.82,-264.7 216.84,-252 241.01,-175.49 273.15,-140.18 230.84,-72 221.11,-56.32 205.21,-45.14 188.6,-37.22"/>
<polygon fill="black" stroke="black" points="189.9,-33.97 179.34,-33.15 187.09,-40.38 189.9,-33.97"/>
</g>
<!-- merge (nibabel)&#45;&gt;outputnode (utility) -->
<g id="edge7" class="edge">
<title>merge (nibabel)&#45;&gt;outputnode (utility)</title>
<path fill="none" stroke="black" d="M76.4,-219.02C56.94,-210.82 36.14,-198.37 23.84,-180 -2.93,-140.04 -8.53,-112.87 16.84,-72 26.57,-56.32 42.47,-45.14 59.07,-37.22"/>
<polygon fill="black" stroke="black" points="60.59,-40.38 68.33,-33.15 57.77,-33.97 60.59,-40.38"/>
</g>
<!-- average (images) -->
<g id="node6" class="node">
<title>average (images)</title>
<ellipse fill="none" stroke="black" cx="123.84" cy="-162" rx="90.98" ry="18"/>
<text text-anchor="middle" x="123.84" y="-158.3" font-family="Times,serif" font-size="14.00">average (images)</text>
</g>
<!-- merge (nibabel)&#45;&gt;average (images) -->
<g id="edge6" class="edge">
<title>merge (nibabel)&#45;&gt;average (images)</title>
<path fill="none" stroke="black" d="M123.84,-215.7C123.84,-207.98 123.84,-198.71 123.84,-190.11"/>
<polygon fill="black" stroke="black" points="127.34,-190.1 123.84,-180.1 120.34,-190.1 127.34,-190.1"/>
</g>
<!-- brainextraction_wf -->
<g id="node7" class="node">
<title>brainextraction_wf</title>
<ellipse fill="none" stroke="black" cx="123.84" cy="-90" rx="98.28" ry="18"/>
<text text-anchor="middle" x="123.84" y="-86.3" font-family="Times,serif" font-size="14.00">brainextraction_wf</text>
</g>
<!-- average (images)&#45;&gt;brainextraction_wf -->
<g id="edge8" class="edge">
<title>average (images)&#45;&gt;brainextraction_wf</title>
<path fill="none" stroke="black" d="M123.84,-143.7C123.84,-135.98 123.84,-126.71 123.84,-118.11"/>
<polygon fill="black" stroke="black" points="127.34,-118.1 123.84,-108.1 120.34,-118.1 127.34,-118.1"/>
</g>
<!-- brainextraction_wf&#45;&gt;outputnode (utility) -->
<g id="edge9" class="edge">
<title>brainextraction_wf&#45;&gt;outputnode (utility)</title>
<path fill="none" stroke="black" d="M123.84,-71.7C123.84,-63.98 123.84,-54.71 123.84,-46.11"/>
<polygon fill="black" stroke="black" points="127.34,-46.1 123.84,-36.1 120.34,-46.1 127.34,-46.1"/>
</g>
</g>
</svg>
