<?xml version="1.0" encoding="UTF-8" standalone="no"?>
<!DOCTYPE svg PUBLIC "-//W3C//DTD SVG 1.1//EN"
 "http://www.w3.org/Graphics/SVG/1.1/DTD/svg11.dtd">
<!-- Generated by graphviz version 2.43.0 (0)
 -->
<!-- Title: %3 Pages: 1 -->
<svg width="738pt" height="980pt"
 viewBox="0.00 0.00 738.43 980.00" xmlns="http://www.w3.org/2000/svg" xmlns:xlink="http://www.w3.org/1999/xlink">
<g id="graph0" class="graph" transform="scale(1 1) rotate(0) translate(4 976)">
<title>%3</title>
<polygon fill="white" stroke="transparent" points="-4,4 -4,-976 734.43,-976 734.43,4 -4,4"/>
<!-- inputnode (utility) -->
<g id="node1" class="node">
<title>inputnode (utility)</title>
<ellipse fill="none" stroke="black" cx="158.19" cy="-954" rx="94.78" ry="18"/>
<text text-anchor="middle" x="158.19" y="-950.3" font-family="Times,serif" font-size="14.00">inputnode (utility)</text>
</g>
<!-- runwise_avg (images) -->
<g id="node2" class="node">
<title>runwise_avg (images)</title>
<ellipse fill="none" stroke="black" cx="228.19" cy="-882" rx="111.58" ry="18"/>
<text text-anchor="middle" x="228.19" y="-878.3" font-family="Times,serif" font-size="14.00">runwise_avg (images)</text>
</g>
<!-- inputnode (utility)&#45;&gt;runwise_avg (images) -->
<g id="edge1" class="edge">
<title>inputnode (utility)&#45;&gt;runwise_avg (images)</title>
<path fill="none" stroke="black" d="M175.14,-936.05C183.69,-927.5 194.23,-916.96 203.66,-907.54"/>
<polygon fill="black" stroke="black" points="206.32,-909.82 210.92,-900.28 201.37,-904.87 206.32,-909.82"/>
</g>
<!-- readout_time (epi) -->
<g id="node3" class="node">
<title>readout_time (epi)</title>
<ellipse fill="none" stroke="black" cx="96.19" cy="-738" rx="96.38" ry="18"/>
<text text-anchor="middle" x="96.19" y="-734.3" font-family="Times,serif" font-size="14.00">readout_time (epi)</text>
</g>
<!-- inputnode (utility)&#45;&gt;readout_time (epi) -->
<g id="edge2" class="edge">
<title>inputnode (utility)&#45;&gt;readout_time (epi)</title>
<path fill="none" stroke="black" d="M136.09,-936.34C125.38,-926.95 113.5,-914.24 107.19,-900 87.91,-856.51 89.37,-799.88 92.54,-766.67"/>
<polygon fill="black" stroke="black" points="96.06,-766.68 93.65,-756.36 89.1,-765.93 96.06,-766.68"/>
</g>
<!-- regrid (utils) -->
<g id="node4" class="node">
<title>regrid (utils)</title>
<ellipse fill="none" stroke="black" cx="220.19" cy="-810" rx="69.59" ry="18"/>
<text text-anchor="middle" x="220.19" y="-806.3" font-family="Times,serif" font-size="14.00">regrid (utils)</text>
</g>
<!-- runwise_avg (images)&#45;&gt;regrid (utils) -->
<g id="edge3" class="edge">
<title>runwise_avg (images)&#45;&gt;regrid (utils)</title>
<path fill="none" stroke="black" d="M226.21,-863.7C225.33,-855.98 224.27,-846.71 223.29,-838.11"/>
<polygon fill="black" stroke="black" points="226.76,-837.64 222.15,-828.1 219.8,-838.44 226.76,-837.64"/>
</g>
<!-- sort_pe_blips (epi) -->
<g id="node5" class="node">
<title>sort_pe_blips (epi)</title>
<ellipse fill="none" stroke="black" cx="158.19" cy="-666" rx="95.58" ry="18"/>
<text text-anchor="middle" x="158.19" y="-662.3" font-family="Times,serif" font-size="14.00">sort_pe_blips (epi)</text>
</g>
<!-- readout_time (epi)&#45;&gt;sort_pe_blips (epi) -->
<g id="edge4" class="edge">
<title>readout_time (epi)&#45;&gt;sort_pe_blips (epi)</title>
<path fill="none" stroke="black" d="M111.2,-720.05C118.82,-711.46 128.2,-700.86 136.58,-691.4"/>
<polygon fill="black" stroke="black" points="139.31,-693.6 143.32,-683.79 134.07,-688.95 139.31,-693.6"/>
</g>
<!-- regrid (utils)&#45;&gt;readout_time (epi) -->
<g id="edge5" class="edge">
<title>regrid (utils)&#45;&gt;readout_time (epi)</title>
<path fill="none" stroke="black" d="M192.67,-793.46C175.3,-783.66 152.64,-770.86 133.64,-760.14"/>
<polygon fill="black" stroke="black" points="135.36,-757.09 124.93,-755.22 131.91,-763.19 135.36,-757.09"/>
</g>
<!-- regrid (utils)&#45;&gt;sort_pe_blips (epi) -->
<g id="edge6" class="edge">
<title>regrid (utils)&#45;&gt;sort_pe_blips (epi)</title>
<path fill="none" stroke="black" d="M218.92,-791.84C217.02,-773.33 212.37,-743.38 201.19,-720 196.39,-709.95 189.32,-700.14 182.29,-691.75"/>
<polygon fill="black" stroke="black" points="184.87,-689.38 175.64,-684.17 179.61,-693.99 184.87,-689.38"/>
</g>
<!-- topup (fsl) -->
<g id="node6" class="node">
<title>topup (fsl)</title>
<ellipse fill="none" stroke="black" cx="294.19" cy="-306" rx="58.49" ry="18"/>
<text text-anchor="middle" x="294.19" y="-302.3" font-family="Times,serif" font-size="14.00">topup (fsl)</text>
</g>
<!-- sort_pe_blips (epi)&#45;&gt;topup (fsl) -->
<g id="edge7" class="edge">
<title>sort_pe_blips (epi)&#45;&gt;topup (fsl)</title>
<path fill="none" stroke="black" d="M158.19,-647.95C158.19,-621.29 158.19,-568.11 158.19,-523 158.19,-523 158.19,-523 158.19,-449 158.19,-392.51 215.02,-349.72 255.21,-326.52"/>
<polygon fill="black" stroke="black" points="256.99,-329.53 264.01,-321.59 253.57,-323.42 256.99,-329.53"/>
</g>
<!-- fix_coeff (bspline) -->
<g id="node7" class="node">
<title>fix_coeff (bspline)</title>
<ellipse fill="none" stroke="black" cx="132.19" cy="-234" rx="91.78" ry="18"/>
<text text-anchor="middle" x="132.19" y="-230.3" font-family="Times,serif" font-size="14.00">fix_coeff (bspline)</text>
</g>
<!-- sort_pe_blips (epi)&#45;&gt;fix_coeff (bspline) -->
<g id="edge8" class="edge">
<title>sort_pe_blips (epi)&#45;&gt;fix_coeff (bspline)</title>
<path fill="none" stroke="black" d="M150.5,-647.91C139.4,-621.62 120.19,-569.45 120.19,-523 120.19,-523 120.19,-523 120.19,-377 120.19,-336.85 125.01,-290.55 128.54,-262.02"/>
<polygon fill="black" stroke="black" points="132.03,-262.37 129.82,-252.01 125.08,-261.49 132.03,-262.37"/>
</g>
<!-- concat_blips (nibabel) -->
<g id="node8" class="node">
<title>concat_blips (nibabel)</title>
<ellipse fill="none" stroke="black" cx="300.19" cy="-594" rx="111.58" ry="18"/>
<text text-anchor="middle" x="300.19" y="-590.3" font-family="Times,serif" font-size="14.00">concat_blips (nibabel)</text>
</g>
<!-- sort_pe_blips (epi)&#45;&gt;concat_blips (nibabel) -->
<g id="edge9" class="edge">
<title>sort_pe_blips (epi)&#45;&gt;concat_blips (nibabel)</title>
<path fill="none" stroke="black" d="M190.77,-648.94C210.74,-639.1 236.52,-626.39 258.03,-615.78"/>
<polygon fill="black" stroke="black" points="259.85,-618.79 267.27,-611.23 256.76,-612.51 259.85,-618.79"/>
</g>
<!-- topup (fsl)&#45;&gt;fix_coeff (bspline) -->
<g id="edge10" class="edge">
<title>topup (fsl)&#45;&gt;fix_coeff (bspline)</title>
<path fill="none" stroke="black" d="M261.8,-291C237.6,-280.55 204.21,-266.12 177.38,-254.53"/>
<polygon fill="black" stroke="black" points="178.76,-251.31 168.19,-250.56 175.99,-257.74 178.76,-251.31"/>
</g>
<!-- outputnode (utility) -->
<g id="node9" class="node">
<title>outputnode (utility)</title>
<ellipse fill="none" stroke="black" cx="271.19" cy="-18" rx="101.28" ry="18"/>
<text text-anchor="middle" x="271.19" y="-14.3" font-family="Times,serif" font-size="14.00">outputnode (utility)</text>
</g>
<!-- topup (fsl)&#45;&gt;outputnode (utility) -->
<g id="edge11" class="edge">
<title>topup (fsl)&#45;&gt;outputnode (utility)</title>
<path fill="none" stroke="black" d="M284.65,-287.93C279.55,-277.82 273.8,-264.57 271.19,-252 256.03,-178.98 262.71,-90.28 267.63,-46.36"/>
<polygon fill="black" stroke="black" points="271.13,-46.54 268.83,-36.2 264.18,-45.72 271.13,-46.54"/>
</g>
<!-- from_las (nibabel) -->
<g id="node10" class="node">
<title>from_las (nibabel)</title>
<ellipse fill="none" stroke="black" cx="636.19" cy="-234" rx="94.48" ry="18"/>
<text text-anchor="middle" x="636.19" y="-230.3" font-family="Times,serif" font-size="14.00">from_las (nibabel)</text>
</g>
<!-- topup (fsl)&#45;&gt;from_las (nibabel) -->
<g id="edge12" class="edge">
<title>topup (fsl)&#45;&gt;from_las (nibabel)</title>
<path fill="none" stroke="black" d="M341.39,-295.34C399.08,-283.53 497.29,-263.43 564.38,-249.7"/>
<polygon fill="black" stroke="black" points="565.36,-253.07 574.45,-247.64 563.95,-246.21 565.36,-253.07"/>
</g>
<!-- from_las_fmap (nibabel) -->
<g id="node11" class="node">
<title>from_las_fmap (nibabel)</title>
<ellipse fill="none" stroke="black" cx="402.19" cy="-234" rx="122.38" ry="18"/>
<text text-anchor="middle" x="402.19" y="-230.3" font-family="Times,serif" font-size="14.00">from_las_fmap (nibabel)</text>
</g>
<!-- topup (fsl)&#45;&gt;from_las_fmap (nibabel) -->
<g id="edge13" class="edge">
<title>topup (fsl)&#45;&gt;from_las_fmap (nibabel)</title>
<path fill="none" stroke="black" d="M318.16,-289.46C332.74,-280.02 351.59,-267.79 367.75,-257.32"/>
<polygon fill="black" stroke="black" points="369.92,-260.09 376.4,-251.71 366.11,-254.22 369.92,-260.09"/>
</g>
<!-- fix_coeff (bspline)&#45;&gt;outputnode (utility) -->
<g id="edge14" class="edge">
<title>fix_coeff (bspline)&#45;&gt;outputnode (utility)</title>
<path fill="none" stroke="black" d="M143.33,-215.85C167.74,-178.27 226.04,-88.51 254.71,-44.37"/>
<polygon fill="black" stroke="black" points="257.68,-46.23 260.19,-35.94 251.81,-42.42 257.68,-46.23"/>
</g>
<!-- pad_blip_slices (utils) -->
<g id="node14" class="node">
<title>pad_blip_slices (utils)</title>
<ellipse fill="none" stroke="black" cx="302.19" cy="-522" rx="110.48" ry="18"/>
<text text-anchor="middle" x="302.19" y="-518.3" font-family="Times,serif" font-size="14.00">pad_blip_slices (utils)</text>
</g>
<!-- concat_blips (nibabel)&#45;&gt;pad_blip_slices (utils) -->
<g id="edge15" class="edge">
<title>concat_blips (nibabel)&#45;&gt;pad_blip_slices (utils)</title>
<path fill="none" stroke="black" d="M300.69,-575.7C300.91,-567.98 301.17,-558.71 301.42,-550.11"/>
<polygon fill="black" stroke="black" points="304.92,-550.2 301.7,-540.1 297.92,-550 304.92,-550.2"/>
</g>
<!-- ref_average (images) -->
<g id="node15" class="node">
<title>ref_average (images)</title>
<ellipse fill="none" stroke="black" cx="559.19" cy="-162" rx="108.58" ry="18"/>
<text text-anchor="middle" x="559.19" y="-158.3" font-family="Times,serif" font-size="14.00">ref_average (images)</text>
</g>
<!-- from_las (nibabel)&#45;&gt;ref_average (images) -->
<g id="edge16" class="edge">
<title>from_las (nibabel)&#45;&gt;ref_average (images)</title>
<path fill="none" stroke="black" d="M617.55,-216.05C607.81,-207.2 595.73,-196.22 585.1,-186.55"/>
<polygon fill="black" stroke="black" points="587.41,-183.93 577.66,-179.79 582.7,-189.11 587.41,-183.93"/>
</g>
<!-- from_las_fmap (nibabel)&#45;&gt;outputnode (utility) -->
<g id="edge17" class="edge">
<title>from_las_fmap (nibabel)&#45;&gt;outputnode (utility)</title>
<path fill="none" stroke="black" d="M391.69,-215.85C368.74,-178.35 313.97,-88.88 286.89,-44.65"/>
<polygon fill="black" stroke="black" points="289.76,-42.64 281.56,-35.94 283.79,-46.29 289.76,-42.64"/>
</g>
<!-- setwise_avg (images) -->
<g id="node12" class="node">
<title>setwise_avg (images)</title>
<ellipse fill="none" stroke="black" cx="305.19" cy="-450" rx="109.68" ry="18"/>
<text text-anchor="middle" x="305.19" y="-446.3" font-family="Times,serif" font-size="14.00">setwise_avg (images)</text>
</g>
<!-- setwise_avg (images)&#45;&gt;fix_coeff (bspline) -->
<g id="edge18" class="edge">
<title>setwise_avg (images)&#45;&gt;fix_coeff (bspline)</title>
<path fill="none" stroke="black" d="M267.74,-432.96C250.16,-424.02 229.89,-411.55 215.19,-396 177.7,-356.34 152.9,-296.46 140.81,-262"/>
<polygon fill="black" stroke="black" points="144,-260.52 137.46,-252.18 137.37,-262.77 144,-260.52"/>
</g>
<!-- setwise_avg (images)&#45;&gt;from_las (nibabel) -->
<g id="edge20" class="edge">
<title>setwise_avg (images)&#45;&gt;from_las (nibabel)</title>
<path fill="none" stroke="black" d="M342.48,-433.06C364.19,-423.29 391.82,-409.99 415.19,-396 488.17,-352.33 567.24,-290.93 608.13,-258"/>
<polygon fill="black" stroke="black" points="610.45,-260.63 616.03,-251.62 606.05,-255.19 610.45,-260.63"/>
</g>
<!-- setwise_avg (images)&#45;&gt;from_las_fmap (nibabel) -->
<g id="edge21" class="edge">
<title>setwise_avg (images)&#45;&gt;from_las_fmap (nibabel)</title>
<path fill="none" stroke="black" d="M350.07,-433.4C367.19,-425.07 385.01,-412.94 395.19,-396 420.02,-354.67 414.59,-296.02 408.39,-262.1"/>
<polygon fill="black" stroke="black" points="411.77,-261.14 406.39,-252.01 404.9,-262.5 411.77,-261.14"/>
</g>
<!-- to_las (nibabel) -->
<g id="node13" class="node">
<title>to_las (nibabel)</title>
<ellipse fill="none" stroke="black" cx="305.19" cy="-378" rx="81.49" ry="18"/>
<text text-anchor="middle" x="305.19" y="-374.3" font-family="Times,serif" font-size="14.00">to_las (nibabel)</text>
</g>
<!-- setwise_avg (images)&#45;&gt;to_las (nibabel) -->
<g id="edge19" class="edge">
<title>setwise_avg (images)&#45;&gt;to_las (nibabel)</title>
<path fill="none" stroke="black" d="M305.19,-431.7C305.19,-423.98 305.19,-414.71 305.19,-406.11"/>
<polygon fill="black" stroke="black" points="308.69,-406.1 305.19,-396.1 301.69,-406.1 308.69,-406.1"/>
</g>
<!-- to_las (nibabel)&#45;&gt;topup (fsl) -->
<g id="edge22" class="edge">
<title>to_las (nibabel)&#45;&gt;topup (fsl)</title>
<path fill="none" stroke="black" d="M302.47,-359.7C301.26,-351.98 299.8,-342.71 298.45,-334.11"/>
<polygon fill="black" stroke="black" points="301.89,-333.44 296.88,-324.1 294.97,-334.53 301.89,-333.44"/>
</g>
<!-- pad_blip_slices (utils)&#45;&gt;setwise_avg (images) -->
<g id="edge23" class="edge">
<title>pad_blip_slices (utils)&#45;&gt;setwise_avg (images)</title>
<path fill="none" stroke="black" d="M302.93,-503.7C303.26,-495.98 303.66,-486.71 304.03,-478.11"/>
<polygon fill="black" stroke="black" points="307.53,-478.25 304.46,-468.1 300.53,-477.95 307.53,-478.25"/>
</g>
<!-- brainextraction_wf -->
<g id="node16" class="node">
<title>brainextraction_wf</title>
<ellipse fill="none" stroke="black" cx="477.19" cy="-90" rx="98.28" ry="18"/>
<text text-anchor="middle" x="477.19" y="-86.3" font-family="Times,serif" font-size="14.00">brainextraction_wf</text>
</g>
<!-- ref_average (images)&#45;&gt;brainextraction_wf -->
<g id="edge24" class="edge">
<title>ref_average (images)&#45;&gt;brainextraction_wf</title>
<path fill="none" stroke="black" d="M539.34,-144.05C528.97,-135.2 516.1,-124.22 504.78,-114.55"/>
<polygon fill="black" stroke="black" points="506.74,-111.62 496.86,-107.79 502.19,-116.94 506.74,-111.62"/>
</g>
<!-- brainextraction_wf&#45;&gt;outputnode (utility) -->
<g id="edge25" class="edge">
<title>brainextraction_wf&#45;&gt;outputnode (utility)</title>
<path fill="none" stroke="black" d="M432.75,-73.9C401.31,-63.22 358.98,-48.83 325.54,-37.47"/>
<polygon fill="black" stroke="black" points="326.51,-34.1 315.91,-34.2 324.25,-40.73 326.51,-34.1"/>
</g>
</g>
</svg>
