<?xml version="1.0" encoding="UTF-8" standalone="no"?>
<!DOCTYPE svg PUBLIC "-//W3C//DTD SVG 1.1//EN"
 "http://www.w3.org/Graphics/SVG/1.1/DTD/svg11.dtd">
<!-- Generated by graphviz version 2.46.1 (20210213.1702)
 -->
<!-- Pages: 1 -->
<svg width="1257pt" height="764pt"
 viewBox="0.00 0.00 1257.00 764.00" xmlns="http://www.w3.org/2000/svg" xmlns:xlink="http://www.w3.org/1999/xlink">
<g id="graph0" class="graph" transform="scale(1 1) rotate(0) translate(4 760)">
<polygon fill="white" stroke="transparent" points="-4,4 -4,-760 1253,-760 1253,4 -4,4"/>
<!-- inputnode (utility) -->
<g id="node1" class="node">
<title>inputnode (utility)</title>
<ellipse fill="none" stroke="black" cx="527" cy="-738" rx="75.29" ry="18"/>
<text text-anchor="middle" x="527" y="-734.3" font-family="Times,serif" font-size="14.00">inputnode (utility)</text>
</g>
<!-- readout_time (epi) -->
<g id="node2" class="node">
<title>readout_time (epi)</title>
<ellipse fill="none" stroke="black" cx="143" cy="-522" rx="76.89" ry="18"/>
<text text-anchor="middle" x="143" y="-518.3" font-family="Times,serif" font-size="14.00">readout_time (epi)</text>
</g>
<!-- inputnode (utility)&#45;&gt;readout_time (epi) -->
<g id="edge1" class="edge">
<title>inputnode (utility)&#45;&gt;readout_time (epi)</title>
<path fill="none" stroke="black" d="M451.52,-736.7C355.68,-734.59 198.05,-724.81 159,-684 124.94,-648.41 130.04,-586.04 136.63,-550.27"/>
<polygon fill="black" stroke="black" points="140.13,-550.58 138.68,-540.08 133.27,-549.19 140.13,-550.58"/>
</g>
<!-- atlas_msk (nibabel) -->
<g id="node3" class="node">
<title>atlas_msk (nibabel)</title>
<ellipse fill="none" stroke="black" cx="320" cy="-666" rx="80.69" ry="18"/>
<text text-anchor="middle" x="320" y="-662.3" font-family="Times,serif" font-size="14.00">atlas_msk (nibabel)</text>
</g>
<!-- inputnode (utility)&#45;&gt;atlas_msk (nibabel) -->
<g id="edge2" class="edge">
<title>inputnode (utility)&#45;&gt;atlas_msk (nibabel)</title>
<path fill="none" stroke="black" d="M485.11,-722.83C452.5,-711.81 407.06,-696.44 372.1,-684.62"/>
<polygon fill="black" stroke="black" points="373.13,-681.27 362.54,-681.38 370.89,-687.9 373.13,-681.27"/>
</g>
<!-- clip_epi (nibabel) -->
<g id="node4" class="node">
<title>clip_epi (nibabel)</title>
<ellipse fill="none" stroke="black" cx="674" cy="-666" rx="73.39" ry="18"/>
<text text-anchor="middle" x="674" y="-662.3" font-family="Times,serif" font-size="14.00">clip_epi (nibabel)</text>
</g>
<!-- inputnode (utility)&#45;&gt;clip_epi (nibabel) -->
<g id="edge3" class="edge">
<title>inputnode (utility)&#45;&gt;clip_epi (nibabel)</title>
<path fill="none" stroke="black" d="M559.26,-721.64C580.8,-711.38 609.33,-697.79 632.55,-686.74"/>
<polygon fill="black" stroke="black" points="634.29,-689.79 641.82,-682.33 631.28,-683.47 634.29,-689.79"/>
</g>
<!-- unwarp (bspline) -->
<g id="node5" class="node">
<title>unwarp (bspline)</title>
<ellipse fill="none" stroke="black" cx="94" cy="-90" rx="70.69" ry="18"/>
<text text-anchor="middle" x="94" y="-86.3" font-family="Times,serif" font-size="14.00">unwarp (bspline)</text>
</g>
<!-- inputnode (utility)&#45;&gt;unwarp (bspline) -->
<g id="edge4" class="edge">
<title>inputnode (utility)&#45;&gt;unwarp (bspline)</title>
<path fill="none" stroke="black" d="M451.99,-736.1C336.87,-733.46 123.17,-723.26 59,-684 18.52,-659.23 0,-642.46 0,-595 0,-595 0,-595 0,-233 0,-184.63 38.4,-140.08 66.11,-114.23"/>
<polygon fill="black" stroke="black" points="68.54,-116.75 73.6,-107.45 63.84,-111.57 68.54,-116.75"/>
</g>
<!-- amask2epi (fixes) -->
<g id="node6" class="node">
<title>amask2epi (fixes)</title>
<ellipse fill="none" stroke="black" cx="1085" cy="-594" rx="73.39" ry="18"/>
<text text-anchor="middle" x="1085" y="-590.3" font-family="Times,serif" font-size="14.00">amask2epi (fixes)</text>
</g>
<!-- inputnode (utility)&#45;&gt;amask2epi (fixes) -->
<g id="edge5" class="edge">
<title>inputnode (utility)&#45;&gt;amask2epi (fixes)</title>
<path fill="none" stroke="black" d="M602.13,-736.22C760.55,-733.8 1117.32,-723.92 1154,-684 1164.83,-672.22 1161.07,-662.35 1154,-648 1147.61,-635.03 1136.34,-624.34 1124.74,-616.05"/>
<polygon fill="black" stroke="black" points="1126.57,-613.06 1116.31,-610.44 1122.69,-618.89 1126.57,-613.06"/>
</g>
<!-- zooms_bmask (fixes) -->
<g id="node7" class="node">
<title>zooms_bmask (fixes)</title>
<ellipse fill="none" stroke="black" cx="373" cy="-162" rx="87.18" ry="18"/>
<text text-anchor="middle" x="373" y="-158.3" font-family="Times,serif" font-size="14.00">zooms_bmask (fixes)</text>
</g>
<!-- inputnode (utility)&#45;&gt;zooms_bmask (fixes) -->
<g id="edge6" class="edge">
<title>inputnode (utility)&#45;&gt;zooms_bmask (fixes)</title>
<path fill="none" stroke="black" d="M601.2,-734.63C763.23,-728.95 1138.22,-712.83 1188,-684 1229.5,-659.97 1249,-642.95 1249,-595 1249,-595 1249,-595 1249,-305 1249,-226.33 691.44,-182.81 465.96,-168.42"/>
<polygon fill="black" stroke="black" points="466.01,-164.92 455.81,-167.78 465.57,-171.9 466.01,-164.92"/>
</g>
<!-- fixed_masks (utility) -->
<g id="node8" class="node">
<title>fixed_masks (utility)</title>
<ellipse fill="none" stroke="black" cx="285" cy="-594" rx="84.49" ry="18"/>
<text text-anchor="middle" x="285" y="-590.3" font-family="Times,serif" font-size="14.00">fixed_masks (utility)</text>
</g>
<!-- inputnode (utility)&#45;&gt;fixed_masks (utility) -->
<g id="edge7" class="edge">
<title>inputnode (utility)&#45;&gt;fixed_masks (utility)</title>
<path fill="none" stroke="black" d="M453.03,-734.31C374.5,-729.72 257.91,-717.33 230,-684 212.66,-663.29 234.03,-636.6 254.99,-617.87"/>
<polygon fill="black" stroke="black" points="257.29,-620.51 262.62,-611.36 252.74,-615.19 257.29,-620.51"/>
</g>
<!-- anat_dilmsk (brainmask) -->
<g id="node9" class="node">
<title>anat_dilmsk (brainmask)</title>
<ellipse fill="none" stroke="black" cx="1046" cy="-666" rx="99.38" ry="18"/>
<text text-anchor="middle" x="1046" y="-662.3" font-family="Times,serif" font-size="14.00">anat_dilmsk (brainmask)</text>
</g>
<!-- inputnode (utility)&#45;&gt;anat_dilmsk (brainmask) -->
<g id="edge8" class="edge">
<title>inputnode (utility)&#45;&gt;anat_dilmsk (brainmask)</title>
<path fill="none" stroke="black" d="M592.76,-729.04C673.8,-719.1 815.68,-701.3 937,-684 945.84,-682.74 955.08,-681.37 964.27,-679.98"/>
<polygon fill="black" stroke="black" points="964.86,-683.44 974.22,-678.47 963.8,-676.52 964.86,-683.44"/>
</g>
<!-- warp_dir (utility) -->
<g id="node10" class="node">
<title>warp_dir (utility)</title>
<ellipse fill="none" stroke="black" cx="248" cy="-450" rx="71.49" ry="18"/>
<text text-anchor="middle" x="248" y="-446.3" font-family="Times,serif" font-size="14.00">warp_dir (utility)</text>
</g>
<!-- inputnode (utility)&#45;&gt;warp_dir (utility) -->
<g id="edge9" class="edge">
<title>inputnode (utility)&#45;&gt;warp_dir (utility)</title>
<path fill="none" stroke="black" d="M454.87,-732.66C375.67,-726.51 255.07,-712.67 220,-684 181.61,-652.61 172.71,-621.68 192,-576 200.93,-554.86 217.91,-560.08 229,-540 239.54,-520.92 244.24,-496.57 246.33,-478.16"/>
<polygon fill="black" stroke="black" points="249.82,-478.38 247.28,-468.09 242.85,-477.72 249.82,-478.38"/>
</g>
<!-- anat_merge (utility) -->
<g id="node11" class="node">
<title>anat_merge (utility)</title>
<ellipse fill="none" stroke="black" cx="480" cy="-522" rx="81.49" ry="18"/>
<text text-anchor="middle" x="480" y="-518.3" font-family="Times,serif" font-size="14.00">anat_merge (utility)</text>
</g>
<!-- inputnode (utility)&#45;&gt;anat_merge (utility) -->
<g id="edge10" class="edge">
<title>inputnode (utility)&#45;&gt;anat_merge (utility)</title>
<path fill="none" stroke="black" d="M541.89,-719.98C566.72,-689.42 611.13,-623.97 582,-576 572.21,-559.88 555.75,-548.44 538.88,-540.42"/>
<polygon fill="black" stroke="black" points="540.06,-537.12 529.5,-536.31 537.25,-543.53 540.06,-537.12"/>
</g>
<!-- lap_anat (ants) -->
<g id="node12" class="node">
<title>lap_anat (ants)</title>
<ellipse fill="none" stroke="black" cx="482" cy="-666" rx="63.09" ry="18"/>
<text text-anchor="middle" x="482" y="-662.3" font-family="Times,serif" font-size="14.00">lap_anat (ants)</text>
</g>
<!-- inputnode (utility)&#45;&gt;lap_anat (ants) -->
<g id="edge11" class="edge">
<title>inputnode (utility)&#45;&gt;lap_anat (ants)</title>
<path fill="none" stroke="black" d="M516.11,-720.05C510.75,-711.71 504.17,-701.49 498.23,-692.25"/>
<polygon fill="black" stroke="black" points="501.14,-690.31 492.79,-683.79 495.26,-694.09 501.14,-690.31"/>
</g>
<!-- find_zooms (utility) -->
<g id="node13" class="node">
<title>find_zooms (utility)</title>
<ellipse fill="none" stroke="black" cx="847" cy="-666" rx="81.49" ry="18"/>
<text text-anchor="middle" x="847" y="-662.3" font-family="Times,serif" font-size="14.00">find_zooms (utility)</text>
</g>
<!-- inputnode (utility)&#45;&gt;find_zooms (utility) -->
<g id="edge12" class="edge">
<title>inputnode (utility)&#45;&gt;find_zooms (utility)</title>
<path fill="none" stroke="black" d="M580.56,-725.28C635.81,-713.2 722.05,-694.33 781.37,-681.36"/>
<polygon fill="black" stroke="black" points="782.36,-684.72 791.38,-679.17 780.87,-677.88 782.36,-684.72"/>
</g>
<!-- zooms_field (fixes) -->
<g id="node14" class="node">
<title>zooms_field (fixes)</title>
<ellipse fill="none" stroke="black" cx="201" cy="-234" rx="79.09" ry="18"/>
<text text-anchor="middle" x="201" y="-230.3" font-family="Times,serif" font-size="14.00">zooms_field (fixes)</text>
</g>
<!-- inputnode (utility)&#45;&gt;zooms_field (fixes) -->
<g id="edge13" class="edge">
<title>inputnode (utility)&#45;&gt;zooms_field (fixes)</title>
<path fill="none" stroke="black" d="M455.21,-732.38C358.24,-725.27 191.19,-709.71 136,-684 82.67,-659.15 38,-653.84 38,-595 38,-595 38,-595 38,-377 38,-316.13 103.42,-275.39 151.38,-253.71"/>
<polygon fill="black" stroke="black" points="152.95,-256.84 160.71,-249.63 150.14,-250.43 152.95,-256.84"/>
</g>
<!-- epi_umask (brainmask) -->
<g id="node15" class="node">
<title>epi_umask (brainmask)</title>
<ellipse fill="none" stroke="black" cx="1085" cy="-522" rx="94.78" ry="18"/>
<text text-anchor="middle" x="1085" y="-518.3" font-family="Times,serif" font-size="14.00">epi_umask (brainmask)</text>
</g>
<!-- inputnode (utility)&#45;&gt;epi_umask (brainmask) -->
<g id="edge14" class="edge">
<title>inputnode (utility)&#45;&gt;epi_umask (brainmask)</title>
<path fill="none" stroke="black" d="M602.33,-736.4C764.09,-734.33 1133.14,-725.1 1171,-684 1181.51,-672.59 1181.82,-601.52 1167,-576 1159.11,-562.41 1146.18,-551.72 1132.9,-543.6"/>
<polygon fill="black" stroke="black" points="1134.59,-540.54 1124.17,-538.63 1131.13,-546.62 1134.59,-540.54"/>
</g>
<!-- readout_time (epi)&#45;&gt;unwarp (bspline) -->
<g id="edge17" class="edge">
<title>readout_time (epi)&#45;&gt;unwarp (bspline)</title>
<path fill="none" stroke="black" d="M132.64,-503.76C117.99,-477.7 93,-426.31 93,-379 93,-379 93,-379 93,-233 93,-193 93.4,-146.65 93.7,-118.08"/>
<polygon fill="black" stroke="black" points="97.2,-118.09 93.8,-108.05 90.2,-118.01 97.2,-118.09"/>
</g>
<!-- readout_time (epi)&#45;&gt;warp_dir (utility) -->
<g id="edge15" class="edge">
<title>readout_time (epi)&#45;&gt;warp_dir (utility)</title>
<path fill="none" stroke="black" d="M167.35,-504.76C181.53,-495.31 199.6,-483.26 215.04,-472.97"/>
<polygon fill="black" stroke="black" points="217.4,-475.61 223.78,-467.15 213.52,-469.78 217.4,-475.61"/>
</g>
<!-- extract_field (fmap) -->
<g id="node16" class="node">
<title>extract_field (fmap)</title>
<ellipse fill="none" stroke="black" cx="202" cy="-306" rx="81.49" ry="18"/>
<text text-anchor="middle" x="202" y="-302.3" font-family="Times,serif" font-size="14.00">extract_field (fmap)</text>
</g>
<!-- readout_time (epi)&#45;&gt;extract_field (fmap) -->
<g id="edge16" class="edge">
<title>readout_time (epi)&#45;&gt;extract_field (fmap)</title>
<path fill="none" stroke="black" d="M147.73,-503.85C157.96,-466.75 182.2,-378.81 194.53,-334.1"/>
<polygon fill="black" stroke="black" points="197.97,-334.8 197.25,-324.23 191.22,-332.94 197.97,-334.8"/>
</g>
<!-- atlas_msk (nibabel)&#45;&gt;fixed_masks (utility) -->
<g id="edge18" class="edge">
<title>atlas_msk (nibabel)&#45;&gt;fixed_masks (utility)</title>
<path fill="none" stroke="black" d="M311.53,-648.05C307.5,-640.01 302.6,-630.2 298.11,-621.23"/>
<polygon fill="black" stroke="black" points="301.24,-619.65 293.64,-612.28 294.98,-622.78 301.24,-619.65"/>
</g>
<!-- epi_merge (utility) -->
<g id="node17" class="node">
<title>epi_merge (utility)</title>
<ellipse fill="none" stroke="black" cx="639" cy="-450" rx="77.19" ry="18"/>
<text text-anchor="middle" x="639" y="-446.3" font-family="Times,serif" font-size="14.00">epi_merge (utility)</text>
</g>
<!-- clip_epi (nibabel)&#45;&gt;epi_merge (utility) -->
<g id="edge19" class="edge">
<title>clip_epi (nibabel)&#45;&gt;epi_merge (utility)</title>
<path fill="none" stroke="black" d="M668.04,-648.01C664.63,-637.71 660.55,-624.23 658,-612 648.31,-565.46 643.13,-510.25 640.74,-478.06"/>
<polygon fill="black" stroke="black" points="644.23,-477.81 640.03,-468.08 637.24,-478.3 644.23,-477.81"/>
</g>
<!-- lap_epi (ants) -->
<g id="node18" class="node">
<title>lap_epi (ants)</title>
<ellipse fill="none" stroke="black" cx="726" cy="-594" rx="59.29" ry="18"/>
<text text-anchor="middle" x="726" y="-590.3" font-family="Times,serif" font-size="14.00">lap_epi (ants)</text>
</g>
<!-- clip_epi (nibabel)&#45;&gt;lap_epi (ants) -->
<g id="edge20" class="edge">
<title>clip_epi (nibabel)&#45;&gt;lap_epi (ants)</title>
<path fill="none" stroke="black" d="M686.59,-648.05C692.85,-639.63 700.54,-629.28 707.45,-619.97"/>
<polygon fill="black" stroke="black" points="710.37,-621.9 713.53,-611.79 704.76,-617.73 710.37,-621.9"/>
</g>
<!-- zooms_epi (nibabel) -->
<g id="node19" class="node">
<title>zooms_epi (nibabel)</title>
<ellipse fill="none" stroke="black" cx="886" cy="-594" rx="83.39" ry="18"/>
<text text-anchor="middle" x="886" y="-590.3" font-family="Times,serif" font-size="14.00">zooms_epi (nibabel)</text>
</g>
<!-- clip_epi (nibabel)&#45;&gt;zooms_epi (nibabel) -->
<g id="edge21" class="edge">
<title>clip_epi (nibabel)&#45;&gt;zooms_epi (nibabel)</title>
<path fill="none" stroke="black" d="M715.88,-651.17C749.31,-640.14 796.35,-624.6 832.49,-612.67"/>
<polygon fill="black" stroke="black" points="833.98,-615.86 842.38,-609.4 831.79,-609.21 833.98,-615.86"/>
</g>
<!-- outputnode (utility) -->
<g id="node20" class="node">
<title>outputnode (utility)</title>
<ellipse fill="none" stroke="black" cx="194" cy="-18" rx="79.09" ry="18"/>
<text text-anchor="middle" x="194" y="-14.3" font-family="Times,serif" font-size="14.00">outputnode (utility)</text>
</g>
<!-- unwarp (bspline)&#45;&gt;outputnode (utility) -->
<g id="edge22" class="edge">
<title>unwarp (bspline)&#45;&gt;outputnode (utility)</title>
<path fill="none" stroke="black" d="M117.19,-72.76C130.6,-63.38 147.66,-51.44 162.3,-41.19"/>
<polygon fill="black" stroke="black" points="164.4,-43.99 170.59,-35.39 160.39,-38.26 164.4,-43.99"/>
</g>
<!-- amask2epi (fixes)&#45;&gt;epi_umask (brainmask) -->
<g id="edge23" class="edge">
<title>amask2epi (fixes)&#45;&gt;epi_umask (brainmask)</title>
<path fill="none" stroke="black" d="M1085,-575.7C1085,-567.98 1085,-558.71 1085,-550.11"/>
<polygon fill="black" stroke="black" points="1088.5,-550.1 1085,-540.1 1081.5,-550.1 1088.5,-550.1"/>
</g>
<!-- zooms_bmask (fixes)&#45;&gt;outputnode (utility) -->
<g id="edge24" class="edge">
<title>zooms_bmask (fixes)&#45;&gt;outputnode (utility)</title>
<path fill="none" stroke="black" d="M352.12,-144.43C320.18,-119.1 259.13,-70.67 222.95,-41.96"/>
<polygon fill="black" stroke="black" points="224.76,-38.93 214.75,-35.46 220.41,-44.42 224.76,-38.93"/>
</g>
<!-- syn (fixes) -->
<g id="node21" class="node">
<title>syn (fixes)</title>
<ellipse fill="none" stroke="black" cx="400" cy="-378" rx="48.19" ry="18"/>
<text text-anchor="middle" x="400" y="-374.3" font-family="Times,serif" font-size="14.00">syn (fixes)</text>
</g>
<!-- fixed_masks (utility)&#45;&gt;syn (fixes) -->
<g id="edge25" class="edge">
<title>fixed_masks (utility)&#45;&gt;syn (fixes)</title>
<path fill="none" stroke="black" d="M294.22,-575.85C314.33,-538.43 362.25,-449.25 386.07,-404.93"/>
<polygon fill="black" stroke="black" points="389.25,-406.4 390.9,-395.94 383.08,-403.09 389.25,-406.4"/>
</g>
<!-- anat_dilmsk (brainmask)&#45;&gt;amask2epi (fixes) -->
<g id="edge26" class="edge">
<title>anat_dilmsk (brainmask)&#45;&gt;amask2epi (fixes)</title>
<path fill="none" stroke="black" d="M1055.44,-648.05C1059.92,-640.01 1065.39,-630.2 1070.39,-621.23"/>
<polygon fill="black" stroke="black" points="1073.57,-622.71 1075.38,-612.28 1067.45,-619.31 1073.57,-622.71"/>
</g>
<!-- warp_dir (utility)&#45;&gt;syn (fixes) -->
<g id="edge27" class="edge">
<title>warp_dir (utility)&#45;&gt;syn (fixes)</title>
<path fill="none" stroke="black" d="M280.98,-433.81C304.75,-422.86 336.89,-408.06 361.78,-396.6"/>
<polygon fill="black" stroke="black" points="363.31,-399.75 370.93,-392.39 360.38,-393.39 363.31,-399.75"/>
</g>
<!-- anat_merge (utility)&#45;&gt;syn (fixes) -->
<g id="edge28" class="edge">
<title>anat_merge (utility)&#45;&gt;syn (fixes)</title>
<path fill="none" stroke="black" d="M470.35,-503.87C456.46,-479.22 430.73,-433.54 414.53,-404.79"/>
<polygon fill="black" stroke="black" points="417.39,-402.74 409.44,-395.75 411.29,-406.18 417.39,-402.74"/>
</g>
<!-- lap_anat_norm (utility) -->
<g id="node22" class="node">
<title>lap_anat_norm (utility)</title>
<ellipse fill="none" stroke="black" cx="480" cy="-594" rx="92.88" ry="18"/>
<text text-anchor="middle" x="480" y="-590.3" font-family="Times,serif" font-size="14.00">lap_anat_norm (utility)</text>
</g>
<!-- lap_anat (ants)&#45;&gt;lap_anat_norm (utility) -->
<g id="edge29" class="edge">
<title>lap_anat (ants)&#45;&gt;lap_anat_norm (utility)</title>
<path fill="none" stroke="black" d="M481.51,-647.7C481.29,-639.98 481.02,-630.71 480.77,-622.11"/>
<polygon fill="black" stroke="black" points="484.27,-622 480.49,-612.1 477.28,-622.2 484.27,-622"/>
</g>
<!-- find_zooms (utility)&#45;&gt;zooms_epi (nibabel) -->
<g id="edge30" class="edge">
<title>find_zooms (utility)&#45;&gt;zooms_epi (nibabel)</title>
<path fill="none" stroke="black" d="M856.44,-648.05C860.92,-640.01 866.39,-630.2 871.39,-621.23"/>
<polygon fill="black" stroke="black" points="874.57,-622.71 876.38,-612.28 868.45,-619.31 874.57,-622.71"/>
</g>
<!-- zooms_field (fixes)&#45;&gt;zooms_bmask (fixes) -->
<g id="edge31" class="edge">
<title>zooms_field (fixes)&#45;&gt;zooms_bmask (fixes)</title>
<path fill="none" stroke="black" d="M237.9,-217.98C263.59,-207.53 298.08,-193.49 325.78,-182.22"/>
<polygon fill="black" stroke="black" points="327.33,-185.37 335.27,-178.35 324.69,-178.88 327.33,-185.37"/>
</g>
<!-- bs_filter (bspline) -->
<g id="node23" class="node">
<title>bs_filter (bspline)</title>
<ellipse fill="none" stroke="black" cx="194" cy="-162" rx="73.39" ry="18"/>
<text text-anchor="middle" x="194" y="-158.3" font-family="Times,serif" font-size="14.00">bs_filter (bspline)</text>
</g>
<!-- zooms_field (fixes)&#45;&gt;bs_filter (bspline) -->
<g id="edge32" class="edge">
<title>zooms_field (fixes)&#45;&gt;bs_filter (bspline)</title>
<path fill="none" stroke="black" d="M199.27,-215.7C198.5,-207.98 197.57,-198.71 196.71,-190.11"/>
<polygon fill="black" stroke="black" points="200.19,-189.71 195.71,-180.1 193.22,-190.4 200.19,-189.71"/>
</g>
<!-- moving_masks (utility) -->
<g id="node24" class="node">
<title>moving_masks (utility)</title>
<ellipse fill="none" stroke="black" cx="969" cy="-450" rx="94.48" ry="18"/>
<text text-anchor="middle" x="969" y="-446.3" font-family="Times,serif" font-size="14.00">moving_masks (utility)</text>
</g>
<!-- epi_umask (brainmask)&#45;&gt;moving_masks (utility) -->
<g id="edge33" class="edge">
<title>epi_umask (brainmask)&#45;&gt;moving_masks (utility)</title>
<path fill="none" stroke="black" d="M1057.8,-504.59C1041.95,-495.02 1021.77,-482.85 1004.66,-472.52"/>
<polygon fill="black" stroke="black" points="1006.4,-469.48 996.03,-467.31 1002.78,-475.47 1006.4,-469.48"/>
</g>
<!-- extract_field (fmap)&#45;&gt;zooms_field (fixes) -->
<g id="edge34" class="edge">
<title>extract_field (fmap)&#45;&gt;zooms_field (fixes)</title>
<path fill="none" stroke="black" d="M201.75,-287.7C201.64,-279.98 201.51,-270.71 201.39,-262.11"/>
<polygon fill="black" stroke="black" points="204.89,-262.05 201.24,-252.1 197.89,-262.15 204.89,-262.05"/>
</g>
<!-- epi_merge (utility)&#45;&gt;syn (fixes) -->
<g id="edge35" class="edge">
<title>epi_merge (utility)&#45;&gt;syn (fixes)</title>
<path fill="none" stroke="black" d="M592.92,-435.5C550.72,-423.15 488.59,-404.95 446.32,-392.57"/>
<polygon fill="black" stroke="black" points="447.14,-389.16 436.56,-389.71 445.17,-395.88 447.14,-389.16"/>
</g>
<!-- lap_epi_norm (utility) -->
<g id="node25" class="node">
<title>lap_epi_norm (utility)</title>
<ellipse fill="none" stroke="black" cx="756" cy="-522" rx="89.08" ry="18"/>
<text text-anchor="middle" x="756" y="-518.3" font-family="Times,serif" font-size="14.00">lap_epi_norm (utility)</text>
</g>
<!-- lap_epi (ants)&#45;&gt;lap_epi_norm (utility) -->
<g id="edge36" class="edge">
<title>lap_epi (ants)&#45;&gt;lap_epi_norm (utility)</title>
<path fill="none" stroke="black" d="M733.26,-576.05C736.68,-568.09 740.82,-558.41 744.64,-549.51"/>
<polygon fill="black" stroke="black" points="747.87,-550.85 748.6,-540.28 741.44,-548.09 747.87,-550.85"/>
</g>
<!-- syn (fixes)&#45;&gt;extract_field (fmap) -->
<g id="edge37" class="edge">
<title>syn (fixes)&#45;&gt;extract_field (fmap)</title>
<path fill="none" stroke="black" d="M365.96,-364.97C334.83,-353.96 288.36,-337.53 252.84,-324.97"/>
<polygon fill="black" stroke="black" points="253.72,-321.57 243.13,-321.54 251.39,-328.17 253.72,-321.57"/>
</g>
<!-- lap_anat_norm (utility)&#45;&gt;anat_merge (utility) -->
<g id="edge38" class="edge">
<title>lap_anat_norm (utility)&#45;&gt;anat_merge (utility)</title>
<path fill="none" stroke="black" d="M480,-575.7C480,-567.98 480,-558.71 480,-550.11"/>
<polygon fill="black" stroke="black" points="483.5,-550.1 480,-540.1 476.5,-550.1 483.5,-550.1"/>
</g>
<!-- bs_filter (bspline)&#45;&gt;unwarp (bspline) -->
<g id="edge39" class="edge">
<title>bs_filter (bspline)&#45;&gt;unwarp (bspline)</title>
<path fill="none" stroke="black" d="M170.81,-144.76C157.3,-135.31 140.09,-123.26 125.39,-112.97"/>
<polygon fill="black" stroke="black" points="127.27,-110.01 117.07,-107.15 123.25,-115.75 127.27,-110.01"/>
</g>
<!-- bs_filter (bspline)&#45;&gt;outputnode (utility) -->
<g id="edge40" class="edge">
<title>bs_filter (bspline)&#45;&gt;outputnode (utility)</title>
<path fill="none" stroke="black" d="M194,-143.87C194,-119.67 194,-75.21 194,-46.39"/>
<polygon fill="black" stroke="black" points="197.5,-46.19 194,-36.19 190.5,-46.19 197.5,-46.19"/>
</g>
<!-- moving_masks (utility)&#45;&gt;syn (fixes) -->
<g id="edge41" class="edge">
<title>moving_masks (utility)&#45;&gt;syn (fixes)</title>
<path fill="none" stroke="black" d="M891.97,-439.52C775.44,-425.19 557.15,-398.33 455.16,-385.79"/>
<polygon fill="black" stroke="black" points="455.42,-382.29 445.07,-384.54 454.56,-389.24 455.42,-382.29"/>
</g>
<!-- lap_epi_norm (utility)&#45;&gt;epi_merge (utility) -->
<g id="edge42" class="edge">
<title>lap_epi_norm (utility)&#45;&gt;epi_merge (utility)</title>
<path fill="none" stroke="black" d="M728.86,-504.76C712.65,-495.07 691.88,-482.64 674.39,-472.17"/>
<polygon fill="black" stroke="black" points="675.96,-469.04 665.59,-466.91 672.37,-475.04 675.96,-469.04"/>
</g>
</g>
</svg>
