<?xml version="1.0" encoding="UTF-8" standalone="no"?>
<!DOCTYPE svg PUBLIC "-//W3C//DTD SVG 1.1//EN"
 "http://www.w3.org/Graphics/SVG/1.1/DTD/svg11.dtd">
<!-- Generated by graphviz version 2.46.1 (20210213.1702)
 -->
<!-- Pages: 1 -->
<svg width="167pt" height="188pt"
 viewBox="0.00 0.00 166.59 188.00" xmlns="http://www.w3.org/2000/svg" xmlns:xlink="http://www.w3.org/1999/xlink">
<g id="graph0" class="graph" transform="scale(1 1) rotate(0) translate(4 184)">
<polygon fill="white" stroke="transparent" points="-4,4 -4,-184 162.59,-184 162.59,4 -4,4"/>
<!-- inputnode (utility) -->
<g id="node1" class="node">
<title>inputnode (utility)</title>
<ellipse fill="none" stroke="black" cx="79.29" cy="-162" rx="75.29" ry="18"/>
<text text-anchor="middle" x="79.29" y="-158.3" font-family="Times,serif" font-size="14.00">inputnode (utility)</text>
</g>
<!-- coregister (fixes) -->
<g id="node2" class="node">
<title>coregister (fixes)</title>
<ellipse fill="none" stroke="black" cx="79.29" cy="-90" rx="70.39" ry="18"/>
<text text-anchor="middle" x="79.29" y="-86.3" font-family="Times,serif" font-size="14.00">coregister (fixes)</text>
</g>
<!-- inputnode (utility)&#45;&gt;coregister (fixes) -->
<g id="edge1" class="edge">
<title>inputnode (utility)&#45;&gt;coregister (fixes)</title>
<path fill="none" stroke="black" d="M79.29,-143.7C79.29,-135.98 79.29,-126.71 79.29,-118.11"/>
<polygon fill="black" stroke="black" points="82.79,-118.1 79.29,-108.1 75.79,-118.1 82.79,-118.1"/>
</g>
<!-- outputnode (utility) -->
<g id="node3" class="node">
<title>outputnode (utility)</title>
<ellipse fill="none" stroke="black" cx="79.29" cy="-18" rx="79.09" ry="18"/>
<text text-anchor="middle" x="79.29" y="-14.3" font-family="Times,serif" font-size="14.00">outputnode (utility)</text>
</g>
<!-- coregister (fixes)&#45;&gt;outputnode (utility) -->
<g id="edge2" class="edge">
<title>coregister (fixes)&#45;&gt;outputnode (utility)</title>
<path fill="none" stroke="black" d="M79.29,-71.7C79.29,-63.98 79.29,-54.71 79.29,-46.11"/>
<polygon fill="black" stroke="black" points="82.79,-46.1 79.29,-36.1 75.79,-46.1 82.79,-46.1"/>
</g>
</g>
</svg>
