<?xml version="1.0" encoding="UTF-8" standalone="no"?>
<!DOCTYPE svg PUBLIC "-//W3C//DTD SVG 1.1//EN"
 "http://www.w3.org/Graphics/SVG/1.1/DTD/svg11.dtd">
<!-- Generated by graphviz version 2.43.0 (0)
 -->
<!-- Title: %3 Pages: 1 -->
<svg width="528pt" height="620pt"
 viewBox="0.00 0.00 528.17 620.00" xmlns="http://www.w3.org/2000/svg" xmlns:xlink="http://www.w3.org/1999/xlink">
<g id="graph0" class="graph" transform="scale(1 1) rotate(0) translate(4 616)">
<title>%3</title>
<polygon fill="white" stroke="transparent" points="-4,4 -4,-616 524.17,-616 524.17,4 -4,4"/>
<!-- inputnode (utility) -->
<g id="node1" class="node">
<title>inputnode (utility)</title>
<ellipse fill="none" stroke="black" cx="158.19" cy="-594" rx="94.78" ry="18"/>
<text text-anchor="middle" x="158.19" y="-590.3" font-family="Times,serif" font-size="14.00">inputnode (utility)</text>
</g>
<!-- flatten (utils) -->
<g id="node2" class="node">
<title>flatten (utils)</title>
<ellipse fill="none" stroke="black" cx="158.19" cy="-522" rx="71.49" ry="18"/>
<text text-anchor="middle" x="158.19" y="-518.3" font-family="Times,serif" font-size="14.00">flatten (utils)</text>
</g>
<!-- inputnode (utility)&#45;&gt;flatten (utils) -->
<g id="edge1" class="edge">
<title>inputnode (utility)&#45;&gt;flatten (utils)</title>
<path fill="none" stroke="black" d="M158.19,-575.7C158.19,-567.98 158.19,-558.71 158.19,-550.11"/>
<polygon fill="black" stroke="black" points="161.69,-550.1 158.19,-540.1 154.69,-550.1 161.69,-550.1"/>
</g>
<!-- readout_time (epi) -->
<g id="node3" class="node">
<title>readout_time (epi)</title>
<ellipse fill="none" stroke="black" cx="96.19" cy="-306" rx="96.38" ry="18"/>
<text text-anchor="middle" x="96.19" y="-302.3" font-family="Times,serif" font-size="14.00">readout_time (epi)</text>
</g>
<!-- flatten (utils)&#45;&gt;readout_time (epi) -->
<g id="edge2" class="edge">
<title>flatten (utils)&#45;&gt;readout_time (epi)</title>
<path fill="none" stroke="black" d="M152.51,-503.87C149.13,-493.51 144.8,-480.03 141.19,-468 127.1,-421.05 112.02,-365.96 103.38,-333.92"/>
<polygon fill="black" stroke="black" points="106.69,-332.73 100.71,-323.98 99.93,-334.55 106.69,-332.73"/>
</g>
<!-- regrid (utils) -->
<g id="node4" class="node">
<title>regrid (utils)</title>
<ellipse fill="none" stroke="black" cx="220.19" cy="-450" rx="69.59" ry="18"/>
<text text-anchor="middle" x="220.19" y="-446.3" font-family="Times,serif" font-size="14.00">regrid (utils)</text>
</g>
<!-- flatten (utils)&#45;&gt;regrid (utils) -->
<g id="edge3" class="edge">
<title>flatten (utils)&#45;&gt;regrid (utils)</title>
<path fill="none" stroke="black" d="M173.2,-504.05C180.82,-495.46 190.2,-484.86 198.58,-475.4"/>
<polygon fill="black" stroke="black" points="201.31,-477.6 205.32,-467.79 196.07,-472.95 201.31,-477.6"/>
</g>
<!-- topup (fsl) -->
<g id="node5" class="node">
<title>topup (fsl)</title>
<ellipse fill="none" stroke="black" cx="397.19" cy="-234" rx="58.49" ry="18"/>
<text text-anchor="middle" x="397.19" y="-230.3" font-family="Times,serif" font-size="14.00">topup (fsl)</text>
</g>
<!-- readout_time (epi)&#45;&gt;topup (fsl) -->
<g id="edge4" class="edge">
<title>readout_time (epi)&#45;&gt;topup (fsl)</title>
<path fill="none" stroke="black" d="M156.41,-291.81C203.73,-281.33 271.26,-266.15 330.19,-252 334.76,-250.9 339.51,-249.74 344.26,-248.56"/>
<polygon fill="black" stroke="black" points="345.13,-251.96 353.98,-246.14 343.43,-245.16 345.13,-251.96"/>
</g>
<!-- fix_coeff (bspline) -->
<g id="node6" class="node">
<title>fix_coeff (bspline)</title>
<ellipse fill="none" stroke="black" cx="179.19" cy="-162" rx="91.78" ry="18"/>
<text text-anchor="middle" x="179.19" y="-158.3" font-family="Times,serif" font-size="14.00">fix_coeff (bspline)</text>
</g>
<!-- readout_time (epi)&#45;&gt;fix_coeff (bspline) -->
<g id="edge5" class="edge">
<title>readout_time (epi)&#45;&gt;fix_coeff (bspline)</title>
<path fill="none" stroke="black" d="M92.61,-287.69C89.63,-268.79 87.68,-238.24 100.19,-216 107.69,-202.67 120.11,-192.04 132.9,-183.91"/>
<polygon fill="black" stroke="black" points="134.93,-186.78 141.76,-178.68 131.37,-180.75 134.93,-186.78"/>
</g>
<!-- concat_blips (nibabel) -->
<g id="node7" class="node">
<title>concat_blips (nibabel)</title>
<ellipse fill="none" stroke="black" cx="370.19" cy="-378" rx="111.58" ry="18"/>
<text text-anchor="middle" x="370.19" y="-374.3" font-family="Times,serif" font-size="14.00">concat_blips (nibabel)</text>
</g>
<!-- regrid (utils)&#45;&gt;concat_blips (nibabel) -->
<g id="edge6" class="edge">
<title>regrid (utils)&#45;&gt;concat_blips (nibabel)</title>
<path fill="none" stroke="black" d="M252.37,-433.98C273.95,-423.91 302.65,-410.52 326.32,-399.47"/>
<polygon fill="black" stroke="black" points="327.87,-402.61 335.45,-395.21 324.91,-396.27 327.87,-402.61"/>
</g>
<!-- pad_ref_slices (utils) -->
<g id="node8" class="node">
<title>pad_ref_slices (utils)</title>
<ellipse fill="none" stroke="black" cx="215.19" cy="-234" rx="105.88" ry="18"/>
<text text-anchor="middle" x="215.19" y="-230.3" font-family="Times,serif" font-size="14.00">pad_ref_slices (utils)</text>
</g>
<!-- regrid (utils)&#45;&gt;pad_ref_slices (utils) -->
<g id="edge7" class="edge">
<title>regrid (utils)&#45;&gt;pad_ref_slices (utils)</title>
<path fill="none" stroke="black" d="M219.79,-431.85C218.93,-394.83 216.88,-307.18 215.83,-262.39"/>
<polygon fill="black" stroke="black" points="219.33,-262.15 215.59,-252.23 212.33,-262.31 219.33,-262.15"/>
</g>
<!-- topup (fsl)&#45;&gt;fix_coeff (bspline) -->
<g id="edge8" class="edge">
<title>topup (fsl)&#45;&gt;fix_coeff (bspline)</title>
<path fill="none" stroke="black" d="M358.22,-220.49C323.78,-209.43 273.18,-193.18 234.55,-180.77"/>
<polygon fill="black" stroke="black" points="235.59,-177.43 225,-177.71 233.45,-184.1 235.59,-177.43"/>
</g>
<!-- outputnode (utility) -->
<g id="node10" class="node">
<title>outputnode (utility)</title>
<ellipse fill="none" stroke="black" cx="397.19" cy="-18" rx="101.28" ry="18"/>
<text text-anchor="middle" x="397.19" y="-14.3" font-family="Times,serif" font-size="14.00">outputnode (utility)</text>
</g>
<!-- topup (fsl)&#45;&gt;outputnode (utility) -->
<g id="edge9" class="edge">
<title>topup (fsl)&#45;&gt;outputnode (utility)</title>
<path fill="none" stroke="black" d="M446.28,-224.08C471.45,-216.76 499.94,-203.57 515.19,-180 527.77,-160.56 512.56,-83.45 504.19,-72 492.99,-56.68 476.12,-45.54 459.06,-37.55"/>
<polygon fill="black" stroke="black" points="460.17,-34.21 449.6,-33.42 457.37,-40.63 460.17,-34.21"/>
</g>
<!-- ref_average (images) -->
<g id="node11" class="node">
<title>ref_average (images)</title>
<ellipse fill="none" stroke="black" cx="397.19" cy="-162" rx="108.58" ry="18"/>
<text text-anchor="middle" x="397.19" y="-158.3" font-family="Times,serif" font-size="14.00">ref_average (images)</text>
</g>
<!-- topup (fsl)&#45;&gt;ref_average (images) -->
<g id="edge10" class="edge">
<title>topup (fsl)&#45;&gt;ref_average (images)</title>
<path fill="none" stroke="black" d="M397.19,-215.7C397.19,-207.98 397.19,-198.71 397.19,-190.11"/>
<polygon fill="black" stroke="black" points="400.69,-190.1 397.19,-180.1 393.69,-190.1 400.69,-190.1"/>
</g>
<!-- fix_coeff (bspline)&#45;&gt;outputnode (utility) -->
<g id="edge11" class="edge">
<title>fix_coeff (bspline)&#45;&gt;outputnode (utility)</title>
<path fill="none" stroke="black" d="M197.5,-144.25C218.78,-125.3 255.42,-94.19 290.19,-72 309.42,-59.74 331.87,-48.23 351.24,-39.09"/>
<polygon fill="black" stroke="black" points="352.88,-42.18 360.47,-34.8 349.93,-35.84 352.88,-42.18"/>
</g>
<!-- pad_blip_slices (utils) -->
<g id="node9" class="node">
<title>pad_blip_slices (utils)</title>
<ellipse fill="none" stroke="black" cx="391.19" cy="-306" rx="110.48" ry="18"/>
<text text-anchor="middle" x="391.19" y="-302.3" font-family="Times,serif" font-size="14.00">pad_blip_slices (utils)</text>
</g>
<!-- concat_blips (nibabel)&#45;&gt;pad_blip_slices (utils) -->
<g id="edge12" class="edge">
<title>concat_blips (nibabel)&#45;&gt;pad_blip_slices (utils)</title>
<path fill="none" stroke="black" d="M375.38,-359.7C377.72,-351.9 380.54,-342.51 383.14,-333.83"/>
<polygon fill="black" stroke="black" points="386.54,-334.69 386.06,-324.1 379.83,-332.68 386.54,-334.69"/>
</g>
<!-- pad_ref_slices (utils)&#45;&gt;fix_coeff (bspline) -->
<g id="edge13" class="edge">
<title>pad_ref_slices (utils)&#45;&gt;fix_coeff (bspline)</title>
<path fill="none" stroke="black" d="M206.48,-216.05C202.34,-208.01 197.3,-198.2 192.68,-189.23"/>
<polygon fill="black" stroke="black" points="195.76,-187.57 188.08,-180.28 189.54,-190.77 195.76,-187.57"/>
</g>
<!-- pad_blip_slices (utils)&#45;&gt;topup (fsl) -->
<g id="edge14" class="edge">
<title>pad_blip_slices (utils)&#45;&gt;topup (fsl)</title>
<path fill="none" stroke="black" d="M392.67,-287.7C393.34,-279.98 394.13,-270.71 394.87,-262.11"/>
<polygon fill="black" stroke="black" points="398.36,-262.37 395.73,-252.1 391.38,-261.77 398.36,-262.37"/>
</g>
<!-- brainextraction_wf -->
<g id="node12" class="node">
<title>brainextraction_wf</title>
<ellipse fill="none" stroke="black" cx="397.19" cy="-90" rx="98.28" ry="18"/>
<text text-anchor="middle" x="397.19" y="-86.3" font-family="Times,serif" font-size="14.00">brainextraction_wf</text>
</g>
<!-- ref_average (images)&#45;&gt;brainextraction_wf -->
<g id="edge15" class="edge">
<title>ref_average (images)&#45;&gt;brainextraction_wf</title>
<path fill="none" stroke="black" d="M397.19,-143.7C397.19,-135.98 397.19,-126.71 397.19,-118.11"/>
<polygon fill="black" stroke="black" points="400.69,-118.1 397.19,-108.1 393.69,-118.1 400.69,-118.1"/>
</g>
<!-- brainextraction_wf&#45;&gt;outputnode (utility) -->
<g id="edge16" class="edge">
<title>brainextraction_wf&#45;&gt;outputnode (utility)</title>
<path fill="none" stroke="black" d="M397.19,-71.7C397.19,-63.98 397.19,-54.71 397.19,-46.11"/>
<polygon fill="black" stroke="black" points="400.69,-46.1 397.19,-36.1 393.69,-46.1 400.69,-46.1"/>
</g>
</g>
</svg>
