<?xml version="1.0" encoding="UTF-8" standalone="no"?>
<!DOCTYPE svg PUBLIC "-//W3C//DTD SVG 1.1//EN"
 "http://www.w3.org/Graphics/SVG/1.1/DTD/svg11.dtd">
<!-- Generated by graphviz version 2.46.1 (20210213.1702)
 -->
<!-- Pages: 1 -->
<svg width="238pt" height="476pt"
 viewBox="0.00 0.00 238.35 476.00" xmlns="http://www.w3.org/2000/svg" xmlns:xlink="http://www.w3.org/1999/xlink">
<g id="graph0" class="graph" transform="scale(1 1) rotate(0) translate(4 472)">
<polygon fill="white" stroke="transparent" points="-4,4 -4,-472 234.35,-472 234.35,4 -4,4"/>
<!-- inputnode (utility) -->
<g id="node1" class="node">
<title>inputnode (utility)</title>
<ellipse fill="none" stroke="black" cx="153.66" cy="-450" rx="75.29" ry="18"/>
<text text-anchor="middle" x="153.66" y="-446.3" font-family="Times,serif" font-size="14.00">inputnode (utility)</text>
</g>
<!-- rotime (epi) -->
<g id="node2" class="node">
<title>rotime (epi)</title>
<ellipse fill="none" stroke="black" cx="113.66" cy="-378" rx="53.09" ry="18"/>
<text text-anchor="middle" x="113.66" y="-374.3" font-family="Times,serif" font-size="14.00">rotime (epi)</text>
</g>
<!-- inputnode (utility)&#45;&gt;rotime (epi) -->
<g id="edge1" class="edge">
<title>inputnode (utility)&#45;&gt;rotime (epi)</title>
<path fill="none" stroke="black" d="M143.97,-432.05C139.26,-423.8 133.48,-413.7 128.25,-404.54"/>
<polygon fill="black" stroke="black" points="131.25,-402.73 123.25,-395.79 125.17,-406.21 131.25,-402.73"/>
</g>
<!-- resample (bspline) -->
<g id="node3" class="node">
<title>resample (bspline)</title>
<ellipse fill="none" stroke="black" cx="153.66" cy="-306" rx="76.89" ry="18"/>
<text text-anchor="middle" x="153.66" y="-302.3" font-family="Times,serif" font-size="14.00">resample (bspline)</text>
</g>
<!-- inputnode (utility)&#45;&gt;resample (bspline) -->
<g id="edge2" class="edge">
<title>inputnode (utility)&#45;&gt;resample (bspline)</title>
<path fill="none" stroke="black" d="M162.79,-431.88C167.66,-421.76 173.16,-408.51 175.66,-396 178.78,-380.31 178.78,-375.69 175.66,-360 173.86,-351.01 170.52,-341.64 166.97,-333.32"/>
<polygon fill="black" stroke="black" points="170.11,-331.77 162.79,-324.12 163.74,-334.67 170.11,-331.77"/>
</g>
<!-- rotime (epi)&#45;&gt;resample (bspline) -->
<g id="edge3" class="edge">
<title>rotime (epi)&#45;&gt;resample (bspline)</title>
<path fill="none" stroke="black" d="M123.34,-360.05C127.94,-352.01 133.54,-342.2 138.67,-333.23"/>
<polygon fill="black" stroke="black" points="141.86,-334.69 143.78,-324.28 135.78,-331.22 141.86,-334.69"/>
</g>
<!-- merge (nibabel) -->
<g id="node4" class="node">
<title>merge (nibabel)</title>
<ellipse fill="none" stroke="black" cx="101.66" cy="-234" rx="67.69" ry="18"/>
<text text-anchor="middle" x="101.66" y="-230.3" font-family="Times,serif" font-size="14.00">merge (nibabel)</text>
</g>
<!-- resample (bspline)&#45;&gt;merge (nibabel) -->
<g id="edge4" class="edge">
<title>resample (bspline)&#45;&gt;merge (nibabel)</title>
<path fill="none" stroke="black" d="M141.07,-288.05C134.81,-279.63 127.12,-269.28 120.2,-259.97"/>
<polygon fill="black" stroke="black" points="122.9,-257.73 114.13,-251.79 117.28,-261.9 122.9,-257.73"/>
</g>
<!-- outputnode (utility) -->
<g id="node5" class="node">
<title>outputnode (utility)</title>
<ellipse fill="none" stroke="black" cx="101.66" cy="-18" rx="79.09" ry="18"/>
<text text-anchor="middle" x="101.66" y="-14.3" font-family="Times,serif" font-size="14.00">outputnode (utility)</text>
</g>
<!-- resample (bspline)&#45;&gt;outputnode (utility) -->
<g id="edge5" class="edge">
<title>resample (bspline)&#45;&gt;outputnode (utility)</title>
<path fill="none" stroke="black" d="M162.93,-287.9C183.47,-247.49 227.91,-144.1 187.66,-72 179.51,-57.42 165.53,-46.35 151.17,-38.2"/>
<polygon fill="black" stroke="black" points="152.71,-35.06 142.24,-33.5 149.45,-41.25 152.71,-35.06"/>
</g>
<!-- merge (nibabel)&#45;&gt;outputnode (utility) -->
<g id="edge7" class="edge">
<title>merge (nibabel)&#45;&gt;outputnode (utility)</title>
<path fill="none" stroke="black" d="M66.53,-218.59C50.05,-209.93 31.84,-197.2 21.66,-180 -2.83,-138.63 -7.78,-113.97 15.66,-72 23.8,-57.42 37.78,-46.35 52.14,-38.2"/>
<polygon fill="black" stroke="black" points="53.86,-41.25 61.08,-33.5 50.6,-35.06 53.86,-41.25"/>
</g>
<!-- average (images) -->
<g id="node6" class="node">
<title>average (images)</title>
<ellipse fill="none" stroke="black" cx="101.66" cy="-162" rx="71.49" ry="18"/>
<text text-anchor="middle" x="101.66" y="-158.3" font-family="Times,serif" font-size="14.00">average (images)</text>
</g>
<!-- merge (nibabel)&#45;&gt;average (images) -->
<g id="edge6" class="edge">
<title>merge (nibabel)&#45;&gt;average (images)</title>
<path fill="none" stroke="black" d="M101.66,-215.7C101.66,-207.98 101.66,-198.71 101.66,-190.11"/>
<polygon fill="black" stroke="black" points="105.16,-190.1 101.66,-180.1 98.16,-190.1 105.16,-190.1"/>
</g>
<!-- brainextraction_wf -->
<g id="node7" class="node">
<title>brainextraction_wf</title>
<ellipse fill="none" stroke="black" cx="101.66" cy="-90" rx="77.19" ry="18"/>
<text text-anchor="middle" x="101.66" y="-86.3" font-family="Times,serif" font-size="14.00">brainextraction_wf</text>
</g>
<!-- average (images)&#45;&gt;brainextraction_wf -->
<g id="edge8" class="edge">
<title>average (images)&#45;&gt;brainextraction_wf</title>
<path fill="none" stroke="black" d="M101.66,-143.7C101.66,-135.98 101.66,-126.71 101.66,-118.11"/>
<polygon fill="black" stroke="black" points="105.16,-118.1 101.66,-108.1 98.16,-118.1 105.16,-118.1"/>
</g>
<!-- brainextraction_wf&#45;&gt;outputnode (utility) -->
<g id="edge9" class="edge">
<title>brainextraction_wf&#45;&gt;outputnode (utility)</title>
<path fill="none" stroke="black" d="M101.66,-71.7C101.66,-63.98 101.66,-54.71 101.66,-46.11"/>
<polygon fill="black" stroke="black" points="105.16,-46.1 101.66,-36.1 98.16,-46.1 105.16,-46.1"/>
</g>
</g>
</svg>
