<?xml version="1.0" encoding="UTF-8" standalone="no"?>
<!DOCTYPE svg PUBLIC "-//W3C//DTD SVG 1.1//EN"
 "http://www.w3.org/Graphics/SVG/1.1/DTD/svg11.dtd">
<!-- Generated by graphviz version 2.43.0 (0)
 -->
<!-- Title: %3 Pages: 1 -->
<svg width="698pt" height="260pt"
 viewBox="0.00 0.00 698.16 260.00" xmlns="http://www.w3.org/2000/svg" xmlns:xlink="http://www.w3.org/1999/xlink">
<g id="graph0" class="graph" transform="scale(1 1) rotate(0) translate(4 256)">
<title>%3</title>
<polygon fill="white" stroke="transparent" points="-4,4 -4,-256 694.16,-256 694.16,4 -4,4"/>
<!-- inputnode (utility) -->
<g id="node1" class="node">
<title>inputnode (utility)</title>
<ellipse fill="none" stroke="black" cx="357.39" cy="-234" rx="94.78" ry="18"/>
<text text-anchor="middle" x="357.39" y="-230.3" font-family="Times,serif" font-size="14.00">inputnode (utility)</text>
</g>
<!-- outputnode (utility) -->
<g id="node2" class="node">
<title>outputnode (utility)</title>
<ellipse fill="none" stroke="black" cx="101.39" cy="-18" rx="101.28" ry="18"/>
<text text-anchor="middle" x="101.39" y="-14.3" font-family="Times,serif" font-size="14.00">outputnode (utility)</text>
</g>
<!-- inputnode (utility)&#45;&gt;outputnode (utility) -->
<g id="edge1" class="edge">
<title>inputnode (utility)&#45;&gt;outputnode (utility)</title>
<path fill="none" stroke="black" d="M263.51,-230.98C177.15,-226.9 58.12,-214.9 28.39,-180 -7.13,-138.3 42.37,-76.47 75.6,-42.87"/>
<polygon fill="black" stroke="black" points="78.16,-45.26 82.82,-35.75 73.24,-40.28 78.16,-45.26"/>
</g>
<!-- dilate_target_mask (brainmask) -->
<g id="node3" class="node">
<title>dilate_target_mask (brainmask)</title>
<ellipse fill="none" stroke="black" cx="194.39" cy="-162" rx="157.07" ry="18"/>
<text text-anchor="middle" x="194.39" y="-158.3" font-family="Times,serif" font-size="14.00">dilate_target_mask (brainmask)</text>
</g>
<!-- inputnode (utility)&#45;&gt;dilate_target_mask (brainmask) -->
<g id="edge2" class="edge">
<title>inputnode (utility)&#45;&gt;dilate_target_mask (brainmask)</title>
<path fill="none" stroke="black" d="M320.81,-217.29C297.59,-207.32 267.29,-194.31 242.18,-183.52"/>
<polygon fill="black" stroke="black" points="243.4,-180.24 232.84,-179.51 240.64,-186.67 243.4,-180.24"/>
</g>
<!-- dilate_fmap_mask (brainmask) -->
<g id="node4" class="node">
<title>dilate_fmap_mask (brainmask)</title>
<ellipse fill="none" stroke="black" cx="521.39" cy="-162" rx="152.17" ry="18"/>
<text text-anchor="middle" x="521.39" y="-158.3" font-family="Times,serif" font-size="14.00">dilate_fmap_mask (brainmask)</text>
</g>
<!-- inputnode (utility)&#45;&gt;dilate_fmap_mask (brainmask) -->
<g id="edge3" class="edge">
<title>inputnode (utility)&#45;&gt;dilate_fmap_mask (brainmask)</title>
<path fill="none" stroke="black" d="M394.2,-217.29C417.56,-207.32 448.04,-194.31 473.31,-183.52"/>
<polygon fill="black" stroke="black" points="474.89,-186.65 482.71,-179.51 472.14,-180.22 474.89,-186.65"/>
</g>
<!-- coregister (fixes) -->
<g id="node5" class="node">
<title>coregister (fixes)</title>
<ellipse fill="none" stroke="black" cx="357.39" cy="-90" rx="89.08" ry="18"/>
<text text-anchor="middle" x="357.39" y="-86.3" font-family="Times,serif" font-size="14.00">coregister (fixes)</text>
</g>
<!-- inputnode (utility)&#45;&gt;coregister (fixes) -->
<g id="edge4" class="edge">
<title>inputnode (utility)&#45;&gt;coregister (fixes)</title>
<path fill="none" stroke="black" d="M450.95,-230.77C536.2,-226.53 653.14,-214.41 682.39,-180 692.75,-167.81 692.75,-156.19 682.39,-144 653.66,-110.2 540.33,-97.9 455.52,-93.46"/>
<polygon fill="black" stroke="black" points="455.49,-89.95 445.33,-92.96 455.15,-96.95 455.49,-89.95"/>
</g>
<!-- dilate_target_mask (brainmask)&#45;&gt;coregister (fixes) -->
<g id="edge5" class="edge">
<title>dilate_target_mask (brainmask)&#45;&gt;coregister (fixes)</title>
<path fill="none" stroke="black" d="M233.02,-144.41C256.73,-134.23 287.2,-121.14 312.05,-110.47"/>
<polygon fill="black" stroke="black" points="313.47,-113.67 321.27,-106.51 310.7,-107.24 313.47,-113.67"/>
</g>
<!-- dilate_fmap_mask (brainmask)&#45;&gt;coregister (fixes) -->
<g id="edge6" class="edge">
<title>dilate_fmap_mask (brainmask)&#45;&gt;coregister (fixes)</title>
<path fill="none" stroke="black" d="M482.53,-144.41C458.67,-134.23 428.01,-121.14 403.01,-110.47"/>
<polygon fill="black" stroke="black" points="404.3,-107.22 393.73,-106.51 401.55,-113.66 404.3,-107.22"/>
</g>
<!-- coregister (fixes)&#45;&gt;outputnode (utility) -->
<g id="edge7" class="edge">
<title>coregister (fixes)&#45;&gt;outputnode (utility)</title>
<path fill="none" stroke="black" d="M306.81,-75.17C265.77,-63.95 207.7,-48.07 163.77,-36.06"/>
<polygon fill="black" stroke="black" points="164.63,-32.66 154.06,-33.4 162.79,-39.42 164.63,-32.66"/>
</g>
</g>
</svg>
