<?xml version="1.0" encoding="UTF-8" standalone="no"?>
<!DOCTYPE svg PUBLIC "-//W3C//DTD SVG 1.1//EN"
 "http://www.w3.org/Graphics/SVG/1.1/DTD/svg11.dtd">
<!-- Generated by graphviz version 2.46.1 (20210213.1702)
 -->
<!-- Pages: 1 -->
<svg width="380pt" height="764pt"
 viewBox="0.00 0.00 380.05 764.00" xmlns="http://www.w3.org/2000/svg" xmlns:xlink="http://www.w3.org/1999/xlink">
<g id="graph0" class="graph" transform="scale(1 1) rotate(0) translate(4 760)">
<polygon fill="white" stroke="transparent" points="-4,4 -4,-760 376.05,-760 376.05,4 -4,4"/>
<!-- inputnode (utility) -->
<g id="node1" class="node">
<title>inputnode (utility)</title>
<ellipse fill="none" stroke="black" cx="235.25" cy="-738" rx="75.29" ry="18"/>
<text text-anchor="middle" x="235.25" y="-734.3" font-family="Times,serif" font-size="14.00">inputnode (utility)</text>
</g>
<!-- flatten (utils) -->
<g id="node2" class="node">
<title>flatten (utils)</title>
<ellipse fill="none" stroke="black" cx="133.25" cy="-666" rx="55.79" ry="18"/>
<text text-anchor="middle" x="133.25" y="-662.3" font-family="Times,serif" font-size="14.00">flatten (utils)</text>
</g>
<!-- inputnode (utility)&#45;&gt;flatten (utils) -->
<g id="edge1" class="edge">
<title>inputnode (utility)&#45;&gt;flatten (utils)</title>
<path fill="none" stroke="black" d="M211.6,-720.76C197.63,-711.18 179.77,-698.92 164.63,-688.53"/>
<polygon fill="black" stroke="black" points="166.31,-685.44 156.08,-682.67 162.35,-691.21 166.31,-685.44"/>
</g>
<!-- cphdr_warp (header) -->
<g id="node3" class="node">
<title>cphdr_warp (header)</title>
<ellipse fill="none" stroke="black" cx="153.25" cy="-234" rx="84.49" ry="18"/>
<text text-anchor="middle" x="153.25" y="-230.3" font-family="Times,serif" font-size="14.00">cphdr_warp (header)</text>
</g>
<!-- inputnode (utility)&#45;&gt;cphdr_warp (header) -->
<g id="edge2" class="edge">
<title>inputnode (utility)&#45;&gt;cphdr_warp (header)</title>
<path fill="none" stroke="black" d="M235.25,-719.95C235.25,-693.29 235.25,-640.11 235.25,-595 235.25,-595 235.25,-595 235.25,-377 235.25,-330.62 202.04,-285.76 177.89,-259.27"/>
<polygon fill="black" stroke="black" points="180.44,-256.88 171.05,-251.98 175.34,-261.67 180.44,-256.88"/>
</g>
<!-- unwarp_reference (fixes) -->
<g id="node4" class="node">
<title>unwarp_reference (fixes)</title>
<ellipse fill="none" stroke="black" cx="273.25" cy="-90" rx="98.58" ry="18"/>
<text text-anchor="middle" x="273.25" y="-86.3" font-family="Times,serif" font-size="14.00">unwarp_reference (fixes)</text>
</g>
<!-- inputnode (utility)&#45;&gt;unwarp_reference (fixes) -->
<g id="edge3" class="edge">
<title>inputnode (utility)&#45;&gt;unwarp_reference (fixes)</title>
<path fill="none" stroke="black" d="M242.94,-719.91C254.05,-693.62 273.25,-641.45 273.25,-595 273.25,-595 273.25,-595 273.25,-233 273.25,-193 273.25,-146.65 273.25,-118.08"/>
<polygon fill="black" stroke="black" points="276.75,-118.05 273.25,-108.05 269.75,-118.05 276.75,-118.05"/>
</g>
<!-- sort_pe (utility) -->
<g id="node5" class="node">
<title>sort_pe (utility)</title>
<ellipse fill="none" stroke="black" cx="115.25" cy="-594" rx="65.79" ry="18"/>
<text text-anchor="middle" x="115.25" y="-590.3" font-family="Times,serif" font-size="14.00">sort_pe (utility)</text>
</g>
<!-- flatten (utils)&#45;&gt;sort_pe (utility) -->
<g id="edge4" class="edge">
<title>flatten (utils)&#45;&gt;sort_pe (utility)</title>
<path fill="none" stroke="black" d="M128.81,-647.7C126.8,-639.9 124.39,-630.51 122.15,-621.83"/>
<polygon fill="black" stroke="black" points="125.53,-620.92 119.65,-612.1 118.75,-622.66 125.53,-620.92"/>
</g>
<!-- to_ants (utils) -->
<g id="node11" class="node">
<title>to_ants (utils)</title>
<ellipse fill="none" stroke="black" cx="153.25" cy="-162" rx="59.59" ry="18"/>
<text text-anchor="middle" x="153.25" y="-158.3" font-family="Times,serif" font-size="14.00">to_ants (utils)</text>
</g>
<!-- cphdr_warp (header)&#45;&gt;to_ants (utils) -->
<g id="edge5" class="edge">
<title>cphdr_warp (header)&#45;&gt;to_ants (utils)</title>
<path fill="none" stroke="black" d="M153.25,-215.7C153.25,-207.98 153.25,-198.71 153.25,-190.11"/>
<polygon fill="black" stroke="black" points="156.75,-190.1 153.25,-180.1 149.75,-190.1 156.75,-190.1"/>
</g>
<!-- outputnode (utility) -->
<g id="node12" class="node">
<title>outputnode (utility)</title>
<ellipse fill="none" stroke="black" cx="209.25" cy="-18" rx="79.09" ry="18"/>
<text text-anchor="middle" x="209.25" y="-14.3" font-family="Times,serif" font-size="14.00">outputnode (utility)</text>
</g>
<!-- unwarp_reference (fixes)&#45;&gt;outputnode (utility) -->
<g id="edge6" class="edge">
<title>unwarp_reference (fixes)&#45;&gt;outputnode (utility)</title>
<path fill="none" stroke="black" d="M257.76,-72.05C249.9,-63.46 240.21,-52.86 231.56,-43.4"/>
<polygon fill="black" stroke="black" points="233.94,-40.81 224.6,-35.79 228.77,-45.53 233.94,-40.81"/>
</g>
<!-- qwarp (afni) -->
<g id="node6" class="node">
<title>qwarp (afni)</title>
<ellipse fill="none" stroke="black" cx="88.25" cy="-306" rx="54.69" ry="18"/>
<text text-anchor="middle" x="88.25" y="-302.3" font-family="Times,serif" font-size="14.00">qwarp (afni)</text>
</g>
<!-- sort_pe (utility)&#45;&gt;qwarp (afni) -->
<g id="edge7" class="edge">
<title>sort_pe (utility)&#45;&gt;qwarp (afni)</title>
<path fill="none" stroke="black" d="M69.65,-580.93C48.94,-572.93 26.4,-560.08 14.25,-540 -27.52,-470.9 33.66,-375.83 67.85,-331.55"/>
<polygon fill="black" stroke="black" points="70.64,-333.66 74.08,-323.64 65.14,-329.32 70.64,-333.66"/>
</g>
<!-- merge_pes (freesurfer) -->
<g id="node7" class="node">
<title>merge_pes (freesurfer)</title>
<ellipse fill="none" stroke="black" cx="115.25" cy="-522" rx="91.78" ry="18"/>
<text text-anchor="middle" x="115.25" y="-518.3" font-family="Times,serif" font-size="14.00">merge_pes (freesurfer)</text>
</g>
<!-- sort_pe (utility)&#45;&gt;merge_pes (freesurfer) -->
<g id="edge8" class="edge">
<title>sort_pe (utility)&#45;&gt;merge_pes (freesurfer)</title>
<path fill="none" stroke="black" d="M115.25,-575.7C115.25,-567.98 115.25,-558.71 115.25,-550.11"/>
<polygon fill="black" stroke="black" points="118.75,-550.1 115.25,-540.1 111.75,-550.1 118.75,-550.1"/>
</g>
<!-- qwarp (afni)&#45;&gt;cphdr_warp (header) -->
<g id="edge9" class="edge">
<title>qwarp (afni)&#45;&gt;cphdr_warp (header)</title>
<path fill="none" stroke="black" d="M103.66,-288.41C111.72,-279.73 121.73,-268.95 130.65,-259.34"/>
<polygon fill="black" stroke="black" points="133.27,-261.67 137.51,-251.96 128.14,-256.9 133.27,-261.67"/>
</g>
<!-- pe0_wf -->
<g id="node8" class="node">
<title>pe0_wf</title>
<ellipse fill="none" stroke="black" cx="60.25" cy="-450" rx="37.09" ry="18"/>
<text text-anchor="middle" x="60.25" y="-446.3" font-family="Times,serif" font-size="14.00">pe0_wf</text>
</g>
<!-- merge_pes (freesurfer)&#45;&gt;pe0_wf -->
<g id="edge10" class="edge">
<title>merge_pes (freesurfer)&#45;&gt;pe0_wf</title>
<path fill="none" stroke="black" d="M101.94,-504.05C95.15,-495.42 86.78,-484.76 79.32,-475.27"/>
<polygon fill="black" stroke="black" points="82,-473.01 73.07,-467.31 76.49,-477.33 82,-473.01"/>
</g>
<!-- pe1_wf -->
<g id="node9" class="node">
<title>pe1_wf</title>
<ellipse fill="none" stroke="black" cx="152.25" cy="-450" rx="37.09" ry="18"/>
<text text-anchor="middle" x="152.25" y="-446.3" font-family="Times,serif" font-size="14.00">pe1_wf</text>
</g>
<!-- merge_pes (freesurfer)&#45;&gt;pe1_wf -->
<g id="edge11" class="edge">
<title>merge_pes (freesurfer)&#45;&gt;pe1_wf</title>
<path fill="none" stroke="black" d="M124.21,-504.05C128.53,-495.89 133.8,-485.91 138.6,-476.82"/>
<polygon fill="black" stroke="black" points="141.8,-478.27 143.38,-467.79 135.61,-474.99 141.8,-478.27"/>
</g>
<!-- pe0_wf&#45;&gt;qwarp (afni) -->
<g id="edge13" class="edge">
<title>pe0_wf&#45;&gt;qwarp (afni)</title>
<path fill="none" stroke="black" d="M57.11,-431.94C54.4,-413.78 51.84,-384.36 58.25,-360 60.79,-350.39 65.5,-340.69 70.46,-332.26"/>
<polygon fill="black" stroke="black" points="73.49,-334.02 75.84,-323.68 67.56,-330.3 73.49,-334.02"/>
</g>
<!-- align_pes (fixes) -->
<g id="node10" class="node">
<title>align_pes (fixes)</title>
<ellipse fill="none" stroke="black" cx="137.25" cy="-378" rx="69.59" ry="18"/>
<text text-anchor="middle" x="137.25" y="-374.3" font-family="Times,serif" font-size="14.00">align_pes (fixes)</text>
</g>
<!-- pe0_wf&#45;&gt;align_pes (fixes) -->
<g id="edge12" class="edge">
<title>pe0_wf&#45;&gt;align_pes (fixes)</title>
<path fill="none" stroke="black" d="M76.96,-433.81C87.03,-424.66 100.05,-412.82 111.42,-402.49"/>
<polygon fill="black" stroke="black" points="113.92,-404.94 118.96,-395.63 109.21,-399.76 113.92,-404.94"/>
</g>
<!-- pe1_wf&#45;&gt;align_pes (fixes) -->
<g id="edge14" class="edge">
<title>pe1_wf&#45;&gt;align_pes (fixes)</title>
<path fill="none" stroke="black" d="M148.62,-432.05C146.95,-424.26 144.93,-414.82 143.06,-406.08"/>
<polygon fill="black" stroke="black" points="146.47,-405.32 140.96,-396.28 139.63,-406.79 146.47,-405.32"/>
</g>
<!-- align_pes (fixes)&#45;&gt;qwarp (afni) -->
<g id="edge15" class="edge">
<title>align_pes (fixes)&#45;&gt;qwarp (afni)</title>
<path fill="none" stroke="black" d="M125.39,-360.05C119.56,-351.71 112.4,-341.49 105.93,-332.25"/>
<polygon fill="black" stroke="black" points="108.61,-329.97 100.01,-323.79 102.87,-333.99 108.61,-329.97"/>
</g>
<!-- to_ants (utils)&#45;&gt;unwarp_reference (fixes) -->
<g id="edge16" class="edge">
<title>to_ants (utils)&#45;&gt;unwarp_reference (fixes)</title>
<path fill="none" stroke="black" d="M179.59,-145.64C196.31,-135.88 218.19,-123.12 236.59,-112.39"/>
<polygon fill="black" stroke="black" points="238.44,-115.36 245.31,-107.3 234.91,-109.32 238.44,-115.36"/>
</g>
<!-- to_ants (utils)&#45;&gt;outputnode (utility) -->
<g id="edge17" class="edge">
<title>to_ants (utils)&#45;&gt;outputnode (utility)</title>
<path fill="none" stroke="black" d="M152.81,-143.85C152.95,-125.36 154.98,-95.42 165.25,-72 169.77,-61.71 176.9,-51.83 184.11,-43.45"/>
<polygon fill="black" stroke="black" points="186.83,-45.66 190.98,-35.91 181.66,-40.95 186.83,-45.66"/>
</g>
</g>
</svg>
