<?xml version="1.0" encoding="UTF-8" standalone="no"?>
<!DOCTYPE svg PUBLIC "-//W3C//DTD SVG 1.1//EN"
 "http://www.w3.org/Graphics/SVG/1.1/DTD/svg11.dtd">
<!-- Generated by graphviz version 2.43.0 (0)
 -->
<!-- Title: %3 Pages: 1 -->
<svg width="924pt" height="620pt"
 viewBox="0.00 0.00 923.79 620.00" xmlns="http://www.w3.org/2000/svg" xmlns:xlink="http://www.w3.org/1999/xlink">
<g id="graph0" class="graph" transform="scale(1 1) rotate(0) translate(4 616)">
<title>%3</title>
<polygon fill="white" stroke="transparent" points="-4,4 -4,-616 919.79,-616 919.79,4 -4,4"/>
<!-- inputnode (utility) -->
<g id="node1" class="node">
<title>inputnode (utility)</title>
<ellipse fill="none" stroke="black" cx="522" cy="-594" rx="94.78" ry="18"/>
<text text-anchor="middle" x="522" y="-590.3" font-family="Times,serif" font-size="14.00">inputnode (utility)</text>
</g>
<!-- transform_list (utility) -->
<g id="node2" class="node">
<title>transform_list (utility)</title>
<ellipse fill="none" stroke="black" cx="383" cy="-162" rx="113.98" ry="18"/>
<text text-anchor="middle" x="383" y="-158.3" font-family="Times,serif" font-size="14.00">transform_list (utility)</text>
</g>
<!-- inputnode (utility)&#45;&gt;transform_list (utility) -->
<g id="edge1" class="edge">
<title>inputnode (utility)&#45;&gt;transform_list (utility)</title>
<path fill="none" stroke="black" d="M434.04,-587.2C285.27,-574.95 0,-539.87 0,-451 0,-451 0,-451 0,-377 0,-246.87 170.58,-195.12 284.06,-175.09"/>
<polygon fill="black" stroke="black" points="284.9,-178.49 294.17,-173.36 283.72,-171.59 284.9,-178.49"/>
</g>
<!-- epi_reference_wf -->
<g id="node3" class="node">
<title>epi_reference_wf</title>
<ellipse fill="none" stroke="black" cx="522" cy="-522" rx="89.08" ry="18"/>
<text text-anchor="middle" x="522" y="-518.3" font-family="Times,serif" font-size="14.00">epi_reference_wf</text>
</g>
<!-- inputnode (utility)&#45;&gt;epi_reference_wf -->
<g id="edge2" class="edge">
<title>inputnode (utility)&#45;&gt;epi_reference_wf</title>
<path fill="none" stroke="black" d="M522,-575.7C522,-567.98 522,-558.71 522,-550.11"/>
<polygon fill="black" stroke="black" points="525.5,-550.1 522,-540.1 518.5,-550.1 525.5,-550.1"/>
</g>
<!-- merge_output (utility) -->
<g id="node4" class="node">
<title>merge_output (utility)</title>
<ellipse fill="none" stroke="black" cx="141" cy="-378" rx="113.18" ry="18"/>
<text text-anchor="middle" x="141" y="-374.3" font-family="Times,serif" font-size="14.00">merge_output (utility)</text>
</g>
<!-- inputnode (utility)&#45;&gt;merge_output (utility) -->
<g id="edge3" class="edge">
<title>inputnode (utility)&#45;&gt;merge_output (utility)</title>
<path fill="none" stroke="black" d="M427.34,-592.14C331.42,-589.11 192.16,-578.05 156,-540 122.09,-504.32 127.6,-441.97 134.43,-406.24"/>
<polygon fill="black" stroke="black" points="137.94,-406.57 136.55,-396.06 131.09,-405.14 137.94,-406.57"/>
</g>
<!-- anat_dilmsk (brainmask) -->
<g id="node5" class="node">
<title>anat_dilmsk (brainmask)</title>
<ellipse fill="none" stroke="black" cx="290" cy="-522" rx="124.58" ry="18"/>
<text text-anchor="middle" x="290" y="-518.3" font-family="Times,serif" font-size="14.00">anat_dilmsk (brainmask)</text>
</g>
<!-- inputnode (utility)&#45;&gt;anat_dilmsk (brainmask) -->
<g id="edge4" class="edge">
<title>inputnode (utility)&#45;&gt;anat_dilmsk (brainmask)</title>
<path fill="none" stroke="black" d="M473.65,-578.41C438.17,-567.71 389.73,-553.09 351.5,-541.56"/>
<polygon fill="black" stroke="black" points="352.1,-538.08 341.51,-538.54 350.07,-544.78 352.1,-538.08"/>
</g>
<!-- mask_anat (nibabel) -->
<g id="node6" class="node">
<title>mask_anat (nibabel)</title>
<ellipse fill="none" stroke="black" cx="733" cy="-522" rx="103.98" ry="18"/>
<text text-anchor="middle" x="733" y="-518.3" font-family="Times,serif" font-size="14.00">mask_anat (nibabel)</text>
</g>
<!-- inputnode (utility)&#45;&gt;mask_anat (nibabel) -->
<g id="edge5" class="edge">
<title>inputnode (utility)&#45;&gt;mask_anat (nibabel)</title>
<path fill="none" stroke="black" d="M567.01,-578.07C599.17,-567.4 642.67,-552.97 677.07,-541.56"/>
<polygon fill="black" stroke="black" points="678.58,-544.74 686.97,-538.27 676.38,-538.1 678.58,-544.74"/>
</g>
<!-- mask2epi (fixes) -->
<g id="node7" class="node">
<title>mask2epi (fixes)</title>
<ellipse fill="none" stroke="black" cx="822" cy="-162" rx="86.38" ry="18"/>
<text text-anchor="middle" x="822" y="-158.3" font-family="Times,serif" font-size="14.00">mask2epi (fixes)</text>
</g>
<!-- inputnode (utility)&#45;&gt;mask2epi (fixes) -->
<g id="edge6" class="edge">
<title>inputnode (utility)&#45;&gt;mask2epi (fixes)</title>
<path fill="none" stroke="black" d="M612.6,-588.4C701.39,-582.28 829.02,-568.7 869,-540 905.17,-514.03 915,-495.53 915,-451 915,-451 915,-451 915,-305 915,-264.55 918.16,-249.84 896,-216 887.63,-203.22 875.03,-192.53 862.58,-184.18"/>
<polygon fill="black" stroke="black" points="864.37,-181.17 854.04,-178.77 860.62,-187.08 864.37,-181.17"/>
</g>
<!-- sampling_ref (nibabel) -->
<g id="node8" class="node">
<title>sampling_ref (nibabel)</title>
<ellipse fill="none" stroke="black" cx="773" cy="-234" rx="114.28" ry="18"/>
<text text-anchor="middle" x="773" y="-230.3" font-family="Times,serif" font-size="14.00">sampling_ref (nibabel)</text>
</g>
<!-- inputnode (utility)&#45;&gt;sampling_ref (nibabel) -->
<g id="edge7" class="edge">
<title>inputnode (utility)&#45;&gt;sampling_ref (nibabel)</title>
<path fill="none" stroke="black" d="M613.76,-589.3C697.62,-583.97 813.4,-571.06 846,-540 875.28,-512.1 865,-491.45 865,-451 865,-451 865,-451 865,-377 865,-329.21 827.84,-284.81 800.75,-258.79"/>
<polygon fill="black" stroke="black" points="803.12,-256.21 793.42,-251.95 798.34,-261.33 803.12,-256.21"/>
</g>
<!-- prior2epi (fixes) -->
<g id="node9" class="node">
<title>prior2epi (fixes)</title>
<ellipse fill="none" stroke="black" cx="504" cy="-90" rx="85.29" ry="18"/>
<text text-anchor="middle" x="504" y="-86.3" font-family="Times,serif" font-size="14.00">prior2epi (fixes)</text>
</g>
<!-- transform_list (utility)&#45;&gt;prior2epi (fixes) -->
<g id="edge8" class="edge">
<title>transform_list (utility)&#45;&gt;prior2epi (fixes)</title>
<path fill="none" stroke="black" d="M411.68,-144.41C428.22,-134.84 449.2,-122.7 466.98,-112.42"/>
<polygon fill="black" stroke="black" points="469.04,-115.27 475.95,-107.23 465.54,-109.21 469.04,-115.27"/>
</g>
<!-- deob_epi (utils) -->
<g id="node10" class="node">
<title>deob_epi (utils)</title>
<ellipse fill="none" stroke="black" cx="522" cy="-450" rx="81.79" ry="18"/>
<text text-anchor="middle" x="522" y="-446.3" font-family="Times,serif" font-size="14.00">deob_epi (utils)</text>
</g>
<!-- epi_reference_wf&#45;&gt;deob_epi (utils) -->
<g id="edge9" class="edge">
<title>epi_reference_wf&#45;&gt;deob_epi (utils)</title>
<path fill="none" stroke="black" d="M522,-503.7C522,-495.98 522,-486.71 522,-478.11"/>
<polygon fill="black" stroke="black" points="525.5,-478.1 522,-468.1 518.5,-478.1 525.5,-478.1"/>
</g>
<!-- outputnode (utility) -->
<g id="node11" class="node">
<title>outputnode (utility)</title>
<ellipse fill="none" stroke="black" cx="391" cy="-18" rx="101.28" ry="18"/>
<text text-anchor="middle" x="391" y="-14.3" font-family="Times,serif" font-size="14.00">outputnode (utility)</text>
</g>
<!-- merge_output (utility)&#45;&gt;outputnode (utility) -->
<g id="edge10" class="edge">
<title>merge_output (utility)&#45;&gt;outputnode (utility)</title>
<path fill="none" stroke="black" d="M117.63,-360.18C87.24,-336.15 38,-288.91 38,-235 38,-235 38,-235 38,-161 38,-101.81 211.01,-55.9 314.78,-33.68"/>
<polygon fill="black" stroke="black" points="315.54,-37.1 324.6,-31.61 314.1,-30.25 315.54,-37.1"/>
</g>
<!-- epi2anat (fixes) -->
<g id="node12" class="node">
<title>epi2anat (fixes)</title>
<ellipse fill="none" stroke="black" cx="520" cy="-234" rx="82.59" ry="18"/>
<text text-anchor="middle" x="520" y="-230.3" font-family="Times,serif" font-size="14.00">epi2anat (fixes)</text>
</g>
<!-- anat_dilmsk (brainmask)&#45;&gt;epi2anat (fixes) -->
<g id="edge11" class="edge">
<title>anat_dilmsk (brainmask)&#45;&gt;epi2anat (fixes)</title>
<path fill="none" stroke="black" d="M284.39,-503.98C271.69,-461.93 245.74,-351.92 298,-288 315.8,-266.23 382.09,-252.31 437.63,-244.23"/>
<polygon fill="black" stroke="black" points="438.45,-247.65 447.87,-242.78 437.48,-240.71 438.45,-247.65"/>
</g>
<!-- clip_anat (nibabel) -->
<g id="node13" class="node">
<title>clip_anat (nibabel)</title>
<ellipse fill="none" stroke="black" cx="737" cy="-450" rx="96.38" ry="18"/>
<text text-anchor="middle" x="737" y="-446.3" font-family="Times,serif" font-size="14.00">clip_anat (nibabel)</text>
</g>
<!-- mask_anat (nibabel)&#45;&gt;clip_anat (nibabel) -->
<g id="edge12" class="edge">
<title>mask_anat (nibabel)&#45;&gt;clip_anat (nibabel)</title>
<path fill="none" stroke="black" d="M733.99,-503.7C734.43,-495.98 734.96,-486.71 735.45,-478.11"/>
<polygon fill="black" stroke="black" points="738.95,-478.29 736.02,-468.1 731.96,-477.89 738.95,-478.29"/>
</g>
<!-- mask_dtype (utility) -->
<g id="node14" class="node">
<title>mask_dtype (utility)</title>
<ellipse fill="none" stroke="black" cx="766" cy="-90" rx="103.18" ry="18"/>
<text text-anchor="middle" x="766" y="-86.3" font-family="Times,serif" font-size="14.00">mask_dtype (utility)</text>
</g>
<!-- mask2epi (fixes)&#45;&gt;mask_dtype (utility) -->
<g id="edge13" class="edge">
<title>mask2epi (fixes)&#45;&gt;mask_dtype (utility)</title>
<path fill="none" stroke="black" d="M808.44,-144.05C801.73,-135.67 793.5,-125.38 786.08,-116.1"/>
<polygon fill="black" stroke="black" points="788.8,-113.9 779.82,-108.28 783.33,-118.27 788.8,-113.9"/>
</g>
<!-- sampling_ref (nibabel)&#45;&gt;mask2epi (fixes) -->
<g id="edge16" class="edge">
<title>sampling_ref (nibabel)&#45;&gt;mask2epi (fixes)</title>
<path fill="none" stroke="black" d="M784.86,-216.05C790.61,-207.84 797.65,-197.79 804.04,-188.66"/>
<polygon fill="black" stroke="black" points="807.04,-190.47 809.91,-180.28 801.31,-186.46 807.04,-190.47"/>
</g>
<!-- sampling_ref (nibabel)&#45;&gt;prior2epi (fixes) -->
<g id="edge14" class="edge">
<title>sampling_ref (nibabel)&#45;&gt;prior2epi (fixes)</title>
<path fill="none" stroke="black" d="M757.71,-215.85C735.8,-191.42 697.21,-149 689,-144 656.27,-124.08 615.74,-111.37 580.96,-103.41"/>
<polygon fill="black" stroke="black" points="581.36,-99.92 570.85,-101.19 579.86,-106.75 581.36,-99.92"/>
</g>
<!-- anat2epi (fixes) -->
<g id="node17" class="node">
<title>anat2epi (fixes)</title>
<ellipse fill="none" stroke="black" cx="597" cy="-162" rx="82.59" ry="18"/>
<text text-anchor="middle" x="597" y="-158.3" font-family="Times,serif" font-size="14.00">anat2epi (fixes)</text>
</g>
<!-- sampling_ref (nibabel)&#45;&gt;anat2epi (fixes) -->
<g id="edge15" class="edge">
<title>sampling_ref (nibabel)&#45;&gt;anat2epi (fixes)</title>
<path fill="none" stroke="black" d="M733.06,-217.12C706.75,-206.65 672.17,-192.9 644.46,-181.88"/>
<polygon fill="black" stroke="black" points="645.55,-178.54 634.97,-178.1 642.97,-185.05 645.55,-178.54"/>
</g>
<!-- prior2epi (fixes)&#45;&gt;outputnode (utility) -->
<g id="edge17" class="edge">
<title>prior2epi (fixes)&#45;&gt;outputnode (utility)</title>
<path fill="none" stroke="black" d="M477.79,-72.76C462.5,-63.29 443,-51.21 426.36,-40.91"/>
<polygon fill="black" stroke="black" points="427.8,-37.68 417.46,-35.39 424.12,-43.63 427.8,-37.68"/>
</g>
<!-- deob_epi (utils)&#45;&gt;merge_output (utility) -->
<g id="edge18" class="edge">
<title>deob_epi (utils)&#45;&gt;merge_output (utility)</title>
<path fill="none" stroke="black" d="M461.21,-437.83C396.4,-425.92 293.44,-407.01 221.83,-393.85"/>
<polygon fill="black" stroke="black" points="222.41,-390.4 211.95,-392.03 221.15,-397.28 222.41,-390.4"/>
</g>
<!-- deob_epi (utils)&#45;&gt;sampling_ref (nibabel) -->
<g id="edge21" class="edge">
<title>deob_epi (utils)&#45;&gt;sampling_ref (nibabel)</title>
<path fill="none" stroke="black" d="M578.7,-436.91C636.35,-421.38 723.1,-388.36 766,-324 777.98,-306.02 778.99,-281.23 777.42,-262.38"/>
<polygon fill="black" stroke="black" points="780.89,-261.88 776.3,-252.33 773.93,-262.65 780.89,-261.88"/>
</g>
<!-- deob_epi (utils)&#45;&gt;epi2anat (fixes) -->
<g id="edge20" class="edge">
<title>deob_epi (utils)&#45;&gt;epi2anat (fixes)</title>
<path fill="none" stroke="black" d="M531.56,-431.89C536.75,-421.76 542.75,-408.51 546,-396 558.09,-349.47 564.9,-334.31 552,-288 549.33,-278.42 544.41,-268.84 539.22,-260.51"/>
<polygon fill="black" stroke="black" points="542.02,-258.41 533.56,-252.03 536.2,-262.29 542.02,-258.41"/>
</g>
<!-- epi_brain (brainmask) -->
<g id="node15" class="node">
<title>epi_brain (brainmask)</title>
<ellipse fill="none" stroke="black" cx="425" cy="-378" rx="112.38" ry="18"/>
<text text-anchor="middle" x="425" y="-374.3" font-family="Times,serif" font-size="14.00">epi_brain (brainmask)</text>
</g>
<!-- deob_epi (utils)&#45;&gt;epi_brain (brainmask) -->
<g id="edge19" class="edge">
<title>deob_epi (utils)&#45;&gt;epi_brain (brainmask)</title>
<path fill="none" stroke="black" d="M499.01,-432.41C486.3,-423.24 470.32,-411.7 456.46,-401.71"/>
<polygon fill="black" stroke="black" points="458.32,-398.73 448.16,-395.71 454.22,-404.4 458.32,-398.73"/>
</g>
<!-- epi2anat (fixes)&#45;&gt;transform_list (utility) -->
<g id="edge22" class="edge">
<title>epi2anat (fixes)&#45;&gt;transform_list (utility)</title>
<path fill="none" stroke="black" d="M489.25,-217.29C470.01,-207.46 444.99,-194.67 424.06,-183.98"/>
<polygon fill="black" stroke="black" points="425.57,-180.82 415.07,-179.39 422.38,-187.05 425.57,-180.82"/>
</g>
<!-- epi2anat (fixes)&#45;&gt;mask2epi (fixes) -->
<g id="edge24" class="edge">
<title>epi2anat (fixes)&#45;&gt;mask2epi (fixes)</title>
<path fill="none" stroke="black" d="M574.34,-220.4C625.5,-208.55 702.19,-190.77 756.66,-178.14"/>
<polygon fill="black" stroke="black" points="757.61,-181.52 766.56,-175.85 756.03,-174.7 757.61,-181.52"/>
</g>
<!-- epi2anat (fixes)&#45;&gt;anat2epi (fixes) -->
<g id="edge23" class="edge">
<title>epi2anat (fixes)&#45;&gt;anat2epi (fixes)</title>
<path fill="none" stroke="black" d="M538.25,-216.41C548.05,-207.5 560.31,-196.36 571.09,-186.56"/>
<polygon fill="black" stroke="black" points="573.57,-189.03 578.62,-179.71 568.86,-183.85 573.57,-189.03"/>
</g>
<!-- ref_anat (utils) -->
<g id="node16" class="node">
<title>ref_anat (utils)</title>
<ellipse fill="none" stroke="black" cx="678" cy="-306" rx="79.09" ry="18"/>
<text text-anchor="middle" x="678" y="-302.3" font-family="Times,serif" font-size="14.00">ref_anat (utils)</text>
</g>
<!-- clip_anat (nibabel)&#45;&gt;ref_anat (utils) -->
<g id="edge25" class="edge">
<title>clip_anat (nibabel)&#45;&gt;ref_anat (utils)</title>
<path fill="none" stroke="black" d="M729.88,-431.87C719.74,-407.46 701.03,-362.43 689.07,-333.64"/>
<polygon fill="black" stroke="black" points="692.21,-332.08 685.14,-324.19 685.75,-334.77 692.21,-332.08"/>
</g>
<!-- mask_dtype (utility)&#45;&gt;outputnode (utility) -->
<g id="edge26" class="edge">
<title>mask_dtype (utility)&#45;&gt;outputnode (utility)</title>
<path fill="none" stroke="black" d="M698.09,-76.32C633.35,-64.24 535.95,-46.06 468.27,-33.42"/>
<polygon fill="black" stroke="black" points="468.56,-29.92 458.09,-31.52 467.28,-36.8 468.56,-29.92"/>
</g>
<!-- epi_brain (brainmask)&#45;&gt;outputnode (utility) -->
<g id="edge28" class="edge">
<title>epi_brain (brainmask)&#45;&gt;outputnode (utility)</title>
<path fill="none" stroke="black" d="M373.75,-361.88C319.3,-342.28 241,-302.39 241,-235 241,-235 241,-235 241,-161 241,-103.42 300.02,-62.2 344.01,-39.48"/>
<polygon fill="black" stroke="black" points="345.77,-42.51 353.15,-34.91 342.64,-36.25 345.77,-42.51"/>
</g>
<!-- epi_dilmsk (brainmask) -->
<g id="node18" class="node">
<title>epi_dilmsk (brainmask)</title>
<ellipse fill="none" stroke="black" cx="425" cy="-306" rx="118.08" ry="18"/>
<text text-anchor="middle" x="425" y="-302.3" font-family="Times,serif" font-size="14.00">epi_dilmsk (brainmask)</text>
</g>
<!-- epi_brain (brainmask)&#45;&gt;epi_dilmsk (brainmask) -->
<g id="edge27" class="edge">
<title>epi_brain (brainmask)&#45;&gt;epi_dilmsk (brainmask)</title>
<path fill="none" stroke="black" d="M425,-359.7C425,-351.98 425,-342.71 425,-334.11"/>
<polygon fill="black" stroke="black" points="428.5,-334.1 425,-324.1 421.5,-334.1 428.5,-334.1"/>
</g>
<!-- ref_anat (utils)&#45;&gt;epi2anat (fixes) -->
<g id="edge29" class="edge">
<title>ref_anat (utils)&#45;&gt;epi2anat (fixes)</title>
<path fill="none" stroke="black" d="M643.33,-289.64C620.05,-279.32 589.18,-265.65 564.15,-254.56"/>
<polygon fill="black" stroke="black" points="565.43,-251.3 554.87,-250.45 562.59,-257.7 565.43,-251.3"/>
</g>
<!-- ref_anat (utils)&#45;&gt;anat2epi (fixes) -->
<g id="edge30" class="edge">
<title>ref_anat (utils)&#45;&gt;anat2epi (fixes)</title>
<path fill="none" stroke="black" d="M668.23,-287.87C654.18,-263.24 628.17,-217.64 611.77,-188.88"/>
<polygon fill="black" stroke="black" points="614.8,-187.14 606.81,-180.19 608.72,-190.61 614.8,-187.14"/>
</g>
<!-- anat2epi (fixes)&#45;&gt;outputnode (utility) -->
<g id="edge31" class="edge">
<title>anat2epi (fixes)&#45;&gt;outputnode (utility)</title>
<path fill="none" stroke="black" d="M542.21,-148.5C490.41,-136.21 419.25,-117.88 410,-108 394.6,-91.55 390.46,-65.82 389.82,-46.24"/>
<polygon fill="black" stroke="black" points="393.32,-46.08 389.77,-36.1 386.32,-46.11 393.32,-46.08"/>
</g>
<!-- epi_dilmsk (brainmask)&#45;&gt;epi2anat (fixes) -->
<g id="edge32" class="edge">
<title>epi_dilmsk (brainmask)&#45;&gt;epi2anat (fixes)</title>
<path fill="none" stroke="black" d="M448,-288.05C460.46,-278.87 476.01,-267.41 489.48,-257.49"/>
<polygon fill="black" stroke="black" points="491.57,-260.3 497.54,-251.55 487.42,-254.66 491.57,-260.3"/>
</g>
</g>
</svg>
