<?xml version="1.0" encoding="UTF-8" standalone="no"?>
<!DOCTYPE svg PUBLIC "-//W3C//DTD SVG 1.1//EN"
 "http://www.w3.org/Graphics/SVG/1.1/DTD/svg11.dtd">
<!-- Generated by graphviz version 2.43.0 (0)
 -->
<!-- Title: %3 Pages: 1 -->
<svg width="465pt" height="764pt"
 viewBox="0.00 0.00 464.57 764.00" xmlns="http://www.w3.org/2000/svg" xmlns:xlink="http://www.w3.org/1999/xlink">
<g id="graph0" class="graph" transform="scale(1 1) rotate(0) translate(4 760)">
<title>%3</title>
<polygon fill="white" stroke="transparent" points="-4,4 -4,-760 460.57,-760 460.57,4 -4,4"/>
<!-- inputnode (utility) -->
<g id="node1" class="node">
<title>inputnode (utility)</title>
<ellipse fill="none" stroke="black" cx="292.48" cy="-738" rx="94.78" ry="18"/>
<text text-anchor="middle" x="292.48" y="-734.3" font-family="Times,serif" font-size="14.00">inputnode (utility)</text>
</g>
<!-- flatten (utils) -->
<g id="node2" class="node">
<title>flatten (utils)</title>
<ellipse fill="none" stroke="black" cx="170.48" cy="-666" rx="71.49" ry="18"/>
<text text-anchor="middle" x="170.48" y="-662.3" font-family="Times,serif" font-size="14.00">flatten (utils)</text>
</g>
<!-- inputnode (utility)&#45;&gt;flatten (utils) -->
<g id="edge1" class="edge">
<title>inputnode (utility)&#45;&gt;flatten (utils)</title>
<path fill="none" stroke="black" d="M264.18,-720.76C247,-710.91 224.91,-698.23 206.49,-687.66"/>
<polygon fill="black" stroke="black" points="208.2,-684.61 197.78,-682.67 204.71,-690.68 208.2,-684.61"/>
</g>
<!-- cphdr_warp (header) -->
<g id="node3" class="node">
<title>cphdr_warp (header)</title>
<ellipse fill="none" stroke="black" cx="186.48" cy="-234" rx="107.48" ry="18"/>
<text text-anchor="middle" x="186.48" y="-230.3" font-family="Times,serif" font-size="14.00">cphdr_warp (header)</text>
</g>
<!-- inputnode (utility)&#45;&gt;cphdr_warp (header) -->
<g id="edge2" class="edge">
<title>inputnode (utility)&#45;&gt;cphdr_warp (header)</title>
<path fill="none" stroke="black" d="M292.48,-719.95C292.48,-693.29 292.48,-640.11 292.48,-595 292.48,-595 292.48,-595 292.48,-377 292.48,-327.01 249.78,-283.28 218.58,-257.99"/>
<polygon fill="black" stroke="black" points="220.56,-255.09 210.53,-251.67 216.23,-260.6 220.56,-255.09"/>
</g>
<!-- unwarp_reference (fixes) -->
<g id="node4" class="node">
<title>unwarp_reference (fixes)</title>
<ellipse fill="none" stroke="black" cx="330.48" cy="-90" rx="126.18" ry="18"/>
<text text-anchor="middle" x="330.48" y="-86.3" font-family="Times,serif" font-size="14.00">unwarp_reference (fixes)</text>
</g>
<!-- inputnode (utility)&#45;&gt;unwarp_reference (fixes) -->
<g id="edge3" class="edge">
<title>inputnode (utility)&#45;&gt;unwarp_reference (fixes)</title>
<path fill="none" stroke="black" d="M300.17,-719.91C311.27,-693.62 330.48,-641.45 330.48,-595 330.48,-595 330.48,-595 330.48,-233 330.48,-193 330.48,-146.65 330.48,-118.08"/>
<polygon fill="black" stroke="black" points="333.98,-118.05 330.48,-108.05 326.98,-118.05 333.98,-118.05"/>
</g>
<!-- sort_pe (utility) -->
<g id="node5" class="node">
<title>sort_pe (utility)</title>
<ellipse fill="none" stroke="black" cx="146.48" cy="-594" rx="82.59" ry="18"/>
<text text-anchor="middle" x="146.48" y="-590.3" font-family="Times,serif" font-size="14.00">sort_pe (utility)</text>
</g>
<!-- flatten (utils)&#45;&gt;sort_pe (utility) -->
<g id="edge4" class="edge">
<title>flatten (utils)&#45;&gt;sort_pe (utility)</title>
<path fill="none" stroke="black" d="M164.67,-648.05C161.97,-640.18 158.69,-630.62 155.67,-621.79"/>
<polygon fill="black" stroke="black" points="158.96,-620.6 152.4,-612.28 152.34,-622.87 158.96,-620.6"/>
</g>
<!-- to_ants (utils) -->
<g id="node11" class="node">
<title>to_ants (utils)</title>
<ellipse fill="none" stroke="black" cx="186.48" cy="-162" rx="74.99" ry="18"/>
<text text-anchor="middle" x="186.48" y="-158.3" font-family="Times,serif" font-size="14.00">to_ants (utils)</text>
</g>
<!-- cphdr_warp (header)&#45;&gt;to_ants (utils) -->
<g id="edge5" class="edge">
<title>cphdr_warp (header)&#45;&gt;to_ants (utils)</title>
<path fill="none" stroke="black" d="M186.48,-215.7C186.48,-207.98 186.48,-198.71 186.48,-190.11"/>
<polygon fill="black" stroke="black" points="189.98,-190.1 186.48,-180.1 182.98,-190.1 189.98,-190.1"/>
</g>
<!-- outputnode (utility) -->
<g id="node12" class="node">
<title>outputnode (utility)</title>
<ellipse fill="none" stroke="black" cx="253.48" cy="-18" rx="101.28" ry="18"/>
<text text-anchor="middle" x="253.48" y="-14.3" font-family="Times,serif" font-size="14.00">outputnode (utility)</text>
</g>
<!-- unwarp_reference (fixes)&#45;&gt;outputnode (utility) -->
<g id="edge6" class="edge">
<title>unwarp_reference (fixes)&#45;&gt;outputnode (utility)</title>
<path fill="none" stroke="black" d="M311.84,-72.05C302.1,-63.2 290.02,-52.22 279.38,-42.55"/>
<polygon fill="black" stroke="black" points="281.7,-39.93 271.95,-35.79 276.99,-45.11 281.7,-39.93"/>
</g>
<!-- qwarp (afni) -->
<g id="node6" class="node">
<title>qwarp (afni)</title>
<ellipse fill="none" stroke="black" cx="121.48" cy="-306" rx="67.69" ry="18"/>
<text text-anchor="middle" x="121.48" y="-302.3" font-family="Times,serif" font-size="14.00">qwarp (afni)</text>
</g>
<!-- sort_pe (utility)&#45;&gt;qwarp (afni) -->
<g id="edge7" class="edge">
<title>sort_pe (utility)&#45;&gt;qwarp (afni)</title>
<path fill="none" stroke="black" d="M83.56,-582.18C59.32,-574.61 33.99,-561.77 19.48,-540 -26.69,-470.7 18.71,-424.42 71.48,-360 79.54,-350.16 88.98,-339.87 97.48,-331.01"/>
<polygon fill="black" stroke="black" points="100.18,-333.25 104.64,-323.63 95.16,-328.37 100.18,-333.25"/>
</g>
<!-- merge_pes (freesurfer) -->
<g id="node7" class="node">
<title>merge_pes (freesurfer)</title>
<ellipse fill="none" stroke="black" cx="146.48" cy="-522" rx="117.78" ry="18"/>
<text text-anchor="middle" x="146.48" y="-518.3" font-family="Times,serif" font-size="14.00">merge_pes (freesurfer)</text>
</g>
<!-- sort_pe (utility)&#45;&gt;merge_pes (freesurfer) -->
<g id="edge8" class="edge">
<title>sort_pe (utility)&#45;&gt;merge_pes (freesurfer)</title>
<path fill="none" stroke="black" d="M146.48,-575.7C146.48,-567.98 146.48,-558.71 146.48,-550.11"/>
<polygon fill="black" stroke="black" points="149.98,-550.1 146.48,-540.1 142.98,-550.1 149.98,-550.1"/>
</g>
<!-- qwarp (afni)&#45;&gt;cphdr_warp (header) -->
<g id="edge9" class="edge">
<title>qwarp (afni)&#45;&gt;cphdr_warp (header)</title>
<path fill="none" stroke="black" d="M136.88,-288.41C144.94,-279.73 154.96,-268.95 163.88,-259.34"/>
<polygon fill="black" stroke="black" points="166.49,-261.67 170.73,-251.96 161.37,-256.9 166.49,-261.67"/>
</g>
<!-- pe0_wf -->
<g id="node8" class="node">
<title>pe0_wf</title>
<ellipse fill="none" stroke="black" cx="73.48" cy="-450" rx="43.59" ry="18"/>
<text text-anchor="middle" x="73.48" y="-446.3" font-family="Times,serif" font-size="14.00">pe0_wf</text>
</g>
<!-- merge_pes (freesurfer)&#45;&gt;pe0_wf -->
<g id="edge10" class="edge">
<title>merge_pes (freesurfer)&#45;&gt;pe0_wf</title>
<path fill="none" stroke="black" d="M128.81,-504.05C119.39,-495.03 107.68,-483.79 97.45,-473.99"/>
<polygon fill="black" stroke="black" points="99.63,-471.22 89.99,-466.83 94.78,-476.28 99.63,-471.22"/>
</g>
<!-- pe1_wf -->
<g id="node9" class="node">
<title>pe1_wf</title>
<ellipse fill="none" stroke="black" cx="178.48" cy="-450" rx="43.59" ry="18"/>
<text text-anchor="middle" x="178.48" y="-446.3" font-family="Times,serif" font-size="14.00">pe1_wf</text>
</g>
<!-- merge_pes (freesurfer)&#45;&gt;pe1_wf -->
<g id="edge11" class="edge">
<title>merge_pes (freesurfer)&#45;&gt;pe1_wf</title>
<path fill="none" stroke="black" d="M154.39,-503.7C158.03,-495.73 162.43,-486.1 166.47,-477.26"/>
<polygon fill="black" stroke="black" points="169.69,-478.65 170.66,-468.1 163.32,-475.74 169.69,-478.65"/>
</g>
<!-- pe0_wf&#45;&gt;qwarp (afni) -->
<g id="edge13" class="edge">
<title>pe0_wf&#45;&gt;qwarp (afni)</title>
<path fill="none" stroke="black" d="M73.18,-431.68C73.42,-413.3 75.39,-383.69 84.48,-360 88.24,-350.2 94.19,-340.49 100.23,-332.11"/>
<polygon fill="black" stroke="black" points="103.19,-333.99 106.46,-323.91 97.62,-329.75 103.19,-333.99"/>
</g>
<!-- align_pes (fixes) -->
<g id="node10" class="node">
<title>align_pes (fixes)</title>
<ellipse fill="none" stroke="black" cx="178.48" cy="-378" rx="85.29" ry="18"/>
<text text-anchor="middle" x="178.48" y="-374.3" font-family="Times,serif" font-size="14.00">align_pes (fixes)</text>
</g>
<!-- pe0_wf&#45;&gt;align_pes (fixes) -->
<g id="edge12" class="edge">
<title>pe0_wf&#45;&gt;align_pes (fixes)</title>
<path fill="none" stroke="black" d="M95.49,-434.33C109.9,-424.72 129,-411.99 145.24,-401.16"/>
<polygon fill="black" stroke="black" points="147.55,-403.83 153.93,-395.37 143.66,-398 147.55,-403.83"/>
</g>
<!-- pe1_wf&#45;&gt;align_pes (fixes) -->
<g id="edge14" class="edge">
<title>pe1_wf&#45;&gt;align_pes (fixes)</title>
<path fill="none" stroke="black" d="M178.48,-431.7C178.48,-423.98 178.48,-414.71 178.48,-406.11"/>
<polygon fill="black" stroke="black" points="181.98,-406.1 178.48,-396.1 174.98,-406.1 181.98,-406.1"/>
</g>
<!-- align_pes (fixes)&#45;&gt;qwarp (afni) -->
<g id="edge15" class="edge">
<title>align_pes (fixes)&#45;&gt;qwarp (afni)</title>
<path fill="none" stroke="black" d="M164.68,-360.05C157.75,-351.54 149.22,-341.07 141.58,-331.68"/>
<polygon fill="black" stroke="black" points="144.18,-329.33 135.15,-323.79 138.75,-333.75 144.18,-329.33"/>
</g>
<!-- to_ants (utils)&#45;&gt;unwarp_reference (fixes) -->
<g id="edge16" class="edge">
<title>to_ants (utils)&#45;&gt;unwarp_reference (fixes)</title>
<path fill="none" stroke="black" d="M218.08,-145.64C238.44,-135.74 265.16,-122.75 287.45,-111.92"/>
<polygon fill="black" stroke="black" points="289.23,-114.94 296.69,-107.42 286.17,-108.65 289.23,-114.94"/>
</g>
<!-- to_ants (utils)&#45;&gt;outputnode (utility) -->
<g id="edge17" class="edge">
<title>to_ants (utils)&#45;&gt;outputnode (utility)</title>
<path fill="none" stroke="black" d="M184.72,-143.94C183.56,-125.25 183.98,-94.9 195.48,-72 201.22,-60.57 210.54,-50.41 220.04,-42.11"/>
<polygon fill="black" stroke="black" points="222.47,-44.64 227.99,-35.6 218.03,-39.23 222.47,-44.64"/>
</g>
</g>
</svg>
