<?xml version="1.0" encoding="UTF-8" standalone="no"?>
<!DOCTYPE svg PUBLIC "-//W3C//DTD SVG 1.1//EN"
 "http://www.w3.org/Graphics/SVG/1.1/DTD/svg11.dtd">
<!-- Generated by graphviz version 2.43.0 (0)
 -->
<!-- Title: %3 Pages: 1 -->
<svg width="1028pt" height="620pt"
 viewBox="0.00 0.00 1028.09 620.00" xmlns="http://www.w3.org/2000/svg" xmlns:xlink="http://www.w3.org/1999/xlink">
<g id="graph0" class="graph" transform="scale(1 1) rotate(0) translate(4 616)">
<title>%3</title>
<polygon fill="white" stroke="transparent" points="-4,4 -4,-616 1024.09,-616 1024.09,4 -4,4"/>
<!-- inputnode (utility) -->
<g id="node1" class="node">
<title>inputnode (utility)</title>
<ellipse fill="none" stroke="black" cx="603.09" cy="-594" rx="94.78" ry="18"/>
<text text-anchor="middle" x="603.09" y="-590.3" font-family="Times,serif" font-size="14.00">inputnode (utility)</text>
</g>
<!-- transform_list (utility) -->
<g id="node2" class="node">
<title>transform_list (utility)</title>
<ellipse fill="none" stroke="black" cx="434.09" cy="-162" rx="113.98" ry="18"/>
<text text-anchor="middle" x="434.09" y="-158.3" font-family="Times,serif" font-size="14.00">transform_list (utility)</text>
</g>
<!-- inputnode (utility)&#45;&gt;transform_list (utility) -->
<g id="edge1" class="edge">
<title>inputnode (utility)&#45;&gt;transform_list (utility)</title>
<path fill="none" stroke="black" d="M510.86,-589.6C425.36,-584.48 306.48,-571.73 273.09,-540 243.77,-512.14 254.09,-491.45 254.09,-451 254.09,-451 254.09,-451 254.09,-305 254.09,-242.24 322.38,-202.92 374.84,-181.97"/>
<polygon fill="black" stroke="black" points="376.36,-185.14 384.43,-178.27 373.84,-178.61 376.36,-185.14"/>
</g>
<!-- epi_reference_wf -->
<g id="node3" class="node">
<title>epi_reference_wf</title>
<ellipse fill="none" stroke="black" cx="371.09" cy="-522" rx="89.08" ry="18"/>
<text text-anchor="middle" x="371.09" y="-518.3" font-family="Times,serif" font-size="14.00">epi_reference_wf</text>
</g>
<!-- inputnode (utility)&#45;&gt;epi_reference_wf -->
<g id="edge2" class="edge">
<title>inputnode (utility)&#45;&gt;epi_reference_wf</title>
<path fill="none" stroke="black" d="M554.74,-578.41C517.89,-567.29 467.04,-551.95 428.19,-540.23"/>
<polygon fill="black" stroke="black" points="429.17,-536.87 418.59,-537.33 427.15,-543.57 429.17,-536.87"/>
</g>
<!-- merge_output (utility) -->
<g id="node4" class="node">
<title>merge_output (utility)</title>
<ellipse fill="none" stroke="black" cx="113.09" cy="-378" rx="113.18" ry="18"/>
<text text-anchor="middle" x="113.09" y="-374.3" font-family="Times,serif" font-size="14.00">merge_output (utility)</text>
</g>
<!-- inputnode (utility)&#45;&gt;merge_output (utility) -->
<g id="edge3" class="edge">
<title>inputnode (utility)&#45;&gt;merge_output (utility)</title>
<path fill="none" stroke="black" d="M514.08,-587.54C421.98,-580.57 285.38,-566.17 240.09,-540 184.91,-508.12 144.8,-442.1 125.67,-405.28"/>
<polygon fill="black" stroke="black" points="128.69,-403.49 121.05,-396.15 122.44,-406.65 128.69,-403.49"/>
</g>
<!-- anat_dilmsk (brainmask) -->
<g id="node5" class="node">
<title>anat_dilmsk (brainmask)</title>
<ellipse fill="none" stroke="black" cx="603.09" cy="-522" rx="124.58" ry="18"/>
<text text-anchor="middle" x="603.09" y="-518.3" font-family="Times,serif" font-size="14.00">anat_dilmsk (brainmask)</text>
</g>
<!-- inputnode (utility)&#45;&gt;anat_dilmsk (brainmask) -->
<g id="edge4" class="edge">
<title>inputnode (utility)&#45;&gt;anat_dilmsk (brainmask)</title>
<path fill="none" stroke="black" d="M603.09,-575.7C603.09,-567.98 603.09,-558.71 603.09,-550.11"/>
<polygon fill="black" stroke="black" points="606.59,-550.1 603.09,-540.1 599.59,-550.1 606.59,-550.1"/>
</g>
<!-- mask_anat (nibabel) -->
<g id="node6" class="node">
<title>mask_anat (nibabel)</title>
<ellipse fill="none" stroke="black" cx="850.09" cy="-522" rx="103.98" ry="18"/>
<text text-anchor="middle" x="850.09" y="-518.3" font-family="Times,serif" font-size="14.00">mask_anat (nibabel)</text>
</g>
<!-- inputnode (utility)&#45;&gt;mask_anat (nibabel) -->
<g id="edge5" class="edge">
<title>inputnode (utility)&#45;&gt;mask_anat (nibabel)</title>
<path fill="none" stroke="black" d="M653.67,-578.67C692.74,-567.59 746.98,-552.22 788.56,-540.44"/>
<polygon fill="black" stroke="black" points="789.64,-543.77 798.3,-537.68 787.73,-537.04 789.64,-543.77"/>
</g>
<!-- mask2epi (fixes) -->
<g id="node7" class="node">
<title>mask2epi (fixes)</title>
<ellipse fill="none" stroke="black" cx="873.09" cy="-162" rx="86.38" ry="18"/>
<text text-anchor="middle" x="873.09" y="-158.3" font-family="Times,serif" font-size="14.00">mask2epi (fixes)</text>
</g>
<!-- inputnode (utility)&#45;&gt;mask2epi (fixes) -->
<g id="edge6" class="edge">
<title>inputnode (utility)&#45;&gt;mask2epi (fixes)</title>
<path fill="none" stroke="black" d="M696.85,-590.88C795.9,-586.8 943.66,-574.86 987.09,-540 1019.99,-513.59 1020.09,-493.19 1020.09,-451 1020.09,-451 1020.09,-451 1020.09,-305 1020.09,-261.07 1007.82,-247.39 977.09,-216 962.78,-201.39 943.6,-190.06 925.6,-181.7"/>
<polygon fill="black" stroke="black" points="926.89,-178.44 916.33,-177.59 924.06,-184.84 926.89,-178.44"/>
</g>
<!-- sampling_ref (nibabel) -->
<g id="node8" class="node">
<title>sampling_ref (nibabel)</title>
<ellipse fill="none" stroke="black" cx="854.09" cy="-234" rx="114.28" ry="18"/>
<text text-anchor="middle" x="854.09" y="-230.3" font-family="Times,serif" font-size="14.00">sampling_ref (nibabel)</text>
</g>
<!-- inputnode (utility)&#45;&gt;sampling_ref (nibabel) -->
<g id="edge7" class="edge">
<title>inputnode (utility)&#45;&gt;sampling_ref (nibabel)</title>
<path fill="none" stroke="black" d="M697.1,-591.01C790.69,-587 925.65,-575.11 963.09,-540 992.59,-512.33 982.09,-491.45 982.09,-451 982.09,-451 982.09,-451 982.09,-377 982.09,-323.38 931.12,-280.89 893.5,-256.83"/>
<polygon fill="black" stroke="black" points="895.09,-253.7 884.75,-251.4 891.4,-259.65 895.09,-253.7"/>
</g>
<!-- prior2epi (fixes) -->
<g id="node9" class="node">
<title>prior2epi (fixes)</title>
<ellipse fill="none" stroke="black" cx="555.09" cy="-90" rx="85.29" ry="18"/>
<text text-anchor="middle" x="555.09" y="-86.3" font-family="Times,serif" font-size="14.00">prior2epi (fixes)</text>
</g>
<!-- transform_list (utility)&#45;&gt;prior2epi (fixes) -->
<g id="edge8" class="edge">
<title>transform_list (utility)&#45;&gt;prior2epi (fixes)</title>
<path fill="none" stroke="black" d="M462.77,-144.41C479.31,-134.84 500.29,-122.7 518.07,-112.42"/>
<polygon fill="black" stroke="black" points="520.13,-115.27 527.04,-107.23 516.63,-109.21 520.13,-115.27"/>
</g>
<!-- deob_epi (utils) -->
<g id="node13" class="node">
<title>deob_epi (utils)</title>
<ellipse fill="none" stroke="black" cx="416.09" cy="-450" rx="81.79" ry="18"/>
<text text-anchor="middle" x="416.09" y="-446.3" font-family="Times,serif" font-size="14.00">deob_epi (utils)</text>
</g>
<!-- epi_reference_wf&#45;&gt;deob_epi (utils) -->
<g id="edge9" class="edge">
<title>epi_reference_wf&#45;&gt;deob_epi (utils)</title>
<path fill="none" stroke="black" d="M381.98,-504.05C387.21,-495.92 393.59,-486 399.41,-476.94"/>
<polygon fill="black" stroke="black" points="402.52,-478.58 404.98,-468.28 396.63,-474.79 402.52,-478.58"/>
</g>
<!-- outputnode (utility) -->
<g id="node12" class="node">
<title>outputnode (utility)</title>
<ellipse fill="none" stroke="black" cx="442.09" cy="-18" rx="101.28" ry="18"/>
<text text-anchor="middle" x="442.09" y="-14.3" font-family="Times,serif" font-size="14.00">outputnode (utility)</text>
</g>
<!-- merge_output (utility)&#45;&gt;outputnode (utility) -->
<g id="edge10" class="edge">
<title>merge_output (utility)&#45;&gt;outputnode (utility)</title>
<path fill="none" stroke="black" d="M123.86,-359.81C139.1,-333.83 165.09,-282.52 165.09,-235 165.09,-235 165.09,-235 165.09,-161 165.09,-77.82 265.22,-43.33 345.08,-29.05"/>
<polygon fill="black" stroke="black" points="345.93,-32.46 355.21,-27.33 344.76,-25.56 345.93,-32.46"/>
</g>
<!-- epi2anat (fixes) -->
<g id="node10" class="node">
<title>epi2anat (fixes)</title>
<ellipse fill="none" stroke="black" cx="601.09" cy="-234" rx="82.59" ry="18"/>
<text text-anchor="middle" x="601.09" y="-230.3" font-family="Times,serif" font-size="14.00">epi2anat (fixes)</text>
</g>
<!-- anat_dilmsk (brainmask)&#45;&gt;epi2anat (fixes) -->
<g id="edge11" class="edge">
<title>anat_dilmsk (brainmask)&#45;&gt;epi2anat (fixes)</title>
<path fill="none" stroke="black" d="M602.97,-503.97C602.64,-456.29 601.69,-321.18 601.28,-262.63"/>
<polygon fill="black" stroke="black" points="604.78,-262.28 601.21,-252.31 597.78,-262.33 604.78,-262.28"/>
</g>
<!-- clip_anat (nibabel) -->
<g id="node14" class="node">
<title>clip_anat (nibabel)</title>
<ellipse fill="none" stroke="black" cx="817.09" cy="-450" rx="96.38" ry="18"/>
<text text-anchor="middle" x="817.09" y="-446.3" font-family="Times,serif" font-size="14.00">clip_anat (nibabel)</text>
</g>
<!-- mask_anat (nibabel)&#45;&gt;clip_anat (nibabel) -->
<g id="edge12" class="edge">
<title>mask_anat (nibabel)&#45;&gt;clip_anat (nibabel)</title>
<path fill="none" stroke="black" d="M841.93,-503.7C838.18,-495.73 833.64,-486.1 829.47,-477.26"/>
<polygon fill="black" stroke="black" points="832.58,-475.66 825.15,-468.1 826.25,-478.64 832.58,-475.66"/>
</g>
<!-- mask_dtype (utility) -->
<g id="node15" class="node">
<title>mask_dtype (utility)</title>
<ellipse fill="none" stroke="black" cx="817.09" cy="-90" rx="103.18" ry="18"/>
<text text-anchor="middle" x="817.09" y="-86.3" font-family="Times,serif" font-size="14.00">mask_dtype (utility)</text>
</g>
<!-- mask2epi (fixes)&#45;&gt;mask_dtype (utility) -->
<g id="edge13" class="edge">
<title>mask2epi (fixes)&#45;&gt;mask_dtype (utility)</title>
<path fill="none" stroke="black" d="M859.53,-144.05C852.82,-135.67 844.59,-125.38 837.17,-116.1"/>
<polygon fill="black" stroke="black" points="839.89,-113.9 830.91,-108.28 834.42,-118.27 839.89,-113.9"/>
</g>
<!-- sampling_ref (nibabel)&#45;&gt;mask2epi (fixes) -->
<g id="edge16" class="edge">
<title>sampling_ref (nibabel)&#45;&gt;mask2epi (fixes)</title>
<path fill="none" stroke="black" d="M858.79,-215.7C860.9,-207.9 863.45,-198.51 865.81,-189.83"/>
<polygon fill="black" stroke="black" points="869.21,-190.67 868.45,-180.1 862.45,-188.84 869.21,-190.67"/>
</g>
<!-- sampling_ref (nibabel)&#45;&gt;prior2epi (fixes) -->
<g id="edge14" class="edge">
<title>sampling_ref (nibabel)&#45;&gt;prior2epi (fixes)</title>
<path fill="none" stroke="black" d="M828.06,-216.25C813.05,-206.26 794.05,-193.01 778.09,-180 760.05,-165.31 760.29,-155.53 740.09,-144 706.42,-124.78 665.26,-112.09 630.32,-103.97"/>
<polygon fill="black" stroke="black" points="630.69,-100.46 620.17,-101.69 629.16,-107.3 630.69,-100.46"/>
</g>
<!-- anat2epi (fixes) -->
<g id="node11" class="node">
<title>anat2epi (fixes)</title>
<ellipse fill="none" stroke="black" cx="648.09" cy="-162" rx="82.59" ry="18"/>
<text text-anchor="middle" x="648.09" y="-158.3" font-family="Times,serif" font-size="14.00">anat2epi (fixes)</text>
</g>
<!-- sampling_ref (nibabel)&#45;&gt;anat2epi (fixes) -->
<g id="edge15" class="edge">
<title>sampling_ref (nibabel)&#45;&gt;anat2epi (fixes)</title>
<path fill="none" stroke="black" d="M808.37,-217.46C776.44,-206.61 733.73,-192.1 700.43,-180.79"/>
<polygon fill="black" stroke="black" points="701.46,-177.44 690.87,-177.54 699.21,-184.07 701.46,-177.44"/>
</g>
<!-- prior2epi (fixes)&#45;&gt;outputnode (utility) -->
<g id="edge17" class="edge">
<title>prior2epi (fixes)&#45;&gt;outputnode (utility)</title>
<path fill="none" stroke="black" d="M528.88,-72.76C513.59,-63.29 494.09,-51.21 477.45,-40.91"/>
<polygon fill="black" stroke="black" points="478.89,-37.68 468.55,-35.39 475.21,-43.63 478.89,-37.68"/>
</g>
<!-- epi2anat (fixes)&#45;&gt;transform_list (utility) -->
<g id="edge18" class="edge">
<title>epi2anat (fixes)&#45;&gt;transform_list (utility)</title>
<path fill="none" stroke="black" d="M564.85,-217.81C540.5,-207.6 508.16,-194.05 481.73,-182.97"/>
<polygon fill="black" stroke="black" points="482.86,-179.65 472.29,-179.01 480.16,-186.1 482.86,-179.65"/>
</g>
<!-- epi2anat (fixes)&#45;&gt;mask2epi (fixes) -->
<g id="edge20" class="edge">
<title>epi2anat (fixes)&#45;&gt;mask2epi (fixes)</title>
<path fill="none" stroke="black" d="M652.25,-219.83C697.22,-208.26 762.79,-191.39 810.8,-179.03"/>
<polygon fill="black" stroke="black" points="811.96,-182.35 820.77,-176.46 810.21,-175.57 811.96,-182.35"/>
</g>
<!-- epi2anat (fixes)&#45;&gt;anat2epi (fixes) -->
<g id="edge19" class="edge">
<title>epi2anat (fixes)&#45;&gt;anat2epi (fixes)</title>
<path fill="none" stroke="black" d="M612.47,-216.05C617.98,-207.84 624.73,-197.79 630.86,-188.66"/>
<polygon fill="black" stroke="black" points="633.82,-190.53 636.49,-180.28 628.01,-186.63 633.82,-190.53"/>
</g>
<!-- anat2epi (fixes)&#45;&gt;outputnode (utility) -->
<g id="edge21" class="edge">
<title>anat2epi (fixes)&#45;&gt;outputnode (utility)</title>
<path fill="none" stroke="black" d="M593.3,-148.5C541.5,-136.21 470.34,-117.88 461.09,-108 445.69,-91.55 441.55,-65.82 440.91,-46.24"/>
<polygon fill="black" stroke="black" points="444.41,-46.08 440.86,-36.1 437.41,-46.11 444.41,-46.08"/>
</g>
<!-- deob_epi (utils)&#45;&gt;merge_output (utility) -->
<g id="edge22" class="edge">
<title>deob_epi (utils)&#45;&gt;merge_output (utility)</title>
<path fill="none" stroke="black" d="M361.92,-436.49C312.32,-425.03 238.59,-407.99 184.26,-395.44"/>
<polygon fill="black" stroke="black" points="184.88,-391.99 174.35,-393.15 183.3,-398.81 184.88,-391.99"/>
</g>
<!-- deob_epi (utils)&#45;&gt;sampling_ref (nibabel) -->
<g id="edge25" class="edge">
<title>deob_epi (utils)&#45;&gt;sampling_ref (nibabel)</title>
<path fill="none" stroke="black" d="M493.58,-444.11C582.17,-434.59 726.58,-406.56 817.09,-324 834.8,-307.85 844.28,-281.9 849.19,-262.18"/>
<polygon fill="black" stroke="black" points="852.64,-262.77 851.41,-252.25 845.81,-261.24 852.64,-262.77"/>
</g>
<!-- deob_epi (utils)&#45;&gt;epi2anat (fixes) -->
<g id="edge24" class="edge">
<title>deob_epi (utils)&#45;&gt;epi2anat (fixes)</title>
<path fill="none" stroke="black" d="M468.18,-436.06C491.8,-427.92 518.53,-415.22 537.09,-396 573.45,-358.36 589.95,-297.51 596.79,-262.39"/>
<polygon fill="black" stroke="black" points="600.27,-262.83 598.61,-252.37 593.38,-261.58 600.27,-262.83"/>
</g>
<!-- epi_brain (brainmask) -->
<g id="node16" class="node">
<title>epi_brain (brainmask)</title>
<ellipse fill="none" stroke="black" cx="416.09" cy="-378" rx="112.38" ry="18"/>
<text text-anchor="middle" x="416.09" y="-374.3" font-family="Times,serif" font-size="14.00">epi_brain (brainmask)</text>
</g>
<!-- deob_epi (utils)&#45;&gt;epi_brain (brainmask) -->
<g id="edge23" class="edge">
<title>deob_epi (utils)&#45;&gt;epi_brain (brainmask)</title>
<path fill="none" stroke="black" d="M416.09,-431.7C416.09,-423.98 416.09,-414.71 416.09,-406.11"/>
<polygon fill="black" stroke="black" points="419.59,-406.1 416.09,-396.1 412.59,-406.1 419.59,-406.1"/>
</g>
<!-- ref_anat (utils) -->
<g id="node17" class="node">
<title>ref_anat (utils)</title>
<ellipse fill="none" stroke="black" cx="729.09" cy="-306" rx="79.09" ry="18"/>
<text text-anchor="middle" x="729.09" y="-302.3" font-family="Times,serif" font-size="14.00">ref_anat (utils)</text>
</g>
<!-- clip_anat (nibabel)&#45;&gt;ref_anat (utils) -->
<g id="edge26" class="edge">
<title>clip_anat (nibabel)&#45;&gt;ref_anat (utils)</title>
<path fill="none" stroke="black" d="M806.48,-431.87C791.21,-407.24 762.95,-361.64 745.13,-332.88"/>
<polygon fill="black" stroke="black" points="747.99,-330.85 739.74,-324.19 742.04,-334.53 747.99,-330.85"/>
</g>
<!-- mask_dtype (utility)&#45;&gt;outputnode (utility) -->
<g id="edge27" class="edge">
<title>mask_dtype (utility)&#45;&gt;outputnode (utility)</title>
<path fill="none" stroke="black" d="M749.18,-76.32C684.44,-64.24 587.04,-46.06 519.36,-33.42"/>
<polygon fill="black" stroke="black" points="519.65,-29.92 509.18,-31.52 518.37,-36.8 519.65,-29.92"/>
</g>
<!-- epi_brain (brainmask)&#45;&gt;outputnode (utility) -->
<g id="edge29" class="edge">
<title>epi_brain (brainmask)&#45;&gt;outputnode (utility)</title>
<path fill="none" stroke="black" d="M364.89,-361.85C345.35,-353.63 324.56,-341.46 311.09,-324 286.39,-291.97 292.09,-275.45 292.09,-235 292.09,-235 292.09,-235 292.09,-161 292.09,-103.42 351.11,-62.2 395.1,-39.48"/>
<polygon fill="black" stroke="black" points="396.86,-42.51 404.24,-34.91 393.73,-36.25 396.86,-42.51"/>
</g>
<!-- epi_dilmsk (brainmask) -->
<g id="node18" class="node">
<title>epi_dilmsk (brainmask)</title>
<ellipse fill="none" stroke="black" cx="438.09" cy="-306" rx="118.08" ry="18"/>
<text text-anchor="middle" x="438.09" y="-302.3" font-family="Times,serif" font-size="14.00">epi_dilmsk (brainmask)</text>
</g>
<!-- epi_brain (brainmask)&#45;&gt;epi_dilmsk (brainmask) -->
<g id="edge28" class="edge">
<title>epi_brain (brainmask)&#45;&gt;epi_dilmsk (brainmask)</title>
<path fill="none" stroke="black" d="M421.53,-359.7C423.98,-351.9 426.93,-342.51 429.66,-333.83"/>
<polygon fill="black" stroke="black" points="433.05,-334.69 432.71,-324.1 426.38,-332.59 433.05,-334.69"/>
</g>
<!-- ref_anat (utils)&#45;&gt;epi2anat (fixes) -->
<g id="edge30" class="edge">
<title>ref_anat (utils)&#45;&gt;epi2anat (fixes)</title>
<path fill="none" stroke="black" d="M700.04,-289.12C682.09,-279.3 658.84,-266.58 639.38,-255.94"/>
<polygon fill="black" stroke="black" points="640.92,-252.79 630.46,-251.06 637.56,-258.93 640.92,-252.79"/>
</g>
<!-- ref_anat (utils)&#45;&gt;anat2epi (fixes) -->
<g id="edge31" class="edge">
<title>ref_anat (utils)&#45;&gt;anat2epi (fixes)</title>
<path fill="none" stroke="black" d="M723.97,-287.84C718.04,-269.33 707.24,-239.39 693.09,-216 687.12,-206.14 679.35,-196.26 671.94,-187.75"/>
<polygon fill="black" stroke="black" points="674.31,-185.15 665.03,-180.05 669.11,-189.83 674.31,-185.15"/>
</g>
<!-- epi_dilmsk (brainmask)&#45;&gt;epi2anat (fixes) -->
<g id="edge32" class="edge">
<title>epi_dilmsk (brainmask)&#45;&gt;epi2anat (fixes)</title>
<path fill="none" stroke="black" d="M475.9,-288.76C499.83,-278.49 530.9,-265.14 556.1,-254.32"/>
<polygon fill="black" stroke="black" points="557.64,-257.47 565.44,-250.31 554.88,-251.04 557.64,-257.47"/>
</g>
</g>
</svg>
