<?xml version="1.0" encoding="UTF-8" standalone="no"?>
<!DOCTYPE svg PUBLIC "-//W3C//DTD SVG 1.1//EN"
 "http://www.w3.org/Graphics/SVG/1.1/DTD/svg11.dtd">
<!-- Generated by graphviz version 2.46.1 (20210213.1702)
 -->
<!-- Pages: 1 -->
<svg width="292pt" height="476pt"
 viewBox="0.00 0.00 291.64 476.00" xmlns="http://www.w3.org/2000/svg" xmlns:xlink="http://www.w3.org/1999/xlink">
<g id="graph0" class="graph" transform="scale(1 1) rotate(0) translate(4 472)">
<polygon fill="white" stroke="transparent" points="-4,4 -4,-472 287.64,-472 287.64,4 -4,4"/>
<!-- inputnode (utility) -->
<g id="node1" class="node">
<title>inputnode (utility)</title>
<ellipse fill="none" stroke="black" cx="208.24" cy="-450" rx="75.29" ry="18"/>
<text text-anchor="middle" x="208.24" y="-446.3" font-family="Times,serif" font-size="14.00">inputnode (utility)</text>
</g>
<!-- split (utility) -->
<g id="node2" class="node">
<title>split (utility)</title>
<ellipse fill="none" stroke="black" cx="167.24" cy="-378" rx="55.49" ry="18"/>
<text text-anchor="middle" x="167.24" y="-374.3" font-family="Times,serif" font-size="14.00">split (utility)</text>
</g>
<!-- inputnode (utility)&#45;&gt;split (utility) -->
<g id="edge1" class="edge">
<title>inputnode (utility)&#45;&gt;split (utility)</title>
<path fill="none" stroke="black" d="M198.32,-432.05C193.48,-423.8 187.57,-413.7 182.2,-404.54"/>
<polygon fill="black" stroke="black" points="185.15,-402.65 177.08,-395.79 179.11,-406.19 185.15,-402.65"/>
</g>
<!-- prelude (fsl) -->
<g id="node3" class="node">
<title>prelude (fsl)</title>
<ellipse fill="none" stroke="black" cx="227.24" cy="-162" rx="53.89" ry="18"/>
<text text-anchor="middle" x="227.24" y="-158.3" font-family="Times,serif" font-size="14.00">prelude (fsl)</text>
</g>
<!-- inputnode (utility)&#45;&gt;prelude (fsl) -->
<g id="edge2" class="edge">
<title>inputnode (utility)&#45;&gt;prelude (fsl)</title>
<path fill="none" stroke="black" d="M217.79,-431.93C222.88,-421.82 228.63,-408.57 231.24,-396 246.41,-322.96 237.65,-234.27 231.57,-190.36"/>
<polygon fill="black" stroke="black" points="234.99,-189.59 230.09,-180.2 228.07,-190.6 234.99,-189.59"/>
</g>
<!-- phmap2rads (fmap) -->
<g id="node4" class="node">
<title>phmap2rads (fmap)</title>
<ellipse fill="none" stroke="black" cx="81.24" cy="-306" rx="81.49" ry="18"/>
<text text-anchor="middle" x="81.24" y="-302.3" font-family="Times,serif" font-size="14.00">phmap2rads (fmap)</text>
</g>
<!-- split (utility)&#45;&gt;phmap2rads (fmap) -->
<g id="edge3" class="edge">
<title>split (utility)&#45;&gt;phmap2rads (fmap)</title>
<path fill="none" stroke="black" d="M147.73,-361.12C136.43,-351.92 122,-340.18 109.48,-329.98"/>
<polygon fill="black" stroke="black" points="111.54,-327.15 101.58,-323.55 107.12,-332.58 111.54,-327.15"/>
</g>
<!-- calc_phdiff (fmap) -->
<g id="node5" class="node">
<title>calc_phdiff (fmap)</title>
<ellipse fill="none" stroke="black" cx="145.24" cy="-234" rx="77.19" ry="18"/>
<text text-anchor="middle" x="145.24" y="-230.3" font-family="Times,serif" font-size="14.00">calc_phdiff (fmap)</text>
</g>
<!-- split (utility)&#45;&gt;calc_phdiff (fmap) -->
<g id="edge4" class="edge">
<title>split (utility)&#45;&gt;calc_phdiff (fmap)</title>
<path fill="none" stroke="black" d="M170.7,-360.02C173.76,-341.92 176.94,-312.56 171.24,-288 169.09,-278.72 165.07,-269.18 160.82,-260.81"/>
<polygon fill="black" stroke="black" points="163.85,-259.05 156.02,-251.92 157.69,-262.38 163.85,-259.05"/>
</g>
<!-- compfmap (fmap) -->
<g id="node6" class="node">
<title>compfmap (fmap)</title>
<ellipse fill="none" stroke="black" cx="186.24" cy="-90" rx="76.09" ry="18"/>
<text text-anchor="middle" x="186.24" y="-86.3" font-family="Times,serif" font-size="14.00">compfmap (fmap)</text>
</g>
<!-- prelude (fsl)&#45;&gt;compfmap (fmap) -->
<g id="edge5" class="edge">
<title>prelude (fsl)&#45;&gt;compfmap (fmap)</title>
<path fill="none" stroke="black" d="M217.32,-144.05C212.55,-135.92 206.74,-126 201.44,-116.94"/>
<polygon fill="black" stroke="black" points="204.44,-115.14 196.36,-108.28 198.4,-118.67 204.44,-115.14"/>
</g>
<!-- phmap2rads (fmap)&#45;&gt;calc_phdiff (fmap) -->
<g id="edge6" class="edge">
<title>phmap2rads (fmap)&#45;&gt;calc_phdiff (fmap)</title>
<path fill="none" stroke="black" d="M96.74,-288.05C104.6,-279.46 114.29,-268.86 122.94,-259.4"/>
<polygon fill="black" stroke="black" points="125.73,-261.53 129.89,-251.79 120.56,-256.81 125.73,-261.53"/>
</g>
<!-- calc_phdiff (fmap)&#45;&gt;prelude (fsl) -->
<g id="edge7" class="edge">
<title>calc_phdiff (fmap)&#45;&gt;prelude (fsl)</title>
<path fill="none" stroke="black" d="M164.68,-216.41C175.45,-207.21 189,-195.64 200.74,-185.63"/>
<polygon fill="black" stroke="black" points="203.18,-188.14 208.51,-178.99 198.64,-182.82 203.18,-188.14"/>
</g>
<!-- calc_phdiff (fmap)&#45;&gt;compfmap (fmap) -->
<g id="edge8" class="edge">
<title>calc_phdiff (fmap)&#45;&gt;compfmap (fmap)</title>
<path fill="none" stroke="black" d="M147.97,-215.7C151.05,-197.59 156.63,-168.44 164.24,-144 166.97,-135.25 170.58,-125.94 174.08,-117.61"/>
<polygon fill="black" stroke="black" points="177.32,-118.94 178.09,-108.37 170.9,-116.15 177.32,-118.94"/>
</g>
<!-- outputnode (utility) -->
<g id="node7" class="node">
<title>outputnode (utility)</title>
<ellipse fill="none" stroke="black" cx="186.24" cy="-18" rx="79.09" ry="18"/>
<text text-anchor="middle" x="186.24" y="-14.3" font-family="Times,serif" font-size="14.00">outputnode (utility)</text>
</g>
<!-- compfmap (fmap)&#45;&gt;outputnode (utility) -->
<g id="edge9" class="edge">
<title>compfmap (fmap)&#45;&gt;outputnode (utility)</title>
<path fill="none" stroke="black" d="M186.24,-71.7C186.24,-63.98 186.24,-54.71 186.24,-46.11"/>
<polygon fill="black" stroke="black" points="189.74,-46.1 186.24,-36.1 182.74,-46.1 189.74,-46.1"/>
</g>
</g>
</svg>
