<?xml version="1.0" encoding="UTF-8" standalone="no"?>
<!DOCTYPE svg PUBLIC "-//W3C//DTD SVG 1.1//EN"
 "http://www.w3.org/Graphics/SVG/1.1/DTD/svg11.dtd">
<!-- Generated by graphviz version 2.43.0 (0)
 -->
<!-- Title: %3 Pages: 1 -->
<svg width="257pt" height="188pt"
 viewBox="0.00 0.00 257.43 188.00" xmlns="http://www.w3.org/2000/svg" xmlns:xlink="http://www.w3.org/1999/xlink">
<g id="graph0" class="graph" transform="scale(1 1) rotate(0) translate(4 184)">
<title>%3</title>
<polygon fill="white" stroke="transparent" points="-4,4 -4,-184 253.43,-184 253.43,4 -4,4"/>
<!-- inputnode (utility) -->
<g id="node1" class="node">
<title>inputnode (utility)</title>
<ellipse fill="none" stroke="black" cx="101.39" cy="-162" rx="94.78" ry="18"/>
<text text-anchor="middle" x="101.39" y="-158.3" font-family="Times,serif" font-size="14.00">inputnode (utility)</text>
</g>
<!-- outputnode (utility) -->
<g id="node2" class="node">
<title>outputnode (utility)</title>
<ellipse fill="none" stroke="black" cx="101.39" cy="-18" rx="101.28" ry="18"/>
<text text-anchor="middle" x="101.39" y="-14.3" font-family="Times,serif" font-size="14.00">outputnode (utility)</text>
</g>
<!-- inputnode (utility)&#45;&gt;outputnode (utility) -->
<g id="edge1" class="edge">
<title>inputnode (utility)&#45;&gt;outputnode (utility)</title>
<path fill="none" stroke="black" d="M84.5,-143.99C76.1,-134.31 66.81,-121.46 62.39,-108 57.4,-92.8 57.4,-87.2 62.39,-72 65.7,-61.91 71.76,-52.15 78.12,-43.82"/>
<polygon fill="black" stroke="black" points="80.89,-45.97 84.5,-36.01 75.47,-41.54 80.89,-45.97"/>
</g>
<!-- coregister (fixes) -->
<g id="node3" class="node">
<title>coregister (fixes)</title>
<ellipse fill="none" stroke="black" cx="160.39" cy="-90" rx="89.08" ry="18"/>
<text text-anchor="middle" x="160.39" y="-86.3" font-family="Times,serif" font-size="14.00">coregister (fixes)</text>
</g>
<!-- inputnode (utility)&#45;&gt;coregister (fixes) -->
<g id="edge2" class="edge">
<title>inputnode (utility)&#45;&gt;coregister (fixes)</title>
<path fill="none" stroke="black" d="M115.67,-144.05C122.85,-135.54 131.68,-125.07 139.59,-115.68"/>
<polygon fill="black" stroke="black" points="142.47,-117.69 146.24,-107.79 137.12,-113.18 142.47,-117.69"/>
</g>
<!-- coregister (fixes)&#45;&gt;outputnode (utility) -->
<g id="edge3" class="edge">
<title>coregister (fixes)&#45;&gt;outputnode (utility)</title>
<path fill="none" stroke="black" d="M146.11,-72.05C139.04,-63.67 130.37,-53.38 122.54,-44.1"/>
<polygon fill="black" stroke="black" points="125.07,-41.67 115.95,-36.28 119.72,-46.18 125.07,-41.67"/>
</g>
</g>
</svg>
