<?xml version="1.0" encoding="UTF-8" standalone="no"?>
<!DOCTYPE svg PUBLIC "-//W3C//DTD SVG 1.1//EN"
 "http://www.w3.org/Graphics/SVG/1.1/DTD/svg11.dtd">
<!-- Generated by graphviz version 2.46.1 (20210213.1702)
 -->
<!-- Pages: 1 -->
<svg width="214pt" height="332pt"
 viewBox="0.00 0.00 214.19 332.00" xmlns="http://www.w3.org/2000/svg" xmlns:xlink="http://www.w3.org/1999/xlink">
<g id="graph0" class="graph" transform="scale(1 1) rotate(0) translate(4 328)">
<polygon fill="white" stroke="transparent" points="-4,4 -4,-328 210.19,-328 210.19,4 -4,4"/>
<!-- inputnode (utility) -->
<g id="node1" class="node">
<title>inputnode (utility)</title>
<ellipse fill="none" stroke="black" cx="99.44" cy="-306" rx="75.29" ry="18"/>
<text text-anchor="middle" x="99.44" y="-302.3" font-family="Times,serif" font-size="14.00">inputnode (utility)</text>
</g>
<!-- magnitude_wf -->
<g id="node2" class="node">
<title>magnitude_wf</title>
<ellipse fill="none" stroke="black" cx="144.44" cy="-234" rx="61.99" ry="18"/>
<text text-anchor="middle" x="144.44" y="-230.3" font-family="Times,serif" font-size="14.00">magnitude_wf</text>
</g>
<!-- inputnode (utility)&#45;&gt;magnitude_wf -->
<g id="edge1" class="edge">
<title>inputnode (utility)&#45;&gt;magnitude_wf</title>
<path fill="none" stroke="black" d="M110.34,-288.05C115.7,-279.71 122.27,-269.49 128.21,-260.25"/>
<polygon fill="black" stroke="black" points="131.19,-262.09 133.65,-251.79 125.3,-258.31 131.19,-262.09"/>
</g>
<!-- phdiff_wf -->
<g id="node3" class="node">
<title>phdiff_wf</title>
<ellipse fill="none" stroke="black" cx="62.44" cy="-162" rx="46.29" ry="18"/>
<text text-anchor="middle" x="62.44" y="-158.3" font-family="Times,serif" font-size="14.00">phdiff_wf</text>
</g>
<!-- inputnode (utility)&#45;&gt;phdiff_wf -->
<g id="edge2" class="edge">
<title>inputnode (utility)&#45;&gt;phdiff_wf</title>
<path fill="none" stroke="black" d="M89.25,-287.93C83.69,-277.82 77.19,-264.57 73.44,-252 67.42,-231.76 64.69,-207.99 63.45,-190.11"/>
<polygon fill="black" stroke="black" points="66.95,-189.86 62.88,-180.07 59.96,-190.26 66.95,-189.86"/>
</g>
<!-- magnitude_wf&#45;&gt;phdiff_wf -->
<g id="edge5" class="edge">
<title>magnitude_wf&#45;&gt;phdiff_wf</title>
<path fill="none" stroke="black" d="M125.42,-216.76C114.51,-207.45 100.64,-195.61 88.7,-185.41"/>
<polygon fill="black" stroke="black" points="90.67,-182.5 80.79,-178.67 86.13,-187.82 90.67,-182.5"/>
</g>
<!-- bs_filter (bspline) -->
<g id="node4" class="node">
<title>bs_filter (bspline)</title>
<ellipse fill="none" stroke="black" cx="73.44" cy="-90" rx="73.39" ry="18"/>
<text text-anchor="middle" x="73.44" y="-86.3" font-family="Times,serif" font-size="14.00">bs_filter (bspline)</text>
</g>
<!-- magnitude_wf&#45;&gt;bs_filter (bspline) -->
<g id="edge3" class="edge">
<title>magnitude_wf&#45;&gt;bs_filter (bspline)</title>
<path fill="none" stroke="black" d="M141.35,-215.81C137.54,-197.29 129.99,-167.32 117.44,-144 112.03,-133.94 104.54,-124.02 97.26,-115.52"/>
<polygon fill="black" stroke="black" points="99.7,-112.99 90.43,-107.86 94.47,-117.65 99.7,-112.99"/>
</g>
<!-- outputnode (utility) -->
<g id="node5" class="node">
<title>outputnode (utility)</title>
<ellipse fill="none" stroke="black" cx="123.44" cy="-18" rx="79.09" ry="18"/>
<text text-anchor="middle" x="123.44" y="-14.3" font-family="Times,serif" font-size="14.00">outputnode (utility)</text>
</g>
<!-- magnitude_wf&#45;&gt;outputnode (utility) -->
<g id="edge4" class="edge">
<title>magnitude_wf&#45;&gt;outputnode (utility)</title>
<path fill="none" stroke="black" d="M149.35,-215.7C157.02,-185.78 169.57,-122.74 155.44,-72 152.78,-62.42 147.86,-52.84 142.66,-44.51"/>
<polygon fill="black" stroke="black" points="145.46,-42.41 137.01,-36.03 139.64,-46.29 145.46,-42.41"/>
</g>
<!-- phdiff_wf&#45;&gt;bs_filter (bspline) -->
<g id="edge6" class="edge">
<title>phdiff_wf&#45;&gt;bs_filter (bspline)</title>
<path fill="none" stroke="black" d="M65.16,-143.7C66.37,-135.98 67.83,-126.71 69.18,-118.11"/>
<polygon fill="black" stroke="black" points="72.66,-118.53 70.76,-108.1 65.75,-117.44 72.66,-118.53"/>
</g>
<!-- bs_filter (bspline)&#45;&gt;outputnode (utility) -->
<g id="edge7" class="edge">
<title>bs_filter (bspline)&#45;&gt;outputnode (utility)</title>
<path fill="none" stroke="black" d="M85.55,-72.05C91.42,-63.84 98.59,-53.79 105.11,-44.66"/>
<polygon fill="black" stroke="black" points="108.14,-46.45 111.1,-36.28 102.44,-42.38 108.14,-46.45"/>
</g>
</g>
</svg>
