<?xml version="1.0" encoding="UTF-8" standalone="no"?>
<!DOCTYPE svg PUBLIC "-//W3C//DTD SVG 1.1//EN"
 "http://www.w3.org/Graphics/SVG/1.1/DTD/svg11.dtd">
<!-- Generated by graphviz version 2.43.0 (0)
 -->
<!-- Title: %3 Pages: 1 -->
<svg width="1689pt" height="764pt"
 viewBox="0.00 0.00 1689.07 764.00" xmlns="http://www.w3.org/2000/svg" xmlns:xlink="http://www.w3.org/1999/xlink">
<g id="graph0" class="graph" transform="scale(1 1) rotate(0) translate(4 760)">
<title>%3</title>
<polygon fill="white" stroke="transparent" points="-4,4 -4,-760 1685.07,-760 1685.07,4 -4,4"/>
<!-- inputnode (utility) -->
<g id="node1" class="node">
<title>inputnode (utility)</title>
<ellipse fill="none" stroke="black" cx="1066.04" cy="-738" rx="94.78" ry="18"/>
<text text-anchor="middle" x="1066.04" y="-734.3" font-family="Times,serif" font-size="14.00">inputnode (utility)</text>
</g>
<!-- readout_time (epi) -->
<g id="node2" class="node">
<title>readout_time (epi)</title>
<ellipse fill="none" stroke="black" cx="256.04" cy="-666" rx="96.38" ry="18"/>
<text text-anchor="middle" x="256.04" y="-662.3" font-family="Times,serif" font-size="14.00">readout_time (epi)</text>
</g>
<!-- inputnode (utility)&#45;&gt;readout_time (epi) -->
<g id="edge1" class="edge">
<title>inputnode (utility)&#45;&gt;readout_time (epi)</title>
<path fill="none" stroke="black" d="M979.09,-730.76C853.57,-721.56 614.34,-703.37 411.04,-684 389.87,-681.98 367.1,-679.6 345.7,-677.27"/>
<polygon fill="black" stroke="black" points="345.97,-673.78 335.65,-676.17 345.21,-680.74 345.97,-673.78"/>
</g>
<!-- clip_epi (nibabel) -->
<g id="node3" class="node">
<title>clip_epi (nibabel)</title>
<ellipse fill="none" stroke="black" cx="589.04" cy="-666" rx="89.88" ry="18"/>
<text text-anchor="middle" x="589.04" y="-662.3" font-family="Times,serif" font-size="14.00">clip_epi (nibabel)</text>
</g>
<!-- inputnode (utility)&#45;&gt;clip_epi (nibabel) -->
<g id="edge2" class="edge">
<title>inputnode (utility)&#45;&gt;clip_epi (nibabel)</title>
<path fill="none" stroke="black" d="M993.6,-726.37C906.18,-713.54 759.67,-692.04 669.01,-678.74"/>
<polygon fill="black" stroke="black" points="669.46,-675.26 659.06,-677.27 668.44,-682.19 669.46,-675.26"/>
</g>
<!-- unwarp (bspline) -->
<g id="node4" class="node">
<title>unwarp (bspline)</title>
<ellipse fill="none" stroke="black" cx="89.04" cy="-90" rx="89.08" ry="18"/>
<text text-anchor="middle" x="89.04" y="-86.3" font-family="Times,serif" font-size="14.00">unwarp (bspline)</text>
</g>
<!-- inputnode (utility)&#45;&gt;unwarp (bspline) -->
<g id="edge3" class="edge">
<title>inputnode (utility)&#45;&gt;unwarp (bspline)</title>
<path fill="none" stroke="black" d="M972.23,-735C754.08,-729.87 225.57,-714.43 151.04,-684 95.34,-661.26 49.04,-655.16 49.04,-595 49.04,-595 49.04,-595 49.04,-233 49.04,-191.48 65.08,-145.61 76.84,-117.54"/>
<polygon fill="black" stroke="black" points="80.19,-118.62 80.95,-108.05 73.77,-115.84 80.19,-118.62"/>
</g>
<!-- amask2epi (fixes) -->
<g id="node5" class="node">
<title>amask2epi (fixes)</title>
<ellipse fill="none" stroke="black" cx="1493.04" cy="-594" rx="91.78" ry="18"/>
<text text-anchor="middle" x="1493.04" y="-590.3" font-family="Times,serif" font-size="14.00">amask2epi (fixes)</text>
</g>
<!-- inputnode (utility)&#45;&gt;amask2epi (fixes) -->
<g id="edge4" class="edge">
<title>inputnode (utility)&#45;&gt;amask2epi (fixes)</title>
<path fill="none" stroke="black" d="M1149.41,-729.3C1198.91,-722.29 1261.81,-709.01 1313.04,-684 1335.44,-673.06 1334.58,-660.67 1356.04,-648 1380.57,-633.53 1409.77,-621.6 1434.9,-612.74"/>
<polygon fill="black" stroke="black" points="1436.35,-615.94 1444.67,-609.38 1434.07,-609.32 1436.35,-615.94"/>
</g>
<!-- zooms_bmask (fixes) -->
<g id="node6" class="node">
<title>zooms_bmask (fixes)</title>
<ellipse fill="none" stroke="black" cx="423.04" cy="-162" rx="105.88" ry="18"/>
<text text-anchor="middle" x="423.04" y="-158.3" font-family="Times,serif" font-size="14.00">zooms_bmask (fixes)</text>
</g>
<!-- inputnode (utility)&#45;&gt;zooms_bmask (fixes) -->
<g id="edge5" class="edge">
<title>inputnode (utility)&#45;&gt;zooms_bmask (fixes)</title>
<path fill="none" stroke="black" d="M1158.79,-733.93C1313.26,-728.02 1610.12,-713.02 1648.04,-684 1681.54,-658.36 1681.04,-637.19 1681.04,-595 1681.04,-595 1681.04,-595 1681.04,-305 1681.04,-190.67 849.97,-168.38 538.8,-164.05"/>
<polygon fill="black" stroke="black" points="538.45,-160.54 528.4,-163.9 538.36,-167.54 538.45,-160.54"/>
</g>
<!-- fixed_masks (utility) -->
<g id="node7" class="node">
<title>fixed_masks (utility)</title>
<ellipse fill="none" stroke="black" cx="923.04" cy="-450" rx="104.78" ry="18"/>
<text text-anchor="middle" x="923.04" y="-446.3" font-family="Times,serif" font-size="14.00">fixed_masks (utility)</text>
</g>
<!-- inputnode (utility)&#45;&gt;fixed_masks (utility) -->
<g id="edge6" class="edge">
<title>inputnode (utility)&#45;&gt;fixed_masks (utility)</title>
<path fill="none" stroke="black" d="M1064.6,-719.66C1061.5,-689.15 1052.39,-624.51 1028.04,-576 1008.19,-536.46 973.51,-498.66 949.46,-475.18"/>
<polygon fill="black" stroke="black" points="951.7,-472.48 942.06,-468.08 946.85,-477.53 951.7,-472.48"/>
</g>
<!-- anat_dilmsk (brainmask) -->
<g id="node8" class="node">
<title>anat_dilmsk (brainmask)</title>
<ellipse fill="none" stroke="black" cx="1490.04" cy="-666" rx="124.58" ry="18"/>
<text text-anchor="middle" x="1490.04" y="-662.3" font-family="Times,serif" font-size="14.00">anat_dilmsk (brainmask)</text>
</g>
<!-- inputnode (utility)&#45;&gt;anat_dilmsk (brainmask) -->
<g id="edge7" class="edge">
<title>inputnode (utility)&#45;&gt;anat_dilmsk (brainmask)</title>
<path fill="none" stroke="black" d="M1135.11,-725.6C1207.68,-713.62 1322.09,-694.73 1401.3,-681.65"/>
<polygon fill="black" stroke="black" points="1401.97,-685.09 1411.27,-680 1400.83,-678.18 1401.97,-685.09"/>
</g>
<!-- warp_dir (utility) -->
<g id="node9" class="node">
<title>warp_dir (utility)</title>
<ellipse fill="none" stroke="black" cx="706.04" cy="-594" rx="89.08" ry="18"/>
<text text-anchor="middle" x="706.04" y="-590.3" font-family="Times,serif" font-size="14.00">warp_dir (utility)</text>
</g>
<!-- inputnode (utility)&#45;&gt;warp_dir (utility) -->
<g id="edge8" class="edge">
<title>inputnode (utility)&#45;&gt;warp_dir (utility)</title>
<path fill="none" stroke="black" d="M980.43,-730.12C928.96,-723.4 863.32,-710.13 810.04,-684 777.69,-668.13 747.18,-639.84 727.67,-619.41"/>
<polygon fill="black" stroke="black" points="730.14,-616.92 720.76,-612 725.03,-621.7 730.14,-616.92"/>
</g>
<!-- vox_params (utility) -->
<g id="node10" class="node">
<title>vox_params (utility)</title>
<ellipse fill="none" stroke="black" cx="256.04" cy="-594" rx="103.18" ry="18"/>
<text text-anchor="middle" x="256.04" y="-590.3" font-family="Times,serif" font-size="14.00">vox_params (utility)</text>
</g>
<!-- inputnode (utility)&#45;&gt;vox_params (utility) -->
<g id="edge9" class="edge">
<title>inputnode (utility)&#45;&gt;vox_params (utility)</title>
<path fill="none" stroke="black" d="M971.52,-736.13C856.38,-733.28 656.6,-722.58 490.04,-684 421.06,-668.02 345.11,-636.34 299,-615.41"/>
<polygon fill="black" stroke="black" points="300.17,-612.1 289.62,-611.11 297.26,-618.46 300.17,-612.1"/>
</g>
<!-- anat_merge (utility) -->
<g id="node11" class="node">
<title>anat_merge (utility)</title>
<ellipse fill="none" stroke="black" cx="1178.04" cy="-522" rx="102.88" ry="18"/>
<text text-anchor="middle" x="1178.04" y="-518.3" font-family="Times,serif" font-size="14.00">anat_merge (utility)</text>
</g>
<!-- inputnode (utility)&#45;&gt;anat_merge (utility) -->
<g id="edge10" class="edge">
<title>inputnode (utility)&#45;&gt;anat_merge (utility)</title>
<path fill="none" stroke="black" d="M1066.24,-719.94C1067.38,-688.76 1073.5,-621.56 1104.04,-576 1112.48,-563.42 1124.97,-552.82 1137.31,-544.5"/>
<polygon fill="black" stroke="black" points="1139.22,-547.43 1145.77,-539.1 1135.45,-541.53 1139.22,-547.43"/>
</g>
<!-- lap_anat (ants) -->
<g id="node12" class="node">
<title>lap_anat (ants)</title>
<ellipse fill="none" stroke="black" cx="1192.04" cy="-666" rx="79.09" ry="18"/>
<text text-anchor="middle" x="1192.04" y="-662.3" font-family="Times,serif" font-size="14.00">lap_anat (ants)</text>
</g>
<!-- inputnode (utility)&#45;&gt;lap_anat (ants) -->
<g id="edge11" class="edge">
<title>inputnode (utility)&#45;&gt;lap_anat (ants)</title>
<path fill="none" stroke="black" d="M1095.27,-720.76C1112.88,-710.98 1135.51,-698.41 1154.45,-687.89"/>
<polygon fill="black" stroke="black" points="1156.37,-690.82 1163.41,-682.91 1152.97,-684.7 1156.37,-690.82"/>
</g>
<!-- find_zooms (utility) -->
<g id="node13" class="node">
<title>find_zooms (utility)</title>
<ellipse fill="none" stroke="black" cx="918.04" cy="-666" rx="99.38" ry="18"/>
<text text-anchor="middle" x="918.04" y="-662.3" font-family="Times,serif" font-size="14.00">find_zooms (utility)</text>
</g>
<!-- inputnode (utility)&#45;&gt;find_zooms (utility) -->
<g id="edge12" class="edge">
<title>inputnode (utility)&#45;&gt;find_zooms (utility)</title>
<path fill="none" stroke="black" d="M1032.46,-721.12C1011.25,-711.08 983.64,-698.03 960.86,-687.25"/>
<polygon fill="black" stroke="black" points="962.28,-684.05 951.75,-682.94 959.29,-690.38 962.28,-684.05"/>
</g>
<!-- zooms_field (fixes) -->
<g id="node14" class="node">
<title>zooms_field (fixes)</title>
<ellipse fill="none" stroke="black" cx="410.04" cy="-234" rx="95.58" ry="18"/>
<text text-anchor="middle" x="410.04" y="-230.3" font-family="Times,serif" font-size="14.00">zooms_field (fixes)</text>
</g>
<!-- inputnode (utility)&#45;&gt;zooms_field (fixes) -->
<g id="edge13" class="edge">
<title>inputnode (utility)&#45;&gt;zooms_field (fixes)</title>
<path fill="none" stroke="black" d="M1158.7,-734.11C1308.37,-728.57 1590.09,-714.24 1624.04,-684 1654.25,-657.1 1643.04,-635.45 1643.04,-595 1643.04,-595 1643.04,-595 1643.04,-377 1643.04,-263.9 813.75,-240.8 515.39,-236.15"/>
<polygon fill="black" stroke="black" points="515.05,-232.65 505,-235.99 514.95,-239.65 515.05,-232.65"/>
</g>
<!-- epi_umask (brainmask) -->
<g id="node15" class="node">
<title>epi_umask (brainmask)</title>
<ellipse fill="none" stroke="black" cx="1417.04" cy="-522" rx="118.08" ry="18"/>
<text text-anchor="middle" x="1417.04" y="-518.3" font-family="Times,serif" font-size="14.00">epi_umask (brainmask)</text>
</g>
<!-- inputnode (utility)&#45;&gt;epi_umask (brainmask) -->
<g id="edge14" class="edge">
<title>inputnode (utility)&#45;&gt;epi_umask (brainmask)</title>
<path fill="none" stroke="black" d="M1146.53,-728.41C1188.58,-721.21 1239.56,-708.04 1280.04,-684 1298.71,-672.92 1297.53,-663.18 1313.04,-648 1330.37,-631.04 1337.81,-630.02 1354.04,-612 1372.01,-592.05 1389.4,-566.9 1401.34,-548.42"/>
<polygon fill="black" stroke="black" points="1404.32,-550.26 1406.74,-539.94 1398.42,-546.5 1404.32,-550.26"/>
</g>
<!-- readout_time (epi)&#45;&gt;unwarp (bspline) -->
<g id="edge18" class="edge">
<title>readout_time (epi)&#45;&gt;unwarp (bspline)</title>
<path fill="none" stroke="black" d="M195.2,-651.98C170.2,-644.01 142.6,-631.46 123.04,-612 92.79,-581.91 87.04,-565.67 87.04,-523 87.04,-523 87.04,-523 87.04,-233 87.04,-192.99 87.85,-146.65 88.43,-118.08"/>
<polygon fill="black" stroke="black" points="91.93,-118.12 88.65,-108.05 84.94,-117.97 91.93,-118.12"/>
</g>
<!-- readout_time (epi)&#45;&gt;warp_dir (utility) -->
<g id="edge15" class="edge">
<title>readout_time (epi)&#45;&gt;warp_dir (utility)</title>
<path fill="none" stroke="black" d="M327.35,-653.91C409.15,-641.18 542.87,-620.38 627.57,-607.21"/>
<polygon fill="black" stroke="black" points="628.31,-610.63 637.65,-605.64 627.23,-603.72 628.31,-610.63"/>
</g>
<!-- readout_time (epi)&#45;&gt;vox_params (utility) -->
<g id="edge16" class="edge">
<title>readout_time (epi)&#45;&gt;vox_params (utility)</title>
<path fill="none" stroke="black" d="M256.04,-647.7C256.04,-639.98 256.04,-630.71 256.04,-622.11"/>
<polygon fill="black" stroke="black" points="259.54,-622.1 256.04,-612.1 252.54,-622.1 259.54,-622.1"/>
</g>
<!-- extract_field (fmap) -->
<g id="node16" class="node">
<title>extract_field (fmap)</title>
<ellipse fill="none" stroke="black" cx="396.04" cy="-306" rx="101.28" ry="18"/>
<text text-anchor="middle" x="396.04" y="-302.3" font-family="Times,serif" font-size="14.00">extract_field (fmap)</text>
</g>
<!-- readout_time (epi)&#45;&gt;extract_field (fmap) -->
<g id="edge17" class="edge">
<title>readout_time (epi)&#45;&gt;extract_field (fmap)</title>
<path fill="none" stroke="black" d="M202.35,-650.94C181.27,-642.84 158.66,-630.47 144.04,-612 118.94,-580.29 125.04,-563.45 125.04,-523 125.04,-523 125.04,-523 125.04,-449 125.04,-367.25 223.01,-332.47 301.13,-317.73"/>
<polygon fill="black" stroke="black" points="301.82,-321.16 311.04,-315.95 300.58,-314.27 301.82,-321.16"/>
</g>
<!-- clip_epi (nibabel)&#45;&gt;warp_dir (utility) -->
<g id="edge22" class="edge">
<title>clip_epi (nibabel)&#45;&gt;warp_dir (utility)</title>
<path fill="none" stroke="black" d="M616.18,-648.76C632.16,-639.2 652.57,-626.99 669.91,-616.62"/>
<polygon fill="black" stroke="black" points="671.86,-619.53 678.65,-611.39 668.27,-613.52 671.86,-619.53"/>
</g>
<!-- clip_epi (nibabel)&#45;&gt;vox_params (utility) -->
<g id="edge23" class="edge">
<title>clip_epi (nibabel)&#45;&gt;vox_params (utility)</title>
<path fill="none" stroke="black" d="M529.51,-652.49C473.42,-640.7 389.25,-623 329.12,-610.36"/>
<polygon fill="black" stroke="black" points="329.81,-606.93 319.31,-608.3 328.37,-613.78 329.81,-606.93"/>
</g>
<!-- clip_epi (nibabel)&#45;&gt;extract_field (fmap) -->
<g id="edge24" class="edge">
<title>clip_epi (nibabel)&#45;&gt;extract_field (fmap)</title>
<path fill="none" stroke="black" d="M505.81,-659.06C470.67,-652.39 431.98,-638.91 406.04,-612 332.69,-535.89 367.6,-393.15 386.58,-333.87"/>
<polygon fill="black" stroke="black" points="389.98,-334.72 389.79,-324.13 383.33,-332.53 389.98,-334.72"/>
</g>
<!-- epi_merge (utility) -->
<g id="node17" class="node">
<title>epi_merge (utility)</title>
<ellipse fill="none" stroke="black" cx="613.04" cy="-450" rx="96.68" ry="18"/>
<text text-anchor="middle" x="613.04" y="-446.3" font-family="Times,serif" font-size="14.00">epi_merge (utility)</text>
</g>
<!-- clip_epi (nibabel)&#45;&gt;epi_merge (utility) -->
<g id="edge19" class="edge">
<title>clip_epi (nibabel)&#45;&gt;epi_merge (utility)</title>
<path fill="none" stroke="black" d="M591.37,-647.92C594.15,-629.74 599.53,-600.3 608.04,-576 613.96,-559.12 621.93,-557.41 626.04,-540 629.72,-524.43 627.96,-519.88 626.04,-504 625,-495.4 623.05,-486.19 620.97,-477.89"/>
<polygon fill="black" stroke="black" points="624.28,-476.75 618.32,-467.99 617.52,-478.56 624.28,-476.75"/>
</g>
<!-- lap_epi (ants) -->
<g id="node18" class="node">
<title>lap_epi (ants)</title>
<ellipse fill="none" stroke="black" cx="488.04" cy="-594" rx="73.39" ry="18"/>
<text text-anchor="middle" x="488.04" y="-590.3" font-family="Times,serif" font-size="14.00">lap_epi (ants)</text>
</g>
<!-- clip_epi (nibabel)&#45;&gt;lap_epi (ants) -->
<g id="edge20" class="edge">
<title>clip_epi (nibabel)&#45;&gt;lap_epi (ants)</title>
<path fill="none" stroke="black" d="M565.36,-648.59C551.81,-639.2 534.63,-627.29 519.91,-617.09"/>
<polygon fill="black" stroke="black" points="521.79,-614.13 511.57,-611.31 517.8,-619.88 521.79,-614.13"/>
</g>
<!-- zooms_epi (nibabel) -->
<g id="node19" class="node">
<title>zooms_epi (nibabel)</title>
<ellipse fill="none" stroke="black" cx="916.04" cy="-594" rx="102.88" ry="18"/>
<text text-anchor="middle" x="916.04" y="-590.3" font-family="Times,serif" font-size="14.00">zooms_epi (nibabel)</text>
</g>
<!-- clip_epi (nibabel)&#45;&gt;zooms_epi (nibabel) -->
<g id="edge21" class="edge">
<title>clip_epi (nibabel)&#45;&gt;zooms_epi (nibabel)</title>
<path fill="none" stroke="black" d="M647.88,-652.4C702.81,-640.65 784.92,-623.07 843.81,-610.46"/>
<polygon fill="black" stroke="black" points="844.74,-613.84 853.78,-608.33 843.27,-607 844.74,-613.84"/>
</g>
<!-- outputnode (utility) -->
<g id="node20" class="node">
<title>outputnode (utility)</title>
<ellipse fill="none" stroke="black" cx="207.04" cy="-18" rx="101.28" ry="18"/>
<text text-anchor="middle" x="207.04" y="-14.3" font-family="Times,serif" font-size="14.00">outputnode (utility)</text>
</g>
<!-- unwarp (bspline)&#45;&gt;outputnode (utility) -->
<g id="edge25" class="edge">
<title>unwarp (bspline)&#45;&gt;outputnode (utility)</title>
<path fill="none" stroke="black" d="M116.41,-72.76C132.53,-63.2 153.12,-50.99 170.6,-40.62"/>
<polygon fill="black" stroke="black" points="172.6,-43.5 179.41,-35.39 169.03,-37.48 172.6,-43.5"/>
</g>
<!-- amask2epi (fixes)&#45;&gt;epi_umask (brainmask) -->
<g id="edge26" class="edge">
<title>amask2epi (fixes)&#45;&gt;epi_umask (brainmask)</title>
<path fill="none" stroke="black" d="M1474.64,-576.05C1465.12,-567.28 1453.34,-556.43 1442.92,-546.83"/>
<polygon fill="black" stroke="black" points="1445,-543.99 1435.27,-539.79 1440.25,-549.14 1445,-543.99"/>
</g>
<!-- zooms_bmask (fixes)&#45;&gt;outputnode (utility) -->
<g id="edge27" class="edge">
<title>zooms_bmask (fixes)&#45;&gt;outputnode (utility)</title>
<path fill="none" stroke="black" d="M397.84,-144.43C358.9,-118.83 284.08,-69.64 240.6,-41.06"/>
<polygon fill="black" stroke="black" points="242.36,-38.03 232.08,-35.46 238.52,-43.88 242.36,-38.03"/>
</g>
<!-- syn (fixes) -->
<g id="node21" class="node">
<title>syn (fixes)</title>
<ellipse fill="none" stroke="black" cx="738.04" cy="-378" rx="57.69" ry="18"/>
<text text-anchor="middle" x="738.04" y="-374.3" font-family="Times,serif" font-size="14.00">syn (fixes)</text>
</g>
<!-- fixed_masks (utility)&#45;&gt;syn (fixes) -->
<g id="edge28" class="edge">
<title>fixed_masks (utility)&#45;&gt;syn (fixes)</title>
<path fill="none" stroke="black" d="M881.52,-433.29C852.11,-422.16 812.69,-407.25 782.61,-395.87"/>
<polygon fill="black" stroke="black" points="783.79,-392.57 773.2,-392.3 781.32,-399.12 783.79,-392.57"/>
</g>
<!-- anat_dilmsk (brainmask)&#45;&gt;amask2epi (fixes) -->
<g id="edge29" class="edge">
<title>anat_dilmsk (brainmask)&#45;&gt;amask2epi (fixes)</title>
<path fill="none" stroke="black" d="M1490.78,-647.7C1491.11,-639.98 1491.51,-630.71 1491.88,-622.11"/>
<polygon fill="black" stroke="black" points="1495.38,-622.25 1492.31,-612.1 1488.38,-621.95 1495.38,-622.25"/>
</g>
<!-- warp_dir (utility)&#45;&gt;syn (fixes) -->
<g id="edge30" class="edge">
<title>warp_dir (utility)&#45;&gt;syn (fixes)</title>
<path fill="none" stroke="black" d="M708.61,-575.85C714.14,-538.83 727.25,-451.18 733.95,-406.39"/>
<polygon fill="black" stroke="black" points="737.45,-406.64 735.47,-396.23 730.52,-405.6 737.45,-406.64"/>
</g>
<!-- vox_params (utility)&#45;&gt;syn (fixes) -->
<g id="edge31" class="edge">
<title>vox_params (utility)&#45;&gt;syn (fixes)</title>
<path fill="none" stroke="black" d="M280.13,-576.24C306.42,-558.07 349.85,-528.41 388.04,-504 440.13,-470.71 449.75,-455.21 507.04,-432 562.11,-409.7 628.56,-395.69 676.02,-387.72"/>
<polygon fill="black" stroke="black" points="676.85,-391.13 686.15,-386.06 675.71,-384.22 676.85,-391.13"/>
</g>
<!-- anat_merge (utility)&#45;&gt;syn (fixes) -->
<g id="edge32" class="edge">
<title>anat_merge (utility)&#45;&gt;syn (fixes)</title>
<path fill="none" stroke="black" d="M1157.46,-504.35C1131.16,-483.97 1083.48,-449.97 1037.04,-432 960.43,-402.35 866.3,-389.16 804.37,-383.38"/>
<polygon fill="black" stroke="black" points="804.6,-379.88 794.33,-382.48 803.98,-386.85 804.6,-379.88"/>
</g>
<!-- lap_anat_norm (utility) -->
<g id="node22" class="node">
<title>lap_anat_norm (utility)</title>
<ellipse fill="none" stroke="black" cx="1229.04" cy="-594" rx="116.18" ry="18"/>
<text text-anchor="middle" x="1229.04" y="-590.3" font-family="Times,serif" font-size="14.00">lap_anat_norm (utility)</text>
</g>
<!-- lap_anat (ants)&#45;&gt;lap_anat_norm (utility) -->
<g id="edge33" class="edge">
<title>lap_anat (ants)&#45;&gt;lap_anat_norm (utility)</title>
<path fill="none" stroke="black" d="M1201,-648.05C1205.25,-640.01 1210.43,-630.2 1215.18,-621.23"/>
<polygon fill="black" stroke="black" points="1218.33,-622.75 1219.91,-612.28 1212.14,-619.48 1218.33,-622.75"/>
</g>
<!-- find_zooms (utility)&#45;&gt;zooms_epi (nibabel) -->
<g id="edge34" class="edge">
<title>find_zooms (utility)&#45;&gt;zooms_epi (nibabel)</title>
<path fill="none" stroke="black" d="M917.55,-647.7C917.33,-639.98 917.06,-630.71 916.82,-622.11"/>
<polygon fill="black" stroke="black" points="920.32,-622 916.53,-612.1 913.32,-622.2 920.32,-622"/>
</g>
<!-- zooms_field (fixes)&#45;&gt;zooms_bmask (fixes) -->
<g id="edge35" class="edge">
<title>zooms_field (fixes)&#45;&gt;zooms_bmask (fixes)</title>
<path fill="none" stroke="black" d="M413.26,-215.7C414.69,-207.98 416.41,-198.71 418.01,-190.11"/>
<polygon fill="black" stroke="black" points="421.48,-190.58 419.87,-180.1 414.6,-189.3 421.48,-190.58"/>
</g>
<!-- bs_filter (bspline) -->
<g id="node23" class="node">
<title>bs_filter (bspline)</title>
<ellipse fill="none" stroke="black" cx="207.04" cy="-162" rx="91.78" ry="18"/>
<text text-anchor="middle" x="207.04" y="-158.3" font-family="Times,serif" font-size="14.00">bs_filter (bspline)</text>
</g>
<!-- zooms_field (fixes)&#45;&gt;bs_filter (bspline) -->
<g id="edge36" class="edge">
<title>zooms_field (fixes)&#45;&gt;bs_filter (bspline)</title>
<path fill="none" stroke="black" d="M365.99,-217.81C334.79,-207.05 292.79,-192.57 259.79,-181.19"/>
<polygon fill="black" stroke="black" points="260.9,-177.87 250.31,-177.92 258.62,-184.49 260.9,-177.87"/>
</g>
<!-- moving_masks (utility) -->
<g id="node24" class="node">
<title>moving_masks (utility)</title>
<ellipse fill="none" stroke="black" cx="1370.04" cy="-450" rx="116.18" ry="18"/>
<text text-anchor="middle" x="1370.04" y="-446.3" font-family="Times,serif" font-size="14.00">moving_masks (utility)</text>
</g>
<!-- epi_umask (brainmask)&#45;&gt;moving_masks (utility) -->
<g id="edge37" class="edge">
<title>epi_umask (brainmask)&#45;&gt;moving_masks (utility)</title>
<path fill="none" stroke="black" d="M1405.66,-504.05C1400.15,-495.84 1393.4,-485.79 1387.27,-476.66"/>
<polygon fill="black" stroke="black" points="1390.12,-474.63 1381.64,-468.28 1384.31,-478.53 1390.12,-474.63"/>
</g>
<!-- extract_field (fmap)&#45;&gt;zooms_field (fixes) -->
<g id="edge38" class="edge">
<title>extract_field (fmap)&#45;&gt;zooms_field (fixes)</title>
<path fill="none" stroke="black" d="M399.5,-287.7C401.05,-279.98 402.9,-270.71 404.62,-262.11"/>
<polygon fill="black" stroke="black" points="408.09,-262.6 406.62,-252.1 401.23,-261.22 408.09,-262.6"/>
</g>
<!-- epi_merge (utility)&#45;&gt;syn (fixes) -->
<g id="edge39" class="edge">
<title>epi_merge (utility)&#45;&gt;syn (fixes)</title>
<path fill="none" stroke="black" d="M642.03,-432.76C659.88,-422.77 682.91,-409.87 701.94,-399.22"/>
<polygon fill="black" stroke="black" points="703.9,-402.13 710.92,-394.19 700.48,-396.02 703.9,-402.13"/>
</g>
<!-- lap_epi_norm (utility) -->
<g id="node25" class="node">
<title>lap_epi_norm (utility)</title>
<ellipse fill="none" stroke="black" cx="507.04" cy="-522" rx="109.68" ry="18"/>
<text text-anchor="middle" x="507.04" y="-518.3" font-family="Times,serif" font-size="14.00">lap_epi_norm (utility)</text>
</g>
<!-- lap_epi (ants)&#45;&gt;lap_epi_norm (utility) -->
<g id="edge40" class="edge">
<title>lap_epi (ants)&#45;&gt;lap_epi_norm (utility)</title>
<path fill="none" stroke="black" d="M492.74,-575.7C494.86,-567.9 497.4,-558.51 499.76,-549.83"/>
<polygon fill="black" stroke="black" points="503.16,-550.67 502.4,-540.1 496.4,-548.84 503.16,-550.67"/>
</g>
<!-- syn (fixes)&#45;&gt;extract_field (fmap) -->
<g id="edge41" class="edge">
<title>syn (fixes)&#45;&gt;extract_field (fmap)</title>
<path fill="none" stroke="black" d="M691.21,-367.41C634.13,-355.73 537.02,-335.85 469.85,-322.11"/>
<polygon fill="black" stroke="black" points="470.25,-318.62 459.76,-320.04 468.85,-325.48 470.25,-318.62"/>
</g>
<!-- lap_anat_norm (utility)&#45;&gt;anat_merge (utility) -->
<g id="edge42" class="edge">
<title>lap_anat_norm (utility)&#45;&gt;anat_merge (utility)</title>
<path fill="none" stroke="black" d="M1216.7,-576.05C1210.65,-567.75 1203.24,-557.58 1196.53,-548.38"/>
<polygon fill="black" stroke="black" points="1199.35,-546.3 1190.63,-540.28 1193.69,-550.42 1199.35,-546.3"/>
</g>
<!-- bs_filter (bspline)&#45;&gt;unwarp (bspline) -->
<g id="edge43" class="edge">
<title>bs_filter (bspline)&#45;&gt;unwarp (bspline)</title>
<path fill="none" stroke="black" d="M179.67,-144.76C163.44,-135.13 142.67,-122.81 125.11,-112.4"/>
<polygon fill="black" stroke="black" points="126.65,-109.24 116.26,-107.15 123.08,-115.26 126.65,-109.24"/>
</g>
<!-- bs_filter (bspline)&#45;&gt;outputnode (utility) -->
<g id="edge44" class="edge">
<title>bs_filter (bspline)&#45;&gt;outputnode (utility)</title>
<path fill="none" stroke="black" d="M207.04,-143.87C207.04,-119.67 207.04,-75.21 207.04,-46.39"/>
<polygon fill="black" stroke="black" points="210.54,-46.19 207.04,-36.19 203.54,-46.19 210.54,-46.19"/>
</g>
<!-- moving_masks (utility)&#45;&gt;syn (fixes) -->
<g id="edge45" class="edge">
<title>moving_masks (utility)&#45;&gt;syn (fixes)</title>
<path fill="none" stroke="black" d="M1278.48,-438.86C1148.61,-424.47 914.19,-398.51 801.68,-386.05"/>
<polygon fill="black" stroke="black" points="801.83,-382.54 791.5,-384.92 801.06,-389.5 801.83,-382.54"/>
</g>
<!-- lap_epi_norm (utility)&#45;&gt;epi_merge (utility) -->
<g id="edge46" class="edge">
<title>lap_epi_norm (utility)&#45;&gt;epi_merge (utility)</title>
<path fill="none" stroke="black" d="M532.16,-504.41C546.29,-495.08 564.11,-483.32 579.42,-473.2"/>
<polygon fill="black" stroke="black" points="581.69,-475.9 588.1,-467.47 577.83,-470.06 581.69,-475.9"/>
</g>
</g>
</svg>
