<?xml version="1.0" encoding="UTF-8" standalone="no"?>
<!DOCTYPE svg PUBLIC "-//W3C//DTD SVG 1.1//EN"
 "http://www.w3.org/Graphics/SVG/1.1/DTD/svg11.dtd">
<!-- Generated by graphviz version 2.43.0 (0)
 -->
<!-- Title: %3 Pages: 1 -->
<svg width="698pt" height="980pt"
 viewBox="0.00 0.00 697.88 980.00" xmlns="http://www.w3.org/2000/svg" xmlns:xlink="http://www.w3.org/1999/xlink">
<g id="graph0" class="graph" transform="scale(1 1) rotate(0) translate(4 976)">
<title>%3</title>
<polygon fill="white" stroke="transparent" points="-4,4 -4,-976 693.88,-976 693.88,4 -4,4"/>
<!-- inputnode (utility) -->
<g id="node1" class="node">
<title>inputnode (utility)</title>
<ellipse fill="none" stroke="black" cx="502.24" cy="-954" rx="94.78" ry="18"/>
<text text-anchor="middle" x="502.24" y="-950.3" font-family="Times,serif" font-size="14.00">inputnode (utility)</text>
</g>
<!-- runwise_avg (images) -->
<g id="node2" class="node">
<title>runwise_avg (images)</title>
<ellipse fill="none" stroke="black" cx="432.24" cy="-882" rx="111.58" ry="18"/>
<text text-anchor="middle" x="432.24" y="-878.3" font-family="Times,serif" font-size="14.00">runwise_avg (images)</text>
</g>
<!-- inputnode (utility)&#45;&gt;runwise_avg (images) -->
<g id="edge1" class="edge">
<title>inputnode (utility)&#45;&gt;runwise_avg (images)</title>
<path fill="none" stroke="black" d="M485.3,-936.05C476.74,-927.5 466.2,-916.96 456.78,-907.54"/>
<polygon fill="black" stroke="black" points="459.06,-904.87 449.52,-900.28 454.11,-909.82 459.06,-904.87"/>
</g>
<!-- readout_time (epi) -->
<g id="node3" class="node">
<title>readout_time (epi)</title>
<ellipse fill="none" stroke="black" cx="564.24" cy="-738" rx="96.38" ry="18"/>
<text text-anchor="middle" x="564.24" y="-734.3" font-family="Times,serif" font-size="14.00">readout_time (epi)</text>
</g>
<!-- inputnode (utility)&#45;&gt;readout_time (epi) -->
<g id="edge2" class="edge">
<title>inputnode (utility)&#45;&gt;readout_time (epi)</title>
<path fill="none" stroke="black" d="M524.34,-936.34C535.05,-926.95 546.93,-914.24 553.24,-900 572.52,-856.51 571.06,-799.88 567.9,-766.67"/>
<polygon fill="black" stroke="black" points="571.34,-765.93 566.78,-756.36 564.38,-766.68 571.34,-765.93"/>
</g>
<!-- regrid (utils) -->
<g id="node4" class="node">
<title>regrid (utils)</title>
<ellipse fill="none" stroke="black" cx="440.24" cy="-810" rx="69.59" ry="18"/>
<text text-anchor="middle" x="440.24" y="-806.3" font-family="Times,serif" font-size="14.00">regrid (utils)</text>
</g>
<!-- runwise_avg (images)&#45;&gt;regrid (utils) -->
<g id="edge3" class="edge">
<title>runwise_avg (images)&#45;&gt;regrid (utils)</title>
<path fill="none" stroke="black" d="M434.22,-863.7C435.1,-855.98 436.16,-846.71 437.14,-838.11"/>
<polygon fill="black" stroke="black" points="440.63,-838.44 438.29,-828.1 433.67,-837.64 440.63,-838.44"/>
</g>
<!-- sort_pe_blips (epi) -->
<g id="node5" class="node">
<title>sort_pe_blips (epi)</title>
<ellipse fill="none" stroke="black" cx="502.24" cy="-666" rx="95.58" ry="18"/>
<text text-anchor="middle" x="502.24" y="-662.3" font-family="Times,serif" font-size="14.00">sort_pe_blips (epi)</text>
</g>
<!-- readout_time (epi)&#45;&gt;sort_pe_blips (epi) -->
<g id="edge4" class="edge">
<title>readout_time (epi)&#45;&gt;sort_pe_blips (epi)</title>
<path fill="none" stroke="black" d="M549.23,-720.05C541.62,-711.46 532.23,-700.86 523.85,-691.4"/>
<polygon fill="black" stroke="black" points="526.36,-688.95 517.11,-683.79 521.12,-693.6 526.36,-688.95"/>
</g>
<!-- regrid (utils)&#45;&gt;readout_time (epi) -->
<g id="edge5" class="edge">
<title>regrid (utils)&#45;&gt;readout_time (epi)</title>
<path fill="none" stroke="black" d="M467.76,-793.46C485.13,-783.66 507.8,-770.86 526.79,-760.14"/>
<polygon fill="black" stroke="black" points="528.52,-763.19 535.51,-755.22 525.08,-757.09 528.52,-763.19"/>
</g>
<!-- regrid (utils)&#45;&gt;sort_pe_blips (epi) -->
<g id="edge6" class="edge">
<title>regrid (utils)&#45;&gt;sort_pe_blips (epi)</title>
<path fill="none" stroke="black" d="M441.51,-791.84C443.41,-773.33 448.07,-743.38 459.24,-720 464.04,-709.95 471.11,-700.14 478.14,-691.75"/>
<polygon fill="black" stroke="black" points="480.83,-693.99 484.79,-684.17 475.56,-689.38 480.83,-693.99"/>
</g>
<!-- topup (fsl) -->
<g id="node6" class="node">
<title>topup (fsl)</title>
<ellipse fill="none" stroke="black" cx="414.24" cy="-306" rx="58.49" ry="18"/>
<text text-anchor="middle" x="414.24" y="-302.3" font-family="Times,serif" font-size="14.00">topup (fsl)</text>
</g>
<!-- sort_pe_blips (epi)&#45;&gt;topup (fsl) -->
<g id="edge7" class="edge">
<title>sort_pe_blips (epi)&#45;&gt;topup (fsl)</title>
<path fill="none" stroke="black" d="M502.24,-647.95C502.24,-621.29 502.24,-568.11 502.24,-523 502.24,-523 502.24,-523 502.24,-449 502.24,-401.49 466.2,-356.63 440.25,-330.49"/>
<polygon fill="black" stroke="black" points="442.5,-327.8 432.9,-323.31 437.61,-332.8 442.5,-327.8"/>
</g>
<!-- concat_blips (nibabel) -->
<g id="node7" class="node">
<title>concat_blips (nibabel)</title>
<ellipse fill="none" stroke="black" cx="362.24" cy="-594" rx="111.58" ry="18"/>
<text text-anchor="middle" x="362.24" y="-590.3" font-family="Times,serif" font-size="14.00">concat_blips (nibabel)</text>
</g>
<!-- sort_pe_blips (epi)&#45;&gt;concat_blips (nibabel) -->
<g id="edge8" class="edge">
<title>sort_pe_blips (epi)&#45;&gt;concat_blips (nibabel)</title>
<path fill="none" stroke="black" d="M470.12,-648.94C450.43,-639.1 425.02,-626.39 403.81,-615.78"/>
<polygon fill="black" stroke="black" points="405.21,-612.57 394.7,-611.23 402.07,-618.83 405.21,-612.57"/>
</g>
<!-- to_las (utils) -->
<g id="node8" class="node">
<title>to_las (utils)</title>
<ellipse fill="none" stroke="black" cx="598.24" cy="-378" rx="67.69" ry="18"/>
<text text-anchor="middle" x="598.24" y="-374.3" font-family="Times,serif" font-size="14.00">to_las (utils)</text>
</g>
<!-- sort_pe_blips (epi)&#45;&gt;to_las (utils) -->
<g id="edge9" class="edge">
<title>sort_pe_blips (epi)&#45;&gt;to_las (utils)</title>
<path fill="none" stroke="black" d="M507.96,-647.97C524.07,-599.98 569.91,-463.41 589.35,-405.49"/>
<polygon fill="black" stroke="black" points="592.69,-406.54 592.55,-395.94 586.05,-404.31 592.69,-406.54"/>
</g>
<!-- fix_coeff (bspline) -->
<g id="node9" class="node">
<title>fix_coeff (bspline)</title>
<ellipse fill="none" stroke="black" cx="598.24" cy="-234" rx="91.78" ry="18"/>
<text text-anchor="middle" x="598.24" y="-230.3" font-family="Times,serif" font-size="14.00">fix_coeff (bspline)</text>
</g>
<!-- topup (fsl)&#45;&gt;fix_coeff (bspline) -->
<g id="edge10" class="edge">
<title>topup (fsl)&#45;&gt;fix_coeff (bspline)</title>
<path fill="none" stroke="black" d="M449.72,-291.5C477.83,-280.81 517.43,-265.74 548.67,-253.86"/>
<polygon fill="black" stroke="black" points="549.97,-257.11 558.08,-250.28 547.48,-250.57 549.97,-257.11"/>
</g>
<!-- outputnode (utility) -->
<g id="node10" class="node">
<title>outputnode (utility)</title>
<ellipse fill="none" stroke="black" cx="440.24" cy="-18" rx="101.28" ry="18"/>
<text text-anchor="middle" x="440.24" y="-14.3" font-family="Times,serif" font-size="14.00">outputnode (utility)</text>
</g>
<!-- topup (fsl)&#45;&gt;outputnode (utility) -->
<g id="edge11" class="edge">
<title>topup (fsl)&#45;&gt;outputnode (utility)</title>
<path fill="none" stroke="black" d="M433.21,-288.92C443.02,-279.34 454,-266.28 459.24,-252 485.28,-181.11 463.42,-90.17 449.55,-45.78"/>
<polygon fill="black" stroke="black" points="452.8,-44.47 446.39,-36.04 446.14,-46.63 452.8,-44.47"/>
</g>
<!-- from_las (nibabel) -->
<g id="node11" class="node">
<title>from_las (nibabel)</title>
<ellipse fill="none" stroke="black" cx="94.24" cy="-234" rx="94.48" ry="18"/>
<text text-anchor="middle" x="94.24" y="-230.3" font-family="Times,serif" font-size="14.00">from_las (nibabel)</text>
</g>
<!-- topup (fsl)&#45;&gt;from_las (nibabel) -->
<g id="edge12" class="edge">
<title>topup (fsl)&#45;&gt;from_las (nibabel)</title>
<path fill="none" stroke="black" d="M368.05,-294.9C314.52,-283.19 225.75,-263.77 163.85,-250.23"/>
<polygon fill="black" stroke="black" points="164.29,-246.74 153.77,-248.02 162.79,-253.58 164.29,-246.74"/>
</g>
<!-- from_las_fmap (nibabel) -->
<g id="node12" class="node">
<title>from_las_fmap (nibabel)</title>
<ellipse fill="none" stroke="black" cx="328.24" cy="-234" rx="122.38" ry="18"/>
<text text-anchor="middle" x="328.24" y="-230.3" font-family="Times,serif" font-size="14.00">from_las_fmap (nibabel)</text>
</g>
<!-- topup (fsl)&#45;&gt;from_las_fmap (nibabel) -->
<g id="edge13" class="edge">
<title>topup (fsl)&#45;&gt;from_las_fmap (nibabel)</title>
<path fill="none" stroke="black" d="M394.3,-288.76C383.14,-279.69 369.05,-268.22 356.75,-258.21"/>
<polygon fill="black" stroke="black" points="358.94,-255.48 348.98,-251.88 354.52,-260.91 358.94,-255.48"/>
</g>
<!-- pad_blip_slices (utils) -->
<g id="node14" class="node">
<title>pad_blip_slices (utils)</title>
<ellipse fill="none" stroke="black" cx="362.24" cy="-522" rx="110.48" ry="18"/>
<text text-anchor="middle" x="362.24" y="-518.3" font-family="Times,serif" font-size="14.00">pad_blip_slices (utils)</text>
</g>
<!-- concat_blips (nibabel)&#45;&gt;pad_blip_slices (utils) -->
<g id="edge14" class="edge">
<title>concat_blips (nibabel)&#45;&gt;pad_blip_slices (utils)</title>
<path fill="none" stroke="black" d="M362.24,-575.7C362.24,-567.98 362.24,-558.71 362.24,-550.11"/>
<polygon fill="black" stroke="black" points="365.74,-550.1 362.24,-540.1 358.74,-550.1 365.74,-550.1"/>
</g>
<!-- to_las (utils)&#45;&gt;topup (fsl) -->
<g id="edge15" class="edge">
<title>to_las (utils)&#45;&gt;topup (fsl)</title>
<path fill="none" stroke="black" d="M561.01,-362.83C531.51,-351.61 490.19,-335.89 458.91,-323.99"/>
<polygon fill="black" stroke="black" points="460.14,-320.72 449.55,-320.43 457.65,-327.26 460.14,-320.72"/>
</g>
<!-- to_las (utils)&#45;&gt;fix_coeff (bspline) -->
<g id="edge16" class="edge">
<title>to_las (utils)&#45;&gt;fix_coeff (bspline)</title>
<path fill="none" stroke="black" d="M598.24,-359.87C598.24,-335.67 598.24,-291.21 598.24,-262.39"/>
<polygon fill="black" stroke="black" points="601.74,-262.19 598.24,-252.19 594.74,-262.19 601.74,-262.19"/>
</g>
<!-- fix_coeff (bspline)&#45;&gt;outputnode (utility) -->
<g id="edge17" class="edge">
<title>fix_coeff (bspline)&#45;&gt;outputnode (utility)</title>
<path fill="none" stroke="black" d="M588.42,-215.8C570.81,-185.52 531.97,-121.22 492.24,-72 484.15,-61.97 474.44,-51.69 465.62,-42.88"/>
<polygon fill="black" stroke="black" points="468.06,-40.37 458.47,-35.87 463.16,-45.37 468.06,-40.37"/>
</g>
<!-- ref_average (images) -->
<g id="node15" class="node">
<title>ref_average (images)</title>
<ellipse fill="none" stroke="black" cx="180.24" cy="-162" rx="108.58" ry="18"/>
<text text-anchor="middle" x="180.24" y="-158.3" font-family="Times,serif" font-size="14.00">ref_average (images)</text>
</g>
<!-- from_las (nibabel)&#45;&gt;ref_average (images) -->
<g id="edge18" class="edge">
<title>from_las (nibabel)&#45;&gt;ref_average (images)</title>
<path fill="none" stroke="black" d="M114.62,-216.41C125.68,-207.41 139.53,-196.14 151.65,-186.27"/>
<polygon fill="black" stroke="black" points="154.16,-188.74 159.71,-179.71 149.74,-183.31 154.16,-188.74"/>
</g>
<!-- from_las_fmap (nibabel)&#45;&gt;outputnode (utility) -->
<g id="edge19" class="edge">
<title>from_las_fmap (nibabel)&#45;&gt;outputnode (utility)</title>
<path fill="none" stroke="black" d="M337.22,-215.85C356.8,-178.43 403.47,-89.25 426.67,-44.93"/>
<polygon fill="black" stroke="black" points="429.84,-46.42 431.38,-35.94 423.64,-43.17 429.84,-46.42"/>
</g>
<!-- setwise_avg (images) -->
<g id="node13" class="node">
<title>setwise_avg (images)</title>
<ellipse fill="none" stroke="black" cx="362.24" cy="-450" rx="109.68" ry="18"/>
<text text-anchor="middle" x="362.24" y="-446.3" font-family="Times,serif" font-size="14.00">setwise_avg (images)</text>
</g>
<!-- setwise_avg (images)&#45;&gt;to_las (utils) -->
<g id="edge21" class="edge">
<title>setwise_avg (images)&#45;&gt;to_las (utils)</title>
<path fill="none" stroke="black" d="M412.87,-433.98C451.83,-422.43 505.51,-406.5 545.09,-394.77"/>
<polygon fill="black" stroke="black" points="546.23,-398.08 554.83,-391.88 544.24,-391.37 546.23,-398.08"/>
</g>
<!-- setwise_avg (images)&#45;&gt;fix_coeff (bspline) -->
<g id="edge20" class="edge">
<title>setwise_avg (images)&#45;&gt;fix_coeff (bspline)</title>
<path fill="none" stroke="black" d="M380.76,-432.21C422.55,-394.31 524.27,-302.08 572.31,-258.52"/>
<polygon fill="black" stroke="black" points="574.75,-261.02 579.81,-251.71 570.05,-255.84 574.75,-261.02"/>
</g>
<!-- setwise_avg (images)&#45;&gt;from_las (nibabel) -->
<g id="edge22" class="edge">
<title>setwise_avg (images)&#45;&gt;from_las (nibabel)</title>
<path fill="none" stroke="black" d="M341.21,-432.21C293.56,-394.16 177.29,-301.32 123.02,-257.98"/>
<polygon fill="black" stroke="black" points="125.17,-255.22 115.17,-251.71 120.8,-260.69 125.17,-255.22"/>
</g>
<!-- setwise_avg (images)&#45;&gt;from_las_fmap (nibabel) -->
<g id="edge23" class="edge">
<title>setwise_avg (images)&#45;&gt;from_las_fmap (nibabel)</title>
<path fill="none" stroke="black" d="M359.52,-431.85C353.64,-394.83 339.71,-307.18 332.59,-262.39"/>
<polygon fill="black" stroke="black" points="336.01,-261.56 330.98,-252.23 329.09,-262.66 336.01,-261.56"/>
</g>
<!-- pad_blip_slices (utils)&#45;&gt;setwise_avg (images) -->
<g id="edge24" class="edge">
<title>pad_blip_slices (utils)&#45;&gt;setwise_avg (images)</title>
<path fill="none" stroke="black" d="M362.24,-503.7C362.24,-495.98 362.24,-486.71 362.24,-478.11"/>
<polygon fill="black" stroke="black" points="365.74,-478.1 362.24,-468.1 358.74,-478.1 365.74,-478.1"/>
</g>
<!-- brainextraction_wf -->
<g id="node16" class="node">
<title>brainextraction_wf</title>
<ellipse fill="none" stroke="black" cx="234.24" cy="-90" rx="98.28" ry="18"/>
<text text-anchor="middle" x="234.24" y="-86.3" font-family="Times,serif" font-size="14.00">brainextraction_wf</text>
</g>
<!-- ref_average (images)&#45;&gt;brainextraction_wf -->
<g id="edge25" class="edge">
<title>ref_average (images)&#45;&gt;brainextraction_wf</title>
<path fill="none" stroke="black" d="M193.31,-144.05C199.72,-135.75 207.56,-125.58 214.66,-116.38"/>
<polygon fill="black" stroke="black" points="217.58,-118.33 220.91,-108.28 212.04,-114.06 217.58,-118.33"/>
</g>
<!-- brainextraction_wf&#45;&gt;outputnode (utility) -->
<g id="edge26" class="edge">
<title>brainextraction_wf&#45;&gt;outputnode (utility)</title>
<path fill="none" stroke="black" d="M278.69,-73.9C310.12,-63.22 352.45,-48.83 385.9,-37.47"/>
<polygon fill="black" stroke="black" points="387.18,-40.73 395.52,-34.2 384.93,-34.1 387.18,-40.73"/>
</g>
</g>
</svg>
