<?xml version="1.0" encoding="UTF-8" standalone="no"?>
<!DOCTYPE svg PUBLIC "-//W3C//DTD SVG 1.1//EN"
 "http://www.w3.org/Graphics/SVG/1.1/DTD/svg11.dtd">
<!-- Generated by graphviz version 2.43.0 (0)
 -->
<!-- Title: %3 Pages: 1 -->
<svg width="448pt" height="476pt"
 viewBox="0.00 0.00 448.23 476.00" xmlns="http://www.w3.org/2000/svg" xmlns:xlink="http://www.w3.org/1999/xlink">
<g id="graph0" class="graph" transform="scale(1 1) rotate(0) translate(4 472)">
<title>%3</title>
<polygon fill="white" stroke="transparent" points="-4,4 -4,-472 444.23,-472 444.23,4 -4,4"/>
<!-- inputnode (utility) -->
<g id="node1" class="node">
<title>inputnode (utility)</title>
<ellipse fill="none" stroke="black" cx="220.84" cy="-450" rx="94.78" ry="18"/>
<text text-anchor="middle" x="220.84" y="-446.3" font-family="Times,serif" font-size="14.00">inputnode (utility)</text>
</g>
<!-- rotime (epi) -->
<g id="node2" class="node">
<title>rotime (epi)</title>
<ellipse fill="none" stroke="black" cx="220.84" cy="-378" rx="65.79" ry="18"/>
<text text-anchor="middle" x="220.84" y="-374.3" font-family="Times,serif" font-size="14.00">rotime (epi)</text>
</g>
<!-- inputnode (utility)&#45;&gt;rotime (epi) -->
<g id="edge1" class="edge">
<title>inputnode (utility)&#45;&gt;rotime (epi)</title>
<path fill="none" stroke="black" d="M220.84,-431.7C220.84,-423.98 220.84,-414.71 220.84,-406.11"/>
<polygon fill="black" stroke="black" points="224.34,-406.1 220.84,-396.1 217.34,-406.1 224.34,-406.1"/>
</g>
<!-- resample (bspline) -->
<g id="node3" class="node">
<title>resample (bspline)</title>
<ellipse fill="none" stroke="black" cx="96.84" cy="-306" rx="96.68" ry="18"/>
<text text-anchor="middle" x="96.84" y="-302.3" font-family="Times,serif" font-size="14.00">resample (bspline)</text>
</g>
<!-- inputnode (utility)&#45;&gt;resample (bspline) -->
<g id="edge2" class="edge">
<title>inputnode (utility)&#45;&gt;resample (bspline)</title>
<path fill="none" stroke="black" d="M191.73,-432.79C176.74,-423.43 158.91,-410.62 145.84,-396 129.22,-377.41 116.02,-352.21 107.52,-333.38"/>
<polygon fill="black" stroke="black" points="110.72,-331.94 103.52,-324.17 104.3,-334.74 110.72,-331.94"/>
</g>
<!-- resample_ref (bspline) -->
<g id="node4" class="node">
<title>resample_ref (bspline)</title>
<ellipse fill="none" stroke="black" cx="325.84" cy="-306" rx="114.28" ry="18"/>
<text text-anchor="middle" x="325.84" y="-302.3" font-family="Times,serif" font-size="14.00">resample_ref (bspline)</text>
</g>
<!-- inputnode (utility)&#45;&gt;resample_ref (bspline) -->
<g id="edge3" class="edge">
<title>inputnode (utility)&#45;&gt;resample_ref (bspline)</title>
<path fill="none" stroke="black" d="M252.17,-433.01C267.22,-423.95 284.41,-411.34 295.84,-396 309.42,-377.77 317.11,-353 321.29,-334.22"/>
<polygon fill="black" stroke="black" points="324.76,-334.71 323.32,-324.22 317.9,-333.32 324.76,-334.71"/>
</g>
<!-- rotime (epi)&#45;&gt;resample (bspline) -->
<g id="edge4" class="edge">
<title>rotime (epi)&#45;&gt;resample (bspline)</title>
<path fill="none" stroke="black" d="M193.32,-361.46C175.95,-351.66 153.29,-338.86 134.29,-328.14"/>
<polygon fill="black" stroke="black" points="136.01,-325.09 125.58,-323.22 132.56,-331.19 136.01,-325.09"/>
</g>
<!-- rotime (epi)&#45;&gt;resample_ref (bspline) -->
<g id="edge5" class="edge">
<title>rotime (epi)&#45;&gt;resample_ref (bspline)</title>
<path fill="none" stroke="black" d="M244.67,-361.12C258.63,-351.81 276.49,-339.9 291.9,-329.63"/>
<polygon fill="black" stroke="black" points="294.27,-332.26 300.65,-323.8 290.38,-326.43 294.27,-332.26"/>
</g>
<!-- merge (nibabel) -->
<g id="node5" class="node">
<title>merge (nibabel)</title>
<ellipse fill="none" stroke="black" cx="96.84" cy="-234" rx="84.49" ry="18"/>
<text text-anchor="middle" x="96.84" y="-230.3" font-family="Times,serif" font-size="14.00">merge (nibabel)</text>
</g>
<!-- resample (bspline)&#45;&gt;merge (nibabel) -->
<g id="edge6" class="edge">
<title>resample (bspline)&#45;&gt;merge (nibabel)</title>
<path fill="none" stroke="black" d="M96.84,-287.7C96.84,-279.98 96.84,-270.71 96.84,-262.11"/>
<polygon fill="black" stroke="black" points="100.34,-262.1 96.84,-252.1 93.34,-262.1 100.34,-262.1"/>
</g>
<!-- outputnode (utility) -->
<g id="node6" class="node">
<title>outputnode (utility)</title>
<ellipse fill="none" stroke="black" cx="194.84" cy="-18" rx="101.28" ry="18"/>
<text text-anchor="middle" x="194.84" y="-14.3" font-family="Times,serif" font-size="14.00">outputnode (utility)</text>
</g>
<!-- resample (bspline)&#45;&gt;outputnode (utility) -->
<g id="edge7" class="edge">
<title>resample (bspline)&#45;&gt;outputnode (utility)</title>
<path fill="none" stroke="black" d="M134.95,-289.29C153.19,-280.37 174.37,-267.81 189.84,-252 215.3,-225.99 217.49,-214.58 228.84,-180 243.88,-134.2 255.21,-117.34 238.84,-72 235.09,-61.6 228.31,-51.8 221.17,-43.52"/>
<polygon fill="black" stroke="black" points="223.67,-41.06 214.32,-36.08 218.52,-45.81 223.67,-41.06"/>
</g>
<!-- resample_ref (bspline)&#45;&gt;outputnode (utility) -->
<g id="edge8" class="edge">
<title>resample_ref (bspline)&#45;&gt;outputnode (utility)</title>
<path fill="none" stroke="black" d="M323.99,-287.84C318.96,-247.3 302.14,-143.66 255.84,-72 248.51,-60.66 238.07,-50.35 227.89,-41.9"/>
<polygon fill="black" stroke="black" points="229.86,-39 219.85,-35.55 225.52,-44.49 229.86,-39"/>
</g>
<!-- merge (nibabel)&#45;&gt;outputnode (utility) -->
<g id="edge10" class="edge">
<title>merge (nibabel)&#45;&gt;outputnode (utility)</title>
<path fill="none" stroke="black" d="M66,-217.04C52.12,-208.13 37.03,-195.65 28.84,-180 6.57,-137.44 -3.62,-110.69 24.84,-72 41.32,-49.6 67.21,-36.4 93.86,-28.7"/>
<polygon fill="black" stroke="black" points="94.92,-32.04 103.7,-26.1 93.13,-25.27 94.92,-32.04"/>
</g>
<!-- average (images) -->
<g id="node7" class="node">
<title>average (images)</title>
<ellipse fill="none" stroke="black" cx="128.84" cy="-162" rx="90.98" ry="18"/>
<text text-anchor="middle" x="128.84" y="-158.3" font-family="Times,serif" font-size="14.00">average (images)</text>
</g>
<!-- merge (nibabel)&#45;&gt;average (images) -->
<g id="edge9" class="edge">
<title>merge (nibabel)&#45;&gt;average (images)</title>
<path fill="none" stroke="black" d="M104.59,-216.05C108.23,-208.09 112.65,-198.41 116.72,-189.51"/>
<polygon fill="black" stroke="black" points="119.97,-190.83 120.94,-180.28 113.6,-187.91 119.97,-190.83"/>
</g>
<!-- brainextraction_wf -->
<g id="node8" class="node">
<title>brainextraction_wf</title>
<ellipse fill="none" stroke="black" cx="131.84" cy="-90" rx="98.28" ry="18"/>
<text text-anchor="middle" x="131.84" y="-86.3" font-family="Times,serif" font-size="14.00">brainextraction_wf</text>
</g>
<!-- average (images)&#45;&gt;brainextraction_wf -->
<g id="edge11" class="edge">
<title>average (images)&#45;&gt;brainextraction_wf</title>
<path fill="none" stroke="black" d="M129.58,-143.7C129.91,-135.98 130.31,-126.71 130.68,-118.11"/>
<polygon fill="black" stroke="black" points="134.18,-118.25 131.11,-108.1 127.18,-117.95 134.18,-118.25"/>
</g>
<!-- brainextraction_wf&#45;&gt;outputnode (utility) -->
<g id="edge12" class="edge">
<title>brainextraction_wf&#45;&gt;outputnode (utility)</title>
<path fill="none" stroke="black" d="M147.09,-72.05C154.72,-63.58 164.09,-53.17 172.51,-43.82"/>
<polygon fill="black" stroke="black" points="175.21,-46.05 179.29,-36.28 170,-41.37 175.21,-46.05"/>
</g>
</g>
</svg>
