<?xml version="1.0" encoding="UTF-8" standalone="no"?>
<!DOCTYPE svg PUBLIC "-//W3C//DTD SVG 1.1//EN"
 "http://www.w3.org/Graphics/SVG/1.1/DTD/svg11.dtd">
<!-- Generated by graphviz version 2.43.0 (0)
 -->
<!-- Title: %3 Pages: 1 -->
<svg width="353pt" height="476pt"
 viewBox="0.00 0.00 352.93 476.00" xmlns="http://www.w3.org/2000/svg" xmlns:xlink="http://www.w3.org/1999/xlink">
<g id="graph0" class="graph" transform="scale(1 1) rotate(0) translate(4 472)">
<title>%3</title>
<polygon fill="white" stroke="transparent" points="-4,4 -4,-472 348.93,-472 348.93,4 -4,4"/>
<!-- inputnode (utility) -->
<g id="node1" class="node">
<title>inputnode (utility)</title>
<ellipse fill="none" stroke="black" cx="250.04" cy="-450" rx="94.78" ry="18"/>
<text text-anchor="middle" x="250.04" y="-446.3" font-family="Times,serif" font-size="14.00">inputnode (utility)</text>
</g>
<!-- split (utility) -->
<g id="node2" class="node">
<title>split (utility)</title>
<ellipse fill="none" stroke="black" cx="202.04" cy="-378" rx="68.79" ry="18"/>
<text text-anchor="middle" x="202.04" y="-374.3" font-family="Times,serif" font-size="14.00">split (utility)</text>
</g>
<!-- inputnode (utility)&#45;&gt;split (utility) -->
<g id="edge1" class="edge">
<title>inputnode (utility)&#45;&gt;split (utility)</title>
<path fill="none" stroke="black" d="M238.42,-432.05C232.7,-423.71 225.69,-413.49 219.36,-404.25"/>
<polygon fill="black" stroke="black" points="222.1,-402.06 213.55,-395.79 216.32,-406.02 222.1,-402.06"/>
</g>
<!-- prelude (fsl) -->
<g id="node3" class="node">
<title>prelude (fsl)</title>
<ellipse fill="none" stroke="black" cx="274.04" cy="-162" rx="67.69" ry="18"/>
<text text-anchor="middle" x="274.04" y="-158.3" font-family="Times,serif" font-size="14.00">prelude (fsl)</text>
</g>
<!-- inputnode (utility)&#45;&gt;prelude (fsl) -->
<g id="edge2" class="edge">
<title>inputnode (utility)&#45;&gt;prelude (fsl)</title>
<path fill="none" stroke="black" d="M262.77,-431.85C269.33,-421.92 276.65,-408.88 280.04,-396 299.13,-323.52 287.45,-233.95 279.54,-189.96"/>
<polygon fill="black" stroke="black" points="282.96,-189.23 277.68,-180.04 276.08,-190.52 282.96,-189.23"/>
</g>
<!-- phmap2rads (fmap) -->
<g id="node4" class="node">
<title>phmap2rads (fmap)</title>
<ellipse fill="none" stroke="black" cx="102.04" cy="-306" rx="102.08" ry="18"/>
<text text-anchor="middle" x="102.04" y="-302.3" font-family="Times,serif" font-size="14.00">phmap2rads (fmap)</text>
</g>
<!-- split (utility)&#45;&gt;phmap2rads (fmap) -->
<g id="edge3" class="edge">
<title>split (utility)&#45;&gt;phmap2rads (fmap)</title>
<path fill="none" stroke="black" d="M178.85,-360.76C165.54,-351.45 148.62,-339.61 134.06,-329.41"/>
<polygon fill="black" stroke="black" points="136,-326.5 125.8,-323.63 131.99,-332.24 136,-326.5"/>
</g>
<!-- calc_phdiff (fmap) -->
<g id="node5" class="node">
<title>calc_phdiff (fmap)</title>
<ellipse fill="none" stroke="black" cx="178.04" cy="-234" rx="92.88" ry="18"/>
<text text-anchor="middle" x="178.04" y="-230.3" font-family="Times,serif" font-size="14.00">calc_phdiff (fmap)</text>
</g>
<!-- split (utility)&#45;&gt;calc_phdiff (fmap) -->
<g id="edge4" class="edge">
<title>split (utility)&#45;&gt;calc_phdiff (fmap)</title>
<path fill="none" stroke="black" d="M208.23,-359.92C213.89,-341.74 220.34,-312.3 213.04,-288 210.07,-278.12 204.6,-268.39 198.86,-260.01"/>
<polygon fill="black" stroke="black" points="201.59,-257.83 192.86,-251.83 195.94,-261.96 201.59,-257.83"/>
</g>
<!-- compfmap (fmap) -->
<g id="node6" class="node">
<title>compfmap (fmap)</title>
<ellipse fill="none" stroke="black" cx="226.04" cy="-90" rx="92.08" ry="18"/>
<text text-anchor="middle" x="226.04" y="-86.3" font-family="Times,serif" font-size="14.00">compfmap (fmap)</text>
</g>
<!-- prelude (fsl)&#45;&gt;compfmap (fmap) -->
<g id="edge5" class="edge">
<title>prelude (fsl)&#45;&gt;compfmap (fmap)</title>
<path fill="none" stroke="black" d="M262.42,-144.05C256.79,-135.84 249.9,-125.79 243.64,-116.66"/>
<polygon fill="black" stroke="black" points="246.43,-114.54 237.89,-108.28 240.66,-118.5 246.43,-114.54"/>
</g>
<!-- phmap2rads (fmap)&#45;&gt;calc_phdiff (fmap) -->
<g id="edge6" class="edge">
<title>phmap2rads (fmap)&#45;&gt;calc_phdiff (fmap)</title>
<path fill="none" stroke="black" d="M120.44,-288.05C129.96,-279.28 141.74,-268.43 152.17,-258.83"/>
<polygon fill="black" stroke="black" points="154.83,-261.14 159.81,-251.79 150.09,-255.99 154.83,-261.14"/>
</g>
<!-- calc_phdiff (fmap)&#45;&gt;prelude (fsl) -->
<g id="edge7" class="edge">
<title>calc_phdiff (fmap)&#45;&gt;prelude (fsl)</title>
<path fill="none" stroke="black" d="M200.79,-216.41C213.56,-207.1 229.65,-195.37 243.5,-185.27"/>
<polygon fill="black" stroke="black" points="245.77,-187.95 251.78,-179.23 241.64,-182.29 245.77,-187.95"/>
</g>
<!-- calc_phdiff (fmap)&#45;&gt;compfmap (fmap) -->
<g id="edge8" class="edge">
<title>calc_phdiff (fmap)&#45;&gt;compfmap (fmap)</title>
<path fill="none" stroke="black" d="M180.19,-215.86C182.83,-197.62 188.08,-168.14 197.04,-144 200.44,-134.86 205.19,-125.36 209.87,-116.98"/>
<polygon fill="black" stroke="black" points="213.05,-118.47 215.05,-108.06 207,-114.95 213.05,-118.47"/>
</g>
<!-- outputnode (utility) -->
<g id="node7" class="node">
<title>outputnode (utility)</title>
<ellipse fill="none" stroke="black" cx="226.04" cy="-18" rx="101.28" ry="18"/>
<text text-anchor="middle" x="226.04" y="-14.3" font-family="Times,serif" font-size="14.00">outputnode (utility)</text>
</g>
<!-- compfmap (fmap)&#45;&gt;outputnode (utility) -->
<g id="edge9" class="edge">
<title>compfmap (fmap)&#45;&gt;outputnode (utility)</title>
<path fill="none" stroke="black" d="M226.04,-71.7C226.04,-63.98 226.04,-54.71 226.04,-46.11"/>
<polygon fill="black" stroke="black" points="229.54,-46.1 226.04,-36.1 222.54,-46.1 229.54,-46.1"/>
</g>
</g>
</svg>
