<?xml version="1.0" encoding="UTF-8" standalone="no"?>
<!DOCTYPE svg PUBLIC "-//W3C//DTD SVG 1.1//EN"
 "http://www.w3.org/Graphics/SVG/1.1/DTD/svg11.dtd">
<!-- Generated by graphviz version 2.40.1 (20161225.0304)
 -->
<!-- Title: %3 Pages: 1 -->
<svg width="211pt" height="260pt"
 viewBox="0.00 0.00 210.78 260.00" xmlns="http://www.w3.org/2000/svg" xmlns:xlink="http://www.w3.org/1999/xlink">
<g id="graph0" class="graph" transform="scale(1 1) rotate(0) translate(4 256)">
<title>%3</title>
<polygon fill="#ffffff" stroke="transparent" points="-4,4 -4,-256 206.782,-256 206.782,4 -4,4"/>
<!-- inputnode (utility) -->
<g id="node1" class="node">
<title>inputnode (utility)</title>
<ellipse fill="none" stroke="#000000" cx="101.391" cy="-234" rx="94.7833" ry="18"/>
<text text-anchor="middle" x="101.391" y="-230.3" font-family="Times,serif" font-size="14.00" fill="#000000">inputnode (utility)</text>
</g>
<!-- magmrg (images) -->
<g id="node2" class="node">
<title>magmrg (images)</title>
<ellipse fill="none" stroke="#000000" cx="101.391" cy="-162" rx="92.8835" ry="18"/>
<text text-anchor="middle" x="101.391" y="-158.3" font-family="Times,serif" font-size="14.00" fill="#000000">magmrg (images)</text>
</g>
<!-- inputnode (utility)&#45;&gt;magmrg (images) -->
<g id="edge1" class="edge">
<title>inputnode (utility)&#45;&gt;magmrg (images)</title>
<path fill="none" stroke="#000000" d="M101.391,-215.8314C101.391,-208.131 101.391,-198.9743 101.391,-190.4166"/>
<polygon fill="#000000" stroke="#000000" points="104.8911,-190.4132 101.391,-180.4133 97.8911,-190.4133 104.8911,-190.4132"/>
</g>
<!-- brainextraction_wf -->
<g id="node3" class="node">
<title>brainextraction_wf</title>
<ellipse fill="none" stroke="#000000" cx="101.391" cy="-90" rx="98.5829" ry="18"/>
<text text-anchor="middle" x="101.391" y="-86.3" font-family="Times,serif" font-size="14.00" fill="#000000">brainextraction_wf</text>
</g>
<!-- magmrg (images)&#45;&gt;brainextraction_wf -->
<g id="edge2" class="edge">
<title>magmrg (images)&#45;&gt;brainextraction_wf</title>
<path fill="none" stroke="#000000" d="M101.391,-143.8314C101.391,-136.131 101.391,-126.9743 101.391,-118.4166"/>
<polygon fill="#000000" stroke="#000000" points="104.8911,-118.4132 101.391,-108.4133 97.8911,-118.4133 104.8911,-118.4132"/>
</g>
<!-- outputnode (utility) -->
<g id="node4" class="node">
<title>outputnode (utility)</title>
<ellipse fill="none" stroke="#000000" cx="101.391" cy="-18" rx="101.2821" ry="18"/>
<text text-anchor="middle" x="101.391" y="-14.3" font-family="Times,serif" font-size="14.00" fill="#000000">outputnode (utility)</text>
</g>
<!-- brainextraction_wf&#45;&gt;outputnode (utility) -->
<g id="edge3" class="edge">
<title>brainextraction_wf&#45;&gt;outputnode (utility)</title>
<path fill="none" stroke="#000000" d="M101.391,-71.8314C101.391,-64.131 101.391,-54.9743 101.391,-46.4166"/>
<polygon fill="#000000" stroke="#000000" points="104.8911,-46.4132 101.391,-36.4133 97.8911,-46.4133 104.8911,-46.4132"/>
</g>
</g>
</svg>
