<?xml version="1.0" encoding="UTF-8" standalone="no"?>
<!DOCTYPE svg PUBLIC "-//W3C//DTD SVG 1.1//EN"
 "http://www.w3.org/Graphics/SVG/1.1/DTD/svg11.dtd">
<!-- Generated by graphviz version 2.40.1 (20161225.0304)
 -->
<!-- Title: %3 Pages: 1 -->
<svg width="466pt" height="764pt"
 viewBox="0.00 0.00 465.93 764.00" xmlns="http://www.w3.org/2000/svg" xmlns:xlink="http://www.w3.org/1999/xlink">
<g id="graph0" class="graph" transform="scale(1 1) rotate(0) translate(4 760)">
<title>%3</title>
<polygon fill="#ffffff" stroke="transparent" points="-4,4 -4,-760 461.9274,-760 461.9274,4 -4,4"/>
<!-- inputnode (utility) -->
<g id="node1" class="node">
<title>inputnode (utility)</title>
<ellipse fill="none" stroke="#000000" cx="292.5387" cy="-738" rx="94.7833" ry="18"/>
<text text-anchor="middle" x="292.5387" y="-734.3" font-family="Times,serif" font-size="14.00" fill="#000000">inputnode (utility)</text>
</g>
<!-- flatten (utils) -->
<g id="node2" class="node">
<title>flatten (utils)</title>
<ellipse fill="none" stroke="#000000" cx="170.5387" cy="-666" rx="71.4873" ry="18"/>
<text text-anchor="middle" x="170.5387" y="-662.3" font-family="Times,serif" font-size="14.00" fill="#000000">flatten (utils)</text>
</g>
<!-- inputnode (utility)&#45;&gt;flatten (utils) -->
<g id="edge1" class="edge">
<title>inputnode (utility)&#45;&gt;flatten (utils)</title>
<path fill="none" stroke="#000000" d="M263.3167,-720.7542C246.6285,-710.9054 225.5378,-698.4585 207.6835,-687.9215"/>
<polygon fill="#000000" stroke="#000000" points="209.0734,-684.6777 198.6824,-682.6094 205.5156,-690.7062 209.0734,-684.6777"/>
</g>
<!-- cphdr_warp (header) -->
<g id="node3" class="node">
<title>cphdr_warp (header)</title>
<ellipse fill="none" stroke="#000000" cx="184.5387" cy="-234" rx="108.5808" ry="18"/>
<text text-anchor="middle" x="184.5387" y="-230.3" font-family="Times,serif" font-size="14.00" fill="#000000">cphdr_warp (header)</text>
</g>
<!-- inputnode (utility)&#45;&gt;cphdr_warp (header) -->
<g id="edge2" class="edge">
<title>inputnode (utility)&#45;&gt;cphdr_warp (header)</title>
<path fill="none" stroke="#000000" d="M292.5387,-719.8146C292.5387,-692.4983 292.5387,-639.25 292.5387,-594 292.5387,-594 292.5387,-594 292.5387,-378 292.5387,-327.7986 250.0107,-283.8976 218.3287,-258.1581"/>
<polygon fill="#000000" stroke="#000000" points="220.1543,-255.1406 210.1332,-251.7012 215.8222,-260.6391 220.1543,-255.1406"/>
</g>
<!-- unwarp_reference (fixes) -->
<g id="node4" class="node">
<title>unwarp_reference (fixes)</title>
<ellipse fill="none" stroke="#000000" cx="330.5387" cy="-90" rx="127.2775" ry="18"/>
<text text-anchor="middle" x="330.5387" y="-86.3" font-family="Times,serif" font-size="14.00" fill="#000000">unwarp_reference (fixes)</text>
</g>
<!-- inputnode (utility)&#45;&gt;unwarp_reference (fixes) -->
<g id="edge3" class="edge">
<title>inputnode (utility)&#45;&gt;unwarp_reference (fixes)</title>
<path fill="none" stroke="#000000" d="M300.5975,-719.7668C311.7521,-692.8248 330.5387,-640.5405 330.5387,-594 330.5387,-594 330.5387,-594 330.5387,-234 330.5387,-193.876 330.5387,-147.4631 330.5387,-118.4177"/>
<polygon fill="#000000" stroke="#000000" points="334.0388,-118.1853 330.5387,-108.1854 327.0388,-118.1854 334.0388,-118.1853"/>
</g>
<!-- sort_pe (utility) -->
<g id="node5" class="node">
<title>sort_pe (utility)</title>
<ellipse fill="none" stroke="#000000" cx="146.5387" cy="-594" rx="83.3857" ry="18"/>
<text text-anchor="middle" x="146.5387" y="-590.3" font-family="Times,serif" font-size="14.00" fill="#000000">sort_pe (utility)</text>
</g>
<!-- flatten (utils)&#45;&gt;sort_pe (utility) -->
<g id="edge4" class="edge">
<title>flatten (utils)&#45;&gt;sort_pe (utility)</title>
<path fill="none" stroke="#000000" d="M164.4825,-647.8314C161.8875,-640.0463 158.7964,-630.7729 155.917,-622.1347"/>
<polygon fill="#000000" stroke="#000000" points="159.1592,-620.7933 152.6765,-612.4133 152.5184,-623.0069 159.1592,-620.7933"/>
</g>
<!-- to_ants (utils) -->
<g id="node11" class="node">
<title>to_ants (utils)</title>
<ellipse fill="none" stroke="#000000" cx="184.5387" cy="-162" rx="75.2868" ry="18"/>
<text text-anchor="middle" x="184.5387" y="-158.3" font-family="Times,serif" font-size="14.00" fill="#000000">to_ants (utils)</text>
</g>
<!-- cphdr_warp (header)&#45;&gt;to_ants (utils) -->
<g id="edge5" class="edge">
<title>cphdr_warp (header)&#45;&gt;to_ants (utils)</title>
<path fill="none" stroke="#000000" d="M184.5387,-215.8314C184.5387,-208.131 184.5387,-198.9743 184.5387,-190.4166"/>
<polygon fill="#000000" stroke="#000000" points="188.0388,-190.4132 184.5387,-180.4133 181.0388,-190.4133 188.0388,-190.4132"/>
</g>
<!-- outputnode (utility) -->
<g id="node12" class="node">
<title>outputnode (utility)</title>
<ellipse fill="none" stroke="#000000" cx="252.5387" cy="-18" rx="101.2821" ry="18"/>
<text text-anchor="middle" x="252.5387" y="-14.3" font-family="Times,serif" font-size="14.00" fill="#000000">outputnode (utility)</text>
</g>
<!-- unwarp_reference (fixes)&#45;&gt;outputnode (utility) -->
<g id="edge6" class="edge">
<title>unwarp_reference (fixes)&#45;&gt;outputnode (utility)</title>
<path fill="none" stroke="#000000" d="M311.2578,-72.2022C301.6015,-63.2887 289.7564,-52.3548 279.2403,-42.6476"/>
<polygon fill="#000000" stroke="#000000" points="281.5902,-40.0536 271.8682,-35.8425 276.8422,-45.1972 281.5902,-40.0536"/>
</g>
<!-- qwarp (afni) -->
<g id="node6" class="node">
<title>qwarp (afni)</title>
<ellipse fill="none" stroke="#000000" cx="121.5387" cy="-306" rx="67.6881" ry="18"/>
<text text-anchor="middle" x="121.5387" y="-302.3" font-family="Times,serif" font-size="14.00" fill="#000000">qwarp (afni)</text>
</g>
<!-- sort_pe (utility)&#45;&gt;qwarp (afni) -->
<g id="edge7" class="edge">
<title>sort_pe (utility)&#45;&gt;qwarp (afni)</title>
<path fill="none" stroke="#000000" d="M82.5905,-582.3631C58.6476,-574.5647 33.8139,-561.5817 19.5387,-540 -26.3331,-470.6491 17.8318,-424.3098 70.5387,-360 78.7128,-350.0265 88.2829,-339.605 96.911,-330.6074"/>
<polygon fill="#000000" stroke="#000000" points="99.4298,-333.0376 103.8859,-323.4254 94.4082,-328.1608 99.4298,-333.0376"/>
</g>
<!-- merge_pes (freesurfer) -->
<g id="node7" class="node">
<title>merge_pes (freesurfer)</title>
<ellipse fill="none" stroke="#000000" cx="146.5387" cy="-522" rx="118.0794" ry="18"/>
<text text-anchor="middle" x="146.5387" y="-518.3" font-family="Times,serif" font-size="14.00" fill="#000000">merge_pes (freesurfer)</text>
</g>
<!-- sort_pe (utility)&#45;&gt;merge_pes (freesurfer) -->
<g id="edge8" class="edge">
<title>sort_pe (utility)&#45;&gt;merge_pes (freesurfer)</title>
<path fill="none" stroke="#000000" d="M146.5387,-575.8314C146.5387,-568.131 146.5387,-558.9743 146.5387,-550.4166"/>
<polygon fill="#000000" stroke="#000000" points="150.0388,-550.4132 146.5387,-540.4133 143.0388,-550.4133 150.0388,-550.4132"/>
</g>
<!-- qwarp (afni)&#45;&gt;cphdr_warp (header) -->
<g id="edge9" class="edge">
<title>qwarp (afni)&#45;&gt;cphdr_warp (header)</title>
<path fill="none" stroke="#000000" d="M137.1118,-288.2022C144.684,-279.5483 153.9225,-268.99 162.2272,-259.4988"/>
<polygon fill="#000000" stroke="#000000" points="164.9754,-261.6731 168.9265,-251.8425 159.7074,-257.0636 164.9754,-261.6731"/>
</g>
<!-- pe0_wf -->
<g id="node8" class="node">
<title>pe0_wf</title>
<ellipse fill="none" stroke="#000000" cx="72.5387" cy="-450" rx="44.393" ry="18"/>
<text text-anchor="middle" x="72.5387" y="-446.3" font-family="Times,serif" font-size="14.00" fill="#000000">pe0_wf</text>
</g>
<!-- merge_pes (freesurfer)&#45;&gt;pe0_wf -->
<g id="edge10" class="edge">
<title>merge_pes (freesurfer)&#45;&gt;pe0_wf</title>
<path fill="none" stroke="#000000" d="M128.2466,-504.2022C118.8333,-495.0434 107.2277,-483.7514 97.0502,-473.849"/>
<polygon fill="#000000" stroke="#000000" points="99.2139,-471.0709 89.6058,-466.6058 94.3324,-476.088 99.2139,-471.0709"/>
</g>
<!-- pe1_wf -->
<g id="node9" class="node">
<title>pe1_wf</title>
<ellipse fill="none" stroke="#000000" cx="178.5387" cy="-450" rx="44.393" ry="18"/>
<text text-anchor="middle" x="178.5387" y="-446.3" font-family="Times,serif" font-size="14.00" fill="#000000">pe1_wf</text>
</g>
<!-- merge_pes (freesurfer)&#45;&gt;pe1_wf -->
<g id="edge11" class="edge">
<title>merge_pes (freesurfer)&#45;&gt;pe1_wf</title>
<path fill="none" stroke="#000000" d="M154.6137,-503.8314C158.2033,-495.7547 162.5049,-486.0761 166.4646,-477.1668"/>
<polygon fill="#000000" stroke="#000000" points="169.7141,-478.473 170.5772,-467.9134 163.3174,-475.63 169.7141,-478.473"/>
</g>
<!-- pe0_wf&#45;&gt;qwarp (afni) -->
<g id="edge13" class="edge">
<title>pe0_wf&#45;&gt;qwarp (afni)</title>
<path fill="none" stroke="#000000" d="M72.198,-431.7882C72.4315,-413.1513 74.4353,-383.652 83.5387,-360 87.3682,-350.0504 93.4304,-340.2032 99.5976,-331.6972"/>
<polygon fill="#000000" stroke="#000000" points="102.4301,-333.7548 105.721,-323.684 96.8681,-329.5045 102.4301,-333.7548"/>
</g>
<!-- align_pes (fixes) -->
<g id="node10" class="node">
<title>align_pes (fixes)</title>
<ellipse fill="none" stroke="#000000" cx="178.5387" cy="-378" rx="86.3847" ry="18"/>
<text text-anchor="middle" x="178.5387" y="-374.3" font-family="Times,serif" font-size="14.00" fill="#000000">align_pes (fixes)</text>
</g>
<!-- pe0_wf&#45;&gt;align_pes (fixes) -->
<g id="edge12" class="edge">
<title>pe0_wf&#45;&gt;align_pes (fixes)</title>
<path fill="none" stroke="#000000" d="M95.2784,-434.5542C109.5474,-424.862 128.2173,-412.1806 144.2608,-401.2831"/>
<polygon fill="#000000" stroke="#000000" points="146.5534,-403.957 152.859,-395.4428 142.6202,-398.1664 146.5534,-403.957"/>
</g>
<!-- pe1_wf&#45;&gt;align_pes (fixes) -->
<g id="edge14" class="edge">
<title>pe1_wf&#45;&gt;align_pes (fixes)</title>
<path fill="none" stroke="#000000" d="M178.5387,-431.8314C178.5387,-424.131 178.5387,-414.9743 178.5387,-406.4166"/>
<polygon fill="#000000" stroke="#000000" points="182.0388,-406.4132 178.5387,-396.4133 175.0388,-406.4133 182.0388,-406.4132"/>
</g>
<!-- align_pes (fixes)&#45;&gt;qwarp (afni) -->
<g id="edge15" class="edge">
<title>align_pes (fixes)&#45;&gt;qwarp (afni)</title>
<path fill="none" stroke="#000000" d="M164.4488,-360.2022C157.6663,-351.6348 149.4061,-341.2009 141.951,-331.7839"/>
<polygon fill="#000000" stroke="#000000" points="144.6153,-329.5106 135.6641,-323.8425 139.127,-333.8555 144.6153,-329.5106"/>
</g>
<!-- to_ants (utils)&#45;&gt;unwarp_reference (fixes) -->
<g id="edge16" class="edge">
<title>to_ants (utils)&#45;&gt;unwarp_reference (fixes)</title>
<path fill="none" stroke="#000000" d="M217.6684,-145.6621C237.9129,-135.6785 264.0587,-122.7847 286.0875,-111.9212"/>
<polygon fill="#000000" stroke="#000000" points="287.8264,-114.9661 295.2471,-107.4041 284.7304,-108.688 287.8264,-114.9661"/>
</g>
<!-- to_ants (utils)&#45;&gt;outputnode (utility) -->
<g id="edge17" class="edge">
<title>to_ants (utils)&#45;&gt;outputnode (utility)</title>
<path fill="none" stroke="#000000" d="M182.9659,-143.7116C182.1326,-124.7507 183.0982,-94.7541 194.5387,-72 200.2361,-60.6685 209.3514,-50.4955 218.6842,-42.1161"/>
<polygon fill="#000000" stroke="#000000" points="221.1218,-44.6388 226.5047,-35.5132 216.6059,-39.2902 221.1218,-44.6388"/>
</g>
</g>
</svg>
