<?xml version="1.0" encoding="UTF-8" standalone="no"?>
<!DOCTYPE svg PUBLIC "-//W3C//DTD SVG 1.1//EN"
 "http://www.w3.org/Graphics/SVG/1.1/DTD/svg11.dtd">
<!-- Generated by graphviz version 2.40.1 (20161225.0304)
 -->
<!-- Title: structs Pages: 1 -->
<svg width="969pt" height="571pt"
 viewBox="0.00 0.00 968.50 571.00" xmlns="http://www.w3.org/2000/svg" xmlns:xlink="http://www.w3.org/1999/xlink">
<g id="graph0" class="graph" transform="scale(1 1) rotate(0) translate(4 567)">
<title>structs</title>
<polygon fill="#ffffff" stroke="transparent" points="-4,4 -4,-567 964.5,-567 964.5,4 -4,4"/>
<!-- fmap_wfinputnode -->
<g id="node1" class="node">
<title>fmap_wfinputnode</title>
<polygon fill="none" stroke="#000000" points="0,-493.5 0,-562.5 217,-562.5 217,-493.5 0,-493.5"/>
<text text-anchor="middle" x="17.5" y="-524.3" font-family="Times,serif" font-size="14.00" fill="#000000">IN</text>
<polyline fill="none" stroke="#000000" points="35,-493.5 35,-562.5 "/>
<text text-anchor="middle" x="79.5" y="-547.3" font-family="Times,serif" font-size="14.00" fill="#000000">inputnode</text>
<polyline fill="none" stroke="#000000" points="35,-539.5 124,-539.5 "/>
<text text-anchor="middle" x="79.5" y="-524.3" font-family="Times,serif" font-size="14.00" fill="#000000">utility</text>
<polyline fill="none" stroke="#000000" points="35,-516.5 124,-516.5 "/>
<text text-anchor="middle" x="79.5" y="-501.3" font-family="Times,serif" font-size="14.00" fill="#000000"> </text>
<polyline fill="none" stroke="#000000" points="124,-493.5 124,-562.5 "/>
<text text-anchor="middle" x="170.5" y="-547.3" font-family="Times,serif" font-size="14.00" fill="#000000">OUT</text>
<polyline fill="none" stroke="#000000" points="124,-539.5 217,-539.5 "/>
<text text-anchor="middle" x="170.5" y="-524.3" font-family="Times,serif" font-size="14.00" fill="#000000">fieldmap</text>
<polyline fill="none" stroke="#000000" points="124,-516.5 217,-516.5 "/>
<text text-anchor="middle" x="170.5" y="-501.3" font-family="Times,serif" font-size="14.00" fill="#000000">magnitude</text>
</g>
<!-- fmap_wfmagnitude_wf -->
<g id="node2" class="node">
<title>fmap_wfmagnitude_wf</title>
<polygon fill="none" stroke="#000000" points="232,-387.5 232,-456.5 705,-456.5 705,-387.5 232,-387.5"/>
<text text-anchor="middle" x="317" y="-435.8" font-family="Times,serif" font-size="14.00" fill="#000000">IN</text>
<polyline fill="none" stroke="#000000" points="232,-422.5 402,-422.5 "/>
<text text-anchor="middle" x="317" y="-401.3" font-family="Times,serif" font-size="14.00" fill="#000000">inputnode.magnitude</text>
<polyline fill="none" stroke="#000000" points="402,-387.5 402,-456.5 "/>
<text text-anchor="middle" x="461" y="-441.3" font-family="Times,serif" font-size="14.00" fill="#000000">magnitude_wf</text>
<polyline fill="none" stroke="#000000" points="402,-433.5 520,-433.5 "/>
<text text-anchor="middle" x="461" y="-418.3" font-family="Times,serif" font-size="14.00" fill="#000000"> </text>
<polyline fill="none" stroke="#000000" points="402,-410.5 520,-410.5 "/>
<text text-anchor="middle" x="461" y="-395.3" font-family="Times,serif" font-size="14.00" fill="#000000"> </text>
<polyline fill="none" stroke="#000000" points="520,-387.5 520,-456.5 "/>
<text text-anchor="middle" x="612.5" y="-441.3" font-family="Times,serif" font-size="14.00" fill="#000000">OUT</text>
<polyline fill="none" stroke="#000000" points="520,-433.5 705,-433.5 "/>
<text text-anchor="middle" x="612.5" y="-418.3" font-family="Times,serif" font-size="14.00" fill="#000000">outputnode.fmap_mask</text>
<polyline fill="none" stroke="#000000" points="520,-410.5 705,-410.5 "/>
<text text-anchor="middle" x="612.5" y="-395.3" font-family="Times,serif" font-size="14.00" fill="#000000">outputnode.fmap_ref</text>
</g>
<!-- fmap_wfinputnode&#45;&gt;fmap_wfmagnitude_wf -->
<g id="edge4" class="edge">
<title>fmap_wfinputnode:e&#45;&gt;fmap_wfmagnitude_wf:w</title>
<path fill="none" stroke="#000000" d="M217.5,-505C236.2576,-505 217.7578,-435.1208 224.2902,-412.1918"/>
<polygon fill="#000000" stroke="#000000" points="226.8919,-414.5402 231.5,-405 221.9483,-409.5843 226.8919,-414.5402"/>
</g>
<!-- fmap_wfphdiff_wf -->
<g id="node3" class="node">
<title>fmap_wfphdiff_wf</title>
<polygon fill="none" stroke="#000000" points="207.5,-258.5 207.5,-350.5 625.5,-350.5 625.5,-258.5 207.5,-258.5"/>
<text text-anchor="middle" x="292.5" y="-335.3" font-family="Times,serif" font-size="14.00" fill="#000000">IN</text>
<polyline fill="none" stroke="#000000" points="207.5,-327.5 377.5,-327.5 "/>
<text text-anchor="middle" x="292.5" y="-312.3" font-family="Times,serif" font-size="14.00" fill="#000000">inputnode.magnitude</text>
<polyline fill="none" stroke="#000000" points="207.5,-304.5 377.5,-304.5 "/>
<text text-anchor="middle" x="292.5" y="-289.3" font-family="Times,serif" font-size="14.00" fill="#000000">inputnode.mask</text>
<polyline fill="none" stroke="#000000" points="207.5,-281.5 377.5,-281.5 "/>
<text text-anchor="middle" x="292.5" y="-266.3" font-family="Times,serif" font-size="14.00" fill="#000000">inputnode.phase</text>
<polyline fill="none" stroke="#000000" points="377.5,-258.5 377.5,-350.5 "/>
<text text-anchor="middle" x="419" y="-331.8" font-family="Times,serif" font-size="14.00" fill="#000000">phdiff_wf</text>
<polyline fill="none" stroke="#000000" points="377.5,-320.5 460.5,-320.5 "/>
<text text-anchor="middle" x="419" y="-301.3" font-family="Times,serif" font-size="14.00" fill="#000000"> </text>
<polyline fill="none" stroke="#000000" points="377.5,-289.5 460.5,-289.5 "/>
<text text-anchor="middle" x="419" y="-270.3" font-family="Times,serif" font-size="14.00" fill="#000000"> </text>
<polyline fill="none" stroke="#000000" points="460.5,-258.5 460.5,-350.5 "/>
<text text-anchor="middle" x="543" y="-323.8" font-family="Times,serif" font-size="14.00" fill="#000000">OUT</text>
<polyline fill="none" stroke="#000000" points="460.5,-304.5 625.5,-304.5 "/>
<text text-anchor="middle" x="543" y="-277.8" font-family="Times,serif" font-size="14.00" fill="#000000">outputnode.fieldmap</text>
</g>
<!-- fmap_wfinputnode&#45;&gt;fmap_wfphdiff_wf -->
<g id="edge3" class="edge">
<title>fmap_wfinputnode:e&#45;&gt;fmap_wfphdiff_wf:w</title>
<path fill="none" stroke="#000000" d="M217.5,-528C243.2121,-528 191.9215,-321.1519 201.3908,-277.5199"/>
<polygon fill="#000000" stroke="#000000" points="204.2245,-279.5758 207.5,-269.5 198.6561,-275.334 204.2245,-279.5758"/>
</g>
<!-- fmap_wfmagnitude_wf&#45;&gt;fmap_wfphdiff_wf -->
<g id="edge7" class="edge">
<title>fmap_wfmagnitude_wf:e&#45;&gt;fmap_wfphdiff_wf:w</title>
<path fill="none" stroke="#000000" d="M705.5,-422C721.0556,-422 716.0955,-398.3891 705.5,-387 629.924,-305.7634 283.076,-432.2366 207.5,-351 192.5575,-334.9384 184.3207,-304.3338 197.7291,-295.162"/>
<polygon fill="#000000" stroke="#000000" points="198.7717,-298.5056 207.5,-292.5 196.9316,-291.7517 198.7717,-298.5056"/>
</g>
<!-- fmap_wfmagnitude_wf&#45;&gt;fmap_wfphdiff_wf -->
<g id="edge9" class="edge">
<title>fmap_wfmagnitude_wf:e&#45;&gt;fmap_wfphdiff_wf:w</title>
<path fill="none" stroke="#000000" d="M705.5,-399C710.8333,-399 709.1327,-390.9048 705.5,-387 629.924,-305.7634 283.076,-432.2366 207.5,-351 200.1565,-343.1065 195.5592,-329.2569 198.8069,-321.7295"/>
<polygon fill="#000000" stroke="#000000" points="200.7352,-324.654 207.5,-316.5 197.1268,-318.6557 200.7352,-324.654"/>
</g>
<!-- fmap_wfbs_filter -->
<g id="node4" class="node">
<title>fmap_wfbs_filter</title>
<polygon fill="none" stroke="#000000" points="410.5,-152.5 410.5,-221.5 700.5,-221.5 700.5,-152.5 410.5,-152.5"/>
<text text-anchor="middle" x="448.5" y="-206.3" font-family="Times,serif" font-size="14.00" fill="#000000">IN</text>
<polyline fill="none" stroke="#000000" points="410.5,-198.5 486.5,-198.5 "/>
<text text-anchor="middle" x="448.5" y="-183.3" font-family="Times,serif" font-size="14.00" fill="#000000">in_data</text>
<polyline fill="none" stroke="#000000" points="410.5,-175.5 486.5,-175.5 "/>
<text text-anchor="middle" x="448.5" y="-160.3" font-family="Times,serif" font-size="14.00" fill="#000000">in_mask</text>
<polyline fill="none" stroke="#000000" points="486.5,-152.5 486.5,-221.5 "/>
<text text-anchor="middle" x="524.5" y="-206.3" font-family="Times,serif" font-size="14.00" fill="#000000">bs_filter</text>
<polyline fill="none" stroke="#000000" points="486.5,-198.5 562.5,-198.5 "/>
<text text-anchor="middle" x="524.5" y="-183.3" font-family="Times,serif" font-size="14.00" fill="#000000">bspline</text>
<polyline fill="none" stroke="#000000" points="486.5,-175.5 562.5,-175.5 "/>
<text text-anchor="middle" x="524.5" y="-160.3" font-family="Times,serif" font-size="14.00" fill="#000000"> </text>
<polyline fill="none" stroke="#000000" points="562.5,-152.5 562.5,-221.5 "/>
<text text-anchor="middle" x="631.5" y="-206.3" font-family="Times,serif" font-size="14.00" fill="#000000">OUT</text>
<polyline fill="none" stroke="#000000" points="562.5,-198.5 700.5,-198.5 "/>
<text text-anchor="middle" x="631.5" y="-183.3" font-family="Times,serif" font-size="14.00" fill="#000000">out_coeff</text>
<polyline fill="none" stroke="#000000" points="562.5,-175.5 700.5,-175.5 "/>
<text text-anchor="middle" x="631.5" y="-160.3" font-family="Times,serif" font-size="14.00" fill="#000000">out_extrapolated</text>
</g>
<!-- fmap_wfmagnitude_wf&#45;&gt;fmap_wfbs_filter -->
<g id="edge5" class="edge">
<title>fmap_wfmagnitude_wf:e&#45;&gt;fmap_wfbs_filter:w</title>
<path fill="none" stroke="#000000" d="M705.5,-422C735.7094,-422 736.052,-329.5075 634.5,-258 552.0553,-199.9468 475.8987,-298.7484 410.5,-222 396.5239,-205.5984 387.9008,-176.0883 400.5055,-166.8468"/>
<polygon fill="#000000" stroke="#000000" points="401.8413,-170.1056 410.5,-164 399.9237,-163.3734 401.8413,-170.1056"/>
</g>
<!-- fmap_wfoutputnode -->
<g id="node5" class="node">
<title>fmap_wfoutputnode</title>
<polygon fill="none" stroke="#000000" points="714.5,-.5 714.5,-115.5 960.5,-115.5 960.5,-.5 714.5,-.5"/>
<text text-anchor="middle" x="763.5" y="-100.3" font-family="Times,serif" font-size="14.00" fill="#000000">IN</text>
<polyline fill="none" stroke="#000000" points="714.5,-92.5 812.5,-92.5 "/>
<text text-anchor="middle" x="763.5" y="-77.3" font-family="Times,serif" font-size="14.00" fill="#000000">fmap</text>
<polyline fill="none" stroke="#000000" points="714.5,-69.5 812.5,-69.5 "/>
<text text-anchor="middle" x="763.5" y="-54.3" font-family="Times,serif" font-size="14.00" fill="#000000">fmap_coeff</text>
<polyline fill="none" stroke="#000000" points="714.5,-46.5 812.5,-46.5 "/>
<text text-anchor="middle" x="763.5" y="-31.3" font-family="Times,serif" font-size="14.00" fill="#000000">fmap_mask</text>
<polyline fill="none" stroke="#000000" points="714.5,-23.5 812.5,-23.5 "/>
<text text-anchor="middle" x="763.5" y="-8.3" font-family="Times,serif" font-size="14.00" fill="#000000">fmap_ref</text>
<polyline fill="none" stroke="#000000" points="812.5,-.5 812.5,-115.5 "/>
<text text-anchor="middle" x="861.5" y="-92.8" font-family="Times,serif" font-size="14.00" fill="#000000">outputnode</text>
<polyline fill="none" stroke="#000000" points="812.5,-77.5 910.5,-77.5 "/>
<text text-anchor="middle" x="861.5" y="-54.8" font-family="Times,serif" font-size="14.00" fill="#000000">utility</text>
<polyline fill="none" stroke="#000000" points="812.5,-39.5 910.5,-39.5 "/>
<text text-anchor="middle" x="861.5" y="-16.3" font-family="Times,serif" font-size="14.00" fill="#000000"> </text>
<polyline fill="none" stroke="#000000" points="910.5,-.5 910.5,-115.5 "/>
<text text-anchor="middle" x="935.5" y="-54.3" font-family="Times,serif" font-size="14.00" fill="#000000">OUT</text>
</g>
<!-- fmap_wfmagnitude_wf&#45;&gt;fmap_wfoutputnode -->
<g id="edge6" class="edge">
<title>fmap_wfmagnitude_wf:e&#45;&gt;fmap_wfoutputnode:w</title>
<path fill="none" stroke="#000000" d="M705.5,-422C715.2238,-422 705.9278,-105.5297 712.0111,-44.9552"/>
<polygon fill="#000000" stroke="#000000" points="715.4699,-45.5503 714.5,-35 708.679,-43.8525 715.4699,-45.5503"/>
</g>
<!-- fmap_wfmagnitude_wf&#45;&gt;fmap_wfoutputnode -->
<g id="edge8" class="edge">
<title>fmap_wfmagnitude_wf:e&#45;&gt;fmap_wfoutputnode:w</title>
<path fill="none" stroke="#000000" d="M705.5,-399C728.284,-399 719.4348,-373.4184 723.5,-351 739.2807,-263.9748 734.3064,-239.7818 723.5,-152 721.4849,-135.6311 716.5151,-132.3689 714.5,-116 709.3378,-74.0666 674.9936,-21.8996 704.4291,-13.2431"/>
<polygon fill="#000000" stroke="#000000" points="705.0041,-16.6988 714.5,-12 704.1465,-9.7515 705.0041,-16.6988"/>
</g>
<!-- fmap_wfphdiff_wf&#45;&gt;fmap_wfbs_filter -->
<g id="edge10" class="edge">
<title>fmap_wfphdiff_wf:e&#45;&gt;fmap_wfbs_filter:w</title>
<path fill="none" stroke="#000000" d="M625.5,-281.5C635.9444,-281.5 632.248,-265.9719 625.5,-258 562.9033,-184.0506 473.0967,-295.9494 410.5,-222 403.4334,-213.6518 398.6138,-199.7398 401.7823,-192.2153"/>
<polygon fill="#000000" stroke="#000000" points="403.7153,-195.1375 410.5,-187 400.1215,-189.1303 403.7153,-195.1375"/>
</g>
<!-- fmap_wfbs_filter&#45;&gt;fmap_wfoutputnode -->
<g id="edge1" class="edge">
<title>fmap_wfbs_filter:e&#45;&gt;fmap_wfoutputnode:w</title>
<path fill="none" stroke="#000000" d="M700.5,-187C725.5053,-187 695.9859,-89.9902 706.5081,-64.2219"/>
<polygon fill="#000000" stroke="#000000" points="708.7594,-66.9049 714.5,-58 704.4592,-61.3814 708.7594,-66.9049"/>
</g>
<!-- fmap_wfbs_filter&#45;&gt;fmap_wfoutputnode -->
<g id="edge2" class="edge">
<title>fmap_wfbs_filter:e&#45;&gt;fmap_wfoutputnode:w</title>
<path fill="none" stroke="#000000" d="M700.5,-164C733.2337,-164 690.7602,-100.4531 704.6921,-84.5664"/>
<polygon fill="#000000" stroke="#000000" points="706.2981,-87.7067 714.5,-81 703.9059,-81.1281 706.2981,-87.7067"/>
</g>
</g>
</svg>
