<?xml version="1.0" encoding="UTF-8" standalone="no"?>
<!DOCTYPE svg PUBLIC "-//W3C//DTD SVG 1.1//EN"
 "http://www.w3.org/Graphics/SVG/1.1/DTD/svg11.dtd">
<!-- Generated by graphviz version 2.40.1 (20161225.0304)
 -->
<!-- Title: structs Pages: 1 -->
<svg width="1786pt" height="1207pt"
 viewBox="0.00 0.00 1785.98 1207.00" xmlns="http://www.w3.org/2000/svg" xmlns:xlink="http://www.w3.org/1999/xlink">
<g id="graph0" class="graph" transform="scale(1 1) rotate(0) translate(4 1203)">
<title>structs</title>
<polygon fill="#ffffff" stroke="transparent" points="-4,4 -4,-1203 1781.9815,-1203 1781.9815,4 -4,4"/>
<!-- pepolar_estimate_wfinputnode -->
<g id="node1" class="node">
<title>pepolar_estimate_wfinputnode</title>
<polygon fill="none" stroke="#000000" points="1043.4815,-1106.5 1043.4815,-1198.5 1274.4815,-1198.5 1274.4815,-1106.5 1043.4815,-1106.5"/>
<text text-anchor="middle" x="1060.9815" y="-1148.8" font-family="Times,serif" font-size="14.00" fill="#000000">IN</text>
<polyline fill="none" stroke="#000000" points="1078.4815,-1106.5 1078.4815,-1198.5 "/>
<text text-anchor="middle" x="1122.9815" y="-1179.8" font-family="Times,serif" font-size="14.00" fill="#000000">inputnode</text>
<polyline fill="none" stroke="#000000" points="1078.4815,-1168.5 1167.4815,-1168.5 "/>
<text text-anchor="middle" x="1122.9815" y="-1149.3" font-family="Times,serif" font-size="14.00" fill="#000000">utility</text>
<polyline fill="none" stroke="#000000" points="1078.4815,-1137.5 1167.4815,-1137.5 "/>
<text text-anchor="middle" x="1122.9815" y="-1118.3" font-family="Times,serif" font-size="14.00" fill="#000000"> </text>
<polyline fill="none" stroke="#000000" points="1167.4815,-1106.5 1167.4815,-1198.5 "/>
<text text-anchor="middle" x="1220.9815" y="-1183.3" font-family="Times,serif" font-size="14.00" fill="#000000">OUT</text>
<polyline fill="none" stroke="#000000" points="1167.4815,-1175.5 1274.4815,-1175.5 "/>
<text text-anchor="middle" x="1220.9815" y="-1160.3" font-family="Times,serif" font-size="14.00" fill="#000000">in_data</text>
<polyline fill="none" stroke="#000000" points="1167.4815,-1152.5 1274.4815,-1152.5 "/>
<text text-anchor="middle" x="1220.9815" y="-1137.3" font-family="Times,serif" font-size="14.00" fill="#000000">in_reference</text>
<polyline fill="none" stroke="#000000" points="1167.4815,-1129.5 1274.4815,-1129.5 "/>
<text text-anchor="middle" x="1220.9815" y="-1114.3" font-family="Times,serif" font-size="14.00" fill="#000000">metadata</text>
</g>
<!-- pepolar_estimate_wfflatten -->
<g id="node2" class="node">
<title>pepolar_estimate_wfflatten</title>
<polygon fill="none" stroke="#000000" points="1038.9815,-1000.5 1038.9815,-1069.5 1246.9815,-1069.5 1246.9815,-1000.5 1038.9815,-1000.5"/>
<text text-anchor="middle" x="1075.9815" y="-1054.3" font-family="Times,serif" font-size="14.00" fill="#000000">IN</text>
<polyline fill="none" stroke="#000000" points="1038.9815,-1046.5 1112.9815,-1046.5 "/>
<text text-anchor="middle" x="1075.9815" y="-1031.3" font-family="Times,serif" font-size="14.00" fill="#000000">in_data</text>
<polyline fill="none" stroke="#000000" points="1038.9815,-1023.5 1112.9815,-1023.5 "/>
<text text-anchor="middle" x="1075.9815" y="-1008.3" font-family="Times,serif" font-size="14.00" fill="#000000">in_meta</text>
<polyline fill="none" stroke="#000000" points="1112.9815,-1000.5 1112.9815,-1069.5 "/>
<text text-anchor="middle" x="1144.9815" y="-1054.3" font-family="Times,serif" font-size="14.00" fill="#000000">flatten</text>
<polyline fill="none" stroke="#000000" points="1112.9815,-1046.5 1176.9815,-1046.5 "/>
<text text-anchor="middle" x="1144.9815" y="-1031.3" font-family="Times,serif" font-size="14.00" fill="#000000">utils</text>
<polyline fill="none" stroke="#000000" points="1112.9815,-1023.5 1176.9815,-1023.5 "/>
<text text-anchor="middle" x="1144.9815" y="-1008.3" font-family="Times,serif" font-size="14.00" fill="#000000"> </text>
<polyline fill="none" stroke="#000000" points="1176.9815,-1000.5 1176.9815,-1069.5 "/>
<text text-anchor="middle" x="1211.9815" y="-1048.8" font-family="Times,serif" font-size="14.00" fill="#000000">OUT</text>
<polyline fill="none" stroke="#000000" points="1176.9815,-1035.5 1246.9815,-1035.5 "/>
<text text-anchor="middle" x="1211.9815" y="-1014.3" font-family="Times,serif" font-size="14.00" fill="#000000">out_list</text>
</g>
<!-- pepolar_estimate_wfinputnode&#45;&gt;pepolar_estimate_wfflatten -->
<g id="edge5" class="edge">
<title>pepolar_estimate_wfinputnode:e&#45;&gt;pepolar_estimate_wfflatten:w</title>
<path fill="none" stroke="#000000" d="M1274.9815,-1164.5C1300.9815,-1164.5 1291.9235,-1125.7223 1274.9815,-1106 1205.8438,-1025.5161 1108.1192,-1150.4839 1038.9815,-1070 1031.8545,-1061.7034 1027.0594,-1047.7704 1030.2478,-1040.2289"/>
<polygon fill="#000000" stroke="#000000" points="1032.1996,-1043.1398 1038.9815,-1035 1028.6038,-1037.1339 1032.1996,-1043.1398"/>
</g>
<!-- pepolar_estimate_wfinputnode&#45;&gt;pepolar_estimate_wfflatten -->
<g id="edge8" class="edge">
<title>pepolar_estimate_wfinputnode:e&#45;&gt;pepolar_estimate_wfflatten:w</title>
<path fill="none" stroke="#000000" d="M1274.9815,-1117.5C1280.0926,-1117.5 1278.312,-1109.877 1274.9815,-1106 1205.8438,-1025.5161 1108.1192,-1150.4839 1038.9815,-1070 1024.9401,-1053.6543 1016.3609,-1024.1067 1028.9818,-1014.8513"/>
<polygon fill="#000000" stroke="#000000" points="1030.3246,-1018.108 1038.9815,-1012 1028.4051,-1011.3763 1030.3246,-1018.108"/>
</g>
<!-- pepolar_estimate_wfcphdr_warp -->
<g id="node9" class="node">
<title>pepolar_estimate_wfcphdr_warp</title>
<polygon fill="none" stroke="#000000" points="1093.4815,-341.5 1093.4815,-410.5 1336.4815,-410.5 1336.4815,-341.5 1093.4815,-341.5"/>
<text text-anchor="middle" x="1128.9815" y="-395.3" font-family="Times,serif" font-size="14.00" fill="#000000">IN</text>
<polyline fill="none" stroke="#000000" points="1093.4815,-387.5 1164.4815,-387.5 "/>
<text text-anchor="middle" x="1128.9815" y="-372.3" font-family="Times,serif" font-size="14.00" fill="#000000">hdr_file</text>
<polyline fill="none" stroke="#000000" points="1093.4815,-364.5 1164.4815,-364.5 "/>
<text text-anchor="middle" x="1128.9815" y="-349.3" font-family="Times,serif" font-size="14.00" fill="#000000">in_file</text>
<polyline fill="none" stroke="#000000" points="1164.4815,-341.5 1164.4815,-410.5 "/>
<text text-anchor="middle" x="1215.4815" y="-395.3" font-family="Times,serif" font-size="14.00" fill="#000000">cphdr_warp</text>
<polyline fill="none" stroke="#000000" points="1164.4815,-387.5 1266.4815,-387.5 "/>
<text text-anchor="middle" x="1215.4815" y="-372.3" font-family="Times,serif" font-size="14.00" fill="#000000">header</text>
<polyline fill="none" stroke="#000000" points="1164.4815,-364.5 1266.4815,-364.5 "/>
<text text-anchor="middle" x="1215.4815" y="-349.3" font-family="Times,serif" font-size="14.00" fill="#000000"> </text>
<polyline fill="none" stroke="#000000" points="1266.4815,-341.5 1266.4815,-410.5 "/>
<text text-anchor="middle" x="1301.4815" y="-389.8" font-family="Times,serif" font-size="14.00" fill="#000000">OUT</text>
<polyline fill="none" stroke="#000000" points="1266.4815,-376.5 1336.4815,-376.5 "/>
<text text-anchor="middle" x="1301.4815" y="-355.3" font-family="Times,serif" font-size="14.00" fill="#000000">out_file</text>
</g>
<!-- pepolar_estimate_wfinputnode&#45;&gt;pepolar_estimate_wfcphdr_warp -->
<g id="edge4" class="edge">
<title>pepolar_estimate_wfinputnode:e&#45;&gt;pepolar_estimate_wfcphdr_warp:w</title>
<path fill="none" stroke="#000000" d="M1274.9815,-1164.5C1379.6482,-1164.5 1274.9815,-1033.6667 1274.9815,-929 1274.9815,-929 1274.9815,-929 1274.9815,-611 1274.9815,-520.1549 1220.3236,-507.9744 1152.9815,-447 1129.9287,-426.127 1108.3037,-438.0618 1092.9815,-411 1087.7124,-401.6937 1082.3359,-388.6406 1084.5449,-381.3912"/>
<polygon fill="#000000" stroke="#000000" points="1086.4397,-384.334 1092.9815,-376 1082.6704,-378.4355 1086.4397,-384.334"/>
</g>
<!-- pepolar_estimate_wfunwarp_reference -->
<g id="node11" class="node">
<title>pepolar_estimate_wfunwarp_reference</title>
<polygon fill="none" stroke="#000000" points="1364.4815,-106.5 1364.4815,-198.5 1763.4815,-198.5 1763.4815,-106.5 1364.4815,-106.5"/>
<text text-anchor="middle" x="1432.9815" y="-183.3" font-family="Times,serif" font-size="14.00" fill="#000000">IN</text>
<polyline fill="none" stroke="#000000" points="1364.4815,-175.5 1501.4815,-175.5 "/>
<text text-anchor="middle" x="1432.9815" y="-160.3" font-family="Times,serif" font-size="14.00" fill="#000000">input_image</text>
<polyline fill="none" stroke="#000000" points="1364.4815,-152.5 1501.4815,-152.5 "/>
<text text-anchor="middle" x="1432.9815" y="-137.3" font-family="Times,serif" font-size="14.00" fill="#000000">reference_image</text>
<polyline fill="none" stroke="#000000" points="1364.4815,-129.5 1501.4815,-129.5 "/>
<text text-anchor="middle" x="1432.9815" y="-114.3" font-family="Times,serif" font-size="14.00" fill="#000000">transforms</text>
<polyline fill="none" stroke="#000000" points="1501.4815,-106.5 1501.4815,-198.5 "/>
<text text-anchor="middle" x="1574.9815" y="-179.8" font-family="Times,serif" font-size="14.00" fill="#000000">unwarp_reference</text>
<polyline fill="none" stroke="#000000" points="1501.4815,-168.5 1648.4815,-168.5 "/>
<text text-anchor="middle" x="1574.9815" y="-149.3" font-family="Times,serif" font-size="14.00" fill="#000000">fixes</text>
<polyline fill="none" stroke="#000000" points="1501.4815,-137.5 1648.4815,-137.5 "/>
<text text-anchor="middle" x="1574.9815" y="-118.3" font-family="Times,serif" font-size="14.00" fill="#000000"> </text>
<polyline fill="none" stroke="#000000" points="1648.4815,-106.5 1648.4815,-198.5 "/>
<text text-anchor="middle" x="1705.9815" y="-171.8" font-family="Times,serif" font-size="14.00" fill="#000000">OUT</text>
<polyline fill="none" stroke="#000000" points="1648.4815,-152.5 1763.4815,-152.5 "/>
<text text-anchor="middle" x="1705.9815" y="-125.8" font-family="Times,serif" font-size="14.00" fill="#000000">output_image</text>
</g>
<!-- pepolar_estimate_wfinputnode&#45;&gt;pepolar_estimate_wfunwarp_reference -->
<g id="edge6" class="edge">
<title>pepolar_estimate_wfinputnode:e&#45;&gt;pepolar_estimate_wfunwarp_reference:w</title>
<path fill="none" stroke="#000000" d="M1274.9815,-1140.5C1309.1542,-1140.5 1364.9815,-1001.4304 1364.9815,-929 1364.9815,-929 1364.9815,-929 1364.9815,-376 1364.9815,-370.9052 1359.8114,-215.5957 1362.2694,-174.4315"/>
<polygon fill="#000000" stroke="#000000" points="1365.7317,-174.9493 1363.9815,-164.5 1358.8334,-173.76 1365.7317,-174.9493"/>
</g>
<!-- pepolar_estimate_wfinputnode&#45;&gt;pepolar_estimate_wfunwarp_reference -->
<g id="edge7" class="edge">
<title>pepolar_estimate_wfinputnode:e&#45;&gt;pepolar_estimate_wfunwarp_reference:w</title>
<path fill="none" stroke="#000000" d="M1274.9815,-1140.5C1384.8557,-1140.5 1402.9815,-1038.8742 1402.9815,-929 1402.9815,-929 1402.9815,-929 1402.9815,-376 1402.9815,-312.1947 1392.1054,-296.7344 1375.9815,-235 1371.7195,-218.6819 1366.6831,-215.6477 1363.9815,-199 1363.6012,-196.6566 1362.0424,-166.5221 1362.4964,-150.4479"/>
<polygon fill="#000000" stroke="#000000" points="1365.9666,-150.9072 1363.9815,-140.5 1359.0433,-149.8736 1365.9666,-150.9072"/>
</g>
<!-- pepolar_estimate_wfsort_pe -->
<g id="node3" class="node">
<title>pepolar_estimate_wfsort_pe</title>
<polygon fill="none" stroke="#000000" points="721.9815,-894.5 721.9815,-963.5 945.9815,-963.5 945.9815,-894.5 721.9815,-894.5"/>
<text text-anchor="middle" x="748.4815" y="-942.8" font-family="Times,serif" font-size="14.00" fill="#000000">IN</text>
<polyline fill="none" stroke="#000000" points="721.9815,-929.5 774.9815,-929.5 "/>
<text text-anchor="middle" x="748.4815" y="-908.3" font-family="Times,serif" font-size="14.00" fill="#000000">inlist</text>
<polyline fill="none" stroke="#000000" points="774.9815,-894.5 774.9815,-963.5 "/>
<text text-anchor="middle" x="809.9815" y="-948.3" font-family="Times,serif" font-size="14.00" fill="#000000">sort_pe</text>
<polyline fill="none" stroke="#000000" points="774.9815,-940.5 844.9815,-940.5 "/>
<text text-anchor="middle" x="809.9815" y="-925.3" font-family="Times,serif" font-size="14.00" fill="#000000">utility</text>
<polyline fill="none" stroke="#000000" points="774.9815,-917.5 844.9815,-917.5 "/>
<text text-anchor="middle" x="809.9815" y="-902.3" font-family="Times,serif" font-size="14.00" fill="#000000"> </text>
<polyline fill="none" stroke="#000000" points="844.9815,-894.5 844.9815,-963.5 "/>
<text text-anchor="middle" x="895.4815" y="-948.3" font-family="Times,serif" font-size="14.00" fill="#000000">OUT</text>
<polyline fill="none" stroke="#000000" points="844.9815,-940.5 945.9815,-940.5 "/>
<text text-anchor="middle" x="895.4815" y="-925.3" font-family="Times,serif" font-size="14.00" fill="#000000">qwarp_args</text>
<polyline fill="none" stroke="#000000" points="844.9815,-917.5 945.9815,-917.5 "/>
<text text-anchor="middle" x="895.4815" y="-902.3" font-family="Times,serif" font-size="14.00" fill="#000000">sorted</text>
</g>
<!-- pepolar_estimate_wfflatten&#45;&gt;pepolar_estimate_wfsort_pe -->
<g id="edge3" class="edge">
<title>pepolar_estimate_wfflatten:e&#45;&gt;pepolar_estimate_wfsort_pe:w</title>
<path fill="none" stroke="#000000" d="M1246.9815,-1018C1254.9815,-1018 1252.4414,-1005.8471 1246.9815,-1000 1167.1705,-914.5288 801.7925,-1049.4712 721.9815,-964 709.0426,-950.1435 701.7798,-924.0289 712.3449,-915.0913"/>
<polygon fill="#000000" stroke="#000000" points="713.5286,-918.3873 721.9815,-912 711.3903,-911.7219 713.5286,-918.3873"/>
</g>
<!-- pepolar_estimate_wfmerge_pes -->
<g id="node4" class="node">
<title>pepolar_estimate_wfmerge_pes</title>
<polygon fill="none" stroke="#000000" points="239.4815,-788.5 239.4815,-857.5 472.4815,-857.5 472.4815,-788.5 239.4815,-788.5"/>
<text text-anchor="middle" x="273.4815" y="-836.8" font-family="Times,serif" font-size="14.00" fill="#000000">IN</text>
<polyline fill="none" stroke="#000000" points="239.4815,-823.5 307.4815,-823.5 "/>
<text text-anchor="middle" x="273.4815" y="-802.3" font-family="Times,serif" font-size="14.00" fill="#000000">in_files</text>
<polyline fill="none" stroke="#000000" points="307.4815,-788.5 307.4815,-857.5 "/>
<text text-anchor="middle" x="354.9815" y="-842.3" font-family="Times,serif" font-size="14.00" fill="#000000">merge_pes</text>
<polyline fill="none" stroke="#000000" points="307.4815,-834.5 402.4815,-834.5 "/>
<text text-anchor="middle" x="354.9815" y="-819.3" font-family="Times,serif" font-size="14.00" fill="#000000">freesurfer</text>
<polyline fill="none" stroke="#000000" points="307.4815,-811.5 402.4815,-811.5 "/>
<text text-anchor="middle" x="354.9815" y="-796.3" font-family="Times,serif" font-size="14.00" fill="#000000"> </text>
<polyline fill="none" stroke="#000000" points="402.4815,-788.5 402.4815,-857.5 "/>
<text text-anchor="middle" x="437.4815" y="-836.8" font-family="Times,serif" font-size="14.00" fill="#000000">OUT</text>
<polyline fill="none" stroke="#000000" points="402.4815,-823.5 472.4815,-823.5 "/>
<text text-anchor="middle" x="437.4815" y="-802.3" font-family="Times,serif" font-size="14.00" fill="#000000">out_file</text>
</g>
<!-- pepolar_estimate_wfsort_pe&#45;&gt;pepolar_estimate_wfmerge_pes -->
<g id="edge16" class="edge">
<title>pepolar_estimate_wfsort_pe:e&#45;&gt;pepolar_estimate_wfmerge_pes:w</title>
<path fill="none" stroke="#000000" d="M945.9815,-906C951.3149,-906 949.6556,-897.8659 945.9815,-894 891.7951,-836.9842 293.168,-915.0158 238.9815,-858 225.9213,-844.2578 218.7362,-818.0699 229.3331,-809.1024"/>
<polygon fill="#000000" stroke="#000000" points="230.5329,-812.3931 238.9815,-806 228.3901,-805.7292 230.5329,-812.3931"/>
</g>
<!-- pepolar_estimate_wfqwarp -->
<g id="node8" class="node">
<title>pepolar_estimate_wfqwarp</title>
<polygon fill="none" stroke="#000000" points="893.9815,-447.5 893.9815,-539.5 1143.9815,-539.5 1143.9815,-447.5 893.9815,-447.5"/>
<text text-anchor="middle" x="933.9815" y="-524.3" font-family="Times,serif" font-size="14.00" fill="#000000">IN</text>
<polyline fill="none" stroke="#000000" points="893.9815,-516.5 973.9815,-516.5 "/>
<text text-anchor="middle" x="933.9815" y="-501.3" font-family="Times,serif" font-size="14.00" fill="#000000">args</text>
<polyline fill="none" stroke="#000000" points="893.9815,-493.5 973.9815,-493.5 "/>
<text text-anchor="middle" x="933.9815" y="-478.3" font-family="Times,serif" font-size="14.00" fill="#000000">base_file</text>
<polyline fill="none" stroke="#000000" points="893.9815,-470.5 973.9815,-470.5 "/>
<text text-anchor="middle" x="933.9815" y="-455.3" font-family="Times,serif" font-size="14.00" fill="#000000">in_file</text>
<polyline fill="none" stroke="#000000" points="973.9815,-447.5 973.9815,-539.5 "/>
<text text-anchor="middle" x="1004.9815" y="-520.8" font-family="Times,serif" font-size="14.00" fill="#000000">qwarp</text>
<polyline fill="none" stroke="#000000" points="973.9815,-509.5 1035.9815,-509.5 "/>
<text text-anchor="middle" x="1004.9815" y="-490.3" font-family="Times,serif" font-size="14.00" fill="#000000">afni</text>
<polyline fill="none" stroke="#000000" points="973.9815,-478.5 1035.9815,-478.5 "/>
<text text-anchor="middle" x="1004.9815" y="-459.3" font-family="Times,serif" font-size="14.00" fill="#000000"> </text>
<polyline fill="none" stroke="#000000" points="1035.9815,-447.5 1035.9815,-539.5 "/>
<text text-anchor="middle" x="1089.9815" y="-512.8" font-family="Times,serif" font-size="14.00" fill="#000000">OUT</text>
<polyline fill="none" stroke="#000000" points="1035.9815,-493.5 1143.9815,-493.5 "/>
<text text-anchor="middle" x="1089.9815" y="-466.8" font-family="Times,serif" font-size="14.00" fill="#000000">source_warp</text>
</g>
<!-- pepolar_estimate_wfsort_pe&#45;&gt;pepolar_estimate_wfqwarp -->
<g id="edge15" class="edge">
<title>pepolar_estimate_wfsort_pe:e&#45;&gt;pepolar_estimate_wfqwarp:w</title>
<path fill="none" stroke="#000000" d="M945.9815,-929C961.3212,-929 1058.7184,-894.6266 925.9815,-576 917.7492,-556.2389 901.5892,-560.0098 893.9815,-540 890.4055,-530.5944 884.9195,-518.6757 885.904,-511.5931"/>
<polygon fill="#000000" stroke="#000000" points="888.1058,-514.3163 893.9815,-505.5 883.8904,-508.7279 888.1058,-514.3163"/>
</g>
<!-- pepolar_estimate_wfpe0_wf -->
<g id="node5" class="node">
<title>pepolar_estimate_wfpe0_wf</title>
<polygon fill="none" stroke="#000000" points="472.9815,-682.5 472.9815,-751.5 912.9815,-751.5 912.9815,-682.5 472.9815,-682.5"/>
<text text-anchor="middle" x="541.4815" y="-730.8" font-family="Times,serif" font-size="14.00" fill="#000000">IN</text>
<polyline fill="none" stroke="#000000" points="472.9815,-717.5 609.9815,-717.5 "/>
<text text-anchor="middle" x="541.4815" y="-696.3" font-family="Times,serif" font-size="14.00" fill="#000000">inputnode.in_file</text>
<polyline fill="none" stroke="#000000" points="609.9815,-682.5 609.9815,-751.5 "/>
<text text-anchor="middle" x="643.9815" y="-736.3" font-family="Times,serif" font-size="14.00" fill="#000000">pe0_wf</text>
<polyline fill="none" stroke="#000000" points="609.9815,-728.5 677.9815,-728.5 "/>
<text text-anchor="middle" x="643.9815" y="-713.3" font-family="Times,serif" font-size="14.00" fill="#000000"> </text>
<polyline fill="none" stroke="#000000" points="609.9815,-705.5 677.9815,-705.5 "/>
<text text-anchor="middle" x="643.9815" y="-690.3" font-family="Times,serif" font-size="14.00" fill="#000000"> </text>
<polyline fill="none" stroke="#000000" points="677.9815,-682.5 677.9815,-751.5 "/>
<text text-anchor="middle" x="795.4815" y="-730.8" font-family="Times,serif" font-size="14.00" fill="#000000">OUT</text>
<polyline fill="none" stroke="#000000" points="677.9815,-717.5 912.9815,-717.5 "/>
<text text-anchor="middle" x="795.4815" y="-696.3" font-family="Times,serif" font-size="14.00" fill="#000000">outputnode.skull_stripped_file</text>
</g>
<!-- pepolar_estimate_wfmerge_pes&#45;&gt;pepolar_estimate_wfpe0_wf -->
<g id="edge9" class="edge">
<title>pepolar_estimate_wfmerge_pes:e&#45;&gt;pepolar_estimate_wfpe0_wf:w</title>
<path fill="none" stroke="#000000" d="M472.9815,-806C492.6725,-806 462.9822,-731.9281 466.4699,-707.6233"/>
<polygon fill="#000000" stroke="#000000" points="469.1479,-709.877 472.9815,-700 463.8253,-705.3305 469.1479,-709.877"/>
</g>
<!-- pepolar_estimate_wfpe1_wf -->
<g id="node6" class="node">
<title>pepolar_estimate_wfpe1_wf</title>
<polygon fill="none" stroke="#000000" points="14.9815,-682.5 14.9815,-751.5 454.9815,-751.5 454.9815,-682.5 14.9815,-682.5"/>
<text text-anchor="middle" x="83.4815" y="-730.8" font-family="Times,serif" font-size="14.00" fill="#000000">IN</text>
<polyline fill="none" stroke="#000000" points="14.9815,-717.5 151.9815,-717.5 "/>
<text text-anchor="middle" x="83.4815" y="-696.3" font-family="Times,serif" font-size="14.00" fill="#000000">inputnode.in_file</text>
<polyline fill="none" stroke="#000000" points="151.9815,-682.5 151.9815,-751.5 "/>
<text text-anchor="middle" x="185.9815" y="-736.3" font-family="Times,serif" font-size="14.00" fill="#000000">pe1_wf</text>
<polyline fill="none" stroke="#000000" points="151.9815,-728.5 219.9815,-728.5 "/>
<text text-anchor="middle" x="185.9815" y="-713.3" font-family="Times,serif" font-size="14.00" fill="#000000"> </text>
<polyline fill="none" stroke="#000000" points="151.9815,-705.5 219.9815,-705.5 "/>
<text text-anchor="middle" x="185.9815" y="-690.3" font-family="Times,serif" font-size="14.00" fill="#000000"> </text>
<polyline fill="none" stroke="#000000" points="219.9815,-682.5 219.9815,-751.5 "/>
<text text-anchor="middle" x="337.4815" y="-730.8" font-family="Times,serif" font-size="14.00" fill="#000000">OUT</text>
<polyline fill="none" stroke="#000000" points="219.9815,-717.5 454.9815,-717.5 "/>
<text text-anchor="middle" x="337.4815" y="-696.3" font-family="Times,serif" font-size="14.00" fill="#000000">outputnode.skull_stripped_file</text>
</g>
<!-- pepolar_estimate_wfmerge_pes&#45;&gt;pepolar_estimate_wfpe1_wf -->
<g id="edge10" class="edge">
<title>pepolar_estimate_wfmerge_pes:e&#45;&gt;pepolar_estimate_wfpe1_wf:w</title>
<path fill="none" stroke="#000000" d="M472.9815,-806C480.9815,-806 478.4122,-793.8743 472.9815,-788 403.6779,-713.0352 84.2851,-826.9648 14.9815,-752 2.1119,-738.0791 -5.1953,-712.0057 5.3516,-703.0851"/>
<polygon fill="#000000" stroke="#000000" points="6.5261,-706.3841 14.9815,-700 4.3904,-699.7178 6.5261,-706.3841"/>
</g>
<!-- pepolar_estimate_wfalign_pes -->
<g id="node7" class="node">
<title>pepolar_estimate_wfalign_pes</title>
<polygon fill="none" stroke="#000000" points="555.4815,-576.5 555.4815,-645.5 880.4815,-645.5 880.4815,-576.5 555.4815,-576.5"/>
<text text-anchor="middle" x="615.4815" y="-630.3" font-family="Times,serif" font-size="14.00" fill="#000000">IN</text>
<polyline fill="none" stroke="#000000" points="555.4815,-622.5 675.4815,-622.5 "/>
<text text-anchor="middle" x="615.4815" y="-607.3" font-family="Times,serif" font-size="14.00" fill="#000000">fixed_image</text>
<polyline fill="none" stroke="#000000" points="555.4815,-599.5 675.4815,-599.5 "/>
<text text-anchor="middle" x="615.4815" y="-584.3" font-family="Times,serif" font-size="14.00" fill="#000000">moving_image</text>
<polyline fill="none" stroke="#000000" points="675.4815,-576.5 675.4815,-645.5 "/>
<text text-anchor="middle" x="717.4815" y="-630.3" font-family="Times,serif" font-size="14.00" fill="#000000">align_pes</text>
<polyline fill="none" stroke="#000000" points="675.4815,-622.5 759.4815,-622.5 "/>
<text text-anchor="middle" x="717.4815" y="-607.3" font-family="Times,serif" font-size="14.00" fill="#000000">fixes</text>
<polyline fill="none" stroke="#000000" points="675.4815,-599.5 759.4815,-599.5 "/>
<text text-anchor="middle" x="717.4815" y="-584.3" font-family="Times,serif" font-size="14.00" fill="#000000"> </text>
<polyline fill="none" stroke="#000000" points="759.4815,-576.5 759.4815,-645.5 "/>
<text text-anchor="middle" x="819.9815" y="-624.8" font-family="Times,serif" font-size="14.00" fill="#000000">OUT</text>
<polyline fill="none" stroke="#000000" points="759.4815,-611.5 880.4815,-611.5 "/>
<text text-anchor="middle" x="819.9815" y="-590.3" font-family="Times,serif" font-size="14.00" fill="#000000">warped_image</text>
</g>
<!-- pepolar_estimate_wfpe0_wf&#45;&gt;pepolar_estimate_wfalign_pes -->
<g id="edge11" class="edge">
<title>pepolar_estimate_wfpe0_wf:e&#45;&gt;pepolar_estimate_wfalign_pes:w</title>
<path fill="none" stroke="#000000" d="M912.9815,-700C920.9815,-700 918.3479,-687.9331 912.9815,-682 859.3465,-622.701 608.6165,-705.299 554.9815,-646 547.6446,-637.8883 542.9348,-623.8802 546.1923,-616.2778"/>
<polygon fill="#000000" stroke="#000000" points="548.2103,-619.1487 554.9815,-611 544.6066,-613.1475 548.2103,-619.1487"/>
</g>
<!-- pepolar_estimate_wfpe0_wf&#45;&gt;pepolar_estimate_wfqwarp -->
<g id="edge12" class="edge">
<title>pepolar_estimate_wfpe0_wf:e&#45;&gt;pepolar_estimate_wfqwarp:w</title>
<path fill="none" stroke="#000000" d="M912.9815,-700C962.6084,-700 858.8388,-494.7604 884.4974,-462.6917"/>
<polygon fill="#000000" stroke="#000000" points="886.2499,-465.7438 893.9815,-458.5 883.4201,-459.3412 886.2499,-465.7438"/>
</g>
<!-- pepolar_estimate_wfpe1_wf&#45;&gt;pepolar_estimate_wfalign_pes -->
<g id="edge13" class="edge">
<title>pepolar_estimate_wfpe1_wf:e&#45;&gt;pepolar_estimate_wfalign_pes:w</title>
<path fill="none" stroke="#000000" d="M454.9815,-700C463.9258,-700 458.8107,-689.2981 463.9815,-682 495.4964,-637.5195 496.7951,-593.8228 544.7464,-588.5344"/>
<polygon fill="#000000" stroke="#000000" points="545.1777,-592.0168 554.9815,-588 544.8126,-585.0263 545.1777,-592.0168"/>
</g>
<!-- pepolar_estimate_wfalign_pes&#45;&gt;pepolar_estimate_wfqwarp -->
<g id="edge1" class="edge">
<title>pepolar_estimate_wfalign_pes:e&#45;&gt;pepolar_estimate_wfqwarp:w</title>
<path fill="none" stroke="#000000" d="M880.9815,-594C902.4122,-594 878.5212,-512.4196 886.4971,-488.2005"/>
<polygon fill="#000000" stroke="#000000" points="888.8655,-490.7778 893.9815,-481.5 884.1964,-485.5624 888.8655,-490.7778"/>
</g>
<!-- pepolar_estimate_wfqwarp&#45;&gt;pepolar_estimate_wfcphdr_warp -->
<g id="edge14" class="edge">
<title>pepolar_estimate_wfqwarp:e&#45;&gt;pepolar_estimate_wfcphdr_warp:w</title>
<path fill="none" stroke="#000000" d="M1143.9815,-470.5C1154.426,-470.5 1148.7866,-456.2735 1143.9815,-447 1131.2171,-422.3657 1105.7459,-435.6343 1092.9815,-411 1083.0678,-391.8673 1071.7153,-364.1922 1083.3151,-355.6263"/>
<polygon fill="#000000" stroke="#000000" points="1084.249,-358.9995 1092.9815,-353 1082.4137,-352.2444 1084.249,-358.9995"/>
</g>
<!-- pepolar_estimate_wfto_ants -->
<g id="node10" class="node">
<title>pepolar_estimate_wfto_ants</title>
<polygon fill="none" stroke="#000000" points="1137.4815,-235.5 1137.4815,-304.5 1336.4815,-304.5 1336.4815,-235.5 1137.4815,-235.5"/>
<text text-anchor="middle" x="1167.4815" y="-283.8" font-family="Times,serif" font-size="14.00" fill="#000000">IN</text>
<polyline fill="none" stroke="#000000" points="1137.4815,-270.5 1197.4815,-270.5 "/>
<text text-anchor="middle" x="1167.4815" y="-249.3" font-family="Times,serif" font-size="14.00" fill="#000000">in_file</text>
<polyline fill="none" stroke="#000000" points="1197.4815,-235.5 1197.4815,-304.5 "/>
<text text-anchor="middle" x="1231.9815" y="-289.3" font-family="Times,serif" font-size="14.00" fill="#000000">to_ants</text>
<polyline fill="none" stroke="#000000" points="1197.4815,-281.5 1266.4815,-281.5 "/>
<text text-anchor="middle" x="1231.9815" y="-266.3" font-family="Times,serif" font-size="14.00" fill="#000000">utils</text>
<polyline fill="none" stroke="#000000" points="1197.4815,-258.5 1266.4815,-258.5 "/>
<text text-anchor="middle" x="1231.9815" y="-243.3" font-family="Times,serif" font-size="14.00" fill="#000000"> </text>
<polyline fill="none" stroke="#000000" points="1266.4815,-235.5 1266.4815,-304.5 "/>
<text text-anchor="middle" x="1301.4815" y="-283.8" font-family="Times,serif" font-size="14.00" fill="#000000">OUT</text>
<polyline fill="none" stroke="#000000" points="1266.4815,-270.5 1336.4815,-270.5 "/>
<text text-anchor="middle" x="1301.4815" y="-249.3" font-family="Times,serif" font-size="14.00" fill="#000000">out_file</text>
</g>
<!-- pepolar_estimate_wfcphdr_warp&#45;&gt;pepolar_estimate_wfto_ants -->
<g id="edge2" class="edge">
<title>pepolar_estimate_wfcphdr_warp:e&#45;&gt;pepolar_estimate_wfto_ants:w</title>
<path fill="none" stroke="#000000" d="M1336.9815,-359C1344.9815,-359 1342.1129,-347.1375 1336.9815,-341 1279.0499,-271.7096 1194.9132,-374.2904 1136.9815,-305 1124.8212,-290.4554 1117.0596,-264.7816 1127.4203,-256.0247"/>
<polygon fill="#000000" stroke="#000000" points="1128.5029,-259.3532 1136.9815,-253 1126.3915,-252.6792 1128.5029,-259.3532"/>
</g>
<!-- pepolar_estimate_wfto_ants&#45;&gt;pepolar_estimate_wfunwarp_reference -->
<g id="edge18" class="edge">
<title>pepolar_estimate_wfto_ants:e&#45;&gt;pepolar_estimate_wfunwarp_reference:w</title>
<path fill="none" stroke="#000000" d="M1336.9815,-253C1349.3783,-253 1348.4467,-211.1348 1350.9815,-199 1353.9991,-184.5538 1348.7025,-140.5839 1356.0745,-123.9593"/>
<polygon fill="#000000" stroke="#000000" points="1358.4513,-126.537 1363.9815,-117.5 1354.0228,-121.1159 1358.4513,-126.537"/>
</g>
<!-- pepolar_estimate_wfoutputnode -->
<g id="node12" class="node">
<title>pepolar_estimate_wfoutputnode</title>
<polygon fill="none" stroke="#000000" points="1549.9815,-.5 1549.9815,-69.5 1777.9815,-69.5 1777.9815,-.5 1549.9815,-.5"/>
<text text-anchor="middle" x="1589.9815" y="-54.3" font-family="Times,serif" font-size="14.00" fill="#000000">IN</text>
<polyline fill="none" stroke="#000000" points="1549.9815,-46.5 1629.9815,-46.5 "/>
<text text-anchor="middle" x="1589.9815" y="-31.3" font-family="Times,serif" font-size="14.00" fill="#000000">fmap</text>
<polyline fill="none" stroke="#000000" points="1549.9815,-23.5 1629.9815,-23.5 "/>
<text text-anchor="middle" x="1589.9815" y="-8.3" font-family="Times,serif" font-size="14.00" fill="#000000">fmap_ref</text>
<polyline fill="none" stroke="#000000" points="1629.9815,-.5 1629.9815,-69.5 "/>
<text text-anchor="middle" x="1678.9815" y="-54.3" font-family="Times,serif" font-size="14.00" fill="#000000">outputnode</text>
<polyline fill="none" stroke="#000000" points="1629.9815,-46.5 1727.9815,-46.5 "/>
<text text-anchor="middle" x="1678.9815" y="-31.3" font-family="Times,serif" font-size="14.00" fill="#000000">utility</text>
<polyline fill="none" stroke="#000000" points="1629.9815,-23.5 1727.9815,-23.5 "/>
<text text-anchor="middle" x="1678.9815" y="-8.3" font-family="Times,serif" font-size="14.00" fill="#000000"> </text>
<polyline fill="none" stroke="#000000" points="1727.9815,-.5 1727.9815,-69.5 "/>
<text text-anchor="middle" x="1752.9815" y="-31.3" font-family="Times,serif" font-size="14.00" fill="#000000">OUT</text>
</g>
<!-- pepolar_estimate_wfto_ants&#45;&gt;pepolar_estimate_wfoutputnode -->
<g id="edge17" class="edge">
<title>pepolar_estimate_wfto_ants:e&#45;&gt;pepolar_estimate_wfoutputnode:w</title>
<path fill="none" stroke="#000000" d="M1336.9815,-253C1369.9199,-253 1335.4177,-131.7307 1355.9815,-106 1382.7389,-72.5195 1488.6122,-39.67 1539.9113,-35.4548"/>
<polygon fill="#000000" stroke="#000000" points="1540.1496,-38.9477 1549.9815,-35 1539.8338,-31.9548 1540.1496,-38.9477"/>
</g>
<!-- pepolar_estimate_wfunwarp_reference&#45;&gt;pepolar_estimate_wfoutputnode -->
<g id="edge19" class="edge">
<title>pepolar_estimate_wfunwarp_reference:e&#45;&gt;pepolar_estimate_wfoutputnode:w</title>
<path fill="none" stroke="#000000" d="M1763.9815,-129.5C1774.426,-129.5 1770.7265,-113.9744 1763.9815,-106 1701.696,-32.3614 1612.267,-143.6386 1549.9815,-70 1536.0655,-53.5474 1527.402,-24.0716 1539.9919,-14.8427"/>
<polygon fill="#000000" stroke="#000000" points="1541.3213,-18.1034 1549.9815,-12 1539.4054,-11.3707 1541.3213,-18.1034"/>
</g>
</g>
</svg>
