<?xml version="1.0" encoding="UTF-8" standalone="no"?>
<!DOCTYPE svg PUBLIC "-//W3C//DTD SVG 1.1//EN"
 "http://www.w3.org/Graphics/SVG/1.1/DTD/svg11.dtd">
<!-- Generated by graphviz version 2.43.0 (0)
 -->
<!-- Title: %3 Pages: 1 -->
<svg width="335pt" height="404pt"
 viewBox="0.00 0.00 334.93 404.00" xmlns="http://www.w3.org/2000/svg" xmlns:xlink="http://www.w3.org/1999/xlink">
<g id="graph0" class="graph" transform="scale(1 1) rotate(0) translate(4 400)">
<title>%3</title>
<polygon fill="white" stroke="transparent" points="-4,4 -4,-400 330.93,-400 330.93,4 -4,4"/>
<!-- inputnode (utility) -->
<g id="node1" class="node">
<title>inputnode (utility)</title>
<ellipse fill="none" stroke="black" cx="232.04" cy="-378" rx="94.78" ry="18"/>
<text text-anchor="middle" x="232.04" y="-374.3" font-family="Times,serif" font-size="14.00">inputnode (utility)</text>
</g>
<!-- phmap2rads (fmap) -->
<g id="node2" class="node">
<title>phmap2rads (fmap)</title>
<ellipse fill="none" stroke="black" cx="102.04" cy="-306" rx="102.08" ry="18"/>
<text text-anchor="middle" x="102.04" y="-302.3" font-family="Times,serif" font-size="14.00">phmap2rads (fmap)</text>
</g>
<!-- inputnode (utility)&#45;&gt;phmap2rads (fmap) -->
<g id="edge1" class="edge">
<title>inputnode (utility)&#45;&gt;phmap2rads (fmap)</title>
<path fill="none" stroke="black" d="M201.89,-360.76C183.89,-351.07 160.83,-338.65 141.4,-328.19"/>
<polygon fill="black" stroke="black" points="142.94,-325.05 132.48,-323.39 139.62,-331.21 142.94,-325.05"/>
</g>
<!-- calc_phdiff (fmap) -->
<g id="node3" class="node">
<title>calc_phdiff (fmap)</title>
<ellipse fill="none" stroke="black" cx="149.04" cy="-234" rx="92.88" ry="18"/>
<text text-anchor="middle" x="149.04" y="-230.3" font-family="Times,serif" font-size="14.00">calc_phdiff (fmap)</text>
</g>
<!-- inputnode (utility)&#45;&gt;calc_phdiff (fmap) -->
<g id="edge2" class="edge">
<title>inputnode (utility)&#45;&gt;calc_phdiff (fmap)</title>
<path fill="none" stroke="black" d="M231.67,-359.71C230.54,-340.82 226.55,-310.3 213.04,-288 205.89,-276.2 195.15,-265.82 184.51,-257.45"/>
<polygon fill="black" stroke="black" points="186.55,-254.61 176.44,-251.45 182.37,-260.22 186.55,-254.61"/>
</g>
<!-- prelude (fsl) -->
<g id="node4" class="node">
<title>prelude (fsl)</title>
<ellipse fill="none" stroke="black" cx="245.04" cy="-162" rx="67.69" ry="18"/>
<text text-anchor="middle" x="245.04" y="-158.3" font-family="Times,serif" font-size="14.00">prelude (fsl)</text>
</g>
<!-- inputnode (utility)&#45;&gt;prelude (fsl) -->
<g id="edge3" class="edge">
<title>inputnode (utility)&#45;&gt;prelude (fsl)</title>
<path fill="none" stroke="black" d="M236.08,-359.67C242.5,-330.23 254.01,-268.55 251.04,-216 250.56,-207.55 249.66,-198.38 248.7,-190.07"/>
<polygon fill="black" stroke="black" points="252.17,-189.64 247.48,-180.14 245.23,-190.5 252.17,-189.64"/>
</g>
<!-- phmap2rads (fmap)&#45;&gt;calc_phdiff (fmap) -->
<g id="edge4" class="edge">
<title>phmap2rads (fmap)&#45;&gt;calc_phdiff (fmap)</title>
<path fill="none" stroke="black" d="M113.42,-288.05C118.94,-279.84 125.68,-269.79 131.81,-260.66"/>
<polygon fill="black" stroke="black" points="134.77,-262.53 137.44,-252.28 128.96,-258.63 134.77,-262.53"/>
</g>
<!-- calc_phdiff (fmap)&#45;&gt;prelude (fsl) -->
<g id="edge5" class="edge">
<title>calc_phdiff (fmap)&#45;&gt;prelude (fsl)</title>
<path fill="none" stroke="black" d="M171.79,-216.41C184.56,-207.1 200.65,-195.37 214.5,-185.27"/>
<polygon fill="black" stroke="black" points="216.77,-187.95 222.78,-179.23 212.64,-182.29 216.77,-187.95"/>
</g>
<!-- compfmap (fmap) -->
<g id="node5" class="node">
<title>compfmap (fmap)</title>
<ellipse fill="none" stroke="black" cx="197.04" cy="-90" rx="92.08" ry="18"/>
<text text-anchor="middle" x="197.04" y="-86.3" font-family="Times,serif" font-size="14.00">compfmap (fmap)</text>
</g>
<!-- calc_phdiff (fmap)&#45;&gt;compfmap (fmap) -->
<g id="edge6" class="edge">
<title>calc_phdiff (fmap)&#45;&gt;compfmap (fmap)</title>
<path fill="none" stroke="black" d="M151.19,-215.86C153.83,-197.62 159.08,-168.14 168.04,-144 171.44,-134.86 176.19,-125.36 180.87,-116.98"/>
<polygon fill="black" stroke="black" points="184.05,-118.47 186.05,-108.06 178,-114.95 184.05,-118.47"/>
</g>
<!-- prelude (fsl)&#45;&gt;compfmap (fmap) -->
<g id="edge7" class="edge">
<title>prelude (fsl)&#45;&gt;compfmap (fmap)</title>
<path fill="none" stroke="black" d="M233.42,-144.05C227.79,-135.84 220.9,-125.79 214.64,-116.66"/>
<polygon fill="black" stroke="black" points="217.43,-114.54 208.89,-108.28 211.66,-118.5 217.43,-114.54"/>
</g>
<!-- outputnode (utility) -->
<g id="node6" class="node">
<title>outputnode (utility)</title>
<ellipse fill="none" stroke="black" cx="197.04" cy="-18" rx="101.28" ry="18"/>
<text text-anchor="middle" x="197.04" y="-14.3" font-family="Times,serif" font-size="14.00">outputnode (utility)</text>
</g>
<!-- compfmap (fmap)&#45;&gt;outputnode (utility) -->
<g id="edge8" class="edge">
<title>compfmap (fmap)&#45;&gt;outputnode (utility)</title>
<path fill="none" stroke="black" d="M197.04,-71.7C197.04,-63.98 197.04,-54.71 197.04,-46.11"/>
<polygon fill="black" stroke="black" points="200.54,-46.1 197.04,-36.1 193.54,-46.1 200.54,-46.1"/>
</g>
</g>
</svg>
