<?xml version="1.0" encoding="UTF-8" standalone="no"?>
<!DOCTYPE svg PUBLIC "-//W3C//DTD SVG 1.1//EN"
 "http://www.w3.org/Graphics/SVG/1.1/DTD/svg11.dtd">
<!-- Generated by graphviz version 2.43.0 (0)
 -->
<!-- Title: %3 Pages: 1 -->
<svg width="313pt" height="476pt"
 viewBox="0.00 0.00 313.43 476.00" xmlns="http://www.w3.org/2000/svg" xmlns:xlink="http://www.w3.org/1999/xlink">
<g id="graph0" class="graph" transform="scale(1 1) rotate(0) translate(4 472)">
<title>%3</title>
<polygon fill="white" stroke="transparent" points="-4,4 -4,-472 309.43,-472 309.43,4 -4,4"/>
<!-- inputnode (utility) -->
<g id="node1" class="node">
<title>inputnode (utility)</title>
<ellipse fill="none" stroke="black" cx="161.79" cy="-450" rx="94.78" ry="18"/>
<text text-anchor="middle" x="161.79" y="-446.3" font-family="Times,serif" font-size="14.00">inputnode (utility)</text>
</g>
<!-- unzip (utility) -->
<g id="node2" class="node">
<title>unzip (utility)</title>
<ellipse fill="none" stroke="black" cx="212.79" cy="-378" rx="73.39" ry="18"/>
<text text-anchor="middle" x="212.79" y="-374.3" font-family="Times,serif" font-size="14.00">unzip (utility)</text>
</g>
<!-- inputnode (utility)&#45;&gt;unzip (utility) -->
<g id="edge1" class="edge">
<title>inputnode (utility)&#45;&gt;unzip (utility)</title>
<path fill="none" stroke="black" d="M174.14,-432.05C180.27,-423.63 187.81,-413.28 194.6,-403.97"/>
<polygon fill="black" stroke="black" points="197.5,-405.93 200.56,-395.79 191.84,-401.81 197.5,-405.93"/>
</g>
<!-- check_register (fmap) -->
<g id="node3" class="node">
<title>check_register (fmap)</title>
<ellipse fill="none" stroke="black" cx="111.79" cy="-306" rx="111.58" ry="18"/>
<text text-anchor="middle" x="111.79" y="-302.3" font-family="Times,serif" font-size="14.00">check_register (fmap)</text>
</g>
<!-- inputnode (utility)&#45;&gt;check_register (fmap) -->
<g id="edge2" class="edge">
<title>inputnode (utility)&#45;&gt;check_register (fmap)</title>
<path fill="none" stroke="black" d="M149.99,-432.04C143.47,-421.97 135.72,-408.72 130.79,-396 123.05,-376.02 118.17,-352.23 115.31,-334.28"/>
<polygon fill="black" stroke="black" points="118.74,-333.57 113.81,-324.2 111.82,-334.6 118.74,-333.57"/>
</g>
<!-- unzip (utility)&#45;&gt;check_register (fmap) -->
<g id="edge3" class="edge">
<title>unzip (utility)&#45;&gt;check_register (fmap)</title>
<path fill="none" stroke="black" d="M189.36,-360.76C175.92,-351.45 158.84,-339.61 144.13,-329.41"/>
<polygon fill="black" stroke="black" points="146,-326.45 135.79,-323.63 142.01,-332.21 146,-326.45"/>
</g>
<!-- phdiff_wf -->
<g id="node4" class="node">
<title>phdiff_wf</title>
<ellipse fill="none" stroke="black" cx="213.79" cy="-162" rx="53.09" ry="18"/>
<text text-anchor="middle" x="213.79" y="-158.3" font-family="Times,serif" font-size="14.00">phdiff_wf</text>
</g>
<!-- unzip (utility)&#45;&gt;phdiff_wf -->
<g id="edge4" class="edge">
<title>unzip (utility)&#45;&gt;phdiff_wf</title>
<path fill="none" stroke="black" d="M221.1,-359.79C225.53,-349.63 230.53,-336.38 232.79,-324 241.32,-277.23 230.32,-222.09 221.85,-189.99"/>
<polygon fill="black" stroke="black" points="225.14,-188.74 219.11,-180.03 218.39,-190.6 225.14,-188.74"/>
</g>
<!-- check_register (fmap)&#45;&gt;phdiff_wf -->
<g id="edge6" class="edge">
<title>check_register (fmap)&#45;&gt;phdiff_wf</title>
<path fill="none" stroke="black" d="M149.82,-288.95C166.01,-280.28 183.68,-268.02 194.79,-252 207.34,-233.9 211.86,-209.12 213.37,-190.3"/>
<polygon fill="black" stroke="black" points="216.87,-190.46 213.94,-180.27 209.88,-190.06 216.87,-190.46"/>
</g>
<!-- magnitude_wf -->
<g id="node5" class="node">
<title>magnitude_wf</title>
<ellipse fill="none" stroke="black" cx="109.79" cy="-234" rx="76.09" ry="18"/>
<text text-anchor="middle" x="109.79" y="-230.3" font-family="Times,serif" font-size="14.00">magnitude_wf</text>
</g>
<!-- check_register (fmap)&#45;&gt;magnitude_wf -->
<g id="edge5" class="edge">
<title>check_register (fmap)&#45;&gt;magnitude_wf</title>
<path fill="none" stroke="black" d="M111.3,-287.7C111.08,-279.98 110.81,-270.71 110.56,-262.11"/>
<polygon fill="black" stroke="black" points="114.06,-262 110.28,-252.1 107.07,-262.2 114.06,-262"/>
</g>
<!-- bs_filter (bspline) -->
<g id="node6" class="node">
<title>bs_filter (bspline)</title>
<ellipse fill="none" stroke="black" cx="213.79" cy="-90" rx="91.78" ry="18"/>
<text text-anchor="middle" x="213.79" y="-86.3" font-family="Times,serif" font-size="14.00">bs_filter (bspline)</text>
</g>
<!-- phdiff_wf&#45;&gt;bs_filter (bspline) -->
<g id="edge7" class="edge">
<title>phdiff_wf&#45;&gt;bs_filter (bspline)</title>
<path fill="none" stroke="black" d="M213.79,-143.7C213.79,-135.98 213.79,-126.71 213.79,-118.11"/>
<polygon fill="black" stroke="black" points="217.29,-118.1 213.79,-108.1 210.29,-118.1 217.29,-118.1"/>
</g>
<!-- magnitude_wf&#45;&gt;phdiff_wf -->
<g id="edge10" class="edge">
<title>magnitude_wf&#45;&gt;phdiff_wf</title>
<path fill="none" stroke="black" d="M133.91,-216.76C148.39,-207.02 166.97,-194.52 182.56,-184.02"/>
<polygon fill="black" stroke="black" points="184.53,-186.91 190.87,-178.43 180.62,-181.11 184.53,-186.91"/>
</g>
<!-- magnitude_wf&#45;&gt;bs_filter (bspline) -->
<g id="edge8" class="edge">
<title>magnitude_wf&#45;&gt;bs_filter (bspline)</title>
<path fill="none" stroke="black" d="M115.45,-215.75C122.18,-196.9 134.68,-166.4 151.79,-144 160.28,-132.88 171.46,-122.45 181.98,-113.83"/>
<polygon fill="black" stroke="black" points="184.17,-116.56 189.84,-107.61 179.82,-111.07 184.17,-116.56"/>
</g>
<!-- outputnode (utility) -->
<g id="node7" class="node">
<title>outputnode (utility)</title>
<ellipse fill="none" stroke="black" cx="153.79" cy="-18" rx="101.28" ry="18"/>
<text text-anchor="middle" x="153.79" y="-14.3" font-family="Times,serif" font-size="14.00">outputnode (utility)</text>
</g>
<!-- magnitude_wf&#45;&gt;outputnode (utility) -->
<g id="edge9" class="edge">
<title>magnitude_wf&#45;&gt;outputnode (utility)</title>
<path fill="none" stroke="black" d="M106.69,-215.93C101.97,-185.84 95.24,-121.84 112.79,-72 116.38,-61.8 122.78,-52.01 129.46,-43.69"/>
<polygon fill="black" stroke="black" points="132.3,-45.76 136.15,-35.89 126.98,-41.2 132.3,-45.76"/>
</g>
<!-- bs_filter (bspline)&#45;&gt;outputnode (utility) -->
<g id="edge11" class="edge">
<title>bs_filter (bspline)&#45;&gt;outputnode (utility)</title>
<path fill="none" stroke="black" d="M199.27,-72.05C192.08,-63.67 183.26,-53.38 175.3,-44.1"/>
<polygon fill="black" stroke="black" points="177.76,-41.59 168.6,-36.28 172.45,-46.15 177.76,-41.59"/>
</g>
</g>
</svg>
