<?xml version="1.0" encoding="UTF-8" standalone="no"?>
<!DOCTYPE svg PUBLIC "-//W3C//DTD SVG 1.1//EN"
 "http://www.w3.org/Graphics/SVG/1.1/DTD/svg11.dtd">
<!-- Generated by graphviz version 2.43.0 (0)
 -->
<!-- Title: %3 Pages: 1 -->
<svg width="756pt" height="908pt"
 viewBox="0.00 0.00 756.19 908.00" xmlns="http://www.w3.org/2000/svg" xmlns:xlink="http://www.w3.org/1999/xlink">
<g id="graph0" class="graph" transform="scale(1 1) rotate(0) translate(4 904)">
<title>%3</title>
<polygon fill="white" stroke="transparent" points="-4,4 -4,-904 752.19,-904 752.19,4 -4,4"/>
<!-- inputnode (utility) -->
<g id="node1" class="node">
<title>inputnode (utility)</title>
<ellipse fill="none" stroke="black" cx="362" cy="-882" rx="94.78" ry="18"/>
<text text-anchor="middle" x="362" y="-878.3" font-family="Times,serif" font-size="14.00">inputnode (utility)</text>
</g>
<!-- readout_time (epi) -->
<g id="node2" class="node">
<title>readout_time (epi)</title>
<ellipse fill="none" stroke="black" cx="424" cy="-810" rx="96.38" ry="18"/>
<text text-anchor="middle" x="424" y="-806.3" font-family="Times,serif" font-size="14.00">readout_time (epi)</text>
</g>
<!-- inputnode (utility)&#45;&gt;readout_time (epi) -->
<g id="edge1" class="edge">
<title>inputnode (utility)&#45;&gt;readout_time (epi)</title>
<path fill="none" stroke="black" d="M377.01,-864.05C384.62,-855.46 394.01,-844.86 402.39,-835.4"/>
<polygon fill="black" stroke="black" points="405.12,-837.6 409.13,-827.79 399.88,-832.95 405.12,-837.6"/>
</g>
<!-- select_volumes (epi) -->
<g id="node3" class="node">
<title>select_volumes (epi)</title>
<ellipse fill="none" stroke="black" cx="362" cy="-738" rx="104.78" ry="18"/>
<text text-anchor="middle" x="362" y="-734.3" font-family="Times,serif" font-size="14.00">select_volumes (epi)</text>
</g>
<!-- inputnode (utility)&#45;&gt;select_volumes (epi) -->
<g id="edge2" class="edge">
<title>inputnode (utility)&#45;&gt;select_volumes (epi)</title>
<path fill="none" stroke="black" d="M343.41,-864.3C334.15,-854.72 323.91,-841.85 319,-828 313.65,-812.92 313.65,-807.08 319,-792 322.66,-781.68 329.29,-771.9 336.26,-763.61"/>
<polygon fill="black" stroke="black" points="338.87,-765.94 342.96,-756.16 333.67,-761.26 338.87,-765.94"/>
</g>
<!-- readout_time (epi)&#45;&gt;select_volumes (epi) -->
<g id="edge3" class="edge">
<title>readout_time (epi)&#45;&gt;select_volumes (epi)</title>
<path fill="none" stroke="black" d="M408.99,-792.05C401.49,-783.58 392.26,-773.17 383.98,-763.82"/>
<polygon fill="black" stroke="black" points="386.55,-761.44 377.3,-756.28 381.31,-766.08 386.55,-761.44"/>
</g>
<!-- regrid (utils) -->
<g id="node4" class="node">
<title>regrid (utils)</title>
<ellipse fill="none" stroke="black" cx="411" cy="-666" rx="69.59" ry="18"/>
<text text-anchor="middle" x="411" y="-662.3" font-family="Times,serif" font-size="14.00">regrid (utils)</text>
</g>
<!-- select_volumes (epi)&#45;&gt;regrid (utils) -->
<g id="edge4" class="edge">
<title>select_volumes (epi)&#45;&gt;regrid (utils)</title>
<path fill="none" stroke="black" d="M373.86,-720.05C379.7,-711.71 386.86,-701.49 393.32,-692.25"/>
<polygon fill="black" stroke="black" points="396.38,-693.99 399.25,-683.79 390.65,-689.97 396.38,-693.99"/>
</g>
<!-- sort_pe_blips (epi) -->
<g id="node5" class="node">
<title>sort_pe_blips (epi)</title>
<ellipse fill="none" stroke="black" cx="313" cy="-594" rx="95.58" ry="18"/>
<text text-anchor="middle" x="313" y="-590.3" font-family="Times,serif" font-size="14.00">sort_pe_blips (epi)</text>
</g>
<!-- select_volumes (epi)&#45;&gt;sort_pe_blips (epi) -->
<g id="edge5" class="edge">
<title>select_volumes (epi)&#45;&gt;sort_pe_blips (epi)</title>
<path fill="none" stroke="black" d="M350.6,-719.99C344.3,-709.9 336.8,-696.65 332,-684 324.4,-663.97 319.52,-640.18 316.61,-622.24"/>
<polygon fill="black" stroke="black" points="320.04,-621.53 315.08,-612.17 313.12,-622.58 320.04,-621.53"/>
</g>
<!-- regrid (utils)&#45;&gt;sort_pe_blips (epi) -->
<g id="edge6" class="edge">
<title>regrid (utils)&#45;&gt;sort_pe_blips (epi)</title>
<path fill="none" stroke="black" d="M388.27,-648.76C375.35,-639.53 358.96,-627.83 344.78,-617.7"/>
<polygon fill="black" stroke="black" points="346.46,-614.6 336.29,-611.63 342.39,-620.29 346.46,-614.6"/>
</g>
<!-- fix_coeff (bspline) -->
<g id="node6" class="node">
<title>fix_coeff (bspline)</title>
<ellipse fill="none" stroke="black" cx="394" cy="-234" rx="91.78" ry="18"/>
<text text-anchor="middle" x="394" y="-230.3" font-family="Times,serif" font-size="14.00">fix_coeff (bspline)</text>
</g>
<!-- regrid (utils)&#45;&gt;fix_coeff (bspline) -->
<g id="edge7" class="edge">
<title>regrid (utils)&#45;&gt;fix_coeff (bspline)</title>
<path fill="none" stroke="black" d="M416.26,-647.7C423.86,-621.14 437,-568.61 437,-523 437,-523 437,-523 437,-377 437,-335.06 419.61,-289.04 406.95,-261.08"/>
<polygon fill="black" stroke="black" points="410.1,-259.57 402.7,-251.98 403.76,-262.53 410.1,-259.57"/>
</g>
<!-- from_las (nibabel) -->
<g id="node7" class="node">
<title>from_las (nibabel)</title>
<ellipse fill="none" stroke="black" cx="137" cy="-234" rx="94.48" ry="18"/>
<text text-anchor="middle" x="137" y="-230.3" font-family="Times,serif" font-size="14.00">from_las (nibabel)</text>
</g>
<!-- regrid (utils)&#45;&gt;from_las (nibabel) -->
<g id="edge8" class="edge">
<title>regrid (utils)&#45;&gt;from_las (nibabel)</title>
<path fill="none" stroke="black" d="M353.94,-655.51C249.45,-636.5 38,-589.78 38,-523 38,-523 38,-523 38,-377 38,-328.1 77.99,-284 107.14,-258.35"/>
<polygon fill="black" stroke="black" points="109.69,-260.77 115.03,-251.62 105.15,-255.45 109.69,-260.77"/>
</g>
<!-- from_las_fmap (nibabel) -->
<g id="node8" class="node">
<title>from_las_fmap (nibabel)</title>
<ellipse fill="none" stroke="black" cx="626" cy="-234" rx="122.38" ry="18"/>
<text text-anchor="middle" x="626" y="-230.3" font-family="Times,serif" font-size="14.00">from_las_fmap (nibabel)</text>
</g>
<!-- regrid (utils)&#45;&gt;from_las_fmap (nibabel) -->
<g id="edge9" class="edge">
<title>regrid (utils)&#45;&gt;from_las_fmap (nibabel)</title>
<path fill="none" stroke="black" d="M443.24,-649.85C484.3,-628.06 550,-583.72 550,-523 550,-523 550,-523 550,-377 550,-331.64 580.52,-286.75 602.88,-259.95"/>
<polygon fill="black" stroke="black" points="605.64,-262.09 609.51,-252.23 600.34,-257.53 605.64,-262.09"/>
</g>
<!-- topup (fsl) -->
<g id="node9" class="node">
<title>topup (fsl)</title>
<ellipse fill="none" stroke="black" cx="308" cy="-306" rx="58.49" ry="18"/>
<text text-anchor="middle" x="308" y="-302.3" font-family="Times,serif" font-size="14.00">topup (fsl)</text>
</g>
<!-- sort_pe_blips (epi)&#45;&gt;topup (fsl) -->
<g id="edge10" class="edge">
<title>sort_pe_blips (epi)&#45;&gt;topup (fsl)</title>
<path fill="none" stroke="black" d="M318.6,-575.66C327.43,-546.21 343.01,-484.5 337,-432 333.08,-397.72 323.29,-359.17 316.16,-334.06"/>
<polygon fill="black" stroke="black" points="319.44,-332.8 313.3,-324.17 312.72,-334.75 319.44,-332.8"/>
</g>
<!-- concat_blips (nibabel) -->
<g id="node10" class="node">
<title>concat_blips (nibabel)</title>
<ellipse fill="none" stroke="black" cx="178" cy="-522" rx="111.58" ry="18"/>
<text text-anchor="middle" x="178" y="-518.3" font-family="Times,serif" font-size="14.00">concat_blips (nibabel)</text>
</g>
<!-- sort_pe_blips (epi)&#45;&gt;concat_blips (nibabel) -->
<g id="edge11" class="edge">
<title>sort_pe_blips (epi)&#45;&gt;concat_blips (nibabel)</title>
<path fill="none" stroke="black" d="M282.03,-576.94C263.26,-567.21 239.1,-554.68 218.79,-544.15"/>
<polygon fill="black" stroke="black" points="220.25,-540.97 209.76,-539.47 217.03,-547.18 220.25,-540.97"/>
</g>
<!-- to_las (utils) -->
<g id="node11" class="node">
<title>to_las (utils)</title>
<ellipse fill="none" stroke="black" cx="260" cy="-450" rx="67.69" ry="18"/>
<text text-anchor="middle" x="260" y="-446.3" font-family="Times,serif" font-size="14.00">to_las (utils)</text>
</g>
<!-- sort_pe_blips (epi)&#45;&gt;to_las (utils) -->
<g id="edge12" class="edge">
<title>sort_pe_blips (epi)&#45;&gt;to_las (utils)</title>
<path fill="none" stroke="black" d="M312.7,-575.95C311.84,-557.54 308.88,-527.67 299,-504 294.84,-494.04 288.44,-484.21 282.02,-475.77"/>
<polygon fill="black" stroke="black" points="284.65,-473.46 275.67,-467.84 279.19,-477.84 284.65,-473.46"/>
</g>
<!-- outputnode (utility) -->
<g id="node12" class="node">
<title>outputnode (utility)</title>
<ellipse fill="none" stroke="black" cx="274" cy="-18" rx="101.28" ry="18"/>
<text text-anchor="middle" x="274" y="-14.3" font-family="Times,serif" font-size="14.00">outputnode (utility)</text>
</g>
<!-- fix_coeff (bspline)&#45;&gt;outputnode (utility) -->
<g id="edge13" class="edge">
<title>fix_coeff (bspline)&#45;&gt;outputnode (utility)</title>
<path fill="none" stroke="black" d="M384.38,-215.85C363.4,-178.43 313.4,-89.25 288.54,-44.93"/>
<polygon fill="black" stroke="black" points="291.44,-42.95 283.5,-35.94 285.33,-46.37 291.44,-42.95"/>
</g>
<!-- ref_average (images) -->
<g id="node14" class="node">
<title>ref_average (images)</title>
<ellipse fill="none" stroke="black" cx="137" cy="-162" rx="108.58" ry="18"/>
<text text-anchor="middle" x="137" y="-158.3" font-family="Times,serif" font-size="14.00">ref_average (images)</text>
</g>
<!-- from_las (nibabel)&#45;&gt;ref_average (images) -->
<g id="edge14" class="edge">
<title>from_las (nibabel)&#45;&gt;ref_average (images)</title>
<path fill="none" stroke="black" d="M137,-215.7C137,-207.98 137,-198.71 137,-190.11"/>
<polygon fill="black" stroke="black" points="140.5,-190.1 137,-180.1 133.5,-190.1 140.5,-190.1"/>
</g>
<!-- from_las_fmap (nibabel)&#45;&gt;outputnode (utility) -->
<g id="edge15" class="edge">
<title>from_las_fmap (nibabel)&#45;&gt;outputnode (utility)</title>
<path fill="none" stroke="black" d="M598.67,-216.39C535.63,-178.06 380.03,-83.46 309.62,-40.66"/>
<polygon fill="black" stroke="black" points="311.43,-37.66 301.07,-35.46 307.8,-43.64 311.43,-37.66"/>
</g>
<!-- topup (fsl)&#45;&gt;fix_coeff (bspline) -->
<g id="edge16" class="edge">
<title>topup (fsl)&#45;&gt;fix_coeff (bspline)</title>
<path fill="none" stroke="black" d="M327.95,-288.76C339.18,-279.62 353.4,-268.05 365.76,-257.99"/>
<polygon fill="black" stroke="black" points="368.02,-260.66 373.56,-251.63 363.6,-255.23 368.02,-260.66"/>
</g>
<!-- topup (fsl)&#45;&gt;from_las (nibabel) -->
<g id="edge18" class="edge">
<title>topup (fsl)&#45;&gt;from_las (nibabel)</title>
<path fill="none" stroke="black" d="M274.22,-291.17C248.51,-280.65 212.8,-266.03 184.26,-254.35"/>
<polygon fill="black" stroke="black" points="185.46,-251.06 174.88,-250.51 182.81,-257.53 185.46,-251.06"/>
</g>
<!-- topup (fsl)&#45;&gt;from_las_fmap (nibabel) -->
<g id="edge19" class="edge">
<title>topup (fsl)&#45;&gt;from_las_fmap (nibabel)</title>
<path fill="none" stroke="black" d="M354.24,-294.82C405.8,-283.47 489.96,-264.95 550.98,-251.51"/>
<polygon fill="black" stroke="black" points="551.93,-254.89 560.95,-249.32 550.43,-248.05 551.93,-254.89"/>
</g>
<!-- topup (fsl)&#45;&gt;outputnode (utility) -->
<g id="edge17" class="edge">
<title>topup (fsl)&#45;&gt;outputnode (utility)</title>
<path fill="none" stroke="black" d="M302.28,-288.01C299.04,-277.71 295.21,-264.23 293,-252 279.71,-178.36 275.71,-89.93 274.51,-46.22"/>
<polygon fill="black" stroke="black" points="278,-46.01 274.26,-36.1 271.01,-46.19 278,-46.01"/>
</g>
<!-- concat_blips (nibabel)&#45;&gt;to_las (utils) -->
<g id="edge20" class="edge">
<title>concat_blips (nibabel)&#45;&gt;to_las (utils)</title>
<path fill="none" stroke="black" d="M197.85,-504.05C208.48,-494.98 221.72,-483.68 233.25,-473.84"/>
<polygon fill="black" stroke="black" points="235.56,-476.46 240.9,-467.31 231.02,-471.14 235.56,-476.46"/>
</g>
<!-- to_las (utils)&#45;&gt;fix_coeff (bspline) -->
<g id="edge22" class="edge">
<title>to_las (utils)&#45;&gt;fix_coeff (bspline)</title>
<path fill="none" stroke="black" d="M280.65,-432.8C306.92,-411.02 351.66,-369.69 375,-324 384.85,-304.71 389.6,-280.56 391.89,-262.28"/>
<polygon fill="black" stroke="black" points="395.37,-262.6 392.97,-252.28 388.42,-261.85 395.37,-262.6"/>
</g>
<!-- to_las (utils)&#45;&gt;topup (fsl) -->
<g id="edge21" class="edge">
<title>to_las (utils)&#45;&gt;topup (fsl)</title>
<path fill="none" stroke="black" d="M271.9,-432.08C278.46,-422.02 286.21,-408.77 291,-396 298.5,-376.03 302.82,-352.24 305.23,-334.28"/>
<polygon fill="black" stroke="black" points="308.72,-334.55 306.47,-324.2 301.78,-333.7 308.72,-334.55"/>
</g>
<!-- select_config (utility) -->
<g id="node13" class="node">
<title>select_config (utility)</title>
<ellipse fill="none" stroke="black" cx="174" cy="-378" rx="107.78" ry="18"/>
<text text-anchor="middle" x="174" y="-374.3" font-family="Times,serif" font-size="14.00">select_config (utility)</text>
</g>
<!-- to_las (utils)&#45;&gt;select_config (utility) -->
<g id="edge23" class="edge">
<title>to_las (utils)&#45;&gt;select_config (utility)</title>
<path fill="none" stroke="black" d="M240.05,-432.76C228.9,-423.69 214.81,-412.22 202.51,-402.21"/>
<polygon fill="black" stroke="black" points="204.7,-399.48 194.74,-395.88 200.28,-404.91 204.7,-399.48"/>
</g>
<!-- select_config (utility)&#45;&gt;topup (fsl) -->
<g id="edge24" class="edge">
<title>select_config (utility)&#45;&gt;topup (fsl)</title>
<path fill="none" stroke="black" d="M205.42,-360.59C224.87,-350.43 249.96,-337.32 270.46,-326.61"/>
<polygon fill="black" stroke="black" points="272.28,-329.61 279.52,-321.88 269.04,-323.41 272.28,-329.61"/>
</g>
<!-- select_config (utility)&#45;&gt;outputnode (utility) -->
<g id="edge25" class="edge">
<title>select_config (utility)&#45;&gt;outputnode (utility)</title>
<path fill="none" stroke="black" d="M126.91,-361.6C75.38,-341.43 0,-300.7 0,-235 0,-235 0,-235 0,-161 0,-118.5 2.69,-99.61 35,-72 57.3,-52.95 125.02,-39.03 182.7,-30.25"/>
<polygon fill="black" stroke="black" points="183.23,-33.71 192.6,-28.78 182.2,-26.79 183.23,-33.71"/>
</g>
<!-- brainextraction_wf -->
<g id="node15" class="node">
<title>brainextraction_wf</title>
<ellipse fill="none" stroke="black" cx="142" cy="-90" rx="98.28" ry="18"/>
<text text-anchor="middle" x="142" y="-86.3" font-family="Times,serif" font-size="14.00">brainextraction_wf</text>
</g>
<!-- ref_average (images)&#45;&gt;brainextraction_wf -->
<g id="edge26" class="edge">
<title>ref_average (images)&#45;&gt;brainextraction_wf</title>
<path fill="none" stroke="black" d="M138.24,-143.7C138.79,-135.98 139.45,-126.71 140.06,-118.11"/>
<polygon fill="black" stroke="black" points="143.56,-118.33 140.78,-108.1 136.57,-117.83 143.56,-118.33"/>
</g>
<!-- brainextraction_wf&#45;&gt;outputnode (utility) -->
<g id="edge27" class="edge">
<title>brainextraction_wf&#45;&gt;outputnode (utility)</title>
<path fill="none" stroke="black" d="M172.62,-72.76C190.89,-63.07 214.31,-50.65 234.04,-40.19"/>
<polygon fill="black" stroke="black" points="235.9,-43.17 243.09,-35.39 232.62,-36.98 235.9,-43.17"/>
</g>
</g>
</svg>
