<?xml version="1.0" encoding="UTF-8" standalone="no"?>
<!DOCTYPE svg PUBLIC "-//W3C//DTD SVG 1.1//EN"
 "http://www.w3.org/Graphics/SVG/1.1/DTD/svg11.dtd">
<!-- Generated by graphviz version 2.40.1 (20161225.0304)
 -->
<!-- Title: %3 Pages: 1 -->
<svg width="272pt" height="332pt"
 viewBox="0.00 0.00 271.63 332.00" xmlns="http://www.w3.org/2000/svg" xmlns:xlink="http://www.w3.org/1999/xlink">
<g id="graph0" class="graph" transform="scale(1 1) rotate(0) translate(4 328)">
<title>%3</title>
<polygon fill="#ffffff" stroke="transparent" points="-4,4 -4,-328 267.6349,-328 267.6349,4 -4,4"/>
<!-- inputnode (utility) -->
<g id="node1" class="node">
<title>inputnode (utility)</title>
<ellipse fill="none" stroke="#000000" cx="133.9418" cy="-306" rx="94.7833" ry="18"/>
<text text-anchor="middle" x="133.9418" y="-302.3" font-family="Times,serif" font-size="14.00" fill="#000000">inputnode (utility)</text>
</g>
<!-- magnitude_wf -->
<g id="node2" class="node">
<title>magnitude_wf</title>
<ellipse fill="none" stroke="#000000" cx="186.9418" cy="-234" rx="76.8869" ry="18"/>
<text text-anchor="middle" x="186.9418" y="-230.3" font-family="Times,serif" font-size="14.00" fill="#000000">magnitude_wf</text>
</g>
<!-- inputnode (utility)&#45;&gt;magnitude_wf -->
<g id="edge1" class="edge">
<title>inputnode (utility)&#45;&gt;magnitude_wf</title>
<path fill="none" stroke="#000000" d="M147.3159,-287.8314C153.5142,-279.411 160.9942,-269.2495 167.778,-260.0338"/>
<polygon fill="#000000" stroke="#000000" points="170.646,-262.0417 173.7555,-251.9134 165.0086,-257.8919 170.646,-262.0417"/>
</g>
<!-- phdiff_wf -->
<g id="node3" class="node">
<title>phdiff_wf</title>
<ellipse fill="none" stroke="#000000" cx="92.9418" cy="-162" rx="53.8905" ry="18"/>
<text text-anchor="middle" x="92.9418" y="-158.3" font-family="Times,serif" font-size="14.00" fill="#000000">phdiff_wf</text>
</g>
<!-- inputnode (utility)&#45;&gt;phdiff_wf -->
<g id="edge2" class="edge">
<title>inputnode (utility)&#45;&gt;phdiff_wf</title>
<path fill="none" stroke="#000000" d="M120.0724,-288.0544C113.0851,-278.012 105.2093,-264.9382 100.9418,-252 94.3595,-232.0442 92.4754,-208.3299 92.1749,-190.2547"/>
<polygon fill="#000000" stroke="#000000" points="95.6747,-190.0696 92.1609,-180.0745 88.6747,-190.0793 95.6747,-190.0696"/>
</g>
<!-- magnitude_wf&#45;&gt;phdiff_wf -->
<g id="edge5" class="edge">
<title>magnitude_wf&#45;&gt;phdiff_wf</title>
<path fill="none" stroke="#000000" d="M164.187,-216.5708C151.678,-206.9895 136.0138,-194.9914 122.5609,-184.687"/>
<polygon fill="#000000" stroke="#000000" points="124.5854,-181.829 114.5183,-178.5267 120.3288,-187.3861 124.5854,-181.829"/>
</g>
<!-- bs_filter (bspline) -->
<g id="node4" class="node">
<title>bs_filter (bspline)</title>
<ellipse fill="none" stroke="#000000" cx="92.9418" cy="-90" rx="92.8835" ry="18"/>
<text text-anchor="middle" x="92.9418" y="-86.3" font-family="Times,serif" font-size="14.00" fill="#000000">bs_filter (bspline)</text>
</g>
<!-- magnitude_wf&#45;&gt;bs_filter (bspline) -->
<g id="edge3" class="edge">
<title>magnitude_wf&#45;&gt;bs_filter (bspline)</title>
<path fill="none" stroke="#000000" d="M183.6357,-215.8176C179.511,-196.6738 171.0836,-166.2787 155.9418,-144 148.1984,-132.607 137.4496,-122.1909 127.021,-113.6114"/>
<polygon fill="#000000" stroke="#000000" points="129.1853,-110.8608 119.1637,-107.4229 124.8541,-116.36 129.1853,-110.8608"/>
</g>
<!-- outputnode (utility) -->
<g id="node5" class="node">
<title>outputnode (utility)</title>
<ellipse fill="none" stroke="#000000" cx="152.9418" cy="-18" rx="101.2821" ry="18"/>
<text text-anchor="middle" x="152.9418" y="-14.3" font-family="Times,serif" font-size="14.00" fill="#000000">outputnode (utility)</text>
</g>
<!-- magnitude_wf&#45;&gt;outputnode (utility) -->
<g id="edge4" class="edge">
<title>magnitude_wf&#45;&gt;outputnode (utility)</title>
<path fill="none" stroke="#000000" d="M192.0965,-215.8928C199.8853,-185.2901 212.0311,-121.8076 194.9418,-72 191.4727,-61.8894 185.2518,-52.2137 178.6427,-43.9166"/>
<polygon fill="#000000" stroke="#000000" points="181.1425,-41.4539 171.9917,-36.1141 175.8153,-45.9949 181.1425,-41.4539"/>
</g>
<!-- phdiff_wf&#45;&gt;bs_filter (bspline) -->
<g id="edge6" class="edge">
<title>phdiff_wf&#45;&gt;bs_filter (bspline)</title>
<path fill="none" stroke="#000000" d="M92.9418,-143.8314C92.9418,-136.131 92.9418,-126.9743 92.9418,-118.4166"/>
<polygon fill="#000000" stroke="#000000" points="96.4419,-118.4132 92.9418,-108.4133 89.4419,-118.4133 96.4419,-118.4132"/>
</g>
<!-- bs_filter (bspline)&#45;&gt;outputnode (utility) -->
<g id="edge7" class="edge">
<title>bs_filter (bspline)&#45;&gt;outputnode (utility)</title>
<path fill="none" stroke="#000000" d="M107.7732,-72.2022C114.9127,-63.6348 123.6076,-53.2009 131.4552,-43.7839"/>
<polygon fill="#000000" stroke="#000000" points="134.3599,-45.7654 138.073,-35.8425 128.9823,-41.2841 134.3599,-45.7654"/>
</g>
</g>
</svg>
