<?xml version="1.0" encoding="UTF-8" standalone="no"?>
<!DOCTYPE svg PUBLIC "-//W3C//DTD SVG 1.1//EN"
 "http://www.w3.org/Graphics/SVG/1.1/DTD/svg11.dtd">
<!-- Generated by graphviz version 2.40.1 (20161225.0304)
 -->
<!-- Title: structs Pages: 1 -->
<svg width="861pt" height="382pt"
 viewBox="0.00 0.00 861.00 382.00" xmlns="http://www.w3.org/2000/svg" xmlns:xlink="http://www.w3.org/1999/xlink">
<g id="graph0" class="graph" transform="scale(1 1) rotate(0) translate(4 378)">
<title>structs</title>
<polygon fill="#ffffff" stroke="transparent" points="-4,4 -4,-378 857,-378 857,4 -4,4"/>
<!-- coeff2epi_wfinputnode -->
<g id="node1" class="node">
<title>coeff2epi_wfinputnode</title>
<polygon fill="none" stroke="#000000" points="0,-258.5 0,-373.5 231,-373.5 231,-258.5 0,-258.5"/>
<text text-anchor="middle" x="17.5" y="-312.3" font-family="Times,serif" font-size="14.00" fill="#000000">IN</text>
<polyline fill="none" stroke="#000000" points="35,-258.5 35,-373.5 "/>
<text text-anchor="middle" x="79.5" y="-350.8" font-family="Times,serif" font-size="14.00" fill="#000000">inputnode</text>
<polyline fill="none" stroke="#000000" points="35,-335.5 124,-335.5 "/>
<text text-anchor="middle" x="79.5" y="-312.8" font-family="Times,serif" font-size="14.00" fill="#000000">utility</text>
<polyline fill="none" stroke="#000000" points="35,-297.5 124,-297.5 "/>
<text text-anchor="middle" x="79.5" y="-274.3" font-family="Times,serif" font-size="14.00" fill="#000000"> </text>
<polyline fill="none" stroke="#000000" points="124,-258.5 124,-373.5 "/>
<text text-anchor="middle" x="177.5" y="-358.3" font-family="Times,serif" font-size="14.00" fill="#000000">OUT</text>
<polyline fill="none" stroke="#000000" points="124,-350.5 231,-350.5 "/>
<text text-anchor="middle" x="177.5" y="-335.3" font-family="Times,serif" font-size="14.00" fill="#000000">fmap_mask</text>
<polyline fill="none" stroke="#000000" points="124,-327.5 231,-327.5 "/>
<text text-anchor="middle" x="177.5" y="-312.3" font-family="Times,serif" font-size="14.00" fill="#000000">fmap_ref</text>
<polyline fill="none" stroke="#000000" points="124,-304.5 231,-304.5 "/>
<text text-anchor="middle" x="177.5" y="-289.3" font-family="Times,serif" font-size="14.00" fill="#000000">target_mask</text>
<polyline fill="none" stroke="#000000" points="124,-281.5 231,-281.5 "/>
<text text-anchor="middle" x="177.5" y="-266.3" font-family="Times,serif" font-size="14.00" fill="#000000">target_ref</text>
</g>
<!-- coeff2epi_wfcoregister -->
<g id="node2" class="node">
<title>coeff2epi_wfcoregister</title>
<polygon fill="none" stroke="#000000" points="231.5,-106.5 231.5,-221.5 615.5,-221.5 615.5,-106.5 231.5,-106.5"/>
<text text-anchor="middle" x="318" y="-206.3" font-family="Times,serif" font-size="14.00" fill="#000000">IN</text>
<polyline fill="none" stroke="#000000" points="231.5,-198.5 404.5,-198.5 "/>
<text text-anchor="middle" x="318" y="-183.3" font-family="Times,serif" font-size="14.00" fill="#000000">fixed_image</text>
<polyline fill="none" stroke="#000000" points="231.5,-175.5 404.5,-175.5 "/>
<text text-anchor="middle" x="318" y="-160.3" font-family="Times,serif" font-size="14.00" fill="#000000">fixed_image_masks</text>
<polyline fill="none" stroke="#000000" points="231.5,-152.5 404.5,-152.5 "/>
<text text-anchor="middle" x="318" y="-137.3" font-family="Times,serif" font-size="14.00" fill="#000000">moving_image</text>
<polyline fill="none" stroke="#000000" points="231.5,-129.5 404.5,-129.5 "/>
<text text-anchor="middle" x="318" y="-114.3" font-family="Times,serif" font-size="14.00" fill="#000000">moving_image_masks</text>
<polyline fill="none" stroke="#000000" points="404.5,-106.5 404.5,-221.5 "/>
<text text-anchor="middle" x="449.5" y="-198.8" font-family="Times,serif" font-size="14.00" fill="#000000">coregister</text>
<polyline fill="none" stroke="#000000" points="404.5,-183.5 494.5,-183.5 "/>
<text text-anchor="middle" x="449.5" y="-160.8" font-family="Times,serif" font-size="14.00" fill="#000000">fixes</text>
<polyline fill="none" stroke="#000000" points="404.5,-145.5 494.5,-145.5 "/>
<text text-anchor="middle" x="449.5" y="-122.3" font-family="Times,serif" font-size="14.00" fill="#000000"> </text>
<polyline fill="none" stroke="#000000" points="494.5,-106.5 494.5,-221.5 "/>
<text text-anchor="middle" x="555" y="-189.3" font-family="Times,serif" font-size="14.00" fill="#000000">OUT</text>
<polyline fill="none" stroke="#000000" points="494.5,-164.5 615.5,-164.5 "/>
<text text-anchor="middle" x="555" y="-131.8" font-family="Times,serif" font-size="14.00" fill="#000000">warped_image</text>
</g>
<!-- coeff2epi_wfinputnode&#45;&gt;coeff2epi_wfcoregister -->
<g id="edge2" class="edge">
<title>coeff2epi_wfinputnode:e&#45;&gt;coeff2epi_wfcoregister:w</title>
<path fill="none" stroke="#000000" d="M231.5,-339C305.3281,-339 168.9191,-181.3222 221.395,-165.308"/>
<polygon fill="#000000" stroke="#000000" points="222.0321,-168.7548 231.5,-164 221.1334,-161.8128 222.0321,-168.7548"/>
</g>
<!-- coeff2epi_wfinputnode&#45;&gt;coeff2epi_wfcoregister -->
<g id="edge3" class="edge">
<title>coeff2epi_wfinputnode:e&#45;&gt;coeff2epi_wfcoregister:w</title>
<path fill="none" stroke="#000000" d="M231.5,-316C284.5781,-316 190.2401,-205.4379 221.4361,-189.0263"/>
<polygon fill="#000000" stroke="#000000" points="222.3876,-192.405 231.5,-187 221.0059,-185.5427 222.3876,-192.405"/>
</g>
<!-- coeff2epi_wfinputnode&#45;&gt;coeff2epi_wfcoregister -->
<g id="edge4" class="edge">
<title>coeff2epi_wfinputnode:e&#45;&gt;coeff2epi_wfcoregister:w</title>
<path fill="none" stroke="#000000" d="M231.5,-293C231.5,-293 231.5,-165.5144 231.5,-128.1652"/>
<polygon fill="#000000" stroke="#000000" points="235.0001,-128 231.5,-118 228.0001,-128 235.0001,-128"/>
</g>
<!-- coeff2epi_wfinputnode&#45;&gt;coeff2epi_wfcoregister -->
<g id="edge5" class="edge">
<title>coeff2epi_wfinputnode:e&#45;&gt;coeff2epi_wfcoregister:w</title>
<path fill="none" stroke="#000000" d="M231.5,-270C231.5,-270 231.5,-181.533 231.5,-151.1224"/>
<polygon fill="#000000" stroke="#000000" points="235.0001,-151 231.5,-141 228.0001,-151 235.0001,-151"/>
</g>
<!-- coeff2epi_wfoutputnode -->
<g id="node3" class="node">
<title>coeff2epi_wfoutputnode</title>
<polygon fill="none" stroke="#000000" points="616,-.5 616,-69.5 853,-69.5 853,-.5 616,-.5"/>
<text text-anchor="middle" x="660.5" y="-48.8" font-family="Times,serif" font-size="14.00" fill="#000000">IN</text>
<polyline fill="none" stroke="#000000" points="616,-35.5 705,-35.5 "/>
<text text-anchor="middle" x="660.5" y="-14.3" font-family="Times,serif" font-size="14.00" fill="#000000">target_ref</text>
<polyline fill="none" stroke="#000000" points="705,-.5 705,-69.5 "/>
<text text-anchor="middle" x="754" y="-54.3" font-family="Times,serif" font-size="14.00" fill="#000000">outputnode</text>
<polyline fill="none" stroke="#000000" points="705,-46.5 803,-46.5 "/>
<text text-anchor="middle" x="754" y="-31.3" font-family="Times,serif" font-size="14.00" fill="#000000">utility</text>
<polyline fill="none" stroke="#000000" points="705,-23.5 803,-23.5 "/>
<text text-anchor="middle" x="754" y="-8.3" font-family="Times,serif" font-size="14.00" fill="#000000"> </text>
<polyline fill="none" stroke="#000000" points="803,-.5 803,-69.5 "/>
<text text-anchor="middle" x="828" y="-31.3" font-family="Times,serif" font-size="14.00" fill="#000000">OUT</text>
</g>
<!-- coeff2epi_wfcoregister&#45;&gt;coeff2epi_wfoutputnode -->
<g id="edge1" class="edge">
<title>coeff2epi_wfcoregister:e&#45;&gt;coeff2epi_wfoutputnode:w</title>
<path fill="none" stroke="#000000" d="M615.5,-135C663.2344,-135 579.5128,-36.408 605.6801,-20.2328"/>
<polygon fill="#000000" stroke="#000000" points="606.5249,-23.6301 615.5,-18 604.9729,-16.8043 606.5249,-23.6301"/>
</g>
</g>
</svg>
